<svg width="22" height="23" viewBox="0 0 22 23" fill="none" xmlns="http://www.w3.org/2000/svg">
<path fill-rule="evenodd" clip-rule="evenodd" d="M21.944 7.3125V20.3125C21.944 20.959 21.6872 21.579 21.2301 22.0361C20.773 22.4932 20.153 22.75 19.5065 22.75H6.50163C6.18146 22.7501 5.86441 22.6871 5.56858 22.5647C5.27276 22.4422 5.00396 22.2627 4.77753 22.0364C4.5511 21.81 4.37148 21.5413 4.24893 21.2455C4.12639 20.9497 4.06331 20.6327 4.06331 20.3125V14.5178C4.459 14.5884 4.86688 14.625 5.28206 14.625C9.09513 14.625 12.1908 11.5302 12.1908 7.71875C12.1908 3.90731 9.09513 0.812502 5.28288 0.812502C5.07325 0.812502 4.86525 0.822252 4.6605 0.840127C4.88935 0.576026 5.17238 0.364296 5.49036 0.219329C5.80833 0.0743622 6.15379 -0.000441797 6.50325 1.96287e-06H14.6307V4.875C14.6307 5.52147 14.8875 6.14146 15.3446 6.59858C15.8017 7.0557 16.4217 7.3125 17.0682 7.3125H21.944ZM8.94075 18.6875V17.875C8.94075 17.6595 8.85515 17.4529 8.70278 17.3005C8.5504 17.1481 8.34374 17.0625 8.12825 17.0625C7.91276 17.0625 7.7061 17.1481 7.55373 17.3005C7.40135 17.4529 7.31575 17.6595 7.31575 17.875V18.6875C7.31575 18.903 7.40135 19.1097 7.55373 19.262C7.7061 19.4144 7.91276 19.5 8.12825 19.5C8.34374 19.5 8.5504 19.4144 8.70278 19.262C8.85515 19.1097 8.94075 18.903 8.94075 18.6875ZM12.1924 18.6875V15.4375C12.1924 15.222 12.1068 15.0154 11.9544 14.863C11.802 14.7106 11.5954 14.625 11.3799 14.625C11.1644 14.625 10.9577 14.7106 10.8054 14.863C10.653 15.0154 10.5674 15.222 10.5674 15.4375V18.6875C10.5674 18.903 10.653 19.1097 10.8054 19.262C10.9577 19.4144 11.1644 19.5 11.3799 19.5C11.5954 19.5 11.802 19.4144 11.9544 19.262C12.1068 19.1097 12.1924 18.903 12.1924 18.6875ZM15.4424 18.6875V16.25C15.4424 16.0345 15.3568 15.8279 15.2044 15.6755C15.052 15.5231 14.8454 15.4375 14.6299 15.4375C14.4144 15.4375 14.2077 15.5231 14.0554 15.6755C13.903 15.8279 13.8174 16.0345 13.8174 16.25V18.6875C13.8174 18.903 13.903 19.1097 14.0554 19.262C14.2077 19.4144 14.4144 19.5 14.6299 19.5C14.8454 19.5 15.052 19.4144 15.2044 19.262C15.3568 19.1097 15.4424 18.903 15.4424 18.6875ZM18.694 18.6875V13C18.694 12.7845 18.6084 12.5779 18.456 12.4255C18.3037 12.2731 18.097 12.1875 17.8815 12.1875C17.666 12.1875 17.4593 12.2731 17.307 12.4255C17.1546 12.5779 17.069 12.7845 17.069 13V18.6875C17.069 18.903 17.1546 19.1097 17.307 19.262C17.4593 19.4144 17.666 19.5 17.8815 19.5C18.097 19.5 18.3037 19.4144 18.456 19.262C18.6084 19.1097 18.694 18.903 18.694 18.6875ZM16.2565 0.0154395C16.8436 0.082593 17.3864 0.36063 17.784 0.797877L21.3111 4.67594C21.5743 4.96681 21.7628 5.31375 21.8628 5.6875H17.069C16.9622 5.68782 16.8564 5.66703 16.7577 5.62631C16.659 5.58559 16.5693 5.52576 16.4938 5.45024C16.4182 5.37473 16.3584 5.28504 16.3177 5.18631C16.277 5.08759 16.2562 4.98179 16.2565 4.875V0.0154395ZM10.5024 8.53125C10.3076 9.77588 9.67469 10.91 8.71772 11.7293C7.76076 12.5487 6.54266 12.9993 5.28288 13C3.88225 12.9994 2.53915 12.4428 1.54861 11.4525C0.558061 10.4623 0.00107643 9.11938 0 7.71875C0.000980899 6.45887 0.451913 5.24076 1.27154 4.28394C2.09117 3.32711 3.22558 2.69449 4.47038 2.50006V6.90625C4.47038 7.33723 4.64158 7.75055 4.94633 8.0553C5.25107 8.36005 5.6644 8.53125 6.09538 8.53125H10.5024ZM6.09538 2.50006C7.20201 2.67309 8.22514 3.19301 9.0173 3.98488C9.80946 4.77675 10.3298 5.79968 10.5032 6.90625H6.09538V2.50006Z" fill="#FF8D1E"/>
</svg>
