<svg width="26" height="26" viewBox="0 0 26 26" fill="none" xmlns="http://www.w3.org/2000/svg">
<path fill-rule="evenodd" clip-rule="evenodd" d="M8.75 11.375V13.7083C8.75 14.4045 9.02656 15.0722 9.51885 15.5645C10.0111 16.0568 10.6788 16.3333 11.375 16.3333H13.7083C14.4045 16.3333 15.0722 16.0568 15.5645 15.5645C16.0568 15.0722 16.3333 14.4045 16.3333 13.7083V11.375C16.3333 10.6788 16.0568 10.0111 15.5645 9.51885C15.0722 9.02656 14.4045 8.75 13.7083 8.75H11.375C10.6788 8.75 10.0111 9.02656 9.51885 9.51885C9.02656 10.0111 8.75 10.6788 8.75 11.375ZM0 2.625V4.95833C0 5.65453 0.276562 6.32221 0.768845 6.81449C1.26113 7.30677 1.92881 7.58333 2.625 7.58333H4.95833C5.65453 7.58333 6.32221 7.30677 6.81449 6.81449C7.30677 6.32221 7.58333 5.65453 7.58333 4.95833V2.625C7.58333 1.92881 7.30677 1.26113 6.81449 0.768845C6.32221 0.276562 5.65453 0 4.95833 0H2.625C1.92881 0 1.26113 0.276562 0.768845 0.768845C0.276562 1.26113 0 1.92881 0 2.625ZM17.5 20.125V22.4583C17.5 23.1545 17.7766 23.8222 18.2688 24.3145C18.7611 24.8068 19.4288 25.0833 20.125 25.0833H22.4583C23.1545 25.0833 23.8222 24.8068 24.3145 24.3145C24.8068 23.8222 25.0833 23.1545 25.0833 22.4583V20.125C25.0833 19.4288 24.8068 18.7611 24.3145 18.2688C23.8222 17.7766 23.1545 17.5 22.4583 17.5H20.125C19.4288 17.5 18.7611 17.7766 18.2688 18.2688C17.7766 18.7611 17.5 19.4288 17.5 20.125Z" fill="#FF8D1E"/>
<path fill-rule="evenodd" clip-rule="evenodd" d="M6.70833 4.66663H21.875C22.2616 4.66724 22.6322 4.82109 22.9055 5.09444C23.1789 5.3678 23.3327 5.73837 23.3333 6.12496V10.2083C23.3327 10.5949 23.1789 10.9655 22.9055 11.2388C22.6322 11.5122 22.2616 11.666 21.875 11.6666H18.375C18.1429 11.6666 17.9204 11.7588 17.7563 11.9229C17.5922 12.087 17.5 12.3096 17.5 12.5416C17.5 12.7737 17.5922 12.9962 17.7563 13.1603C17.9204 13.3244 18.1429 13.4166 18.375 13.4166H21.875C22.7255 13.4166 23.5422 13.0783 24.1442 12.4775C24.7452 11.8752 25.083 11.0592 25.0833 10.2083V6.12496C25.0833 5.27446 24.745 4.45779 24.1442 3.85579C23.5419 3.25472 22.7259 2.91698 21.875 2.91663H6.70833C6.47627 2.91663 6.25371 3.00881 6.08962 3.17291C5.92552 3.337 5.83333 3.55956 5.83333 3.79163C5.83333 4.02369 5.92552 4.24625 6.08962 4.41034C6.25371 4.57444 6.47627 4.66663 6.70833 4.66663ZM13.7083 20.4166H3.20833C2.82175 20.416 2.45117 20.2622 2.17782 19.9888C1.90446 19.7155 1.75062 19.3449 1.75 18.9583V14.875C1.75062 14.4884 1.90446 14.1178 2.17782 13.8444C2.45117 13.5711 2.82175 13.4172 3.20833 13.4166H9.625C9.85707 13.4166 10.0796 13.3244 10.2437 13.1603C10.4078 12.9962 10.5 12.7737 10.5 12.5416C10.5 12.3096 10.4078 12.087 10.2437 11.9229C10.0796 11.7588 9.85707 11.6666 9.625 11.6666H3.20833C2.35783 11.6666 1.54117 12.005 0.939167 12.6058C0.338095 13.2081 0.000357251 14.0241 0 14.875V18.9583C0 19.8088 0.338333 20.6255 0.939167 21.2275C1.54143 21.8285 2.35745 22.1663 3.20833 22.1666H13.7083C13.9404 22.1666 14.163 22.0744 14.3271 21.9103C14.4911 21.7463 14.5833 21.5237 14.5833 21.2916C14.5833 21.0596 14.4911 20.837 14.3271 20.6729C14.163 20.5088 13.9404 20.4166 13.7083 20.4166Z" fill="#FF8D1E"/>
<path fill-rule="evenodd" clip-rule="evenodd" d="M21.3267 14.2567L19.6129 12.5417L21.3267 10.8267C21.4079 10.7455 21.4723 10.6491 21.5162 10.543C21.5602 10.4369 21.5828 10.3232 21.5828 10.2083C21.5828 10.0935 21.5602 9.97977 21.5162 9.87368C21.4723 9.76759 21.4079 9.67119 21.3267 9.58999C21.2455 9.50878 21.1491 9.44437 21.043 9.40043C20.9369 9.35648 20.8232 9.33386 20.7084 9.33386C20.5935 9.33386 20.4798 9.35648 20.3737 9.40043C20.2676 9.44437 20.1712 9.50878 20.09 9.58999L17.7567 11.9233C17.6754 12.0045 17.6109 12.1009 17.5669 12.207C17.523 12.3131 17.5003 12.4268 17.5003 12.5417C17.5003 12.6565 17.523 12.7702 17.5669 12.8763C17.6109 12.9824 17.6754 13.0788 17.7567 13.16L20.09 15.4933C20.1712 15.5745 20.2676 15.6389 20.3737 15.6829C20.4798 15.7268 20.5935 15.7494 20.7084 15.7494C20.8232 15.7494 20.9369 15.7268 21.043 15.6829C21.1491 15.6389 21.2455 15.5745 21.3267 15.4933C21.4079 15.4121 21.4723 15.3157 21.5162 15.2096C21.5602 15.1035 21.5828 14.9898 21.5828 14.875C21.5828 14.7601 21.5602 14.6464 21.5162 14.5403C21.4723 14.4343 21.4079 14.3379 21.3267 14.2567ZM13.16 24.2433L15.4934 21.91C15.5746 21.8288 15.6391 21.7324 15.6831 21.6263C15.7271 21.5202 15.7497 21.4065 15.7497 21.2917C15.7497 21.1768 15.7271 21.0631 15.6831 20.957C15.6391 20.8509 15.5746 20.7545 15.4934 20.6733L13.16 18.34C12.996 18.176 12.7736 18.0839 12.5417 18.0839C12.3098 18.0839 12.0874 18.176 11.9234 18.34C11.7594 18.504 11.6672 18.7264 11.6672 18.9583C11.6672 19.1902 11.7594 19.4127 11.9234 19.5767L13.6372 21.2917L11.9234 23.0066C11.8422 23.0879 11.7777 23.1842 11.7338 23.2903C11.6899 23.3964 11.6672 23.5101 11.6672 23.625C11.6672 23.7398 11.6899 23.8535 11.7338 23.9596C11.7777 24.0657 11.8422 24.1621 11.9234 24.2433C12.0046 24.3245 12.101 24.3889 12.2071 24.4329C12.3131 24.4768 12.4269 24.4994 12.5417 24.4994C12.6565 24.4994 12.7702 24.4768 12.8763 24.4329C12.9824 24.3889 13.0788 24.3245 13.16 24.2433Z" fill="#FF8D1E"/>
</svg>
