<svg width="26" height="30" viewBox="0 0 26 30" fill="none" xmlns="http://www.w3.org/2000/svg">
<path fill-rule="evenodd" clip-rule="evenodd" d="M9.68062 9.07897L15.6179 3.37055C15.7991 3.19632 16.085 3.19831 16.2637 3.37235L16.2639 3.37254L16.2667 3.37525L22.1405 9.0808L22.1435 9.08379L22.3282 9.24911C22.4306 9.3407 22.4827 9.46746 22.4827 9.59479H22.4847V18.0461C22.4847 18.3033 22.2762 18.5118 22.0189 18.5118H17.9295V13.3841H13.9513V18.5118H9.86191C9.6047 18.5118 9.39618 18.3033 9.39618 18.0461V9.54911C9.39618 9.40505 9.46163 9.27621 9.5644 9.1908L9.68062 9.07899V9.07897Z" fill="#FF8D1E"/>
<path fill-rule="evenodd" clip-rule="evenodd" d="M15.9404 1.65886L7.9276 9.2679C7.64863 9.53282 7.20707 9.522 6.94184 9.24317C6.67654 8.96433 6.68738 8.52222 6.96653 8.25709L15.4598 0.191745C15.7291 -0.0639817 16.1517 -0.0638481 16.4209 0.191745L24.9142 8.25709C25.1933 8.52222 25.2042 8.96433 24.9389 9.24317C24.6736 9.522 24.2321 9.53282 23.9531 9.2679L15.9404 1.65886ZM0.465734 21.4056H3.34786V29.3089H0V21.4056H0.465734ZM3.81355 21.768C7.08808 20.5402 9.06133 20.2056 10.2454 20.2809C11.8263 20.3815 12.2121 21.1787 12.2775 21.7687L12.2777 21.7687L12.2809 21.7976C12.339 22.3214 12.3459 22.3846 11.8547 22.6301L7.05591 25.0295C9.21043 25.7678 11.3652 25.7089 13.3362 25.3199C15.4065 24.9113 17.283 24.1383 18.7515 23.5333C20.159 22.9536 21.1962 22.5263 21.7119 22.7167C22.0272 22.8331 22.1633 23.1079 22.0924 23.5888C22.0553 23.84 21.9522 24.1999 21.7735 24.6935L21.6188 24.9045C18.3138 27.4278 15.8905 28.5832 13.471 28.9939C11.0576 29.4037 8.70336 29.065 5.49745 28.6035L5.49711 28.6035C4.95837 28.5259 4.39585 28.4449 3.81357 28.3645L3.81355 21.768Z" fill="#FF8D1E"/>
</svg>
