<svg width="29" height="31" viewBox="0 0 29 31" fill="none" xmlns="http://www.w3.org/2000/svg">
<path fill-rule="evenodd" clip-rule="evenodd" d="M5.85353 16.6736C4.10178 16.6736 2.68172 18.0937 2.68172 19.8455C2.68172 21.5972 4.10178 23.0173 5.85353 23.0173C7.60528 23.0173 9.02534 21.5972 9.02534 19.8455C9.02534 18.0937 7.60528 16.6736 5.85353 16.6736ZM15.7505 6.15995C16.0673 5.84133 16.5825 5.83989 16.9012 6.15677C17.2198 6.47364 17.2212 6.98883 16.9043 7.30745L14.1867 10.0506C13.872 10.3671 13.3616 10.3706 13.0425 10.0601L11.6979 8.74952C11.3758 8.4362 11.3687 7.92102 11.682 7.59889C11.9953 7.27677 12.5105 7.26964 12.8326 7.58295L13.5998 8.33083L15.7505 6.15995ZM20.7806 11.9389C21.971 11.5268 22.5163 9.84833 21.7956 8.81514C21.4923 8.38052 21.4923 7.83002 21.7955 7.39539C22.5164 6.36227 21.971 4.68377 20.7807 4.27158C20.2798 4.0982 19.9562 3.65289 19.9461 3.12302C19.922 1.86352 18.4942 0.826078 17.2889 1.19233C16.7818 1.34645 16.2583 1.17639 15.9387 0.753641C15.1789 -0.251172 13.414 -0.251234 12.6541 0.753578C12.3345 1.17633 11.8109 1.34652 11.3038 1.19239C10.0985 0.826078 8.67066 1.86345 8.6466 3.12295C8.63647 3.65283 8.31297 4.0982 7.8121 4.27158C6.62166 4.68364 6.07622 6.3622 6.79703 7.39533C7.10028 7.82995 7.10035 8.38045 6.7971 8.81508C6.07622 9.8482 6.6216 11.5268 7.81203 11.9389C8.31285 12.1123 8.63647 12.5576 8.6466 13.0875C8.67066 14.347 10.0985 15.3844 11.3038 15.0181C11.8108 14.864 12.3344 15.034 12.6541 15.4568C13.4139 16.4616 15.1788 16.4616 15.9387 15.4568C16.2583 15.0341 16.7818 14.864 17.2889 15.0181C18.4942 15.3844 19.9221 14.347 19.9462 13.0875C19.9562 12.5576 20.2797 12.1123 20.7806 11.9389ZM14.2963 3.55839C11.7851 3.55839 9.74941 5.59414 9.74941 8.10527C9.74941 10.6164 11.7851 12.6521 14.2963 12.6521C16.8075 12.6521 18.8432 10.6164 18.8432 8.10527C18.8432 5.59408 16.8075 3.55839 14.2963 3.55839ZM8.00053 30.4017C8.2446 27.1481 10.9831 24.5616 14.2963 24.5616C17.6096 24.5616 20.348 27.1481 20.5922 30.4017C20.597 30.4622 20.5892 30.523 20.5693 30.5804C20.5493 30.6377 20.5177 30.6903 20.4765 30.7348C20.4352 30.7793 20.3851 30.8147 20.3294 30.8389C20.2738 30.863 20.2137 30.8753 20.153 30.8751H8.43972C8.37903 30.8753 8.31894 30.863 8.26326 30.8389C8.20757 30.8147 8.15751 30.7793 8.11623 30.7348C8.07495 30.6903 8.04335 30.6377 8.02344 30.5804C8.00352 30.523 7.99572 30.4622 8.00053 30.4017ZM14.2963 17.4077C12.4118 17.4077 10.884 18.9354 10.884 20.82C10.884 22.7045 12.4117 24.2321 14.2963 24.2321C16.1808 24.2321 17.7085 22.7045 17.7085 20.82C17.7085 18.9354 16.1808 17.4077 14.2963 17.4077ZM18.641 25.0013C20.003 26.0116 21.0079 27.4841 21.413 29.1922H28.183C28.2395 29.1925 28.2953 29.181 28.3471 29.1586C28.3988 29.1361 28.4454 29.1032 28.4837 29.0618C28.5221 29.0205 28.5515 28.9716 28.57 28.9183C28.5885 28.865 28.5958 28.8084 28.5913 28.7522C28.3644 25.7279 25.8188 23.3236 22.739 23.3236C21.1487 23.3236 19.7008 23.9648 18.641 25.0013ZM0.00128293 28.7522C-0.00318962 28.8084 0.00406124 28.865 0.0225768 28.9183C0.0410924 28.9716 0.0704694 29.0205 0.108849 29.0618C0.147229 29.1032 0.193775 29.1361 0.245543 29.1586C0.297311 29.181 0.353174 29.1925 0.409595 29.1922H7.17966C7.58472 27.4842 8.58966 26.0116 9.9516 25.0014C8.89185 23.9648 7.44397 23.3236 5.8536 23.3236C2.77372 23.3236 0.228158 25.7279 0.00128293 28.7522ZM22.739 16.6736C20.9873 16.6736 19.5672 18.0937 19.5672 19.8455C19.5672 21.5972 20.9873 23.0173 22.739 23.0173C24.4908 23.0173 25.9108 21.5972 25.9108 19.8455C25.9108 18.0937 24.4908 16.6736 22.739 16.6736Z" fill="#FF8D1E"/>
</svg>
