<svg width="20" height="26" viewBox="0 0 20 26" fill="none" xmlns="http://www.w3.org/2000/svg">
<path d="M2.28516 26H17.5195C18.7796 26 19.8047 24.9749 19.8047 23.7148V7.61719H14.4727C13.2126 7.61719 12.1875 6.59212 12.1875 5.33203V0H2.28516C1.02507 0 0 1.02507 0 2.28516V23.7148C0 24.9749 1.02507 26 2.28516 26ZM5.33203 10.7148H14.4727C14.8937 10.7148 15.2344 11.0555 15.2344 11.4766C15.2344 11.8976 14.8937 12.2383 14.4727 12.2383H5.33203C4.911 12.2383 4.57031 11.8976 4.57031 11.4766C4.57031 11.0555 4.911 10.7148 5.33203 10.7148ZM5.33203 13.7617H14.4727C14.8937 13.7617 15.2344 14.1024 15.2344 14.5234C15.2344 14.9445 14.8937 15.2852 14.4727 15.2852H5.33203C4.911 15.2852 4.57031 14.9445 4.57031 14.5234C4.57031 14.1024 4.911 13.7617 5.33203 13.7617ZM5.33203 16.8086H14.4727C14.8937 16.8086 15.2344 17.1493 15.2344 17.5703C15.2344 17.9913 14.8937 18.332 14.4727 18.332H5.33203C4.911 18.332 4.57031 17.9913 4.57031 17.5703C4.57031 17.1493 4.911 16.8086 5.33203 16.8086ZM5.33203 19.8555H11.4258C11.8468 19.8555 12.1875 20.1962 12.1875 20.6172C12.1875 21.0382 11.8468 21.3789 11.4258 21.3789H5.33203C4.911 21.3789 4.57031 21.0382 4.57031 20.6172C4.57031 20.1962 4.911 19.8555 5.33203 19.8555Z" fill="#FF8D1E"/>
<path d="M14.4727 6.09372H19.3584L13.7109 0.446289V5.332C13.7109 5.75227 14.0524 6.09372 14.4727 6.09372Z" fill="#FF8D1E"/>
</svg>
