<svg width="32" height="24" viewBox="0 0 32 24" fill="none" xmlns="http://www.w3.org/2000/svg">
<path d="M30 0.00750017H21C20.175 0.00750017 19.5 0.6825 19.5 1.5075V5.2575C16.59 5.2575 14.1525 7.3425 13.6125 10.1025L13.29 9.9375L11.0475 6.015C10.7847 5.55637 10.4059 5.17494 9.94911 4.90902C9.4923 4.64309 8.97357 4.50203 8.445 4.5H0V6H8.445C8.985 6 9.48 6.2925 9.75 6.7575L11.82 10.38L10.9425 11.2575H0V15.7575H4.5C4.9125 15.7575 5.25 16.095 5.25 16.5075C5.25 16.92 4.9125 17.2575 4.5 17.2575H0V21.7575H6.75V22.5075C6.75 23.3325 7.425 24.0075 8.25 24.0075H12C12.825 24.0075 13.5 23.3325 13.5 22.5075V21.7575C15.1575 21.7575 16.5 20.415 16.5 18.7575V13.395C16.5 12.3225 15.9375 11.355 15.0225 10.815C15.1312 9.70257 15.6498 8.67034 16.4773 7.91903C17.3049 7.16772 18.3823 6.75103 19.5 6.75V10.5C19.5 11.325 20.175 12 21 12H30C30.825 12 31.5 11.325 31.5 10.5V1.5C31.5 0.675 30.825 0 30 0V0.00750017ZM11.25 18.0075H7.5C7.5 16.35 8.8425 15.0075 10.5 15.0075H11.25C12.075 15.0075 12.75 15.6825 12.75 16.5075C12.75 17.3325 12.075 18.0075 11.25 18.0075ZM27.6225 6.42L26.1225 8.67C25.98 8.8875 25.74 9.0075 25.5 9.0075C25.3575 9.0075 25.215 8.97 25.0875 8.88C24.9226 8.76865 24.8081 8.59687 24.7688 8.4018C24.7295 8.20672 24.7686 8.00402 24.8775 7.8375L25.5975 6.75H24C23.7225 6.75 23.4675 6.6 23.34 6.3525C23.2125 6.105 23.2275 5.8125 23.3775 5.58L24.8775 3.33C24.9879 3.16391 25.1598 3.04847 25.3553 3.00909C25.5508 2.96971 25.7539 3.0096 25.92 3.12C26.0861 3.2304 26.2015 3.40225 26.2409 3.59776C26.2803 3.79326 26.2404 3.99641 26.13 4.1625L25.41 5.25H27.0075C27.285 5.25 27.54 5.4 27.6675 5.6475C27.795 5.895 27.78 6.1875 27.63 6.42H27.6225Z" fill="#FF8D1E"/>
<path d="M28.5 22.5076H27.75V13.5076H23.25V22.5076H22.5C22.0875 22.5076 21.75 22.8451 21.75 23.2576C21.75 23.6701 22.0875 24.0076 22.5 24.0076H28.5C28.9125 24.0076 29.25 23.6701 29.25 23.2576C29.25 22.8451 28.9125 22.5076 28.5 22.5076Z" fill="#FF8D1E"/>
</svg>
