<svg width="32" height="32" viewBox="0 0 32 32" fill="none" xmlns="http://www.w3.org/2000/svg">
<path d="M29.8998 13.7855H1.48451C1.09068 13.7859 0.713095 13.9425 0.43473 14.2211C0.156365 14.4997 -5.03035e-08 14.8774 7.68167e-08 15.2712C-6.26496e-05 15.4662 0.0382907 15.6593 0.112869 15.8394C0.187447 16.0196 0.296789 16.1833 0.434648 16.3212C0.572507 16.459 0.736181 16.5684 0.916319 16.643C1.09646 16.7176 1.28953 16.756 1.48451 16.756H29.8998C30.0948 16.7561 30.288 16.7178 30.4683 16.6432C30.6485 16.5686 30.8123 16.4593 30.9503 16.3213C31.0882 16.1834 31.1976 16.0197 31.2723 15.8395C31.3469 15.6592 31.3853 15.4661 31.3852 15.271C31.3851 14.8771 31.2286 14.4993 30.95 14.2208C30.6715 13.9422 30.2937 13.7857 29.8998 13.7855ZM28.65 12.896C28.65 6.23169 23.5955 0.65368 16.9637 0C18.6788 0.864491 21.803 2.98334 22.5212 7.22486C22.541 7.34124 22.5138 7.46074 22.4456 7.55708C22.3774 7.65343 22.2737 7.71873 22.1573 7.73864H22.0819C21.9755 7.74156 21.8716 7.7063 21.789 7.63926C21.7063 7.57222 21.6504 7.47781 21.6314 7.37312C20.8349 2.60374 16.5208 0.728168 15.6926 0.409445C14.8644 0.728407 10.5494 2.60374 9.75387 7.37312C9.73614 7.47685 9.68235 7.57098 9.60197 7.63891C9.5216 7.70683 9.41981 7.74418 9.31458 7.74437H9.24009C9.18072 7.73615 9.12362 7.71601 9.07223 7.68517C9.02083 7.65433 8.9762 7.61342 8.94101 7.5649C8.90582 7.51638 8.88081 7.46124 8.86746 7.40281C8.85412 7.34438 8.85272 7.28385 8.86336 7.22486C9.57195 2.98334 12.6961 0.864729 14.413 0C7.78424 0.658455 2.73338 6.2336 2.73433 12.896H28.65ZM15.6926 24.8742C11.6984 24.8742 8.46107 21.6381 8.4594 17.6436H1.33267V19.1964L5.24949 20.4704C5.4913 21.3755 5.85293 22.2442 6.3248 23.0536L4.50987 26.7655L6.63612 28.892L10.3032 27.0267C11.1165 27.4952 11.9884 27.8537 12.896 28.0927L14.2377 32.0002H17.2445L18.5213 28.0834C19.4268 27.8412 20.2966 27.4809 21.1083 27.0119L24.8198 28.8202L26.9463 26.6966L25.0781 23.0271C25.5454 22.2145 25.9038 21.3439 26.1441 20.4379L30.0519 19.1026V17.6439H22.9258C22.9258 21.6373 19.6878 24.8742 15.6955 24.8742H15.6926Z" fill="#FF8D1E"/>
</svg>
