<svg width="30" height="30" viewBox="0 0 30 30" fill="none" xmlns="http://www.w3.org/2000/svg">
<path fill-rule="evenodd" clip-rule="evenodd" d="M3.04206 12.1253L8.92319 6.97806C8.83959 6.74937 8.79696 6.50774 8.79725 6.26425C8.79725 5.1175 9.72688 4.18794 10.8736 4.18794C11.9984 4.18794 12.9142 5.08231 12.9489 6.19869L17.5971 7.82606C17.9779 7.379 18.5449 7.09544 19.1782 7.09544C19.5228 7.0949 19.8622 7.18057 20.1653 7.34462L25.5239 2.76619C25.446 2.54455 25.4062 2.31127 25.4064 2.07631C25.4064 0.929625 26.3361 0 27.4827 0C28.6296 0 29.5592 0.929625 29.5592 2.07631C29.5592 3.22312 28.6296 4.15275 27.4827 4.15275C27.1381 4.15328 26.7988 4.06762 26.4958 3.90356L21.1371 8.482C21.215 8.70364 21.2548 8.93692 21.2546 9.17188C21.2546 10.3186 20.3249 11.2482 19.1781 11.2482C18.0534 11.2482 17.1376 10.3538 17.1029 9.2375L12.4547 7.61013C12.0738 8.05719 11.5069 8.34075 10.8736 8.34075C10.5371 8.34122 10.2056 8.25954 9.90788 8.10281L4.02675 13.2501C4.11035 13.4788 4.15298 13.7204 4.15269 13.9639C4.15269 15.1107 3.22306 16.0402 2.07625 16.0402C0.929625 16.0401 0 15.1106 0 13.9638C0 12.8169 0.929625 11.8874 2.07631 11.8874C2.41279 11.8869 2.7443 11.9686 3.04206 12.1253ZM25.9032 8.25319C25.3869 8.25319 24.9657 8.67431 24.9657 9.19069V28.3237C24.9657 28.8401 25.3869 29.2612 25.9032 29.2612H29.0625C29.5789 29.2612 30.0001 28.8401 30.0001 28.3237V9.19069C30.0001 8.67431 29.579 8.25319 29.0625 8.25319H25.9032ZM17.5986 15.8988C17.0822 15.8988 16.6611 16.3199 16.6611 16.8363V28.5197C16.6611 29.0361 17.0823 29.4572 17.5986 29.4572H20.7579C21.2743 29.4572 21.6954 29.0361 21.6954 28.5197V16.8363C21.6954 16.3199 21.2743 15.8988 20.7579 15.8988H17.5986ZM9.294 13.154C8.77756 13.154 8.35644 13.5751 8.35644 14.0915V28.7157C8.35644 29.2321 8.7775 29.6532 9.294 29.6532H12.4532C12.9696 29.6532 13.3907 29.2321 13.3907 28.7157V14.0915C13.3907 13.5751 12.9696 13.154 12.4532 13.154H9.294ZM0.989375 21.2238H4.14856C4.66494 21.2238 5.08612 21.6449 5.08612 22.1613V28.9116C5.08612 29.428 4.66494 29.8491 4.14856 29.8491H0.989375C0.473 29.8491 0.0518125 29.428 0.0518125 28.9116V22.1613C0.051875 21.6449 0.473063 21.2238 0.989375 21.2238Z" fill="#FF8D1E"/>
</svg>
