<svg width="30" height="31" viewBox="0 0 30 31" fill="none" xmlns="http://www.w3.org/2000/svg">
<path d="M24.1058 29.8928V17.7143C24.1058 17.1029 23.6261 16.6072 23.0343 16.6072H6.96298C6.37123 16.6072 5.89154 17.1029 5.89154 17.7143V29.8928C5.89154 30.5043 6.37123 31 6.96298 31H23.0343C23.6261 31 24.1058 30.5043 24.1058 29.8928ZM21.963 29.8928H8.57018C7.97843 29.8928 7.49874 29.3971 7.49874 28.7857V18.8214C7.49874 18.6746 7.55518 18.5338 7.65564 18.43C7.7561 18.3262 7.89235 18.2679 8.03443 18.2679C8.1765 18.2679 8.31276 18.3262 8.41322 18.43C8.51368 18.5338 8.57012 18.6746 8.57012 18.8214V28.7857H9.64156V24.3571C9.64156 23.7456 10.1213 23.2499 10.713 23.2499H11.7845C12.3762 23.2499 12.8559 23.7456 12.8559 24.3571V28.7857H13.9273V21.5893C13.9273 20.9778 14.407 20.4821 14.9988 20.4821H16.0702C16.662 20.4821 17.1417 20.9778 17.1417 21.5893V28.7857H18.2131V23.8035C18.2131 23.1921 18.6928 22.6964 19.2846 22.6964H20.356C20.9478 22.6964 21.4274 23.1921 21.4274 23.8035V28.7857H21.9631C22.259 28.7857 22.4988 29.0335 22.4988 29.3392C22.4988 29.645 22.2588 29.8928 21.963 29.8928Z" fill="#FF8D1E"/>
<path d="M10.713 24.3571H11.7845V28.7857H10.713V24.3571ZM19.2844 23.8035H20.3558V28.7857H19.2844V23.8035ZM27.4653 20.2607C27.5774 20.228 27.6763 20.1585 27.7467 20.0626C27.8172 19.9667 27.8555 19.8497 27.8558 19.7292V10.5179L19.8255 12.8429C18.7251 13.1589 17.5558 12.6777 16.9669 11.6666L15.5344 9.19653V15.5H23.0344C24.2179 15.5 25.1772 16.4914 25.1772 17.7143V20.9205L27.4653 20.2607ZM14.463 15.5V9.19653L13.0305 11.6644C12.4435 12.6779 11.273 13.1605 10.1719 12.8429L2.1416 10.5179V19.7292C2.14233 19.8492 2.18075 19.9657 2.25109 20.0611C2.32142 20.1566 2.41986 20.2258 2.53158 20.2585L4.82012 20.9205V17.7143C4.82012 16.4914 5.7795 15.5 6.96294 15.5H14.463ZM14.9987 21.5892H16.0702V28.7856H14.9987V21.5892Z" fill="#FF8D1E"/>
<path d="M1.07054 9.05596L10.4615 11.7745C10.7708 11.8634 11.0997 11.8451 11.3979 11.7224C11.696 11.5998 11.9471 11.3795 12.1126 11.0953L14.1794 7.53531L1.85803 3.96978L0.209653 6.81731C-0.207323 7.53427 0.017048 8.46478 0.710878 8.89566C0.823261 8.96553 0.944234 9.01944 1.07054 9.05596ZM17.886 11.0953C18.0516 11.3794 18.3027 11.5995 18.6009 11.7222C18.899 11.8448 19.2279 11.8632 19.5371 11.7745L28.9276 9.05596C29.7072 8.82969 30.1617 7.99317 29.9427 7.1876C29.9075 7.05782 29.8556 6.93349 29.7885 6.8179L28.1422 3.96978L15.8208 7.53531L17.886 11.0953ZM26.4204 3.31822L15.2862 0.0411118C15.0983 -0.0137039 14.8993 -0.0137039 14.7114 0.0411118L3.57767 3.31822L14.9991 6.62244L26.4204 3.31822Z" fill="#FF8D1E"/>
</svg>
