<svg width="32" height="32" viewBox="0 0 32 32" fill="none" xmlns="http://www.w3.org/2000/svg">
<path fill-rule="evenodd" clip-rule="evenodd" d="M13.9463 7.07285L13.6809 8.2641C13.055 8.43724 12.4529 8.68691 11.8882 9.00748L10.8563 8.35167C10.7602 8.2906 10.6462 8.26413 10.5331 8.27663C10.42 8.28913 10.3145 8.33985 10.2341 8.42042L8.26446 10.3898C8.18463 10.4706 8.13447 10.576 8.12216 10.6889C8.10985 10.8018 8.1361 10.9156 8.19665 11.0117L8.85415 12.0425C8.53286 12.6065 8.28324 13.2085 8.11109 13.8344L6.91978 14.0992C6.80858 14.1238 6.70909 14.1856 6.63777 14.2743C6.56646 14.3631 6.52759 14.4736 6.52759 14.5875V17.373C6.52754 17.4868 6.5664 17.5973 6.63773 17.6861C6.70906 17.7748 6.80857 17.8365 6.91978 17.861L8.11096 18.126C8.2829 18.752 8.53253 19.354 8.85403 19.9179L8.19653 20.9485C8.13598 21.0446 8.10972 21.1583 8.12204 21.2712C8.13435 21.3841 8.1845 21.4896 8.26434 21.5704L10.234 23.5397C10.3144 23.6202 10.4199 23.6709 10.533 23.6834C10.6461 23.6959 10.7601 23.6695 10.8562 23.6085L11.8882 22.953C12.4531 23.2729 13.0552 23.5225 13.6809 23.696L13.9463 24.8872C13.9707 24.9981 14.0323 25.0973 14.1207 25.1685C14.2092 25.2396 14.3193 25.2785 14.4328 25.2785H17.2193C17.3328 25.2785 17.4429 25.2396 17.5314 25.1685C17.6198 25.0973 17.6814 24.9981 17.7058 24.8872L17.9712 23.696C18.5967 23.5221 19.1987 23.2726 19.7639 22.953L20.793 23.6084C20.889 23.6696 21.003 23.6962 21.1162 23.6836C21.2293 23.6711 21.3348 23.6203 21.4152 23.5397L23.3848 21.5703C23.4653 21.4899 23.5159 21.3844 23.5282 21.2713C23.5406 21.1582 23.5139 21.0443 23.4527 20.9484L22.7981 19.918C23.1182 19.3534 23.3677 18.7516 23.5411 18.1261L24.7323 17.861C24.8435 17.8366 24.943 17.7749 25.0144 17.6861C25.0857 17.5974 25.1246 17.4869 25.1245 17.373V14.5874C25.1245 14.4735 25.0857 14.3631 25.0143 14.2743C24.943 14.1855 24.8435 14.1237 24.7323 14.0992L23.5411 13.8344C23.3679 13.2088 23.1184 12.607 22.7981 12.0425L23.4527 11.0117C23.5139 10.9159 23.5406 10.8019 23.5282 10.6889C23.5159 10.5758 23.4653 10.4703 23.3848 10.3899L21.4152 8.42048C21.3348 8.33981 21.2293 8.28902 21.1162 8.27652C21.003 8.26401 20.889 8.29055 20.793 8.35173L19.7639 9.00754C19.1989 8.68747 18.5968 8.43782 17.9712 8.26417L17.7058 7.07292C17.6813 6.96209 17.6198 6.86293 17.5313 6.79184C17.4429 6.72075 17.3328 6.68199 17.2193 6.68198H14.4328C14.3193 6.68199 14.2092 6.72075 14.1208 6.79183C14.0323 6.86292 13.9707 6.96202 13.9463 7.07285ZM11.7525 15.9805C11.7524 15.1747 11.9912 14.387 12.4388 13.717C12.8864 13.047 13.5227 12.5248 14.2671 12.2164C15.0115 11.908 15.8307 11.8274 16.621 11.9846C17.4112 12.1418 18.1371 12.5299 18.7068 13.0997C19.2765 13.6695 19.6645 14.3955 19.8215 15.1858C19.9786 15.9761 19.8977 16.7953 19.5892 17.5396C19.2807 18.284 18.7583 18.9201 18.0882 19.3676C17.4181 19.815 16.6304 20.0537 15.8246 20.0534C14.745 20.0517 13.7101 19.622 12.9468 18.8585C12.1835 18.0951 11.754 17.0601 11.7525 15.9805ZM15.8246 12.9065C16.4325 12.9063 17.0268 13.0864 17.5324 13.424C18.0379 13.7616 18.432 14.2415 18.6648 14.8031C18.8976 15.3646 18.9586 15.9826 18.8402 16.5789C18.7217 17.1751 18.4291 17.7229 17.9994 18.1528C17.5696 18.5828 17.022 18.8756 16.4258 18.9944C15.8296 19.1131 15.2116 19.0523 14.6499 18.8198C14.0883 18.5873 13.6082 18.1934 13.2703 17.688C12.9325 17.1826 12.7522 16.5884 12.7521 15.9805C12.7532 15.1658 13.0772 14.3848 13.6532 13.8086C14.2291 13.2324 15.0099 12.908 15.8246 12.9065ZM29.742 13.5122C30.3416 13.5263 30.9123 13.7727 31.3338 14.1995C31.7552 14.6263 31.9943 15.2001 32.0008 15.7999C32.0073 16.3996 31.7806 16.9785 31.3685 17.4143C30.9564 17.8501 30.3912 18.1088 29.792 18.1359C29.4679 20.2274 28.679 22.2196 27.4833 23.9659C27.8904 24.3977 28.1159 24.9695 28.1133 25.5629C28.1107 26.1564 27.88 26.7261 27.4691 27.1543C27.0582 27.5825 26.4985 27.8363 25.9056 27.8634C25.3128 27.8904 24.7322 27.6886 24.284 27.2996C22.5688 28.5818 20.5845 29.4574 18.4812 29.8602C18.4378 30.4316 18.1839 30.9665 17.7687 31.3613C17.3535 31.7561 16.8064 31.9827 16.2336 31.9971C15.6608 32.0116 15.1031 31.8129 14.6684 31.4395C14.2338 31.0662 13.9532 30.5448 13.8812 29.9764C11.7158 29.6755 9.64968 28.8765 7.84528 27.6422C7.40001 27.98 6.84755 28.1453 6.28992 28.1076C5.73229 28.0698 5.20716 27.8315 4.81153 27.4367V27.4362C4.4293 27.0532 4.19319 26.5485 4.14417 26.0097C4.09514 25.4708 4.2363 24.9318 4.54315 24.4862C3.20267 22.7103 2.30141 20.6424 1.91303 18.4515C1.38258 18.3586 0.901188 18.0835 0.551869 17.6736C0.20255 17.2637 0.00719891 16.7448 -0.000496105 16.2064C-0.00819112 15.6679 0.172252 15.1436 0.509717 14.7239C0.847182 14.3042 1.32051 14.0155 1.84809 13.9074C2.17426 11.7006 3.01905 9.6026 4.31315 7.78554C3.99676 7.33972 3.84835 6.79631 3.89422 6.25156C3.9401 5.7068 4.17728 5.19586 4.56378 4.80923C4.94781 4.42575 5.4544 4.18943 5.995 4.14156C6.5356 4.09369 7.07583 4.23732 7.52128 4.54735C9.30046 3.25392 11.3572 2.39397 13.5275 2.03604C13.5954 1.47464 13.8665 0.957524 14.2896 0.582388C14.7128 0.207253 15.2586 7.69584e-05 15.8241 2.14362e-08C16.3896 -7.69156e-05 16.9355 0.206951 17.3588 0.581971C17.782 0.956991 18.0533 1.47403 18.1213 2.03542C20.2469 2.38558 22.2641 3.21738 24.0188 4.46717C24.4592 4.07694 25.0316 3.86912 25.6198 3.88597C26.208 3.90282 26.7676 4.14309 27.1849 4.55789C27.6022 4.97269 27.8459 5.53088 27.8663 6.11892C27.8866 6.70697 27.6823 7.2807 27.2947 7.72342C28.534 9.4452 29.3704 11.4236 29.742 13.5122ZM18.0242 3.03354C19.9725 3.36487 21.821 4.13137 23.432 5.27598C23.3045 5.56661 23.2393 5.88069 23.2403 6.19804C23.2404 6.58285 23.3365 6.96156 23.5198 7.29989C23.7031 7.63821 23.9679 7.92547 24.2903 8.13564C24.6126 8.34582 24.9823 8.47228 25.3658 8.50357C25.7494 8.53487 26.1346 8.47 26.4868 8.31485C27.6405 9.9178 28.4176 11.7604 28.7602 13.7055C28.3435 13.8869 27.9895 14.1872 27.7425 14.5687C27.4955 14.9502 27.3665 15.396 27.3715 15.8505C27.3766 16.3049 27.5154 16.7478 27.7708 17.1237C28.0262 17.4997 28.3867 17.792 28.8073 17.9642C28.5076 19.9158 27.773 21.775 26.6578 23.4044C26.2303 23.2342 25.7618 23.1953 25.312 23.2927C24.8623 23.3901 24.4518 23.6194 24.1331 23.9513C23.8143 24.2831 23.6018 24.7025 23.5226 25.1558C23.4434 25.6091 23.5012 26.0757 23.6885 26.496C22.1071 27.6799 20.2787 28.4913 18.3398 28.8697C18.1703 28.4202 17.8651 28.0346 17.4666 27.7663C17.068 27.4981 16.5959 27.3604 16.1157 27.3726C15.6354 27.3847 15.1709 27.5459 14.7864 27.8339C14.4019 28.1219 14.1165 28.5224 13.9699 28.9799C12.0093 28.7007 10.1373 27.9812 8.49434 26.8755C8.72775 26.4308 8.81013 25.9223 8.72903 25.4268C8.64793 24.9312 8.40777 24.4754 8.04481 24.1284C7.68185 23.7814 7.21581 23.5619 6.71709 23.503C6.21838 23.4442 5.71407 23.5493 5.28034 23.8024C4.09488 22.2058 3.2873 20.3609 2.91846 18.4068C3.4146 18.2728 3.852 17.9775 4.16162 17.5673C4.47124 17.1571 4.63544 16.6555 4.62831 16.1417C4.62118 15.6278 4.44312 15.131 4.12224 14.7295C3.80137 14.3281 3.35594 14.045 2.85628 13.9249C3.16587 11.9589 3.92022 10.0895 5.06184 8.45929C5.50357 8.70852 6.01497 8.80566 6.51732 8.73576C7.01966 8.66586 7.48512 8.4328 7.84203 8.07244C8.19893 7.71209 8.42752 7.24442 8.49259 6.74142C8.55766 6.23842 8.45561 5.72798 8.20215 5.28867C9.81699 4.13637 11.672 3.36515 13.6278 3.03298C13.7795 3.4964 14.0736 3.90005 14.4684 4.18628C14.8631 4.4725 15.3382 4.62666 15.8258 4.62672C16.3134 4.62678 16.7886 4.47275 17.1834 4.18663C17.5782 3.9005 17.8725 3.49692 18.0242 3.03354Z" fill="#FF8D1E"/>
</svg>
