<svg width="28" height="27" viewBox="0 0 28 27" fill="none" xmlns="http://www.w3.org/2000/svg">
<path d="M26.5146 22.062C26.198 21.9269 25.8573 21.8572 25.5131 21.857H2.48009C-0.805913 21.945 -0.847413 26.7525 2.48009 26.8635H25.5131C26.0853 26.8573 26.6383 26.6559 27.0804 26.2925C27.5225 25.9291 27.8272 25.4256 27.9441 24.8654C28.0609 24.3051 27.9829 23.7218 27.7229 23.212C27.463 22.7022 27.0366 22.2964 26.5146 22.062ZM4.34759 24.861C4.21746 24.8576 4.09378 24.8037 4.00272 24.7107C3.91165 24.6176 3.86037 24.4928 3.85972 24.3627C3.85907 24.2325 3.90911 24.1072 3.99923 24.0133C4.08936 23.9194 4.2125 23.8642 4.34259 23.8595C4.47271 23.8629 4.5964 23.9168 4.68746 24.0098C4.77852 24.1029 4.8298 24.2277 4.83045 24.3578C4.8311 24.488 4.78107 24.6133 4.69094 24.7072C4.60081 24.8011 4.47767 24.8563 4.34759 24.861ZM8.21309 24.861C8.08028 24.861 7.95291 24.8082 7.859 24.7143C7.76509 24.6204 7.71234 24.4931 7.71234 24.3603C7.71234 24.2274 7.76509 24.1001 7.859 24.0062C7.95291 23.9123 8.08028 23.8595 8.21309 23.8595C8.34589 23.8595 8.47326 23.9123 8.56717 24.0062C8.66108 24.1001 8.71384 24.2274 8.71384 24.3603C8.71384 24.4931 8.66108 24.6204 8.56717 24.7143C8.47326 24.8082 8.34589 24.861 8.21309 24.861ZM12.0736 24.861C11.9435 24.8576 11.8198 24.8037 11.7287 24.7107C11.6377 24.6176 11.5864 24.4928 11.5857 24.3627C11.5851 24.2325 11.6351 24.1072 11.7252 24.0133C11.8154 23.9194 11.9385 23.8642 12.0686 23.8595C12.1987 23.8629 12.3224 23.9168 12.4135 24.0098C12.5045 24.1029 12.5558 24.2277 12.5565 24.3578C12.5571 24.488 12.5071 24.6133 12.4169 24.7072C12.3268 24.8011 12.2037 24.8563 12.0736 24.861ZM15.9396 24.861C15.8068 24.861 15.6794 24.8082 15.5855 24.7143C15.4916 24.6204 15.4388 24.4931 15.4388 24.3603C15.4388 24.2274 15.4916 24.1001 15.5855 24.0062C15.6794 23.9123 15.8068 23.8595 15.9396 23.8595C16.0724 23.8595 16.1998 23.9123 16.2937 24.0062C16.3876 24.1001 16.4403 24.2274 16.4403 24.3603C16.4403 24.4931 16.3876 24.6204 16.2937 24.7143C16.1998 24.8082 16.0724 24.861 15.9396 24.861ZM19.7996 24.861C19.6695 24.8576 19.5458 24.8037 19.4547 24.7107C19.3637 24.6176 19.3124 24.4928 19.3117 24.3627C19.3111 24.2325 19.3611 24.1072 19.4512 24.0133C19.5414 23.9194 19.6645 23.8642 19.7946 23.8595C19.9247 23.8629 20.0484 23.9168 20.1395 24.0098C20.2305 24.1029 20.2818 24.2277 20.2825 24.3578C20.2831 24.488 20.2331 24.6133 20.1429 24.7072C20.0528 24.8011 19.9297 24.8563 19.7996 24.861ZM23.6656 24.861C23.5355 24.8576 23.4118 24.8037 23.3207 24.7107C23.2297 24.6176 23.1784 24.4928 23.1777 24.3627C23.1771 24.2325 23.2271 24.1072 23.3172 24.0133C23.4074 23.9194 23.5305 23.8642 23.6606 23.8595C23.7907 23.8629 23.9144 23.9168 24.0055 24.0098C24.0965 24.1029 24.1478 24.2277 24.1485 24.3578C24.1491 24.488 24.0991 24.6133 24.0089 24.7072C23.9188 24.8011 23.7957 24.8563 23.6656 24.861ZM19.5046 16.3485V20.855H25.5131C25.8521 20.8554 26.1894 20.9042 26.5146 21V16.3485C26.5148 16.2827 26.502 16.2175 26.4768 16.1566C26.4517 16.0958 26.4148 16.0405 26.3683 15.994C26.3217 15.9475 26.2664 15.9106 26.2055 15.8856C26.1446 15.8605 26.0794 15.8477 26.0136 15.848H20.0051C19.9393 15.8478 19.8741 15.8606 19.8133 15.8857C19.7525 15.9108 19.6973 15.9476 19.6507 15.9942C19.6042 16.0407 19.5674 16.0959 19.5423 16.1567C19.5172 16.2175 19.5044 16.2827 19.5046 16.3485ZM8.48859 20.855V16.3485C8.48878 16.2827 8.47597 16.2175 8.45089 16.1567C8.42581 16.0959 8.38895 16.0407 8.34243 15.9942C8.29592 15.9476 8.24067 15.9108 8.17985 15.8857C8.11904 15.8606 8.05387 15.8478 7.98809 15.848H1.97959C1.91376 15.8477 1.84854 15.8605 1.78767 15.8856C1.7268 15.9106 1.67148 15.9475 1.62491 15.994C1.57835 16.0405 1.54144 16.0958 1.51633 16.1566C1.49122 16.2175 1.47839 16.2827 1.47859 16.3485V21.0005C1.80389 20.9051 2.14108 20.8563 2.48009 20.8555L8.48859 20.855ZM17.0011 15.848H10.9921C10.9263 15.8478 10.8611 15.8606 10.8003 15.8857C10.7395 15.9108 10.6843 15.9476 10.6377 15.9942C10.5912 16.0407 10.5544 16.0959 10.5293 16.1567C10.5042 16.2175 10.4914 16.2827 10.4916 16.3485V20.855H17.5016V16.3485C17.5018 16.2827 17.489 16.2175 17.4639 16.1567C17.4388 16.0959 17.402 16.0407 17.3554 15.9942C17.3089 15.9476 17.2537 15.9108 17.1929 15.8857C17.132 15.8606 17.0669 15.8478 17.0011 15.848ZM7.23709 8.818C7.81609 8.773 8.40759 8.878 8.64909 9.474C8.90409 10.065 8.55559 10.5655 8.11309 10.936C8.01935 11.0306 7.96676 11.1583 7.96676 11.2915C7.96676 11.4247 8.01935 11.5524 8.11309 11.647L9.61009 13.144C9.70466 13.2377 9.83243 13.2903 9.96559 13.2903C10.0987 13.2903 10.2265 13.2377 10.3211 13.144L10.6216 12.839C10.7716 12.6935 10.9609 12.595 11.1662 12.5556C11.3715 12.5163 11.5838 12.5379 11.7769 12.6177C11.9701 12.6975 12.1357 12.8321 12.2534 13.0049C12.371 13.1776 12.4356 13.381 12.4391 13.59V14.02C12.4388 14.0859 12.4516 14.1511 12.4767 14.212C12.5018 14.2729 12.5387 14.3283 12.5852 14.3749C12.6318 14.4214 12.6871 14.4583 12.748 14.4834C12.809 14.5085 12.8742 14.5213 12.9401 14.521H15.0531C15.1189 14.5212 15.184 14.5084 15.2449 14.4833C15.3057 14.4582 15.3609 14.4214 15.4074 14.3749C15.454 14.3283 15.4908 14.2731 15.5159 14.2123C15.541 14.1515 15.5538 14.0863 15.5536 14.0205V13.5895C15.557 13.3804 15.6215 13.1769 15.7392 13.004C15.8569 12.8312 16.0226 12.6965 16.2158 12.6167C16.4091 12.5369 16.6215 12.5153 16.8269 12.5547C17.0323 12.5941 17.2216 12.6928 17.3716 12.8385L17.6716 13.144C17.7662 13.2377 17.8939 13.2903 18.0271 13.2903C18.1602 13.2903 18.288 13.2377 18.3826 13.144L19.8801 11.647C19.9738 11.5524 20.0264 11.4247 20.0264 11.2915C20.0264 11.1583 19.9738 11.0306 19.8801 10.936L19.5746 10.6355C19.429 10.4855 19.3305 10.2962 19.2912 10.0909C19.2519 9.88563 19.2735 9.67333 19.3533 9.48016C19.4331 9.28699 19.5677 9.12138 19.7405 9.00373C19.9132 8.88607 20.1166 8.82152 20.3256 8.818H20.7561C20.8889 8.81774 21.0162 8.76487 21.1101 8.67097C21.204 8.57707 21.2568 8.4498 21.2571 8.317V6.204C21.2567 6.0713 21.2038 5.94415 21.1099 5.85036C21.016 5.75657 20.8888 5.70377 20.7561 5.7035C19.3091 5.8975 18.7221 4.4575 19.8801 3.5855C19.9718 3.48989 20.023 3.36251 20.023 3.23C20.023 3.0975 19.9718 2.97012 19.8801 2.8745L18.3831 1.377C18.2885 1.28327 18.1607 1.23067 18.0276 1.23067C17.8944 1.23067 17.7667 1.28327 17.6721 1.377C16.7901 2.543 15.3596 1.935 15.5541 0.500504C15.5543 0.43468 15.5415 0.369466 15.5163 0.308621C15.4912 0.247775 15.4543 0.192499 15.4078 0.145977C15.3612 0.0994557 15.3059 0.0626072 15.245 0.0375545C15.1841 0.0125017 15.1189 -0.000260108 15.0531 4.01749e-06H12.9401C12.8743 -0.000194023 12.8091 0.0126166 12.7483 0.0376989C12.6875 0.0627813 12.6323 0.0996401 12.5857 0.146155C12.5392 0.192671 12.5024 0.247924 12.4773 0.308737C12.4522 0.36955 12.4394 0.434722 12.4396 0.500504C12.4846 1.08 12.3796 1.6715 11.7836 1.9125C11.1926 2.1675 10.6916 1.819 10.3216 1.377C10.227 1.28311 10.0991 1.23043 9.96584 1.23043C9.83256 1.23043 9.70468 1.28311 9.61009 1.377L8.11309 2.874C7.75709 3.2615 8.11609 3.6205 8.41859 3.8855C8.56414 4.03551 8.66263 4.22481 8.70195 4.43009C8.74127 4.63538 8.71969 4.84768 8.63987 5.04085C8.56005 5.23402 8.42548 5.39963 8.25272 5.51728C8.07996 5.63493 7.87657 5.69949 7.66759 5.703H7.23709C7.10438 5.70327 6.97718 5.75607 6.88329 5.84986C6.78941 5.94365 6.73648 6.0708 6.73609 6.2035V8.3165C6.73635 8.4493 6.78922 8.57657 6.88312 8.67047C6.97702 8.76437 7.10429 8.81774 7.23709 8.818ZM13.9971 4.2565C17.9671 4.3815 17.9661 10.1405 13.9966 10.265C10.0261 10.14 10.0271 4.381 13.9971 4.2565Z" fill="#FF8D1E"/>
</svg>
