<svg width="32" height="32" viewBox="0 0 32 32" fill="none" xmlns="http://www.w3.org/2000/svg">
<path d="M19.0907 12C18.89 12 18.6939 11.9396 18.528 11.8266L16 10.1066L13.472 11.8266C13.3042 11.9409 13.1055 12.0014 12.9025 12.0001C12.6994 11.9988 12.5016 11.9356 12.3353 11.8191C12.169 11.7026 12.0421 11.5382 11.9715 11.3478C11.9008 11.1574 11.8899 10.9501 11.94 10.7533L12.736 7.61595L10.3507 5.57995C10.1984 5.45036 10.0885 5.2781 10.0351 5.08541C9.98174 4.89272 9.98735 4.68846 10.0512 4.49899C10.1151 4.30953 10.2343 4.14356 10.3934 4.02251C10.5526 3.90147 10.7444 3.83091 10.944 3.81995L13.964 3.64929L15.0627 0.655952C15.1317 0.462477 15.259 0.295097 15.4269 0.176749C15.5948 0.0583999 15.7952 -0.00512695 16.0007 -0.00512695C16.2061 -0.00512695 16.4065 0.0583999 16.5744 0.176749C16.7424 0.295097 16.8696 0.462477 16.9387 0.655952L18.0373 3.64929L21.0573 3.81995C21.257 3.83091 21.4487 3.90147 21.6079 4.02251C21.767 4.14356 21.8862 4.30953 21.9501 4.49899C22.014 4.68846 22.0196 4.89272 21.9662 5.08541C21.9128 5.2781 21.8029 5.45036 21.6507 5.57995L19.2653 7.61729L20.0613 10.7546C20.0987 10.9023 20.1018 11.0565 20.0705 11.2056C20.0392 11.3546 19.9742 11.4946 19.8806 11.6147C19.787 11.7348 19.6671 11.832 19.5302 11.8988C19.3933 11.9655 19.243 12.0001 19.0907 12ZM31 25.3333H24.6667V31C24.6667 31.3466 24.6 31.6933 24.4933 32H31C31.5467 32 32 31.5466 32 31V26.3333C32 25.7866 31.5467 25.3333 31 25.3333ZM7.33333 22.6666H1C0.453333 22.6666 0 23.12 0 23.6666V31C0 31.5466 0.453333 32 1 32H7.50667C7.4 31.6933 7.33333 31.3466 7.33333 31V22.6666ZM21.6667 14.6666H10.3333C10.0681 14.6666 9.81376 14.772 9.62623 14.9595C9.43869 15.147 9.33333 15.4014 9.33333 15.6666V31C9.33333 31.552 9.78133 32 10.3333 32H21.6667C21.9319 32 22.1862 31.8946 22.3738 31.7071C22.5613 31.5195 22.6667 31.2652 22.6667 31V15.6666C22.6667 15.4014 22.5613 15.147 22.3738 14.9595C22.1862 14.772 21.9319 14.6666 21.6667 14.6666ZM17 25.6666C17 25.9318 16.8946 26.1862 16.7071 26.3737C16.5196 26.5613 16.2652 26.6666 16 26.6666C15.7348 26.6666 15.4804 26.5613 15.2929 26.3737C15.1054 26.1862 15 25.9318 15 25.6666V21.7453C14.8491 21.6103 14.7427 21.4326 14.6949 21.2358C14.6471 21.039 14.6603 20.8323 14.7325 20.6431C14.8048 20.4539 14.9328 20.2912 15.0996 20.1763C15.2664 20.0615 15.4641 20 15.6667 20H16C16.2652 20 16.5196 20.1053 16.7071 20.2928C16.8946 20.4804 17 20.7347 17 21V25.6666Z" fill="#FF8D1E"/>
</svg>
