<svg width="30" height="27" viewBox="0 0 30 27" fill="none" xmlns="http://www.w3.org/2000/svg">
<path d="M21.57 2.75903C20.698 1.88256 19.661 1.18749 18.519 0.713949C17.3769 0.240404 16.1524 -0.00223878 14.916 2.74031e-05H14.888C13.6511 -0.00296615 12.4259 0.239333 11.2832 0.712909C10.1406 1.18648 9.10315 1.88193 8.231 2.75903C7.34932 3.6343 6.6502 4.67592 6.17419 5.82347C5.69817 6.97103 5.45474 8.20167 5.458 9.44403C5.458 11.772 6.316 14.007 7.875 15.733C8.842 16.805 9.374 18.232 9.374 19.753C9.374 20.97 10.109 22.016 11.156 22.48V23.28C11.1571 24.1388 11.4986 24.9622 12.1058 25.5695C12.713 26.1769 13.5362 26.5187 14.395 26.52H15.407C16.2658 26.5187 17.089 26.1769 17.6962 25.5695C18.3034 24.9622 18.6449 24.1388 18.646 23.28V22.48C19.1751 22.2467 19.6251 21.8649 19.9415 21.3808C20.2578 20.8968 20.4268 20.3313 20.428 19.753C20.428 18.232 20.96 16.806 21.927 15.733C23.4845 14.0089 24.3459 11.7675 24.344 9.44403C24.3469 8.20164 24.1031 6.97104 23.627 5.82352C23.1508 4.676 22.4516 3.63439 21.57 2.75903ZM10.492 7.66003C10.4162 7.8862 10.2539 8.07315 10.0407 8.17997C9.82741 8.28679 9.58051 8.30479 9.354 8.23003C9.24174 8.19274 9.13793 8.13368 9.04851 8.05624C8.95909 7.97879 8.88582 7.88448 8.83288 7.77869C8.77994 7.67291 8.74837 7.55772 8.73998 7.43973C8.7316 7.32173 8.74655 7.20324 8.784 7.09103C9.10174 6.15033 9.64793 5.30316 10.3736 4.62548C11.0993 3.94779 11.9818 3.46075 12.942 3.20803C13.1732 3.15045 13.4177 3.18614 13.6228 3.30739C13.8279 3.42865 13.977 3.62572 14.038 3.85603C14.0969 4.08727 14.0618 4.33246 13.9404 4.53788C13.8189 4.7433 13.621 4.89222 13.39 4.95203C12.7205 5.12812 12.1052 5.46775 11.5994 5.94041C11.0935 6.41307 10.713 7.00397 10.492 7.66003ZM16.844 23.28C16.8437 23.6614 16.6922 24.0271 16.4226 24.2969C16.153 24.5667 15.7874 24.7185 15.406 24.719H14.394C14.0126 24.7185 13.647 24.5667 13.3774 24.2969C13.1078 24.0271 12.9563 23.6614 12.956 23.28V22.738H16.845L16.844 23.28ZM3.022 3.38503C2.92443 3.31832 2.81467 3.27148 2.699 3.24718C2.58332 3.22289 2.464 3.22162 2.34783 3.24344C2.23166 3.26526 2.12093 3.30975 2.02196 3.37436C1.92299 3.43898 1.83771 3.52246 1.771 3.62003C1.63627 3.81708 1.58534 4.05959 1.62941 4.2942C1.67348 4.52881 1.80894 4.7363 2.006 4.87103L3.356 5.79403C3.45345 5.86122 3.56325 5.90844 3.67906 5.93295C3.79487 5.95746 3.91438 5.95878 4.0307 5.93684C4.14702 5.9149 4.25784 5.87012 4.35676 5.8051C4.45567 5.74008 4.54073 5.65611 4.607 5.55803C4.74148 5.36089 4.79227 5.11846 4.74821 4.88393C4.70415 4.6494 4.56885 4.44192 4.372 4.30703L3.022 3.38503ZM3.415 9.61903C3.415 9.38033 3.32018 9.15141 3.1514 8.98263C2.98261 8.81385 2.75369 8.71903 2.515 8.71903H0.9C0.661305 8.71903 0.432387 8.81385 0.263604 8.98263C0.0948212 9.15141 0 9.38033 0 9.61903C0 9.85772 0.0948212 10.0866 0.263604 10.2554C0.432387 10.4242 0.661305 10.519 0.9 10.519H2.514C2.63227 10.5192 2.74941 10.496 2.85872 10.4508C2.96803 10.4056 3.06736 10.3394 3.15104 10.2558C3.23472 10.1722 3.3011 10.0729 3.3464 9.96367C3.39169 9.85441 3.415 9.7373 3.415 9.61903ZM3.356 13.445L2.006 14.367C1.80881 14.5018 1.67322 14.7093 1.62906 14.944C1.58489 15.1787 1.63577 15.4213 1.7705 15.6185C1.90523 15.8157 2.11277 15.9513 2.34748 15.9955C2.58218 16.0396 2.82481 15.9888 3.022 15.854L4.372 14.932C4.56919 14.7973 4.70478 14.5898 4.74894 14.3551C4.79311 14.1203 4.74223 13.8777 4.6075 13.6805C4.47277 13.4833 4.26523 13.3477 4.03052 13.3036C3.79582 13.2594 3.55319 13.3103 3.356 13.445ZM25.937 5.95103C26.118 5.9511 26.2947 5.89636 26.444 5.79403L27.794 4.87103C27.9911 4.7363 28.1265 4.52881 28.1706 4.2942C28.2147 4.05959 28.1637 3.81708 28.029 3.62003C27.8943 3.42297 27.6868 3.28751 27.4522 3.24344C27.2176 3.19937 26.9751 3.2503 26.778 3.38503L25.428 4.30803C25.2692 4.41658 25.1493 4.57316 25.086 4.75481C25.0227 4.93646 25.0193 5.13361 25.0762 5.31736C25.1331 5.50111 25.2474 5.66178 25.4023 5.77582C25.5573 5.88986 25.7446 5.95127 25.937 5.95103ZM28.9 8.71903H27.286C27.0473 8.71903 26.8184 8.81385 26.6496 8.98263C26.4808 9.15141 26.386 9.38033 26.386 9.61903C26.386 9.85772 26.4808 10.0866 26.6496 10.2554C26.8184 10.4242 27.0473 10.519 27.286 10.519H28.9C29.1387 10.519 29.3676 10.4242 29.5364 10.2554C29.7052 10.0866 29.8 9.85772 29.8 9.61903C29.8 9.38033 29.7052 9.15141 29.5364 8.98263C29.3676 8.81385 29.1387 8.71903 28.9 8.71903ZM26.444 13.445C26.2469 13.3103 26.0044 13.2594 25.7698 13.3034C25.5352 13.3475 25.3277 13.483 25.193 13.68C25.0583 13.8771 25.0073 14.1196 25.0514 14.3542C25.0955 14.5888 25.2309 14.7963 25.428 14.931L26.778 15.853C26.8755 15.9202 26.9853 15.9674 27.1011 15.9919C27.2169 16.0165 27.3364 16.0178 27.4527 15.9958C27.569 15.9739 27.6798 15.9291 27.7788 15.8641C27.8777 15.7991 27.9627 15.7151 28.029 15.617C28.0957 15.5195 28.1426 15.4097 28.1669 15.294C28.1912 15.1783 28.1924 15.059 28.1706 14.9429C28.1488 14.8267 28.1043 14.716 28.0397 14.617C27.9751 14.518 27.8916 14.4327 27.794 14.366L26.444 13.445Z" fill="#FF8D1E"/>
</svg>
