<svg width="26" height="34" viewBox="0 0 26 34" fill="none" xmlns="http://www.w3.org/2000/svg">
<path fill-rule="evenodd" clip-rule="evenodd" d="M20.2225 10.6484L21.2621 11.099C21.2625 11.0992 21.263 11.0994 21.2635 11.0996C21.7463 11.2966 21.9647 11.3858 22.0723 11.5609C22.4155 12.1194 22.421 12.8693 22.4077 13.592C22.4073 13.6111 22.3995 13.6292 22.3859 13.6425C22.3723 13.6559 22.354 13.6633 22.335 13.6634H20.1011C20.085 13.6635 20.0693 13.6582 20.0566 13.6483C20.0439 13.6385 20.0348 13.6246 20.0309 13.609C19.5775 11.8728 17.3829 11.2492 16.0885 12.5435C15.7934 12.8381 15.582 13.2058 15.4758 13.6091C15.4719 13.6247 15.4628 13.6385 15.4501 13.6483C15.4373 13.6581 15.4217 13.6634 15.4056 13.6633H11.2026C11.1865 13.6634 11.1708 13.6581 11.1581 13.6482C11.1453 13.6384 11.1363 13.6245 11.1324 13.6089C10.6791 11.8729 8.48442 11.249 7.18998 12.5434C6.89488 12.838 6.68342 13.2058 6.57728 13.609C6.57333 13.6246 6.56427 13.6384 6.55153 13.6482C6.5388 13.6581 6.52314 13.6633 6.50706 13.6632H3.73993C3.71725 13.6632 3.69776 13.6539 3.68348 13.6363C3.6692 13.6187 3.66416 13.5977 3.66878 13.5756C4.09777 11.5345 4.86402 11.2344 6.9027 10.9212L8.92886 10.6042L8.92895 10.6045C9.69646 10.5017 10.3364 10.2038 10.9085 9.68453C11.6483 9.01303 12.0443 8.67501 12.5338 8.52415C13.1905 8.32179 14.4809 8.36522 15.77 8.36455C16.9566 8.36379 17.5679 8.36346 17.9778 8.53952C18.4436 8.73961 18.8948 9.34911 19.5966 10.2322C19.7037 10.367 19.9334 10.5086 20.2199 10.6471L20.2225 10.6484ZM3.56362 4.04073H21.5121C21.5358 4.04073 21.556 4.03065 21.5702 4.01184C21.5844 3.99302 21.5885 3.97076 21.582 3.94808L20.7629 1.09813L20.7624 1.09636C20.6318 0.681405 20.4163 0.388497 20.0499 0.185721C19.7133 -0.000940556 19.3172 -0.0491485 18.9457 0.0513209L18.942 0.0524129C18.9276 0.0571377 18.9129 0.0612572 18.8982 0.0647609L3.54606 3.8976C3.52882 3.90184 3.51374 3.91228 3.50369 3.92691C3.49364 3.94155 3.48932 3.95936 3.49154 3.97698C3.49366 3.99459 3.50217 4.01081 3.51546 4.02256C3.52874 4.03431 3.54588 4.04078 3.56362 4.04073ZM16.8591 13.314C16.3654 13.8077 16.3654 14.6086 16.8591 15.1024C17.6535 15.8967 19.0179 15.3316 19.0179 14.2082C19.0179 13.0847 17.6534 12.5197 16.8591 13.314ZM24.1592 5.13063H1.48033C0.667296 5.13063 0 5.79784 0 6.61096V32.3077C0 33.1209 0.667212 33.788 1.48033 33.788H24.1592C24.9723 33.788 25.6396 33.1208 25.6396 32.3077V6.61096C25.6395 5.79793 24.9723 5.13063 24.1592 5.13063ZM8.85478 12.9437C8.15623 12.9437 7.59024 13.5098 7.59024 14.2083C7.59024 15.3317 8.95465 15.8968 9.74896 15.1024C10.5433 14.3081 9.97819 12.9437 8.85478 12.9437ZM4.98414 17.8366H20.6553C21.4059 17.8366 22.0182 18.4488 22.0182 19.1995V20.5813C22.0182 21.332 21.406 21.9443 20.6553 21.9443H4.98414C4.23343 21.9443 3.62124 21.332 3.62124 20.5813V19.1995C3.62132 18.4488 4.23352 17.8366 4.98414 17.8366ZM4.16623 25.1656H21.4732C21.6177 25.1656 21.7563 25.2231 21.8585 25.3253C21.9607 25.4275 22.0182 25.5661 22.0182 25.7106C22.0182 25.8552 21.9607 25.9938 21.8585 26.096C21.7563 26.1982 21.6177 26.2556 21.4732 26.2556H4.16623C4.02169 26.2556 3.88307 26.1982 3.78086 26.096C3.67866 25.9938 3.62124 25.8552 3.62124 25.7106C3.62124 25.5661 3.67866 25.4275 3.78086 25.3253C3.88307 25.2231 4.02169 25.1656 4.16623 25.1656ZM4.16623 29.4769H21.4732C21.6177 29.4769 21.7563 29.5343 21.8585 29.6365C21.9607 29.7387 22.0182 29.8773 22.0182 30.0218C22.0182 30.1664 21.9607 30.305 21.8585 30.4072C21.7563 30.5094 21.6177 30.5668 21.4732 30.5668H4.16623C4.02169 30.5668 3.88307 30.5094 3.78086 30.4072C3.67866 30.305 3.62124 30.1664 3.62124 30.0218C3.62124 29.8773 3.67866 29.7387 3.78086 29.6365C3.88307 29.5343 4.02169 29.4769 4.16623 29.4769Z" fill="white"/>
</svg>
