<svg width="40" height="40" viewBox="0 0 40 40" fill="none" xmlns="http://www.w3.org/2000/svg">
<path fill-rule="evenodd" clip-rule="evenodd" d="M7.53159 30.1482V32.2594C7.5316 32.3135 7.52096 32.367 7.50027 32.417C7.47958 32.4669 7.44925 32.5123 7.41101 32.5506C7.37277 32.5888 7.32738 32.6191 7.27741 32.6398C7.22745 32.6605 7.1739 32.6712 7.11982 32.6711H0.411765C0.302565 32.6711 0.197843 32.6277 0.120627 32.5505C0.0434112 32.4733 2.18335e-05 32.3686 0 32.2594V26.884C0 26.7748 0.0434001 26.6701 0.120565 26.5928C0.197822 26.5157 0.302557 26.4723 0.411765 26.4723H7.11982C7.22902 26.4723 7.33373 26.5157 7.41094 26.5929C7.48815 26.6701 7.53155 26.7748 7.53159 26.884V28.9952H12.1495V25.1157C12.5849 25.0581 12.9897 24.8601 13.3025 24.5518V29.5717C13.3025 29.7246 13.2417 29.8712 13.1336 29.9793C13.0255 30.0874 12.8789 30.1482 12.726 30.1482H7.53159ZM31.9978 30.1482H26.8034C26.6505 30.1482 26.5039 30.0874 26.3958 29.9793C26.2877 29.8712 26.2269 29.7246 26.2269 29.5717V24.5758C26.5427 24.8763 26.9471 25.0666 27.3799 25.1183V28.9952H31.9978V26.884C31.9979 26.7748 32.0412 26.6701 32.1185 26.5929C32.1957 26.5157 32.3004 26.4723 32.4096 26.4723H39.1177C39.2269 26.4723 39.3316 26.5157 39.4089 26.5928C39.486 26.6701 39.5294 26.7748 39.5294 26.884V32.2594C39.5294 32.3686 39.486 32.4733 39.4088 32.5505C39.3316 32.6278 39.2269 32.6711 39.1177 32.6711H32.4096C32.3555 32.6712 32.302 32.6605 32.252 32.6398C32.202 32.6191 32.1566 32.5888 32.1184 32.5506C32.0802 32.5123 32.0498 32.4669 32.0291 32.417C32.0085 32.367 31.9978 32.3135 31.9978 32.2594V30.1482ZM20.3412 33.3305H23.1063C23.1604 33.3305 23.214 33.3412 23.2639 33.3619C23.3139 33.3826 23.3593 33.4129 23.3975 33.4511C23.4358 33.4894 23.4661 33.5348 23.4868 33.5847C23.5075 33.6347 23.5181 33.6882 23.5181 33.7423V39.1177C23.5181 39.2269 23.4747 39.3316 23.3975 39.4088C23.3203 39.486 23.2155 39.5294 23.1063 39.5294H16.3983C16.2891 39.5294 16.1843 39.486 16.1071 39.4088C16.0299 39.3316 15.9865 39.2269 15.9865 39.1177V33.7423C15.9865 33.6331 16.0299 33.5284 16.1072 33.4512C16.1454 33.4129 16.1908 33.3826 16.2407 33.3619C16.2907 33.3412 16.3442 33.3305 16.3983 33.3305H19.1882V27.8418H20.3412V33.3305ZM32.2204 15.555C29.593 15.555 28.2737 18.7388 30.132 20.597C30.4741 20.9391 30.4741 21.4954 30.132 21.8375L28.2453 23.7242C27.9033 24.0662 27.3469 24.0662 27.0049 23.7242C25.1466 21.8659 21.9629 23.1851 21.9629 25.8125C21.963 25.9277 21.9404 26.0417 21.8964 26.1481C21.8524 26.2544 21.7878 26.3511 21.7064 26.4325C21.625 26.5139 21.5284 26.5784 21.422 26.6224C21.3156 26.6664 21.2016 26.689 21.0865 26.6889H18.4181C18.303 26.689 18.189 26.6664 18.0826 26.6224C17.9762 26.5784 17.8796 26.5139 17.7982 26.4325C17.7168 26.3511 17.6522 26.2544 17.6082 26.148C17.5642 26.0417 17.5416 25.9277 17.5418 25.8125C17.5418 23.1819 14.3596 21.8643 12.4997 23.7242C12.1577 24.0662 11.6029 24.0662 11.2609 23.7242L9.37259 21.8375C9.03058 21.4954 9.03058 20.9391 9.37259 20.597C11.2309 18.7388 9.91324 15.555 7.2842 15.555C6.80029 15.555 6.40788 15.1625 6.40788 14.6787V12.0102C6.40788 11.5264 6.80029 11.1339 7.2842 11.1339C9.91324 11.1339 11.2309 7.95011 9.37259 6.09181C9.03058 5.7498 9.03058 5.19499 9.37259 4.85298L11.2609 2.96471C11.6029 2.62269 12.1577 2.62269 12.4997 2.96471C14.358 4.823 17.5418 3.50535 17.5418 0.876318C17.5418 0.392494 17.9342 0 18.4181 0H21.0865C21.5704 0 21.9629 0.392494 21.9629 0.876318C21.9629 3.50535 25.1466 4.823 27.0049 2.96471C27.3469 2.62269 27.9033 2.62269 28.2453 2.96471L30.132 4.85298C30.4741 5.19499 30.4741 5.7498 30.132 6.09181C28.2737 7.95011 29.593 11.1339 32.2204 11.1339C32.3355 11.1338 32.4495 11.1564 32.5559 11.2004C32.6623 11.2444 32.7589 11.3089 32.8403 11.3903C32.9217 11.4717 32.9863 11.5683 33.0303 11.6747C33.0743 11.7811 33.0969 11.8951 33.0967 12.0102V14.6787C33.0969 14.7938 33.0743 14.9078 33.0303 15.0142C32.9863 15.1205 32.9217 15.2172 32.8403 15.2986C32.7589 15.38 32.6623 15.4445 32.5559 15.4885C32.4495 15.5325 32.3355 15.5551 32.2204 15.555ZM19.7531 21.22C24.0892 21.22 27.6278 17.6813 27.6278 13.3452C27.6278 9.00711 24.0892 5.47046 19.7531 5.47046C15.415 5.47046 11.8783 9.00711 11.8783 13.3452C11.8783 17.6813 15.415 21.22 19.7531 21.22ZM19.7531 20.067C16.0502 20.067 13.0313 17.0465 13.0313 13.3452C13.0313 9.64229 16.0502 6.6234 19.7531 6.6234C23.4544 6.6234 26.4749 9.64229 26.4749 13.3452C26.4749 17.0465 23.4544 20.067 19.7531 20.067ZM18.1419 14.2838L16.5149 13.3444L18.1419 12.4051C18.2742 12.3286 18.3708 12.2027 18.4104 12.055C18.4499 11.9074 18.4293 11.75 18.3529 11.6176C18.2764 11.4853 18.1505 11.3887 18.0028 11.3491C17.8552 11.3096 17.6978 11.3302 17.5654 11.4066L15.0737 12.8452C14.9861 12.8958 14.9133 12.9686 14.8627 13.0562C14.8122 13.1438 14.7855 13.2432 14.7855 13.3444C14.7855 13.4456 14.8122 13.545 14.8627 13.6327C14.9133 13.7203 14.9861 13.7931 15.0737 13.8437L17.5654 15.2822C17.6978 15.3586 17.8552 15.3793 18.0028 15.3397C18.1505 15.3002 18.2764 15.2036 18.3529 15.0712C18.4293 14.9388 18.4499 14.7815 18.4104 14.6338C18.3708 14.4862 18.2742 14.3603 18.1419 14.2838ZM21.9392 15.2822L24.4309 13.8437C24.5185 13.7931 24.5913 13.7203 24.6419 13.6327C24.6925 13.545 24.7191 13.4456 24.7191 13.3444C24.7191 13.2432 24.6925 13.1438 24.6419 13.0562C24.5913 12.9686 24.5185 12.8958 24.4309 12.8452L21.9392 11.4066C21.8067 11.3303 21.6494 11.3096 21.5018 11.3491C21.3541 11.3887 21.2282 11.4853 21.1517 11.6176C21.0753 11.75 21.0547 11.9074 21.0942 12.055C21.1338 12.2027 21.2304 12.3286 21.3627 12.4051L22.9897 13.3444L21.3627 14.2838C21.2304 14.3603 21.1338 14.4862 21.0942 14.6339C21.0547 14.7815 21.0753 14.9388 21.1517 15.0712C21.2282 15.2036 21.3541 15.3002 21.5018 15.3397C21.6494 15.3793 21.8067 15.3586 21.9392 15.2822ZM19.8542 15.1913L20.7641 11.796C20.8463 11.4886 20.6638 11.1722 20.3564 11.0899C20.0491 11.0075 19.7327 11.1902 19.6504 11.4975L18.7406 14.8929C18.7011 15.0406 18.7218 15.1979 18.7983 15.3303C18.8747 15.4627 19.0006 15.5593 19.1482 15.599C19.2959 15.6384 19.4532 15.6177 19.5856 15.5412C19.718 15.4648 19.8146 15.339 19.8542 15.1913Z" fill="white"/>
</svg>
