<svg width="32" height="32" viewBox="0 0 32 32" fill="none" xmlns="http://www.w3.org/2000/svg">
<path d="M1.125 9C0.826631 9 0.540483 8.88147 0.329505 8.67049C0.118526 8.45952 0 8.17337 0 7.875V1.125C0 0.826631 0.118526 0.540483 0.329505 0.329505C0.540483 0.118526 0.826631 0 1.125 0H5.625C5.92337 0 6.20952 0.118526 6.42049 0.329505C6.63147 0.540483 6.75 0.826631 6.75 1.125C6.75 1.42337 6.63147 1.70952 6.42049 1.9205C6.20952 2.13147 5.92337 2.25 5.625 2.25H2.25V7.875C2.25 8.17337 2.13147 8.45952 1.9205 8.67049C1.70952 8.88147 1.42337 9 1.125 9ZM30.375 9C30.0766 9 29.7905 8.88147 29.5795 8.67049C29.3685 8.45952 29.25 8.17337 29.25 7.875V2.25H25.875C25.5766 2.25 25.2905 2.13147 25.0795 1.9205C24.8685 1.70952 24.75 1.42337 24.75 1.125C24.75 0.826631 24.8685 0.540483 25.0795 0.329505C25.2905 0.118526 25.5766 0 25.875 0H30.375C30.6734 0 30.9595 0.118526 31.1705 0.329505C31.3815 0.540483 31.5 0.826631 31.5 1.125V7.875C31.5 8.17337 31.3815 8.45952 31.1705 8.67049C30.9595 8.88147 30.6734 9 30.375 9ZM5.625 31.5H1.125C0.826631 31.5 0.540483 31.3815 0.329505 31.1705C0.118526 30.9595 0 30.6734 0 30.375V23.625C0 23.3266 0.118526 23.0405 0.329505 22.8295C0.540483 22.6185 0.826631 22.5 1.125 22.5C1.42337 22.5 1.70952 22.6185 1.9205 22.8295C2.13147 23.0405 2.25 23.3266 2.25 23.625V29.25H5.625C5.92337 29.25 6.20952 29.3685 6.42049 29.5795C6.63147 29.7905 6.75 30.0766 6.75 30.375C6.75 30.6734 6.63147 30.9595 6.42049 31.1705C6.20952 31.3815 5.92337 31.5 5.625 31.5ZM30.375 31.5H25.875C25.5766 31.5 25.2905 31.3815 25.0795 31.1705C24.8685 30.9595 24.75 30.6734 24.75 30.375C24.75 30.0766 24.8685 29.7905 25.0795 29.5795C25.2905 29.3685 25.5766 29.25 25.875 29.25H29.25V23.625C29.25 23.3266 29.3685 23.0405 29.5795 22.8295C29.7905 22.6185 30.0766 22.5 30.375 22.5C30.6734 22.5 30.9595 22.6185 31.1705 22.8295C31.3815 23.0405 31.5 23.3266 31.5 23.625V30.375C31.5 30.6734 31.3815 30.9595 31.1705 31.1705C30.9595 31.3815 30.6734 31.5 30.375 31.5ZM24.4204 9.32963L19.9204 4.82963C19.7094 4.61863 19.4233 4.50006 19.125 4.5H7.875C7.57663 4.5 7.29048 4.61853 7.07951 4.82951C6.86853 5.04048 6.75 5.32663 6.75 5.625V25.875C6.75 26.1734 6.86853 26.4595 7.07951 26.6705C7.29048 26.8815 7.57663 27 7.875 27H23.625C23.9234 27 24.2095 26.8815 24.4205 26.6705C24.6315 26.4595 24.75 26.1734 24.75 25.875V10.125C24.7499 9.82666 24.6314 9.54055 24.4204 9.32963ZM19.125 21.375H12.375C12.2258 21.375 12.0827 21.3157 11.9773 21.2102C11.8718 21.1048 11.8125 20.9617 11.8125 20.8125C11.8125 20.6633 11.8718 20.5202 11.9773 20.4148C12.0827 20.3093 12.2258 20.25 12.375 20.25H19.125C19.2742 20.25 19.4173 20.3093 19.5227 20.4148C19.6282 20.5202 19.6875 20.6633 19.6875 20.8125C19.6875 20.9617 19.6282 21.1048 19.5227 21.2102C19.4173 21.3157 19.2742 21.375 19.125 21.375ZM19.125 18H12.375C12.2258 18 12.0827 17.9407 11.9773 17.8352C11.8718 17.7298 11.8125 17.5867 11.8125 17.4375C11.8125 17.2883 11.8718 17.1452 11.9773 17.0398C12.0827 16.9343 12.2258 16.875 12.375 16.875H19.125C19.2742 16.875 19.4173 16.9343 19.5227 17.0398C19.6282 17.1452 19.6875 17.2883 19.6875 17.4375C19.6875 17.5867 19.6282 17.7298 19.5227 17.8352C19.4173 17.9407 19.2742 18 19.125 18ZM19.125 14.625H12.375C12.2258 14.625 12.0827 14.5657 11.9773 14.4602C11.8718 14.3548 11.8125 14.2117 11.8125 14.0625C11.8125 13.9133 11.8718 13.7702 11.9773 13.6648C12.0827 13.5593 12.2258 13.5 12.375 13.5H19.125C19.2742 13.5 19.4173 13.5593 19.5227 13.6648C19.6282 13.7702 19.6875 13.9133 19.6875 14.0625C19.6875 14.2117 19.6282 14.3548 19.5227 14.4602C19.4173 14.5657 19.2742 14.625 19.125 14.625ZM19.125 11.25H12.375C12.2258 11.25 12.0827 11.1907 11.9773 11.0852C11.8718 10.9798 11.8125 10.8367 11.8125 10.6875C11.8125 10.5383 11.8718 10.3952 11.9773 10.2898C12.0827 10.1843 12.2258 10.125 12.375 10.125H19.125C19.2742 10.125 19.4173 10.1843 19.5227 10.2898C19.6282 10.3952 19.6875 10.5383 19.6875 10.6875C19.6875 10.8367 19.6282 10.9798 19.5227 11.0852C19.4173 11.1907 19.2742 11.25 19.125 11.25Z" fill="white"/>
</svg>
