<svg width="34" height="34" viewBox="0 0 34 34" fill="none" xmlns="http://www.w3.org/2000/svg">
<path d="M21.9279 26.6674L23.3365 28.076L17.4124 34H34V33.0039C34 26.7127 30.3432 20.2115 23.3443 17.296C19.3794 15.7235 14.9635 15.5862 10.6401 17.3028C3.85721 20.1269 0 26.5071 0 33.0039V34H14.5954L21.9279 26.6674ZM6.66745 29.3512L4.78809 28.6878C6.613 23.5245 11.5196 20.0547 17 20.0547C22.4804 20.0547 27.387 23.5245 29.2118 28.6878L27.3325 29.3512C25.7897 24.9826 21.6381 22.0469 17 22.0469C12.3619 22.0469 8.21027 24.9826 6.66745 29.3512ZM2.05859 21.4183C3.86039 19.0656 5.67123 17.6493 8.03516 16.3768V12.0859H2.05859V21.4183ZM10.0273 15.4128C12.5155 14.4484 14.2085 14.2295 16.0039 14.1392V8.10156H10.0273V15.4128ZM23.9727 15.409V4.11719H17.9961V14.1384C19.6757 14.2228 21.4134 14.4111 23.9727 15.409ZM25.9648 16.379C28.364 17.6708 30.1401 19.0654 31.9414 21.4213V0H25.9648V16.379Z" fill="white"/>
</svg>
