<svg width="41" height="41" viewBox="0 0 41 41" fill="none" xmlns="http://www.w3.org/2000/svg">
<path d="M26.7273 19.2182L24.3727 18.3909C24.1818 17.7545 23.9273 17.1182 23.5455 16.4818L24.6273 14.2545C24.7545 14 24.6909 13.6818 24.5 13.5545L21.7636 10.8182C21.5727 10.6273 21.2545 10.5636 21.0636 10.6909L18.8364 11.7727C18.2 11.4545 17.5636 11.2 16.9273 10.9455L16.1 8.59091C16.0364 8.33636 15.7818 8.14546 15.5273 8.14546H11.6455C11.3909 8.14546 11.1364 8.33636 11.0091 8.59091L10.1818 10.9455C9.54546 11.1364 8.90909 11.3909 8.27273 11.7727L6.10909 10.6273C5.85455 10.5 5.6 10.5636 5.34545 10.7545L2.60909 13.4909C2.41818 13.6818 2.35455 14 2.48182 14.1909L3.56364 16.4182C3.24545 17.0545 2.99091 17.6909 2.8 18.3273L0.445455 19.1545C0.190909 19.2818 0 19.5364 0 19.7909V23.6727C0 23.9273 0.190909 24.1818 0.445455 24.3091L2.8 25.1364C2.99091 25.7727 3.24545 26.4091 3.62727 27.0455L2.54545 29.2727C2.41818 29.5273 2.48182 29.8455 2.67273 30.0364L5.40909 32.7727C5.6 32.9636 5.91818 33.0273 6.17273 32.9L8.4 31.8182C9.03636 32.1364 9.67273 32.3909 10.3091 32.6455L11.1364 35C11.2 35.2545 11.4545 35.4455 11.7091 35.4455H15.5909C15.8455 35.4455 16.1 35.2545 16.1636 35L16.9909 32.6455C17.6273 32.4545 18.2636 32.2 18.9 31.8182L21.1273 32.9C21.3818 33.0273 21.6364 32.9636 21.8273 32.7727L24.5636 30.0364C24.7545 29.8455 24.8182 29.5273 24.6909 29.2727L23.5455 26.9818C23.8636 26.3455 24.1182 25.7091 24.3727 25.0727L26.7273 24.2455C26.9818 24.1818 27.1727 23.9273 27.1727 23.6091V19.7273C27.1727 19.5364 26.9818 19.2818 26.7273 19.2182ZM13.5545 27.1727C10.5636 27.1727 8.14546 24.7545 8.14546 21.7636C8.14546 18.7727 10.5636 16.3545 13.5545 16.3545C16.5455 16.3545 18.9636 18.7727 18.9636 21.7636C18.9636 24.6909 16.5455 27.1727 13.5545 27.1727ZM40.2818 6.55455L39.0091 6.10909C38.8818 5.79091 38.7545 5.47273 38.6273 5.21818L39.2 4.00909C39.3273 3.75455 39.2636 3.5 39.0727 3.24546L37.5455 1.65455C37.3545 1.46364 37.0364 1.4 36.8455 1.52727L35.6364 2.1C35.3182 1.97273 35.0636 1.84545 34.7455 1.71818L34.3 0.445455C34.2364 0.190909 33.9818 0 33.7273 0H31.4364C31.1818 0 30.9273 0.190909 30.8 0.445455L30.3545 1.71818C30.0364 1.84545 29.7182 1.97273 29.4636 2.1L28.2545 1.52727C28 1.4 27.6818 1.46364 27.4909 1.65455L25.9 3.24546C25.7091 3.43636 25.6455 3.75455 25.7727 4.00909L26.3455 5.21818C26.2182 5.53636 26.0909 5.79091 25.9636 6.10909L24.6909 6.55455C24.4364 6.61818 24.2455 6.87273 24.2455 7.12727V9.41818C24.2455 9.67273 24.4364 9.92727 24.6909 9.99091L25.9636 10.4364L26.3455 11.3909L25.7727 12.5364C25.6455 12.7909 25.7091 13.1091 25.9 13.3L27.4909 14.8909C27.6818 15.0818 28 15.1455 28.2545 15.0182L29.4636 14.4455C29.7818 14.5727 30.1 14.7 30.3545 14.8273L30.8 16.1C30.8636 16.3545 31.1182 16.5455 31.4364 16.5455H33.7273C33.9818 16.5455 34.2364 16.3545 34.3 16.1L34.7455 14.8273C35.0636 14.7 35.3818 14.5727 35.6364 14.4455L36.8455 15.0182C37.1 15.1455 37.3545 15.0818 37.6091 14.8909L39.2 13.3C39.3909 13.1091 39.4545 12.7909 39.3273 12.5364L38.7545 11.3273L39.1364 10.3727L40.4091 9.92727C40.6636 9.86364 40.8545 9.60909 40.8545 9.35455V7.06364C40.7273 6.87273 40.5364 6.61818 40.2818 6.55455ZM32.5182 11.4545C30.7364 11.4545 29.3364 10.0545 29.3364 8.27273C29.3364 6.55455 30.7364 5.09091 32.5182 5.09091C34.2364 5.09091 35.7 6.49091 35.7 8.27273C35.7 10.0545 34.2364 11.4545 32.5182 11.4545Z" fill="white"/>
<path d="M40.2816 27.3001L38.4998 26.6637C38.3725 26.1546 38.1816 25.7091 37.9271 25.2637L38.7544 23.5455C38.8816 23.291 38.818 23.0364 38.6271 22.8455L36.4634 20.6819C36.2725 20.491 35.9544 20.4273 35.6998 20.5546L34.0453 21.4455C33.5998 21.191 33.0907 21.0001 32.6453 20.8728L32.0725 19.091C32.0089 18.8364 31.7544 18.6455 31.4362 18.6455H28.3816C28.2544 18.6455 28.1907 18.6455 28.0634 18.7091C28.2544 19.0273 28.3816 19.4091 28.3816 19.791V23.6728C28.3816 24.5001 27.8725 25.2001 27.1089 25.4546L25.3271 26.091C25.1998 26.4091 25.0725 26.7273 24.9453 26.9819L25.7725 28.6364C26.1544 29.4001 26.0271 30.2273 25.3907 30.8637L22.6544 33.6001C22.3362 33.9182 21.9544 34.1091 21.5725 34.1728L20.9998 35.3182C20.8725 35.5728 20.9362 35.8273 21.1271 36.0182L23.2907 38.1819C23.4816 38.3728 23.7998 38.4364 24.0544 38.3091L25.7725 37.4819C26.218 37.7364 26.7271 37.9273 27.1725 38.0546L27.8089 39.8364C27.8725 40.091 28.1271 40.2819 28.4453 40.2819H31.4998C31.7544 40.2819 32.0089 40.091 32.1362 39.8364L32.7089 38.0546C33.218 37.8637 33.6634 37.6728 34.1089 37.4819L35.8271 38.3091C36.0816 38.4364 36.3362 38.3728 36.5907 38.1819L38.7544 36.0182C38.9453 35.8273 39.0089 35.5091 38.8816 35.3182L38.0544 33.6001C38.3089 33.1546 38.4998 32.6455 38.6271 32.2001L40.4089 31.5637C40.6634 31.5001 40.8544 31.2455 40.8544 30.9273V27.8728C40.7271 27.6182 40.5362 27.4273 40.2816 27.3001ZM30.5453 33.7273C29.9854 33.7273 29.4309 33.617 28.9136 33.4028C28.3964 33.1885 27.9263 32.8745 27.5304 32.4785C27.1345 32.0826 26.8204 31.6126 26.6062 31.0953C26.3919 30.578 26.2816 30.0236 26.2816 29.4637C26.2816 28.9038 26.3919 28.3494 26.6062 27.8321C26.8204 27.3148 27.1345 26.8448 27.5304 26.4488C27.9263 26.0529 28.3964 25.7389 28.9136 25.5246C29.4309 25.3103 29.9854 25.2001 30.5453 25.2001C31.6761 25.2001 32.7605 25.6493 33.5601 26.4488C34.3597 27.2484 34.8089 28.3329 34.8089 29.4637C34.8089 30.5945 34.3597 31.6789 33.5601 32.4785C32.7605 33.2781 31.6761 33.7273 30.5453 33.7273Z" fill="white"/>
</svg>
