<svg width="31" height="31" viewBox="0 0 31 31" fill="none" xmlns="http://www.w3.org/2000/svg">
<path d="M24.3398 25.7324C23.3255 25.7324 22.4554 26.3594 22.0953 27.2461H19.9805V29.0625H22.0953C22.4554 29.9491 23.3255 30.5762 24.3398 30.5762C25.6753 30.5762 26.7617 29.4897 26.7617 28.1543C26.7617 26.8189 25.6753 25.7324 24.3398 25.7324ZM28.5781 20.5859C28.1936 20.5857 27.8145 20.6776 27.4728 20.854L25.224 18.98C25.0608 18.844 24.855 18.7695 24.6426 18.7695H19.9805V20.5859H24.3137L26.2855 22.2291C26.1999 22.4798 26.1562 22.7429 26.1562 23.0078C26.1562 24.3432 27.2427 25.4297 28.5781 25.4297C29.9135 25.4297 31 24.3432 31 23.0078C31 21.6724 29.9135 20.5859 28.5781 20.5859ZM28.5781 13.0176C27.5638 13.0176 26.6937 13.6446 26.3336 14.5312H19.9805V16.3477H26.3336C26.6937 17.2343 27.5638 17.8613 28.5781 17.8613C29.9135 17.8613 31 16.7749 31 15.4395C31 14.104 29.9135 13.0176 28.5781 13.0176ZM25.224 11.8989L27.4728 10.0249C27.8145 10.2013 28.1935 10.2933 28.5781 10.293C29.9135 10.293 31 9.20652 31 7.87109C31 6.53567 29.9135 5.44922 28.5781 5.44922C27.2427 5.44922 26.1562 6.53567 26.1562 7.87109C26.1562 8.14355 26.2021 8.4053 26.2855 8.64985L24.3137 10.293H19.9805V12.1094H24.6426C24.855 12.1094 25.0608 12.0349 25.224 11.8989ZM24.3398 5.14648C25.6753 5.14648 26.7617 4.06003 26.7617 2.72461C26.7617 1.38919 25.6753 0.302734 24.3398 0.302734C23.3255 0.302734 22.4554 0.929758 22.0953 1.81641H19.9805V3.63281H22.0953C22.4554 4.51946 23.3255 5.14648 24.3398 5.14648ZM9.08203 15.4395C9.08203 18.9449 11.934 21.7969 15.4395 21.7969C16.414 21.7969 17.3378 21.5762 18.1641 21.1826V9.69628C17.3378 9.30272 16.414 9.08203 15.4395 9.08203C11.934 9.08203 9.08203 11.934 9.08203 15.4395Z" fill="#FF8D1E"/>
<path d="M17.2559 0H13.623C13.1215 0 12.7148 0.406633 12.7148 0.908203V2.09038C11.0067 2.43918 9.3814 3.11251 7.92704 4.07384L7.09089 3.23774C6.7362 2.88306 6.16119 2.88306 5.80651 3.23774L3.23774 5.80651C2.88306 6.16113 2.88306 6.7362 3.23774 7.09089L4.07384 7.92704C3.11251 9.3814 2.43918 11.0067 2.09038 12.7148H0.908203C0.406633 12.7148 0 13.1215 0 13.623V17.2559C0 17.7574 0.406633 18.1641 0.908203 18.1641H2.09038C2.43919 19.8722 3.11251 21.4975 4.07384 22.9519L3.23768 23.7881C3.06739 23.9584 2.97172 24.1894 2.97172 24.4302C2.97172 24.6711 3.06739 24.902 3.23768 25.0723L5.80651 27.6412C6.16119 27.9958 6.7362 27.9958 7.09089 27.6412L7.92704 26.8051C9.38142 27.7664 11.0067 28.4397 12.7148 28.7885V29.9707C12.7148 30.4723 13.1215 30.8789 13.623 30.8789H17.2559C17.7574 30.8789 18.1641 30.4723 18.1641 29.9707V23.1457C17.3114 23.4481 16.3945 23.6133 15.4395 23.6133C10.9324 23.6133 7.26562 19.9465 7.26562 15.4395C7.26562 10.9324 10.9324 7.26562 15.4395 7.26562C16.3945 7.26562 17.3114 7.4308 18.1641 7.73317V0.908203C18.1641 0.406633 17.7574 0 17.2559 0Z" fill="#FF8D1E"/>
</svg>
