<svg width="32" height="16" viewBox="0 0 32 16" fill="none" xmlns="http://www.w3.org/2000/svg">
<path d="M7.23438 8.76563C6.5715 8.76562 5.92351 8.96219 5.37235 9.33047C4.82119 9.69874 4.39161 10.2222 4.13794 10.8346C3.88426 11.447 3.81789 12.1209 3.94721 12.771C4.07653 13.4212 4.39574 14.0184 4.86446 14.4871C5.33319 14.9558 5.93038 15.275 6.58052 15.4043C7.23066 15.5337 7.90455 15.4673 8.51696 15.2136C9.12938 14.96 9.65282 14.5304 10.0211 13.9792C10.3894 13.4281 10.5859 12.7801 10.5859 12.1172C10.5849 11.2286 10.2315 10.3767 9.60318 9.74839C8.97486 9.12006 8.12296 8.76663 7.23438 8.76563ZM7.23438 13.6641C6.92843 13.6641 6.62936 13.5733 6.37498 13.4034C6.1206 13.2334 5.92233 12.9918 5.80525 12.7091C5.68817 12.4265 5.65754 12.1155 5.71722 11.8154C5.77691 11.5153 5.92424 11.2397 6.14057 11.0234C6.3569 10.807 6.63253 10.6597 6.9326 10.6C7.23266 10.5403 7.54369 10.571 7.82634 10.6881C8.10899 10.8051 8.35058 11.0034 8.52056 11.2578C8.69053 11.5122 8.78125 11.8112 8.78125 12.1172C8.78125 12.5274 8.61828 12.9209 8.32818 13.211C8.03809 13.5011 7.64463 13.6641 7.23438 13.6641ZM25.7969 8.76563C25.134 8.76562 24.486 8.96219 23.9348 9.33047C23.3837 9.69874 22.9541 10.2222 22.7004 10.8346C22.4468 11.447 22.3804 12.1209 22.5097 12.771C22.639 13.4212 22.9582 14.0184 23.427 14.4871C23.8957 14.9558 24.4929 15.275 25.143 15.4043C25.7932 15.5337 26.467 15.4673 27.0795 15.2136C27.6919 14.96 28.2153 14.5304 28.5836 13.9792C28.9519 13.4281 29.1484 12.7801 29.1484 12.1172C29.1474 11.2286 28.794 10.3767 28.1657 9.74839C27.5374 9.12006 26.6855 8.76663 25.7969 8.76563ZM25.7969 13.6641C25.4909 13.6641 25.1919 13.5733 24.9375 13.4034C24.6831 13.2334 24.4848 12.9918 24.3678 12.7091C24.2507 12.4265 24.22 12.1155 24.2797 11.8154C24.3394 11.5153 24.4867 11.2397 24.7031 11.0234C24.9194 10.807 25.195 10.6597 25.4951 10.6C25.7952 10.5403 26.1062 10.571 26.3888 10.6881C26.6715 10.8051 26.9131 11.0034 27.0831 11.2578C27.253 11.5122 27.3438 11.8112 27.3438 12.1172C27.3438 12.5274 27.1808 12.9209 26.8907 13.211C26.6006 13.5011 26.2071 13.6641 25.7969 13.6641Z" fill="#FF8D1E"/>
<path d="M30.2699 5.99673L24.25 4.89845L19.125 0.646151C18.6171 0.228922 17.9803 0.000588564 17.323 7.91635e-06H9.77254C9.34705 -0.000999822 8.92684 0.0942174 8.54335 0.278536C8.15985 0.462855 7.823 0.731504 7.55799 1.06439L4.28448 4.89845H2.07812C1.46295 4.89913 0.873165 5.14381 0.43817 5.5788C0.0031748 6.0138 -0.241505 6.60358 -0.242188 7.21876V10.0547C-0.241352 10.8066 0.0577023 11.5274 0.589363 12.0591C1.12102 12.5907 1.84187 12.8898 2.59375 12.8906H3.18317C3.06877 12.294 3.08757 11.6794 3.23824 11.0908C3.38891 10.5023 3.66773 9.95428 4.05476 9.48598C4.4418 9.01768 4.9275 8.64066 5.47715 8.38185C6.0268 8.12305 6.62684 7.98885 7.23438 7.98885C7.84191 7.98885 8.44195 8.12305 8.9916 8.38185C9.54125 8.64066 10.027 9.01768 10.414 9.48598C10.801 9.95428 11.0798 10.5023 11.2305 11.0908C11.3812 11.6794 11.4 12.294 11.2856 12.8906H21.7457C21.6313 12.294 21.6501 11.6794 21.8007 11.0908C21.9514 10.5023 22.2302 9.95428 22.6173 9.48598C23.0043 9.01768 23.49 8.64066 24.0397 8.38185C24.5893 8.12305 25.1893 7.98885 25.7969 7.98885C26.4044 7.98885 27.0044 8.12305 27.5541 8.38185C28.1038 8.64066 28.5895 9.01768 28.9765 9.48598C29.3635 9.95428 29.6423 10.5023 29.793 11.0908C29.9437 11.6794 29.9625 12.294 29.8481 12.8906H29.9219C30.5371 12.89 31.1268 12.6453 31.5618 12.2103C31.9968 11.7753 32.2415 11.1855 32.2422 10.5703V8.29074C32.245 7.73491 32.047 7.19677 31.6846 6.77529C31.3222 6.35381 30.8199 6.07734 30.2699 5.99673ZM11.1016 4.12501C11.1016 4.33014 11.0201 4.52686 10.875 4.67191C10.73 4.81696 10.5333 4.89845 10.3281 4.89845H6.9279C6.85396 4.89849 6.78155 4.87733 6.71927 4.83748C6.65698 4.79763 6.60742 4.74076 6.57647 4.6736C6.54552 4.60645 6.53447 4.53183 6.54463 4.45859C6.55479 4.38535 6.58574 4.31655 6.6338 4.26036L8.88425 1.62423C8.9569 1.53928 9.04711 1.47109 9.14865 1.42436C9.2502 1.37763 9.36066 1.35346 9.47245 1.35352H10.3281C10.5333 1.35352 10.73 1.43501 10.875 1.58006C11.0201 1.72511 11.1016 1.92183 11.1016 2.12696V4.12501ZM14.9688 7.73438H13.9375C13.7324 7.73438 13.5356 7.6529 13.3906 7.50785C13.2456 7.3628 13.1641 7.16607 13.1641 6.96095C13.1641 6.75582 13.2456 6.55909 13.3906 6.41404C13.5356 6.269 13.7324 6.18751 13.9375 6.18751H14.9688C15.1739 6.18751 15.3706 6.269 15.5157 6.41404C15.6607 6.55909 15.7422 6.75582 15.7422 6.96095C15.7422 7.16607 15.6607 7.3628 15.5157 7.50785C15.3706 7.6529 15.1739 7.73438 14.9688 7.73438ZM21.0582 4.9174L13.6779 4.90025C13.4731 4.89977 13.2768 4.81807 13.1321 4.67308C12.9875 4.52808 12.9062 4.33163 12.9062 4.12681V2.12696C12.9062 1.92183 12.9877 1.72511 13.1328 1.58006C13.2778 1.43501 13.4746 1.35352 13.6797 1.35352H17.3888C17.5627 1.35354 17.7314 1.41212 17.8679 1.51981L21.2986 4.22684C21.3619 4.27664 21.408 4.34492 21.4306 4.42218C21.4532 4.49944 21.4511 4.58181 21.4246 4.65783C21.3981 4.73384 21.3486 4.7997 21.2829 4.84623C21.2173 4.89276 21.1387 4.91764 21.0582 4.9174Z" fill="#FF8D1E"/>
</svg>
