<svg width="28" height="28" viewBox="0 0 28 28" fill="none" xmlns="http://www.w3.org/2000/svg">
<path d="M26 6.00032C25.9999 5.8084 25.9447 5.62054 25.8408 5.45918C25.7368 5.29782 25.5887 5.16977 25.414 5.09032L14.414 0.0903186C14.2841 0.030806 14.1429 0 14 0C13.8571 0 13.7159 0.030806 13.586 0.0903186L2.586 5.09032C2.41141 5.16986 2.26339 5.29795 2.15959 5.4593C2.0558 5.62066 2.00061 5.80846 2.00061 6.00032C2.00061 6.19217 2.0558 6.37998 2.15959 6.54133C2.26339 6.70269 2.41141 6.83077 2.586 6.91032L13.586 11.9103C13.7159 11.9698 13.8571 12.0006 14 12.0006C14.1429 12.0006 14.2841 11.9698 14.414 11.9103L25.414 6.91032C25.5887 6.83086 25.7368 6.70281 25.8408 6.54145C25.9447 6.38009 25.9999 6.19224 26 6.00032ZM12.414 14.0903L1.414 9.09032C1.2617 9.02105 1.09444 8.9911 0.927567 9.00322C0.760689 9.01534 0.59952 9.06914 0.458822 9.15969C0.318123 9.25024 0.202394 9.37464 0.122234 9.52151C0.0420742 9.66837 4.6324e-05 9.833 0 10.0003V22.0003C5.31428e-05 22.1922 0.0553333 22.3801 0.159242 22.5415C0.263151 22.7028 0.411298 22.8309 0.586 22.9103L11.586 27.9103C11.7384 27.9799 11.9059 28.01 12.073 27.9977C12.2401 27.9855 12.4014 27.9314 12.542 27.8403C12.6825 27.7497 12.798 27.6254 12.878 27.4786C12.958 27.3319 12.9999 27.1675 13 27.0003V15.0003C12.9999 14.8084 12.9447 14.6205 12.8408 14.4592C12.7368 14.2978 12.5887 14.1698 12.414 14.0903ZM27.542 9.16032C27.4013 9.06944 27.24 9.0154 27.0729 9.00317C26.9059 8.99094 26.7384 9.02091 26.586 9.09032L15.586 14.0903C15.4113 14.1698 15.2632 14.2978 15.1592 14.4592C15.0553 14.6205 15.0001 14.8084 15 15.0003V27.0003C15 27.1676 15.0421 27.3323 15.1222 27.4791C15.2024 27.626 15.3181 27.7504 15.4588 27.841C15.5995 27.9315 15.7607 27.9853 15.9276 27.9974C16.0944 28.0095 16.2617 27.9796 16.414 27.9103L27.414 22.9103C27.5887 22.8309 27.7368 22.7028 27.8408 22.5415C27.9447 22.3801 27.9999 22.1922 28 22.0003V10.0003C27.9999 9.83318 27.958 9.66873 27.878 9.52199C27.798 9.37525 27.6825 9.25091 27.542 9.16032Z" fill="#FF8D1E"/>
</svg>
