<svg width="32" height="31" viewBox="0 0 32 31" fill="none" xmlns="http://www.w3.org/2000/svg">
<path d="M26.2719 7.39464C26.1454 7.1732 25.9899 7.01908 25.7506 6.93401L18.8119 4.40839C18.8381 3.65464 18.565 2.89276 17.9906 2.31901C16.8091 1.13676 14.8353 1.23139 13.7812 2.57714L6.85312 0.055889C6.8525 0.055264 6.85187 0.055264 6.85187 0.055264C6.36656 -0.118111 5.87756 0.138826 5.695 0.514639L1.30437 9.23339H3.40375L6.53687 3.01089L9.70813 9.23339H11.8125L8.44812 2.63151L13.1856 4.35589C13.2051 5.56039 13.9746 6.57964 15.0625 6.96464V25.1734C15.0625 25.6909 15.4825 26.1109 16 26.1109C16.5175 26.1109 16.9375 25.6909 16.9375 25.1734V6.96464C17.3977 6.80284 17.8076 6.52336 18.1262 6.15401L24.1225 8.33651L20.1756 16.1771H22.275L25.4344 9.90089L28.5963 16.1771H30.6956L26.2719 7.39464ZM16.665 4.97464C16.2981 5.34151 15.7019 5.34151 15.335 4.97464C14.9681 4.60776 14.9681 4.01151 15.335 3.64464C15.7019 3.27776 16.2981 3.27776 16.665 3.64464C17.0324 4.01208 17.0331 4.60658 16.665 4.97464Z" fill="#FF8D1E"/>
<path d="M17.1039 24.2983H14.8962C12.2326 24.2983 10.0656 26.4652 10.0656 29.1288C10.0656 29.6465 10.4854 30.0663 11.0031 30.0663H20.9969C21.5146 30.0663 21.9344 29.6465 21.9344 29.1288C21.9344 26.4652 19.7674 24.2983 17.1039 24.2983ZM31.0625 18.0518H19.8094C19.2916 18.0518 18.8719 18.4715 18.8719 18.9893C18.8719 22.6087 21.8165 25.5533 25.4359 25.5533C29.0554 25.5533 32 22.6087 32 18.9893C32 18.4715 31.5802 18.0518 31.0625 18.0518ZM12.1938 11.1084H0.9375C0.41975 11.1084 0 11.5281 0 12.0459C0 15.6662 2.94531 18.6115 6.56563 18.6115C10.1859 18.6115 13.1313 15.6662 13.1313 12.0459C13.1313 11.5281 12.7115 11.1084 12.1938 11.1084Z" fill="#FF8D1E"/>
</svg>
