<svg width="27" height="28" viewBox="0 0 27 28" fill="none" xmlns="http://www.w3.org/2000/svg">
<path fill-rule="evenodd" clip-rule="evenodd" d="M26.164 8.71875V24.2188C26.164 24.9895 25.8578 25.7288 25.3128 26.2738C24.7678 26.8188 24.0285 27.125 23.2577 27.125H7.75194C7.3702 27.1251 6.99218 27.0501 6.63947 26.9041C6.28675 26.7581 5.96625 26.544 5.69628 26.2741C5.42631 26.0042 5.21215 25.6838 5.06604 25.3312C4.91992 24.9785 4.84472 24.6005 4.84472 24.2188V17.3096C5.3165 17.3939 5.80281 17.4375 6.29784 17.4375C10.8442 17.4375 14.5351 13.7475 14.5351 9.20313C14.5351 4.65872 10.8442 0.968752 6.29881 0.968752C6.04887 0.968752 5.80088 0.980377 5.55675 1.00169C5.82961 0.6868 6.16707 0.434352 6.5462 0.261508C6.92532 0.0886627 7.33721 -0.000526758 7.75387 2.34035e-06H17.4443V5.8125C17.4443 6.58329 17.7505 7.3225 18.2955 7.86753C18.8405 8.41256 19.5797 8.71875 20.3505 8.71875H26.164ZM10.6601 22.2813V21.3125C10.6601 21.0556 10.5581 20.8092 10.3764 20.6275C10.1947 20.4458 9.9483 20.3438 9.69137 20.3438C9.43445 20.3438 9.18804 20.4458 9.00636 20.6275C8.82469 20.8092 8.72262 21.0556 8.72262 21.3125V22.2813C8.72262 22.5382 8.82469 22.7846 9.00636 22.9663C9.18804 23.1479 9.43445 23.25 9.69137 23.25C9.9483 23.25 10.1947 23.1479 10.3764 22.9663C10.5581 22.7846 10.6601 22.5382 10.6601 22.2813ZM14.5371 22.2813V18.4063C14.5371 18.1493 14.435 17.9029 14.2533 17.7212C14.0716 17.5396 13.8252 17.4375 13.5683 17.4375C13.3114 17.4375 13.065 17.5396 12.8833 17.7212C12.7016 17.9029 12.5996 18.1493 12.5996 18.4063V22.2813C12.5996 22.5382 12.7016 22.7846 12.8833 22.9663C13.065 23.1479 13.3114 23.25 13.5683 23.25C13.8252 23.25 14.0716 23.1479 14.2533 22.9663C14.435 22.7846 14.5371 22.5382 14.5371 22.2813ZM18.4121 22.2813V19.375C18.4121 19.1181 18.31 18.8717 18.1283 18.69C17.9466 18.5083 17.7002 18.4063 17.4433 18.4063C17.1864 18.4063 16.94 18.5083 16.7583 18.69C16.5766 18.8717 16.4746 19.1181 16.4746 19.375V22.2813C16.4746 22.5382 16.5766 22.7846 16.7583 22.9663C16.94 23.1479 17.1864 23.25 17.4433 23.25C17.7002 23.25 17.9466 23.1479 18.1283 22.9663C18.31 22.7846 18.4121 22.5382 18.4121 22.2813ZM22.289 22.2813V15.5C22.289 15.2431 22.1869 14.9967 22.0053 14.815C21.8236 14.6333 21.5772 14.5313 21.3202 14.5313C21.0633 14.5313 20.8169 14.6333 20.6352 14.815C20.4536 14.9967 20.3515 15.2431 20.3515 15.5V22.2813C20.3515 22.5382 20.4536 22.7846 20.6352 22.9663C20.8169 23.1479 21.0633 23.25 21.3202 23.25C21.5772 23.25 21.8236 23.1479 22.0053 22.9663C22.1869 22.7846 22.289 22.5382 22.289 22.2813ZM19.3827 0.0184086C20.0828 0.0984762 20.73 0.429982 21.204 0.951315L25.4093 5.57516C25.7232 5.92197 25.948 6.33563 26.0671 6.78125H20.3515C20.2242 6.78164 20.098 6.75684 19.9803 6.70829C19.8626 6.65974 19.7557 6.5884 19.6656 6.49837C19.5756 6.40833 19.5043 6.30139 19.4557 6.18368C19.4072 6.06597 19.3824 5.93983 19.3827 5.8125V0.0184086ZM12.5221 10.1719C12.2898 11.6559 11.5352 13.0081 10.3942 13.985C9.25322 14.9619 7.80086 15.4991 6.29881 15.5C4.62884 15.4992 3.02745 14.8356 1.84641 13.655C0.66538 12.4743 0.00128343 10.8731 0 9.20313C0.00116953 7.70096 0.53882 6.2486 1.51607 5.10777C2.49331 3.96694 3.84589 3.21266 5.33006 2.98085V8.23438C5.33006 8.74823 5.53419 9.24104 5.89754 9.6044C6.2609 9.96775 6.75371 10.1719 7.26756 10.1719H12.5221ZM7.26756 2.98085C8.58701 3.18715 9.80689 3.80705 10.7514 4.7512C11.6959 5.69535 12.3162 6.915 12.523 8.23438H7.26756V2.98085Z" fill="#FF8D1E"/>
</svg>
