<svg width="26" height="26" viewBox="0 0 26 26" fill="none" xmlns="http://www.w3.org/2000/svg">
<path d="M23.7148 6.70313H26V1.59245C26 1.28421 25.8146 1.00644 25.5297 0.888623C25.3905 0.830993 25.2374 0.815913 25.0896 0.845288C24.9418 0.874662 24.8061 0.947173 24.6995 1.05366L1.05374 24.6995C0.947256 24.8061 0.874745 24.9418 0.845371 25.0896C0.815996 25.2374 0.831076 25.3906 0.888706 25.5298C0.946306 25.669 1.04394 25.788 1.16923 25.8717C1.29453 25.9554 1.44185 26.0001 1.59253 26H6.70316V23.9688C6.70316 23.5483 7.04441 23.207 7.46488 23.207C7.88535 23.207 8.2266 23.5483 8.2266 23.9688V26H10.2578V23.9688C10.2578 23.5483 10.5991 23.207 11.0196 23.207C11.44 23.207 11.7813 23.5483 11.7813 23.9688V26H13.8125V23.9688C13.8125 23.5483 14.1538 23.207 14.5743 23.207C14.9947 23.207 15.336 23.5483 15.336 23.9688V26H17.3672V23.9688C17.3672 23.5483 17.7085 23.207 18.1289 23.207C18.5494 23.207 18.8907 23.5483 18.8907 23.9688V26H20.9219V23.9688C20.9219 23.5483 21.2632 23.207 21.6836 23.207C22.1041 23.207 22.4453 23.5483 22.4453 23.9688V26H25.2383C25.6588 26 26 25.6588 26 25.2383V22.4453H23.9688C23.5483 22.4453 23.2071 22.1041 23.2071 21.6836C23.2071 21.2631 23.5483 20.9219 23.9688 20.9219H26V18.8906H23.9688C23.5483 18.8906 23.2071 18.5494 23.2071 18.1289C23.2071 17.7084 23.5483 17.3672 23.9688 17.3672H26V15.3359H23.9688C23.5483 15.3359 23.2071 14.9947 23.2071 14.5742C23.2071 14.1538 23.5483 13.8125 23.9688 13.8125H26V11.7813H23.9688C23.5483 11.7813 23.2071 11.44 23.2071 11.0195C23.2071 10.5991 23.5483 10.2578 23.9688 10.2578H26V8.22656H23.7149C23.2944 8.22656 22.9532 7.88531 22.9532 7.46485C22.9532 7.04438 23.2944 6.70313 23.7148 6.70313ZM21.4297 20.668C21.4297 21.0884 21.0884 21.4297 20.668 21.4297H12.6262C12.4755 21.4298 12.3282 21.3851 12.2029 21.3014C12.0776 21.2177 11.98 21.0987 11.9224 20.9595C11.8648 20.8202 11.8497 20.6671 11.8791 20.5193C11.9084 20.3715 11.981 20.2358 12.0874 20.1292L20.1292 12.0875C20.2358 11.981 20.3715 11.9085 20.5193 11.8791C20.6671 11.8497 20.8202 11.8648 20.9594 11.9224C21.0987 11.98 21.2177 12.0777 21.3014 12.2029C21.3851 12.3282 21.4298 12.4756 21.4297 12.6263V20.668ZM2.3507 14.7479L5.58242 17.9796L3.45468 20.1068C3.1566 20.4049 2.67417 20.4034 2.37761 20.1068L0.222964 17.9522C-0.0756301 17.6536 -0.073091 17.1712 0.222964 16.8751L2.3507 14.7479ZM17.6993 5.65297C17.7704 5.65297 17.8425 5.65094 17.9151 5.64688L6.65949 16.9025L3.42777 13.6708L14.5351 2.56344C14.5519 3.42621 14.8596 4.18996 15.4283 4.75922C16.0144 5.34468 16.8055 5.65297 17.6993 5.65297ZM20.2566 1.08819L18.9546 3.83241C18.0238 4.25694 17.0584 4.2346 16.5054 3.68159C16.0042 3.18038 15.9392 2.33995 16.248 1.49343L19.2415 0.0735837C19.3835 0.00619586 19.5429 -0.0156295 19.6978 0.0110979C19.8527 0.0378253 19.9956 0.111798 20.1068 0.222881C20.2178 0.33414 20.2918 0.476961 20.3186 0.631835C20.3454 0.78671 20.3238 0.946086 20.2566 1.08819Z" fill="#FF8D1E"/>
</svg>
