<svg width="28" height="28" viewBox="0 0 28 28" fill="none" xmlns="http://www.w3.org/2000/svg">
<path d="M7 4V7H4L7 4ZM1 7C0.734784 7 0.48043 6.89464 0.292893 6.70711C0.105357 6.51957 0 6.26522 0 6V1C0 0.734784 0.105357 0.48043 0.292893 0.292893C0.48043 0.105357 0.734784 0 1 0H6C6.26522 0 6.51957 0.105357 6.70711 0.292893C6.89464 0.48043 7 0.734784 7 1C7 1.26522 6.89464 1.51957 6.70711 1.70711C6.51957 1.89464 6.26522 2 6 2H2V6C2 6.26522 1.89464 6.51957 1.70711 6.70711C1.51957 6.89464 1.26522 7 1 7ZM6 28H1C0.734784 28 0.48043 27.8946 0.292893 27.7071C0.105357 27.5196 0 27.2652 0 27V22C0 21.7348 0.105357 21.4804 0.292893 21.2929C0.48043 21.1054 0.734784 21 1 21C1.26522 21 1.51957 21.1054 1.70711 21.2929C1.89464 21.4804 2 21.7348 2 22V26H6C6.26522 26 6.51957 26.1054 6.70711 26.2929C6.89464 26.4804 7 26.7348 7 27C7 27.2652 6.89464 27.5196 6.70711 27.7071C6.51957 27.8946 6.26522 28 6 28ZM27 28H22C21.7348 28 21.4804 27.8946 21.2929 27.7071C21.1054 27.5196 21 27.2652 21 27C21 26.7348 21.1054 26.4804 21.2929 26.2929C21.4804 26.1054 21.7348 26 22 26H26V22C26 21.7348 26.1054 21.4804 26.2929 21.2929C26.4804 21.1054 26.7348 21 27 21C27.2652 21 27.5196 21.1054 27.7071 21.2929C27.8946 21.4804 28 21.7348 28 22V27C28 27.2652 27.8946 27.5196 27.7071 27.7071C27.5196 27.8946 27.2652 28 27 28ZM27 7C26.7348 7 26.4804 6.89464 26.2929 6.70711C26.1054 6.51957 26 6.26522 26 6V2H22C21.7348 2 21.4804 1.89464 21.2929 1.70711C21.1054 1.51957 21 1.26522 21 1C21 0.734784 21.1054 0.48043 21.2929 0.292893C21.4804 0.105357 21.7348 0 22 0H27C27.2652 0 27.5196 0.105357 27.7071 0.292893C27.8946 0.48043 28 0.734784 28 1V6C28 6.26522 27.8946 6.51957 27.7071 6.70711C27.5196 6.89464 27.2652 7 27 7ZM21 9V12H24L21 9Z" fill="#FF8D1E"/>
<path d="M12 17H6.5C6.36739 17 6.24021 16.9473 6.14645 16.8536C6.05268 16.7598 6 16.6326 6 16.5C6 16.3674 6.05268 16.2402 6.14645 16.1464C6.24021 16.0527 6.36739 16 6.5 16H12V15H6.5C6.36739 15 6.24021 14.9473 6.14645 14.8536C6.05268 14.7598 6 14.6326 6 14.5C6 14.3674 6.05268 14.2402 6.14645 14.1464C6.24021 14.0527 6.36739 14 6.5 14H12V13H6.5C6.36739 13 6.24021 12.9473 6.14645 12.8536C6.05268 12.7598 6 12.6326 6 12.5C6 12.3674 6.05268 12.2402 6.14645 12.1464C6.24021 12.0527 6.36739 12 6.5 12H12V11H6.5C6.36739 11 6.24021 10.9473 6.14645 10.8536C6.05268 10.7598 6 10.6326 6 10.5C6 10.3674 6.05268 10.2402 6.14645 10.1464C6.24021 10.0527 6.36739 10 6.5 10H12C12 8.897 12.897 8 14 8H15V5C15 4.73478 14.8946 4.48043 14.7071 4.29289C14.5196 4.10536 14.2652 4 14 4H8V7C8 7.26522 7.89464 7.51957 7.70711 7.70711C7.51957 7.89464 7.26522 8 7 8H4V18C4 18.2652 4.10536 18.5196 4.29289 18.7071C4.48043 18.8946 4.73478 19 5 19H12V17Z" fill="#FF8D1E"/>
<path d="M21 13C20.7348 13 20.4804 12.8946 20.2929 12.7071C20.1054 12.5196 20 12.2652 20 12V9H14C13.7348 9 13.4804 9.10536 13.2929 9.29289C13.1054 9.48043 13 9.73478 13 10V23C13 23.2652 13.1054 23.5196 13.2929 23.7071C13.4804 23.8946 13.7348 24 14 24H23C23.2652 24 23.5196 23.8946 23.7071 23.7071C23.8946 23.5196 24 23.2652 24 23V13H21ZM21.5 22H15.5C15.3674 22 15.2402 21.9473 15.1464 21.8536C15.0527 21.7598 15 21.6326 15 21.5C15 21.3674 15.0527 21.2402 15.1464 21.1464C15.2402 21.0527 15.3674 21 15.5 21H21.5C21.6326 21 21.7598 21.0527 21.8536 21.1464C21.9473 21.2402 22 21.3674 22 21.5C22 21.6326 21.9473 21.7598 21.8536 21.8536C21.7598 21.9473 21.6326 22 21.5 22ZM21.5 20H15.5C15.3674 20 15.2402 19.9473 15.1464 19.8536C15.0527 19.7598 15 19.6326 15 19.5C15 19.3674 15.0527 19.2402 15.1464 19.1464C15.2402 19.0527 15.3674 19 15.5 19H21.5C21.6326 19 21.7598 19.0527 21.8536 19.1464C21.9473 19.2402 22 19.3674 22 19.5C22 19.6326 21.9473 19.7598 21.8536 19.8536C21.7598 19.9473 21.6326 20 21.5 20ZM21.5 18H15.5C15.3674 18 15.2402 17.9473 15.1464 17.8536C15.0527 17.7598 15 17.6326 15 17.5C15 17.3674 15.0527 17.2402 15.1464 17.1464C15.2402 17.0527 15.3674 17 15.5 17H21.5C21.6326 17 21.7598 17.0527 21.8536 17.1464C21.9473 17.2402 22 17.3674 22 17.5C22 17.6326 21.9473 17.7598 21.8536 17.8536C21.7598 17.9473 21.6326 18 21.5 18ZM21.5 16H15.5C15.3674 16 15.2402 15.9473 15.1464 15.8536C15.0527 15.7598 15 15.6326 15 15.5C15 15.3674 15.0527 15.2402 15.1464 15.1464C15.2402 15.0527 15.3674 15 15.5 15H21.5C21.6326 15 21.7598 15.0527 21.8536 15.1464C21.9473 15.2402 22 15.3674 22 15.5C22 15.6326 21.9473 15.7598 21.8536 15.8536C21.7598 15.9473 21.6326 16 21.5 16Z" fill="#FF8D1E"/>
</svg>
