<svg width="31" height="32" viewBox="0 0 31 32" fill="none" xmlns="http://www.w3.org/2000/svg">
<path fill-rule="evenodd" clip-rule="evenodd" d="M5.20362 12.8661C8.07558 12.8661 10.4072 15.1978 10.4072 18.0697C10.4072 20.9417 8.07558 23.2734 5.20362 23.2734C2.33167 23.2734 0 20.9417 0 18.0697C0 15.1978 2.33167 12.8661 5.20362 12.8661ZM2.33958 18.549L4.11911 20.3286C4.42998 20.6395 4.93398 20.6395 5.24485 20.3286L8.06767 17.5058C8.37826 17.1952 8.37826 16.6907 8.06767 16.3801C7.75701 16.0695 7.25259 16.0695 6.94193 16.3801L4.76979 18.5523C4.74649 18.5756 4.71491 18.5886 4.68198 18.5886C4.64904 18.5886 4.61746 18.5756 4.59416 18.5523L3.46525 17.4234C3.15466 17.1127 2.65024 17.1127 2.33958 17.4234C2.02892 17.734 2.02892 18.2384 2.33958 18.549ZM16.5842 9.82758C16.8695 9.99409 17.3802 10.2798 17.9322 10.2798H19.3256C19.922 10.2798 20.3805 9.99882 20.6745 9.82701L27.3794 5.93633C27.6036 5.80533 27.8515 5.71992 28.1088 5.68503C28.3661 5.65013 28.6278 5.66643 28.8788 5.73299C29.1298 5.79955 29.3652 5.91506 29.5714 6.07287C29.7776 6.23069 29.9506 6.4277 30.0805 6.65259L30.093 6.67426C30.6203 7.5876 30.3239 8.75478 29.4246 9.30572L22.4944 13.5518V18.8859L27.1759 28.1248C27.6791 29.0684 27.3437 30.2411 26.4176 30.7758L26.4172 30.776C26.1917 30.9062 25.9427 30.9908 25.6844 31.0248C25.4262 31.0588 25.1638 31.0416 24.9122 30.9742C24.6606 30.9068 24.4248 30.7905 24.2181 30.6319C24.0115 30.4733 23.8381 30.2756 23.7079 30.05L19.4845 22.2738C19.4035 22.1337 19.2871 22.0173 19.147 21.9364C19.0068 21.8555 18.8478 21.8129 18.686 21.8129C18.5242 21.8129 18.3652 21.8555 18.225 21.9364C18.0849 22.0173 17.9685 22.1337 17.8876 22.2738L13.6645 30.0494C13.4013 30.5051 12.9679 30.8375 12.4597 30.9737C11.9514 31.1099 11.4099 31.0387 10.9542 30.7756L10.9216 30.7568C10.0136 30.2326 9.68442 29.0832 10.1772 28.1578L14.764 19.0828V13.5518L8.08278 9.4608C7.17127 8.90273 6.87071 7.71988 7.40506 6.7944L7.40513 6.79426C7.53493 6.56939 7.70788 6.37239 7.91405 6.21457C8.12022 6.05675 8.35554 5.94122 8.60649 5.87462C8.85745 5.80803 9.11909 5.79167 9.37638 5.8265C9.63367 5.86133 9.88155 5.94666 10.1058 6.07758C10.1058 6.07758 8.97904 5.38765 16.5842 9.82758ZM18.7473 0C20.7617 0 22.3971 1.63546 22.3971 3.64976C22.3971 5.66414 20.7617 7.29953 18.7473 7.29953C16.7329 7.29953 15.0976 5.66414 15.0976 3.64976C15.0976 1.63546 16.7329 0 18.7473 0Z" fill="#FF8D1E"/>
</svg>
