<svg width="28" height="31" viewBox="0 0 28 31" fill="none" xmlns="http://www.w3.org/2000/svg">
<path d="M9.02788 10.5988C8.62925 11.1669 8.34139 11.8051 8.17939 12.48L6.78788 12.6545V14.5018L8.09697 14.6667C8.21818 15.423 8.4897 16.1261 8.88242 16.7467L8.12121 17.7212L9.4303 19.0303L10.3612 18.3079C10.9915 18.7588 11.7188 19.0788 12.5042 19.2339L12.6497 20.3636H14.497L14.6424 19.2339C15.4279 19.0788 16.1552 18.7588 16.7855 18.3079L17.7164 19.0303L19.0255 17.7212L18.2642 16.7467C18.6646 16.1139 18.9319 15.4061 19.0497 14.6667L20.3636 14.5018V12.6545L18.9673 12.48C18.8053 11.8051 18.5174 11.1669 18.1188 10.5988L19.0255 9.43515L17.7164 8.12606L16.4994 9.07152C15.9515 8.73212 15.3455 8.47515 14.6909 8.34424L14.497 6.78788H12.6497L12.4558 8.34424C11.8012 8.47515 11.1952 8.73212 10.6473 9.07152L9.4303 8.12606L8.12121 9.43515L9.02788 10.5988ZM13.5758 10.9042C15.1661 10.9042 16.4509 12.1939 16.4509 13.7842C16.4509 15.3745 15.1661 16.6642 13.5758 16.6642C11.9806 16.6642 10.6958 15.3745 10.6958 13.7842C10.6958 12.1939 11.9806 10.9042 13.5758 10.9042ZM1.45455 25.2121C1.45455 26.2836 2.32242 27.1515 3.39394 27.1515H23.7576C24.8291 27.1515 25.697 26.2836 25.697 25.2121V24.2424H1.45455V25.2121ZM19.8788 29.5758H17.9394V28.1212H9.21212V29.5758H7.27273C7.00121 29.5758 6.78788 29.7939 6.78788 30.0606C6.78788 30.3321 7.00121 30.5455 7.27273 30.5455H19.8788C20.1455 30.5455 20.3636 30.3321 20.3636 30.0606C20.3636 29.7939 20.1455 29.5758 19.8788 29.5758ZM19.4036 4.36364H21.3333C21.3624 4.36364 21.3867 4.35394 21.4158 4.34909C21.5255 4.67566 21.7479 4.95252 22.0431 5.13014C22.3383 5.30777 22.6871 5.37456 23.0271 5.31859C23.367 5.26261 23.6759 5.08751 23.8986 4.82461C24.1213 4.56171 24.2432 4.22816 24.2424 3.88364C24.2424 3.07879 23.5927 2.42909 22.7879 2.42909C22.1479 2.42909 21.6145 2.84121 21.4158 3.41333C21.3897 3.40179 21.3618 3.39521 21.3333 3.39394H18.9188C18.6521 3.39394 18.4339 3.61212 18.4339 3.87879V7.47152L19.4036 8.44606V4.36364ZM25.697 6.30303C25.057 6.30303 24.5236 6.71515 24.3248 7.28727C24.2958 7.28242 24.2715 7.27273 24.2424 7.27273H22.303C22.0315 7.27273 21.8182 7.49091 21.8182 7.75758V13.0909H21.3333V14.0606H22.303C22.5697 14.0606 22.7879 13.8473 22.7879 13.5758V8.24242H24.2424C24.2715 8.24242 24.2958 8.23273 24.3248 8.22788C24.4346 8.55445 24.657 8.83131 24.9522 9.00893C25.2474 9.18655 25.5962 9.25335 25.9361 9.19737C26.2761 9.1414 26.585 8.9663 26.8077 8.7034C27.0304 8.4405 27.1522 8.10695 27.1515 7.76242C27.1515 6.95758 26.5018 6.30303 25.697 6.30303ZM2.82667 8.22303C2.85576 8.22788 2.88 8.23758 2.91394 8.23758H4.36848V13.5709C4.36848 13.8424 4.58182 14.0558 4.85333 14.0558H5.82303V13.0861H5.33818V7.75273C5.33818 7.48606 5.12 7.26788 4.85333 7.26788H2.91394C2.88485 7.26788 2.85576 7.27758 2.82667 7.28727C2.62788 6.71515 2.09455 6.30303 1.45455 6.30303C0.649697 6.30303 0 6.95273 0 7.75758C0 8.56242 0.649697 9.21212 1.45455 9.21212C2.09455 9.21212 2.63273 8.8 2.82667 8.22303ZM4.36364 5.33333C5.00364 5.33333 5.54182 4.91636 5.73576 4.34424C5.76485 4.34909 5.78909 4.35879 5.82303 4.35879H7.74788V8.44121L8.71758 7.46667V3.87879C8.71758 3.61212 8.49939 3.39394 8.23273 3.39394H5.81818C5.78909 3.39394 5.76 3.40364 5.73091 3.41333C5.53697 2.83636 5.00364 2.42424 4.36364 2.42424C3.55879 2.42424 2.90909 3.07394 2.90909 3.87879C2.90909 4.68364 3.55879 5.33333 4.36364 5.33333ZM13.12 2.83152C13.1055 2.8703 13.0909 2.90909 13.0909 2.95273V5.81818H14.0606V2.95273C14.0606 2.90909 14.0461 2.8703 14.0364 2.83152C14.6133 2.63273 15.0303 2.09455 15.0303 1.45455C15.0303 0.649697 14.3806 0 13.5758 0C13.2307 0.000249393 12.897 0.123327 12.6344 0.347193C12.3718 0.571058 12.1975 0.881089 12.1427 1.22177C12.0878 1.56244 12.1561 1.91152 12.3351 2.20647C12.5142 2.50143 12.7924 2.723 13.12 2.83152Z" fill="#FF8D1E"/>
<path d="M23.7576 10.6667V13.5758C23.7576 14.3807 23.103 15.0304 22.303 15.0304H21.3333V15.3552L19.8497 15.5443C19.743 15.9274 19.6024 16.3007 19.423 16.6546L20.32 17.7989L17.7988 20.3201L16.7273 19.491C16.3443 19.7043 15.9418 19.8789 15.52 20.0098L15.3503 21.3334H11.7964L11.6267 20.0098C11.2049 19.8789 10.8024 19.7043 10.4194 19.491L9.34789 20.3201L6.83153 17.7989L7.72365 16.6546C7.54426 16.3007 7.40365 15.9274 7.29698 15.5443L5.8182 15.3552V15.0304H4.8485C4.04365 15.0304 3.39395 14.3807 3.39395 13.5758V10.6667C2.85577 10.6667 2.37092 10.8849 2.02183 11.234C1.67274 11.588 1.45456 12.0728 1.45456 12.6061V23.2728H25.697V12.6061C25.697 11.5395 24.8243 10.6667 23.7576 10.6667Z" fill="#FF8D1E"/>
</svg>
