<svg width="28" height="28" viewBox="0 0 28 28" fill="none" xmlns="http://www.w3.org/2000/svg">
<path d="M12.0733 20.6023L9.49927 23.1763C8.21029 24.4653 6.11291 24.4657 4.82327 23.1763C3.53451 21.8873 3.53495 19.7899 4.82393 18.5009L9.99212 13.3327C11.1865 12.1384 13.0753 12.0502 14.3714 13.0693C14.4752 13.151 14.5741 13.2388 14.6675 13.3324C15.2415 13.9061 16.1314 13.9155 16.6935 13.3532L18.3131 11.7336C18.0454 11.3277 17.7371 10.95 17.3931 10.6065C16.9049 10.1185 16.3636 9.71543 15.7869 9.39824C13.5301 8.15345 10.7391 8.21563 8.53519 9.58451C8.06799 9.8748 7.63577 10.2179 7.24708 10.6071L2.09809 15.756C-0.699289 18.5535 -0.699289 23.105 2.09765 25.9021C4.8953 28.6995 9.44656 28.6995 12.2441 25.9021L16.8761 21.2701C15.2581 21.4842 13.5927 21.262 12.0733 20.6023Z" fill="#FF8D1E"/>
<path d="M25.9019 2.0979C23.1047 -0.699364 18.5535 -0.699364 15.7558 2.09828L11.1243 6.72988C12.7423 6.51561 14.4077 6.73775 15.9272 7.39761L18.5013 4.82347C19.7903 3.53449 21.8873 3.53449 23.1763 4.82347C24.4657 6.11289 24.4657 8.20983 23.1767 9.49881L18.0079 14.6677C16.8267 15.8488 14.9522 15.9304 13.6576 14.9161C13.5506 14.8328 13.449 14.7428 13.3532 14.6467C12.7889 14.0823 11.8709 14.0828 11.3065 14.6472L9.68683 16.2668C9.9549 16.6721 10.2631 17.0494 10.6069 17.3928C11.0861 17.8726 11.631 18.2819 12.2253 18.6084C14.4944 19.854 17.2995 19.7812 19.5049 18.3907C19.9567 18.1058 20.3753 17.7712 20.7527 17.3932L25.9019 12.2443C28.6993 9.4467 28.6993 4.89549 25.9019 2.0979Z" fill="#FF8D1E"/>
</svg>
