<svg width="32" height="32" viewBox="0 0 32 32" fill="none" xmlns="http://www.w3.org/2000/svg">
<path d="M26.7478 3.57779L18.1468 9.82678L32.5582 20.2974C32.8522 19.053 33.0005 17.7787 33 16.5001C33 11.271 30.5545 6.60296 26.7478 3.57779ZM25.0712 2.40584C22.5716 0.880043 19.6367 0 16.5 0C13.129 0 9.99139 1.01694 7.37634 2.75904L10.6632 12.8741L25.0712 2.40584ZM5.74542 3.99674C2.22976 7.02494 0 11.5068 0 16.5C0 18.0343 0.211277 19.52 0.604893 20.9304H11.248L5.74542 3.99674ZM1.27727 22.8641C3.68788 28.6087 9.25882 32.7108 15.8027 32.9843L19.091 22.8641H1.27727ZM17.8487 32.9446C24.3358 32.4173 29.7732 28.1216 31.9637 22.2553L23.3542 16.0002L17.8487 32.9446Z" fill="#FF8D1E"/>
</svg>
