<svg width="66" height="69" viewBox="0 0 66 69" fill="none" xmlns="http://www.w3.org/2000/svg">
<path d="M29.3574 63.4162L9.50652 63.5841C9.22236 63.5871 8.98982 63.8279 8.99224 64.1113L9.02489 67.9224C9.02732 68.2069 9.26842 68.4399 9.55201 68.4375L29.3493 68.2674C29.6337 68.265 29.8668 68.0239 29.8644 67.7403L29.8288 63.8796C29.8022 63.6355 29.6013 63.4391 29.3574 63.4162ZM27.5141 66.9605C27.3693 67.0197 27.2142 67.0497 27.0577 67.0486C26.9012 67.0475 26.7465 67.0154 26.6025 66.9541C26.4585 66.8929 26.3281 66.8037 26.2187 66.6917C26.1094 66.5798 26.0234 66.4473 25.9656 66.3019C25.9077 66.1564 25.8793 66.001 25.8819 65.8446C25.8845 65.6881 25.9181 65.5337 25.9808 65.3903C26.0434 65.2469 26.1338 65.1174 26.2468 65.0091C26.3598 64.9009 26.4932 64.8161 26.6391 64.7597C26.784 64.7005 26.9391 64.6706 27.0956 64.6717C27.2521 64.6728 27.4068 64.7049 27.5508 64.7661C27.6948 64.8274 27.8252 64.9165 27.9345 65.0285C28.0439 65.1405 28.1299 65.273 28.1877 65.4184C28.2455 65.5638 28.274 65.7192 28.2713 65.8757C28.2687 66.0321 28.2351 66.1865 28.1725 66.3299C28.1099 66.4733 28.0194 66.6029 27.9064 66.7111C27.7934 66.8194 27.6601 66.9041 27.5141 66.9605ZM13.4411 57.6884L2.05268 46.2947C0.649997 44.8923 -0.0530554 43.2139 0.00312038 41.2253C0.240085 32.8316 0.474769 24.4376 0.712589 16.0437C0.745952 14.8643 2.17801 13.9019 3.30494 13.9379C5.86722 14.0196 6.1481 18.3301 6.14125 20.1057L6.08907 33.786C6.08094 35.9556 6.82762 37.9135 8.20507 39.5815C10.2593 42.0972 12.6398 44.2714 14.9301 46.5617C15.1593 46.789 15.4693 46.9163 15.7922 46.9157C16.115 46.9151 16.4245 46.7867 16.653 46.5586C16.8814 46.3304 17.0102 46.0211 17.0112 45.6983C17.0123 45.3754 16.8854 45.0653 16.6584 44.8357C14.7926 42.9698 12.8173 41.1915 11.0622 39.2218C10.3179 38.2327 10.1284 37.1791 11.0636 36.2438C11.9014 35.4061 13.1954 35.5001 14.0583 36.2405C16.4045 38.9973 19.2071 41.3595 21.4118 43.2174C24.5633 45.8735 25.3519 46.5753 25.3467 50.9944L25.3345 61.009L13.7973 61.1081V58.5461C13.7969 58.2243 13.6688 57.9158 13.4411 57.6884ZM56.4187 63.5841L36.5679 63.4163C36.3238 63.4391 36.1229 63.6355 36.0965 63.8794L36.0608 67.7402C36.0584 68.0239 36.2915 68.2648 36.576 68.2673L56.3732 68.4374C56.6568 68.4398 56.8979 68.2068 56.9003 67.9222L56.933 64.1111C56.9353 63.8279 56.7027 63.587 56.4187 63.5841ZM39.9491 66.2975C39.8918 66.4424 39.8066 66.5745 39.6982 66.6863C39.5898 66.7981 39.4605 66.8875 39.3175 66.9492C39.1746 67.011 39.0209 67.044 38.8652 67.0462C38.7095 67.0485 38.5548 67.0201 38.4101 66.9625C38.2654 66.905 38.1335 66.8195 38.0219 66.7109C37.9103 66.6023 37.8212 66.4727 37.7597 66.3297C37.6983 66.1866 37.6656 66.0328 37.6636 65.8771C37.6617 65.7214 37.6904 65.5668 37.7483 65.4223C37.8666 65.1337 38.094 64.9035 38.3811 64.7817C38.6682 64.6598 38.9918 64.6561 39.2816 64.7713C39.5714 64.8866 39.804 65.1115 39.9289 65.3973C40.0539 65.683 40.0611 66.0065 39.9489 66.2975H39.9491ZM63.8726 46.2947L52.4841 57.6884C52.3713 57.801 52.2819 57.9347 52.2208 58.0819C52.1597 58.2291 52.1282 58.3869 52.1281 58.5463V61.1083L40.5908 61.0092L40.5787 50.9945C40.5733 46.5754 41.3622 45.8737 44.5136 43.2176C46.7181 41.3595 49.5209 38.9974 51.8671 36.2407C52.7301 35.5001 54.024 35.4063 54.8618 36.2439C55.7971 37.1792 55.6076 38.2329 54.8633 39.222C53.1081 41.1917 51.1328 42.9699 49.267 44.8358C49.04 45.0654 48.9131 45.3755 48.9142 45.6984C48.9152 46.0213 49.044 46.3306 49.2724 46.5587C49.5009 46.7869 49.8104 46.9153 50.1332 46.9159C50.4561 46.9165 50.766 46.7892 50.9953 46.5619C53.2856 44.2715 55.666 42.0975 57.7203 39.5817C59.0976 37.9137 59.8444 35.9556 59.8363 33.7862L59.7841 20.1058C59.7774 18.3301 60.0582 14.0197 62.6206 13.938C63.7474 13.9021 65.1794 14.8645 65.2128 16.0439C65.4506 24.4376 65.6853 32.8318 65.9223 41.2255C65.9783 43.2139 65.2752 44.8923 63.8726 46.2947ZM42.0997 35.2138L45.4028 36.6809L49.2969 32.7867L47.8295 29.4826C48.798 27.9106 49.5096 26.1941 49.9374 24.398L53.3091 23.1002V17.5931L49.9381 16.2957C49.5103 14.499 48.7986 12.7821 47.8298 11.2096L49.2969 7.90653L45.4027 4.01243L42.0987 5.47985C40.5267 4.51134 38.8102 3.79973 37.014 3.37183L35.7161 0H30.209L28.911 3.37169C27.1148 3.79959 25.3983 4.5112 23.8262 5.4797L20.5222 4.01229L16.6282 7.90653L18.0954 11.2102C17.1268 12.7823 16.4152 14.4989 15.9874 16.2953L12.616 17.593V23.1001L15.987 24.3975C16.4147 26.1943 17.1268 27.911 18.0954 29.4836L16.6283 32.7866L20.5225 36.6806L23.8266 35.2132C25.3987 36.1817 27.1152 36.8933 28.9114 37.3211L30.2093 40.6928H35.7164L37.0138 37.3218C38.8105 36.8943 40.5274 36.1826 42.0997 35.2138ZM32.9626 31.4198C26.8466 31.4198 21.8894 26.4626 21.8894 20.3466C21.8894 14.2304 26.8466 9.27328 32.9626 9.27328C39.0787 9.27328 44.0358 14.2304 44.0358 20.3466C44.0358 26.4628 39.0787 31.4198 32.9626 31.4198ZM40.2532 19.2371C40.1926 22.5934 35.6023 25.9571 33.1075 27.4228C33.0638 27.4492 33.0136 27.4632 32.9625 27.4632C32.9115 27.4632 32.8613 27.4492 32.8176 27.4228C30.3228 25.9572 25.7332 22.5938 25.6719 19.2378C25.6036 15.5015 29.8032 13.807 32.9625 17.0194C36.1214 13.8076 40.3208 15.501 40.2532 19.2371Z" fill="white"/>
</svg>
