<svg width="73" height="52" viewBox="0 0 73 52" fill="none" xmlns="http://www.w3.org/2000/svg">
<path d="M72.5813 15.9864C72.4058 15.7717 72.1848 15.5984 71.9344 15.4792C71.6839 15.3599 71.4101 15.2976 71.1327 15.2967H64.0281C62.2748 10.6724 59.9907 6.14159 57.3944 4.43131C48.4131 -1.4771 24.5907 -1.4771 15.6094 4.43131C13.0112 6.14346 10.7365 10.6799 8.97386 15.2967H1.86919C1.5916 15.2965 1.31748 15.3584 1.06686 15.4777C0.816235 15.597 0.595434 15.7709 0.420587 15.9864C0.244676 16.2013 0.11912 16.4529 0.0531371 16.7226C-0.0128459 16.9924 -0.0175813 17.2735 0.0392787 17.5453L1.09162 22.6444C1.17886 23.0652 1.40848 23.4432 1.74179 23.7145C2.07509 23.9858 2.49173 24.134 2.92152 24.1341H5.02619C2.99442 26.478 2.00937 29.4294 1.99629 32.3827C1.9832 36.0313 3.36825 39.3285 5.90096 41.6612C5.929 41.6855 5.95704 41.7023 5.9832 41.7266V48.8612C5.9832 50.407 7.23928 51.665 8.78694 51.665H15.3402C16.8879 51.665 18.144 50.407 18.144 48.8612V45.9939H54.8561V48.8612C54.8561 50.407 56.1122 51.665 57.6598 51.665H64.2131C65.757 51.665 67.0169 50.407 67.0169 48.8612V41.8668C69.7047 39.4051 70.9888 36.0182 71.0056 32.6369C71.0169 29.5827 69.9869 26.5229 67.8355 24.1304H70.0804C70.5108 24.1316 70.9284 23.9837 71.262 23.7117C71.5956 23.4398 71.8247 23.0606 71.9103 22.6388L72.9645 17.5416C73.0188 17.2701 73.0126 16.9901 72.9464 16.7213C72.8802 16.4525 72.7555 16.2016 72.5813 15.9864ZM18.6879 9.11355C25.8468 4.4014 47.1533 4.4014 54.3084 9.11355C55.6991 10.0257 57.4879 13.7136 59.1271 18.2294H13.8729C15.5084 13.7154 17.2972 10.0294 18.6879 9.11355ZM10.3028 33.0855C10.3031 31.6229 10.8844 30.2202 11.9188 29.1861C12.9532 28.1521 14.3561 27.5712 15.8187 27.5715C17.2814 27.5717 18.684 28.153 19.7181 29.1874C20.7522 30.2219 21.333 31.6247 21.3327 33.0874C21.3326 33.8116 21.1898 34.5287 20.9126 35.1978C20.6353 35.8668 20.229 36.4747 19.7168 36.9868C19.2046 37.4988 18.5966 37.9049 17.9274 38.182C17.2582 38.459 16.5411 38.6015 15.8168 38.6014C15.0926 38.6013 14.3755 38.4585 13.7064 38.1812C13.0374 37.904 12.4295 37.4976 11.9175 36.9854C10.8834 35.951 10.3026 34.5482 10.3028 33.0855ZM57.2542 38.6014C55.7911 38.6014 54.3879 38.0202 53.3533 36.9856C52.3186 35.951 51.7374 34.5477 51.7374 33.0846C51.7374 31.6214 52.3186 30.2182 53.3533 29.1836C54.3879 28.149 55.7911 27.5678 57.2542 27.5678C58.7174 27.5678 60.1206 28.149 61.1552 29.1836C62.1898 30.2182 62.7711 31.6214 62.7711 33.0846C62.7711 34.5477 62.1898 35.951 61.1552 36.9856C60.1206 38.0202 58.7174 38.6014 57.2542 38.6014Z" fill="white"/>
</svg>
