<svg width="61" height="61" viewBox="0 0 61 61" fill="none" xmlns="http://www.w3.org/2000/svg">
<path d="M52.5871 37.9727C51.1129 38.8877 49.715 39.5993 48.4696 40.1077C47.6054 40.4889 46.665 40.6668 45.75 40.6668C44.835 40.6668 43.8946 40.4889 43.0304 40.1077C40.8192 39.1927 38.125 37.6677 35.5071 35.5835H11.2342L14.9958 26.9418C15.4025 26.0268 16.3175 25.4168 17.3088 25.4168H27.3229C26.6113 23.841 26.0521 22.1381 25.7471 20.3335H17.3088C14.2842 20.3335 11.5392 22.1381 10.3192 24.9085L5.28667 36.4731C5.26125 36.5239 5.28667 36.5747 5.26125 36.651C2.16042 38.2268 0 41.4039 0 45.1147V54.646C0 56.3312 0.669455 57.9474 1.86109 59.1391C3.05273 60.3307 4.66894 61.0002 6.35417 61.0002C8.0394 61.0002 9.6556 60.3307 10.8472 59.1391C12.0389 57.9474 12.7083 56.3312 12.7083 54.646V53.3752H43.2083V54.646C43.2083 56.3312 43.8778 57.9474 45.0694 59.1391C46.2611 60.3307 47.8773 61.0002 49.5625 61.0002C51.2477 61.0002 52.8639 60.3307 54.0556 59.1391C55.2472 57.9474 55.9167 56.3312 55.9167 54.646V45.1147C55.9167 42.2427 54.6204 39.6756 52.5871 37.9727ZM15.25 48.2918H10.1667C8.76875 48.2918 7.625 47.1481 7.625 45.7502C7.625 44.3522 8.76875 43.2085 10.1667 43.2085H15.25C16.6479 43.2085 17.7917 44.3522 17.7917 45.7502C17.7917 47.1481 16.6479 48.2918 15.25 48.2918ZM45.75 48.2918H40.6667C39.2688 48.2918 38.125 47.1481 38.125 45.7502C38.125 44.3522 39.2688 43.2085 40.6667 43.2085H45.75C47.1479 43.2085 48.2917 44.3522 48.2917 45.7502C48.2917 47.1481 47.1479 48.2918 45.75 48.2918Z" fill="white"/>
<path d="M59.7063 4.64118L46.3625 0.101761C45.9657 -0.0355479 45.5343 -0.0355479 45.1375 0.101761L31.7937 4.64118C31.4164 4.76881 31.0886 5.01159 30.8565 5.33532C30.6244 5.65906 30.4997 6.04743 30.5 6.44576V16.6582C30.5 29.1225 44.4131 35.1818 45.0053 35.4335C45.241 35.5329 45.4942 35.5841 45.75 35.5841C46.0058 35.5841 46.259 35.5329 46.4947 35.4335C47.0869 35.1818 61 29.1225 61 16.6582V6.44576C61.0003 6.04743 60.8756 5.65906 60.6435 5.33532C60.4114 5.01159 60.0836 4.76881 59.7063 4.64118ZM54.1019 14.2792L47.1123 23.175C46.9006 23.4443 46.6366 23.6681 46.3362 23.8328C46.0358 23.9975 45.7053 24.0997 45.3643 24.1335C45.0234 24.1672 44.6792 24.1316 44.3524 24.0289C44.0256 23.9263 43.7229 23.7586 43.4625 23.5359L39.0146 19.7234C38.7506 19.5096 38.5322 19.245 38.3722 18.9453C38.2122 18.6457 38.114 18.3169 38.0832 17.9786C38.0524 17.6403 38.0898 17.2993 38.1931 16.9757C38.2964 16.652 38.4635 16.3524 38.6846 16.0945C38.9056 15.8365 39.1762 15.6255 39.4802 15.4739C39.7842 15.3223 40.1155 15.2332 40.4545 15.2118C40.7935 15.1904 41.1334 15.2372 41.4541 15.3495C41.7747 15.4617 42.0696 15.637 42.3213 15.8652L44.7562 17.9519L50.1064 11.1428C50.3124 10.8804 50.568 10.6612 50.8586 10.4976C51.1493 10.3341 51.4693 10.2293 51.8004 10.1895C52.1316 10.1496 52.4673 10.1753 52.7885 10.2652C53.1097 10.355 53.41 10.5073 53.6724 10.7132C53.9347 10.9192 54.1539 11.1748 54.3175 11.4654C54.4811 11.7561 54.5858 12.0761 54.6257 12.4072C54.6656 12.7384 54.6398 13.0741 54.55 13.3953C54.4601 13.7165 54.3079 14.0168 54.1019 14.2792Z" fill="white"/>
</svg>
