<svg width="73" height="55" viewBox="0 0 73 55" fill="none" xmlns="http://www.w3.org/2000/svg">
<path d="M72.4297 31.1505L66.6125 28.8692L63.1792 20.6111L65.6772 15.0677C65.8369 14.7255 65.757 14.3263 65.4947 14.0639L58.6623 7.2886C58.4962 7.12153 58.2706 7.02718 58.035 7.02625C57.8867 7.02625 57.7498 7.06047 57.6244 7.1175L52.2292 9.8436L44.0395 6.36469L42.3742 0.638753C42.3199 0.454066 42.2072 0.291971 42.0529 0.176799C41.8987 0.0616265 41.7113 -0.000409623 41.5188 2.03559e-06H31.6067C31.2189 2.03559e-06 30.8767 0.25094 30.7627 0.615939L28.9605 6.3875L20.3259 9.93485L15.2159 7.01485C15.0766 6.93721 14.9192 6.89786 14.7597 6.90078C14.5316 6.90078 14.3034 6.98063 14.1437 7.15172L7.08328 13.9841C6.79813 14.2692 6.72969 14.6798 6.91219 15.0334L9.83219 20.6795L6.34188 28.835L0.593125 30.9109C0.239531 31.0364 0 31.3786 0 31.755V41.4959C0 41.9978 0.410625 42.397 0.889687 42.397L12.832 42.3856L12.9917 42.34C13.0487 42.3286 13.1058 42.3058 13.1742 42.2716C13.2198 42.2373 13.2655 42.2145 13.3111 42.1803L13.4252 42.0434C13.4594 41.9978 13.4936 41.9636 13.5164 41.9066L13.5848 41.7469C13.6077 41.6898 13.6191 41.6328 13.6191 41.61L13.6305 41.5302V41.4845C13.6305 41.4503 13.6305 41.4047 13.6191 41.4047V41.3477L13.6077 41.2906C13.2769 39.7736 13.1058 38.1767 13.1058 36.5342C13.1058 23.7364 23.5311 13.3111 36.3631 13.3111C49.1609 13.3111 59.5977 23.725 59.5977 36.5342C59.5977 38.1767 59.4266 39.7736 59.0844 41.3591L59.073 41.5758L59.1186 41.7469C59.13 41.8039 59.1528 41.8609 59.1756 41.9066L59.2669 42.0434C59.3125 42.1005 59.3467 42.1347 59.3923 42.1803L59.5292 42.2716C59.5863 42.3058 59.6433 42.3286 59.6661 42.3286L59.7345 42.3628L59.7802 42.3742C59.8372 42.3856 59.8942 42.397 59.9741 42.397H72.1103C72.6008 42.397 73 41.9864 73 41.4959V31.9717C73 31.6181 72.7719 31.2873 72.4297 31.1505Z" fill="white"/>
<path d="M53.6892 26.4168H50.4498L49.7426 23.8048V23.7364C49.7429 23.5653 49.6912 23.3983 49.5944 23.2573L49.2864 22.1167C49.1044 21.4506 48.7092 20.8624 48.1613 20.4422C47.6134 20.022 46.9428 19.7928 46.2523 19.7898H26.7248C25.3104 19.7898 24.0558 20.7479 23.6908 22.1281L22.5387 26.4054H19.3108C18.4773 26.4054 17.678 26.7365 17.0887 27.3258C16.4994 27.9151 16.1683 28.7144 16.1683 29.5478C16.1683 30.3813 16.4994 31.1806 17.0887 31.7699C17.678 32.3592 18.4773 32.6903 19.3108 32.6903H20.1548C19.7784 33.1807 19.4704 33.6028 19.1853 34.0248C18.5808 34.9715 18.0903 35.884 17.6911 36.8421C17.5314 37.2299 17.4059 37.6406 17.3147 38.1196L17.3033 38.1995C17.212 38.6557 17.1778 39.0892 17.1778 39.534V47.6324C17.1778 48.6248 17.7253 49.5373 18.5808 50.0278V52.6056C18.5808 53.9059 19.6415 54.9667 20.9533 54.9667H25.6412C26.9415 54.9667 28.0023 53.9059 28.0023 52.6056V50.3814H44.9178V52.6056C44.9178 53.9059 45.9786 54.9667 47.2789 54.9667H51.9783C53.2786 54.9667 54.3394 53.9059 54.3394 52.6056V49.9935C55.1834 49.4917 55.6967 48.6134 55.6967 47.6324V39.842C55.6967 39.3287 55.6511 38.8268 55.5598 38.3478L55.5256 38.1881C55.4572 37.8573 55.3773 37.4695 55.2404 37.1045C54.8983 36.1578 54.3964 35.154 53.769 34.1275L53.7006 34.0362C53.4269 33.6028 53.1189 33.1693 52.7653 32.6789H53.6664C55.4001 32.6789 56.8031 31.2645 56.8031 29.5307C56.8259 27.8312 55.4115 26.4168 53.6892 26.4168ZM24.0444 27.7057C24.1014 27.5917 24.1356 27.4776 24.1242 27.4206L24.8656 24.6375H48.1001L49.7997 30.9223H23.2003L24.0444 27.7057ZM19.3108 30.9223C18.9493 30.9223 18.6026 30.7787 18.3469 30.5231C18.0913 30.2674 17.9477 29.9208 17.9477 29.5592C17.9477 29.1977 18.0913 28.851 18.3469 28.5954C18.6026 28.3398 18.9493 28.1962 19.3108 28.1962H22.0711L21.3525 30.9223H19.3108ZM26.2229 52.617C26.2229 52.9364 25.9606 53.1987 25.6412 53.1987H20.9533C20.6339 53.1987 20.3715 52.9364 20.3715 52.617V50.3928H26.2115V52.617H26.2229ZM52.5714 52.617C52.5714 52.9364 52.309 53.1987 51.9897 53.1987H47.2903C47.138 53.1957 46.9929 53.1331 46.8863 53.0243C46.7797 52.9156 46.7199 52.7693 46.72 52.617V50.3928H52.56V52.617H52.5714ZM53.9059 39.534C53.9173 39.6367 53.9287 39.7507 53.9287 39.8648V47.6553C53.9287 48.1914 53.4953 48.6134 52.9706 48.6134H48.4765L46.9481 45.9329C46.2979 44.7809 45.0433 44.0623 43.6973 44.0623H29.4395C28.2076 44.0623 27.0556 44.6668 26.3598 45.6592L24.3067 48.6248H19.9381C19.4134 48.6248 18.9914 48.1914 18.9914 47.6667V39.477L25.1279 40.7887C25.2534 40.8115 25.3903 40.8229 25.5158 40.8229C25.9492 40.8229 26.3712 40.6632 26.702 40.3667C27.1354 39.9903 27.3408 39.4428 27.3065 38.861L27.124 36.865C27.0214 35.77 26.2001 34.8574 25.1165 34.6407L21.5122 33.9449C21.8429 33.5115 22.1395 33.1237 22.4703 32.7359H50.5297C50.849 33.1351 51.157 33.5343 51.4878 34.002L47.8036 34.7092C46.72 34.9145 45.8987 35.827 45.8075 36.922L45.625 38.9067C45.5679 39.4884 45.7847 40.0359 46.2181 40.4237C46.5489 40.7203 46.9595 40.88 47.4044 40.88C47.5298 40.88 47.6667 40.8685 47.7922 40.8457L53.9059 39.534ZM53.6892 30.9223H51.6589L50.9289 28.1962H53.7006C54.442 28.1962 55.0579 28.8007 55.0579 29.5535C55.0465 30.3178 54.4306 30.9223 53.6892 30.9223Z" fill="white"/>
<path d="M22.2878 42.7279C21.7751 42.729 21.2742 42.882 20.8483 43.1676C20.4225 43.4532 20.0907 43.8585 19.895 44.3324C19.6993 44.8063 19.6484 45.3276 19.7487 45.8305C19.8491 46.3333 20.0961 46.7951 20.4586 47.1577C20.8212 47.5203 21.2831 47.7673 21.7859 47.8676C22.2887 47.9679 22.81 47.917 23.2839 47.7213C23.7579 47.5256 24.1632 47.1939 24.4487 46.768C24.7343 46.3422 24.8873 45.8413 24.8884 45.3285C24.8884 43.9027 23.725 42.7279 22.2878 42.7279ZM50.5981 47.9177C51.2864 47.9177 51.9464 47.6443 52.433 47.1577C52.9197 46.6711 53.1931 46.011 53.1931 45.3228C53.1931 44.6346 52.9197 43.9746 52.433 43.4879C51.9464 43.0013 51.2864 42.7279 50.5981 42.7279C50.2572 42.7279 49.9195 42.7952 49.6046 42.9261C49.2898 43.0569 49.0038 43.2486 48.7632 43.4903C48.5227 43.7319 48.3322 44.0187 48.2027 44.3342C48.0733 44.6496 48.0074 44.9875 48.0089 45.3285C48.0122 46.0142 48.2861 46.6709 48.7709 47.1557C49.2558 47.6406 49.9124 47.9144 50.5981 47.9177ZM42.7278 38.4277H30.2722C30.044 38.4393 29.829 38.5381 29.6716 38.7037C29.5142 38.8692 29.4264 39.089 29.4264 39.3174C29.4264 39.5459 29.5142 39.7656 29.6716 39.9312C29.829 40.0968 30.044 40.1956 30.2722 40.2071H42.7278C42.956 40.1956 43.171 40.0968 43.3284 39.9312C43.4858 39.7656 43.5736 39.5459 43.5736 39.3174C43.5736 39.089 43.4858 38.8692 43.3284 38.7037C43.171 38.5381 42.956 38.4393 42.7278 38.4277ZM42.7278 41.6215H30.2722C29.7817 41.6215 29.3825 42.0207 29.3825 42.5226C29.3825 43.0245 29.7817 43.4123 30.2722 43.4123H42.7278C43.2183 43.4123 43.6175 43.013 43.6175 42.5226C43.6175 42.0321 43.2183 41.6215 42.7278 41.6215Z" fill="white"/>
</svg>
