<svg width="73" height="73" viewBox="0 0 73 73" fill="none" xmlns="http://www.w3.org/2000/svg">
<path d="M73 51.3452V44.0697L65.7179 43.2986C65.2697 41.4623 64.5416 39.7058 63.5592 38.0908L68.1641 32.3951L63.0196 27.2506L57.3239 31.8556C55.709 30.8732 53.9525 30.1451 52.1161 29.6968L51.3451 22.4148H44.0696L43.2985 29.6968C41.4621 30.1451 39.7057 30.8732 38.0907 31.8556L32.395 27.2506L27.2505 32.3951L31.8555 38.0908C30.8731 39.7058 30.1449 41.4623 29.6967 43.2986L22.4147 44.0697V51.3452L29.6967 52.1162C30.145 53.9526 30.8731 55.7091 31.8555 57.324L27.2505 63.0198L32.395 68.1643L38.0907 63.5593C39.7057 64.5417 41.4621 65.2698 43.2985 65.7181L44.0697 72.9999H51.3452L52.1163 65.7179C53.9526 65.2696 55.7091 64.5415 57.3241 63.5591L63.0198 68.1641L68.1643 63.0196L63.5593 57.3239C64.5417 55.709 65.2698 53.9525 65.7181 52.1161L73 51.3452ZM47.7075 56.2303C43.0004 56.2303 39.1846 52.4145 39.1846 47.7074C39.1846 43.0004 43.0004 39.1846 47.7075 39.1846C52.4145 39.1846 56.2304 43.0004 56.2304 47.7074C56.2304 52.4145 52.4145 56.2303 47.7075 56.2303Z" fill="white"/>
<path d="M33.788 16.2948C33.4382 14.862 32.8701 13.4915 32.1036 12.2313L35.6967 7.78719L31.6826 3.77304L27.2384 7.36616C25.9783 6.59963 24.6078 6.03151 23.1749 5.68174L22.5734 0H16.8966L16.295 5.68188C14.8621 6.03162 13.4916 6.59974 12.2315 7.3663L7.78733 3.77319L3.77319 7.78733L7.3663 12.2315C6.59977 13.4916 6.03165 14.8621 5.68188 16.295L0 16.8965V22.5733L5.68188 23.1749C6.03162 24.6078 6.59974 25.9783 7.3663 27.2384L3.77319 31.6826L7.78733 35.6967L12.2315 32.1036C13.4916 32.8701 14.8621 33.4382 16.295 33.788L16.8966 39.4699H22.5734L23.1404 34.1147L21.5051 32.0919L24.2263 29.3707L29.3708 24.2262L32.0919 21.5049L34.1147 23.1403L39.4699 22.5733V16.8965L33.788 16.2948ZM19.735 26.3851C16.0621 26.3851 13.0848 23.4078 13.0848 19.735C13.0848 16.0621 16.0621 13.0848 19.735 13.0848C23.4078 13.0848 26.3851 16.0621 26.3851 19.735C26.3851 23.4078 23.4078 26.3851 19.735 26.3851Z" fill="white"/>
</svg>
