<svg width="43" height="43" viewBox="0 0 43 43" fill="none" xmlns="http://www.w3.org/2000/svg">
<path fill-rule="evenodd" clip-rule="evenodd" d="M13.2941 33.5723L11.9585 35.8848C11.6201 36.4718 10.8666 36.6735 10.281 36.3351C9.69669 35.9982 9.49379 35.2409 9.83118 34.6568L11.1664 32.3439C11.5052 31.7569 12.2582 31.5552 12.8452 31.894C13.4308 32.2332 13.6334 32.9854 13.2941 33.5723V33.5723ZM16.0635 33.7523C15.8774 33.6448 15.6663 33.5882 15.4514 33.5883C15.0267 33.5883 14.6129 33.8087 14.386 34.2022L12.2206 37.9523C11.8818 38.5384 12.0849 39.292 12.6704 39.6307C13.2565 39.9694 14.0095 39.7678 14.3479 39.1809L16.5133 35.4307C16.8517 34.8438 16.65 34.0917 16.0635 33.7524L16.0635 33.7523ZM7.48569 18.4525C7.53527 18.4106 7.52848 18.3388 7.47142 18.3076L5.17577 17.0305C5.00966 16.939 4.83005 16.9533 4.68077 17.07C1.2859 19.7478 -0.608422 24.4787 0.176274 28.3181C0.207469 28.4736 0.293578 28.5787 0.439586 28.6404L2.24075 29.4051C2.30108 29.4304 2.36304 29.3909 2.36304 29.3249C2.4073 24.996 4.17847 21.2369 7.48569 18.4523V18.4525ZM19.853 36.3577C19.7676 36.0388 19.565 35.7742 19.2826 35.6103C19.0964 35.5032 18.8853 35.4468 18.6705 35.4467C18.2458 35.4467 17.832 35.6671 17.6042 36.0605L15.7993 39.1875C15.4867 39.7694 15.6916 40.501 16.2677 40.8331C16.5501 40.9962 16.8807 41.0392 17.1991 40.9537C17.5175 40.8682 17.7821 40.6656 17.9461 40.3832L19.7325 37.2891C19.8956 37.0062 19.9385 36.6761 19.853 36.3577ZM32.9557 31.3283L27.1958 28.002C26.071 27.3515 25.0217 26.7405 23.6782 26.7405C22.4775 26.7474 21.3912 27.2784 20.3402 27.7924C18.6822 28.6023 16.8031 29.5202 14.7746 27.841C14.1986 27.3629 13.8694 26.6485 13.9141 25.9736C13.9557 25.3546 14.2984 24.8136 14.8801 24.4509L19.6139 21.5004C18.2322 20.8134 16.9602 20.9233 15.5243 21.0483C13.6282 21.2119 11.4787 21.3993 8.70248 19.8376L8.16098 19.5326C5.25853 22.0344 3.73417 25.2401 3.62855 29.0668L8.20834 31.4285C8.27314 31.4615 8.33159 31.5057 8.38098 31.5591L9.48116 32.7425L10.0758 31.7135C10.7616 30.5258 12.2859 30.1171 13.4749 30.803C14.1143 31.1721 14.5276 31.7842 14.6664 32.456C15.3174 32.2404 16.0539 32.2924 16.6932 32.6614C17.3329 33.0304 17.7466 33.6426 17.8855 34.3143C18.5367 34.0988 19.2734 34.1508 19.9124 34.5198C20.4867 34.8513 20.8971 35.3882 21.0697 36.0311C21.0825 36.0784 21.0936 36.1256 21.1035 36.1731C21.7547 35.9573 22.4918 36.0092 23.1316 36.3781C23.6002 36.6477 23.9673 37.0638 24.1766 37.5623L26.9529 39.1644C27.4921 39.4769 28.1924 39.2897 28.5037 38.7496C28.8086 38.22 28.6352 37.5329 28.1135 37.2139L24.7144 35.2508C24.5698 35.1673 24.4642 35.0298 24.4209 34.8685C24.3775 34.7072 24.3999 34.5353 24.4832 34.3906C24.5669 34.2458 24.7047 34.1402 24.8662 34.0969C25.0277 34.0537 25.1998 34.0762 25.3447 34.1597L29.2866 36.4358C29.8831 36.7806 30.6491 36.5754 30.9935 35.9786C31.3333 35.3906 31.1331 34.626 30.5497 34.2793L27.2131 32.3534C26.9125 32.179 26.8087 31.7938 26.9827 31.4923C27.157 31.1908 27.5423 31.088 27.8429 31.262L31.7354 33.509C32.3294 33.8518 33.099 33.646 33.4419 33.0518C33.8226 32.3934 33.526 31.7447 32.9557 31.3283V31.3283ZM38.0553 17.07C37.9702 17.0045 37.877 16.9703 37.7807 16.9703C37.7066 16.9703 37.632 16.991 37.5599 17.0305L35.2634 18.3076C35.2318 18.3254 35.2218 18.3402 35.2183 18.377C35.2149 18.4131 35.2218 18.429 35.25 18.4525C38.5573 21.237 40.3284 24.9962 40.3727 29.3251C40.3727 29.3911 40.4346 29.4306 40.495 29.4053L42.2956 28.6406C42.4414 28.5789 42.5272 28.4732 42.5594 28.3183C43.3441 24.4789 41.4497 19.7478 38.0553 17.07ZM34.5606 19.521L33.4337 20.1482C31.5744 21.1824 29.5018 21.3693 27.44 20.69C25.6146 20.0887 23.7007 20.4371 21.5855 21.7553L15.5467 25.5203C15.3081 25.6695 15.1858 25.8448 15.1715 26.0581C15.1524 26.3319 15.3129 26.6502 15.5779 26.8702C16.9158 27.9781 17.9946 27.536 19.7866 26.6602C20.9096 26.1111 22.1833 25.4894 23.6699 25.4803C25.2936 25.4803 26.4675 26.1253 27.8268 26.9114L33.6145 30.2538C33.9073 30.418 34.2933 30.8199 34.474 31.1077L39.1042 28.9657C38.9746 25.1777 37.4467 22.0025 34.5606 19.521ZM25.2931 39.6616L24.3119 39.0951C24.2564 39.3346 24.1656 39.5645 24.0425 39.7773L23.3758 40.9323L23.902 41.2283C24.8238 41.76 25.4251 41.4712 25.6823 41.0257C25.9162 40.6202 25.8909 40.0252 25.2931 39.6616H25.2931ZM22.5016 37.4691C21.9164 37.1345 21.1647 37.3286 20.8233 37.919L19.4876 40.2328C19.1496 40.8183 19.3522 41.5726 19.9374 41.9108C20.5244 42.2491 21.2765 42.0474 21.6154 41.4613L22.9506 39.1475C23.2897 38.5632 23.0845 37.8076 22.5016 37.4691ZM12.3534 9.01441C12.3534 4.03597 16.3894 0 21.3679 0C26.3463 0 30.3823 4.03597 30.3823 9.01441C30.3823 13.9929 26.3464 18.0288 21.3679 18.0288C16.3893 18.0288 12.3534 13.9929 12.3534 9.01441ZM16.0845 9.05652L18.191 12.7051C18.4018 13.0702 18.7382 13.295 19.1563 13.35C19.5743 13.405 19.9575 13.275 20.2555 12.9769L26.4551 6.77729C26.9364 6.29613 26.9364 5.50859 26.4551 5.02743C25.9739 4.54627 25.1865 4.54627 24.7052 5.02743L19.5768 10.1559L18.2277 7.81928C17.8879 7.2307 17.126 7.02659 16.5375 7.36639C15.9481 7.70662 15.7443 8.46725 16.0846 9.05661L16.0845 9.05652ZM34.3734 6.6281C34.5472 4.87781 35.9317 3.49327 37.682 3.31951C35.9317 3.14574 34.5472 1.7612 34.3734 0.0109141C34.1996 1.7612 32.8151 3.14574 31.0648 3.31951C32.8151 3.49327 34.1996 4.87781 34.3734 6.6281ZM7.85848 14.2492C8.00063 12.8171 9.13345 11.6843 10.5655 11.5422C9.13345 11.4 8.00063 10.2672 7.85848 8.83515C7.71634 10.2672 6.58352 11.4 5.15145 11.5422C6.58352 11.6843 7.71634 12.8171 7.85848 14.2492Z" fill="#FF8D1E"/>
</svg>
