<svg width="41" height="41" viewBox="0 0 41 41" fill="none" xmlns="http://www.w3.org/2000/svg">
<path d="M31.1667 -6.10352e-05H9.16667C6.73641 0.00285004 4.40652 0.969556 2.68807 2.68801C0.969617 4.40646 0.00291107 6.73635 0 9.16661V23.8333C0.00266663 25.9456 0.733499 27.9925 2.06932 29.6289C3.40513 31.2653 5.26426 32.3911 7.33333 32.8166V38.4999C7.33328 38.8319 7.42334 39.1576 7.5939 39.4423C7.76445 39.727 8.00911 39.9601 8.30176 40.1167C8.59442 40.2733 8.92409 40.3475 9.25561 40.3314C9.58714 40.3153 9.90807 40.2095 10.1842 40.0253L20.7167 32.9999H31.1667C33.5969 32.997 35.9268 32.0303 37.6453 30.3119C39.3637 28.5934 40.3304 26.2635 40.3333 23.8333V9.16661C40.3304 6.73635 39.3637 4.40646 37.6453 2.68801C35.9268 0.969556 33.5969 0.00285004 31.1667 -6.10352e-05ZM20.1667 27.4999C19.8041 27.4999 19.4496 27.3924 19.1481 27.191C18.8466 26.9895 18.6116 26.7032 18.4729 26.3682C18.3341 26.0332 18.2978 25.6646 18.3686 25.3089C18.4393 24.9533 18.6139 24.6266 18.8703 24.3702C19.1267 24.1138 19.4534 23.9392 19.809 23.8685C20.1646 23.7978 20.5333 23.8341 20.8683 23.9728C21.2033 24.1116 21.4896 24.3466 21.691 24.6481C21.8925 24.9496 22 25.304 22 25.6666C22 26.1528 21.8068 26.6192 21.463 26.963C21.1192 27.3068 20.6529 27.4999 20.1667 27.4999ZM23.4172 15.4366C23.0104 15.7021 22.6707 16.0584 22.4248 16.4773C22.1789 16.8962 22.0335 17.3665 22 17.8511V20.1666C22 20.6528 21.8068 21.1192 21.463 21.463C21.1192 21.8068 20.6529 21.9999 20.1667 21.9999C19.6804 21.9999 19.2141 21.8068 18.8703 21.463C18.5265 21.1192 18.3333 20.6528 18.3333 20.1666V17.8511C18.3594 16.789 18.6375 15.7483 19.1446 14.8147C19.6517 13.8811 20.3734 13.0813 21.2502 12.4813C21.5029 12.2961 21.7039 12.0493 21.8341 11.7644C21.9643 11.4795 22.0194 11.1659 21.994 10.8537C21.9686 10.5414 21.8636 10.2409 21.689 9.9808C21.5144 9.72067 21.2761 9.50961 20.9968 9.36776C20.7175 9.22591 20.4065 9.158 20.0935 9.1705C19.7805 9.18301 19.4759 9.27552 19.2088 9.4392C18.9416 9.60288 18.7209 9.83228 18.5677 10.1055C18.4144 10.3787 18.3338 10.6867 18.3333 10.9999C18.3333 11.4862 18.1402 11.9525 17.7964 12.2963C17.4525 12.6401 16.9862 12.8333 16.5 12.8333C16.0138 12.8333 15.5475 12.6401 15.2036 12.2963C14.8598 11.9525 14.6667 11.4862 14.6667 10.9999C14.6667 10.0598 14.9076 9.13539 15.3666 8.3149C15.8255 7.49442 16.4871 6.80528 17.2882 6.31326C18.0893 5.82125 19.0032 5.5428 19.9425 5.50448C20.8819 5.46617 21.8153 5.66927 22.6538 6.09441C23.4924 6.51955 24.2079 7.15252 24.7321 7.9329C25.2564 8.71328 25.5718 9.61502 25.6484 10.552C25.725 11.489 25.5601 12.43 25.1694 13.2851C24.7788 14.1403 24.1755 14.881 23.4172 15.4366Z" fill="#FF8D1E"/>
</svg>
