<svg width="59" height="58" viewBox="0 0 59 58" fill="none" xmlns="http://www.w3.org/2000/svg">
<path d="M40.0026 3.28125C40.0026 1.46907 38.5102 0 36.6693 0C34.8283 0 33.3359 1.46907 33.3359 3.28125V7.21875C33.3359 9.03093 34.8283 10.5 36.6693 10.5C38.5102 10.5 40.0026 9.03093 40.0026 7.21875V3.28125Z" fill="#FF8D1E"/>
<path d="M42.6667 3.9375V7.21875C42.6667 8.78518 42.0345 10.2875 40.9093 11.3951C39.7841 12.5027 38.258 13.125 36.6667 13.125C35.0754 13.125 33.5492 12.5027 32.424 11.3951C31.2988 10.2875 30.6667 8.78518 30.6667 7.21875V3.9375H18.6667V7.21875C18.6667 8.78518 18.0345 10.2875 16.9093 11.3951C15.7841 12.5027 14.258 13.125 12.6667 13.125C11.0754 13.125 9.54924 12.5027 8.42403 11.3951C7.29881 10.2875 6.66667 8.78518 6.66667 7.21875V3.9375C4.89856 3.9375 3.20286 4.6289 1.95262 5.85961C0.702379 7.09032 0 8.75952 0 10.5V17.0625H49.3333V10.5C49.3333 8.75952 48.631 7.09032 47.3807 5.85961C46.1305 4.6289 44.4348 3.9375 42.6667 3.9375Z" fill="#FF8D1E"/>
<path d="M16.0026 3.28125C16.0026 1.46907 14.5102 0 12.6693 0C10.8283 0 9.33594 1.46907 9.33594 3.28125V7.21875C9.33594 9.03093 10.8283 10.5 12.6693 10.5C14.5102 10.5 16.0026 9.03093 16.0026 7.21875V3.28125Z" fill="#FF8D1E"/>
<path d="M29.3333 44.625C29.3323 42.025 29.986 39.4653 31.236 37.1748C32.486 34.8844 34.2932 32.9346 36.496 31.5H34.6667C33.9594 31.5 33.2811 31.2234 32.781 30.7312C32.281 30.2389 32 29.5712 32 28.875V26.25C32 25.5538 32.281 24.8861 32.781 24.3938C33.2811 23.9016 33.9594 23.625 34.6667 23.625H37.3333C38.0406 23.625 38.7189 23.9016 39.2189 24.3938C39.719 24.8861 40 25.5538 40 26.25V28.875C39.9997 29.2136 39.9322 29.5489 39.8013 29.862C42.8515 28.7327 46.1836 28.568 49.3333 29.3908V19.6875H0V44.625C0 45.4868 0.172438 46.3402 0.50747 47.1364C0.842501 47.9326 1.33356 48.656 1.95262 49.2654C2.57168 49.8748 3.30661 50.3582 4.11544 50.688C4.92428 51.0178 5.79119 51.1875 6.66667 51.1875H30.8C29.8343 49.1303 29.3339 46.8912 29.3333 44.625ZM16 42C16 42.6962 15.719 43.3639 15.219 43.8562C14.7189 44.3484 14.0406 44.625 13.3333 44.625H10.6667C9.95942 44.625 9.28115 44.3484 8.78105 43.8562C8.28095 43.3639 8 42.6962 8 42V39.375C8 38.6788 8.28095 38.0111 8.78105 37.5188C9.28115 37.0266 9.95942 36.75 10.6667 36.75H13.3333C14.0406 36.75 14.7189 37.0266 15.219 37.5188C15.719 38.0111 16 38.6788 16 39.375V42ZM16 28.875C16 29.5712 15.719 30.2389 15.219 30.7312C14.7189 31.2234 14.0406 31.5 13.3333 31.5H10.6667C9.95942 31.5 9.28115 31.2234 8.78105 30.7312C8.28095 30.2389 8 29.5712 8 28.875V26.25C8 25.5538 8.28095 24.8861 8.78105 24.3938C9.28115 23.9016 9.95942 23.625 10.6667 23.625H13.3333C14.0406 23.625 14.7189 23.9016 15.219 24.3938C15.719 24.8861 16 25.5538 16 26.25V28.875ZM28 42C28 42.6962 27.719 43.3639 27.2189 43.8562C26.7189 44.3484 26.0406 44.625 25.3333 44.625H22.6667C21.9594 44.625 21.2811 44.3484 20.781 43.8562C20.281 43.3639 20 42.6962 20 42V39.375C20 38.6788 20.281 38.0111 20.781 37.5188C21.2811 37.0266 21.9594 36.75 22.6667 36.75H25.3333C26.0406 36.75 26.7189 37.0266 27.2189 37.5188C27.719 38.0111 28 38.6788 28 39.375V42ZM28 28.875C28 29.5712 27.719 30.2389 27.2189 30.7312C26.7189 31.2234 26.0406 31.5 25.3333 31.5H22.6667C21.9594 31.5 21.2811 31.2234 20.781 30.7312C20.281 30.2389 20 29.5712 20 28.875V26.25C20 25.5538 20.281 24.8861 20.781 24.3938C21.2811 23.9016 21.9594 23.625 22.6667 23.625H25.3333C26.0406 23.625 26.7189 23.9016 27.2189 24.3938C27.719 24.8861 28 25.5538 28 26.25V28.875Z" fill="#FF8D1E"/>
<path d="M45.3333 31.5C42.6963 31.5 40.1184 32.2698 37.9257 33.712C35.7331 35.1542 34.0241 37.204 33.0149 39.6023C32.0058 42.0006 31.7417 44.6396 32.2562 47.1856C32.7707 49.7316 34.0406 52.0702 35.9053 53.9058C37.77 55.7413 40.1457 56.9914 42.7321 57.4978C45.3185 58.0042 47.9994 57.7443 50.4358 56.7509C52.8721 55.7575 54.9545 54.0753 56.4196 51.9169C57.8847 49.7585 58.6667 47.2209 58.6667 44.625C58.6667 42.9014 58.3218 41.1947 57.6517 39.6023C56.9817 38.0099 55.9995 36.563 54.7614 35.3442C53.5233 34.1255 52.0535 33.1587 50.4358 32.4991C48.8181 31.8395 47.0843 31.5 45.3333 31.5ZM50.276 49.4904C50.026 49.7365 49.6869 49.8747 49.3333 49.8747C48.9798 49.8747 48.6407 49.7365 48.3907 49.4904L44.3907 45.5529C44.1406 45.3069 44.0001 44.9731 44 44.625V36.75C44 36.4019 44.1405 36.0681 44.3905 35.8219C44.6406 35.5758 44.9797 35.4375 45.3333 35.4375C45.687 35.4375 46.0261 35.5758 46.2762 35.8219C46.5262 36.0681 46.6667 36.4019 46.6667 36.75V44.0816L50.276 47.6346C50.526 47.8807 50.6664 48.2145 50.6664 48.5625C50.6664 48.9105 50.526 49.2443 50.276 49.4904Z" fill="#FF8D1E"/>
</svg>
