<svg width="35" height="34" viewBox="0 0 35 34" fill="none" xmlns="http://www.w3.org/2000/svg">
<path d="M32.5911 33.5124C22.2793 33.4904 11.9675 33.5124 1.63316 33.5124C0.256747 33.5124 -0.0591509 33.2258 0.00854139 31.8365C0.211618 28.176 0.482388 24.5376 0.708029 20.8771C0.93367 17.1945 1.15931 13.5119 1.40752 9.82936C1.58803 7.00679 1.76854 4.18423 1.97162 1.36167C2.03931 0.369359 2.44546 0.0385897 3.46085 0.0165385C4.58905 -0.00551282 5.73982 -0.00551282 6.86803 0.0165385C7.83828 0.0385897 8.28957 0.413461 8.35726 1.38372C8.69572 5.00013 8.98905 8.61654 9.32751 12.255C9.68854 16.1801 10.0496 20.0832 10.546 24.0083V15.4524H13.1634C13.1634 14.2176 13.186 13.0709 13.1634 11.9242C13.1408 11.3068 13.2537 10.7555 13.8629 10.4468C14.4721 10.1381 14.9911 10.3806 15.5101 10.7114C17.7439 12.1668 19.9552 13.6442 22.2116 15.0555C22.6178 15.2981 23.1142 15.3863 23.746 15.6068C23.746 14.2176 23.7685 13.0268 23.746 11.8581C23.7234 11.2627 23.8814 10.7335 24.4455 10.4468C25.0096 10.1381 25.5285 10.3365 26.025 10.6673C28.507 12.2991 31.0116 13.9088 33.4937 15.5406C33.8096 15.7391 34.0352 16.0478 34.306 16.3124V32.5422C33.9901 33.2919 33.4034 33.5124 32.5911 33.5124ZM27.6947 21.8473H30.3121V18.0324H27.6947V21.8473ZM30.3121 28.3304V24.5376H27.7173V28.3304H30.3121ZM23.7008 21.8694V18.0324H21.1285V21.8694H23.7008ZM14.5173 18.0324V21.8473H17.067V18.0324H14.5173ZM23.6783 28.3524V24.5376H21.1285V28.3524H23.6783ZM14.4721 28.3304H17.0444V24.5596H14.4721V28.3304Z" fill="#F6F6FA"/>
</svg>
