<svg width="41" height="39" viewBox="0 0 41 39" fill="none" xmlns="http://www.w3.org/2000/svg">
<path d="M34.8461 13.9496V29.8154C34.8461 30.4098 34.3656 30.8904 33.7711 30.8904H7.06688C6.47247 30.8904 5.99188 30.4098 5.99188 29.8154V12.7418C5.99188 12.1474 6.47247 11.6668 7.06688 11.6668H21.2063V8.80859H5.89071C4.36674 8.80859 3.13365 10.0417 3.13365 11.5657V32.6799H37.7044V13.9496H34.8461ZM40.6391 33.7106C40.4115 33.3629 40.0321 33.1542 39.6147 33.1542H1.22394C0.806588 33.1542 0.427176 33.3629 0.199529 33.7106C-0.0281182 34.0584 -0.0597358 34.4948 0.0983524 34.8426L0.648499 36.6827C0.905758 37.2574 1.32389 37.7453 1.85241 38.0876C2.38093 38.4298 2.99723 38.6118 3.62688 38.6114H37.2048C38.4822 38.6114 39.652 37.8589 40.1959 36.6574L40.7334 34.8552C40.8978 34.4821 40.8605 34.0521 40.6391 33.7106ZM23.6851 36.6511H17.1529C16.7229 36.6511 16.3814 36.3033 16.3814 35.8796C16.3814 35.4559 16.7229 35.1082 17.1529 35.1082H23.6851C24.1088 35.1082 24.4566 35.4559 24.4566 35.8796C24.4566 36.3033 24.1088 36.6511 23.6851 36.6511Z" fill="white"/>
<path d="M15.217 21.8162C13.3314 21.8162 11.7973 20.0481 11.7973 17.8735C11.7973 15.6994 13.3314 13.9307 15.217 13.9307C17.1033 13.9307 18.6381 15.6994 18.6381 17.8735C18.6381 20.0481 17.1033 21.8162 15.217 21.8162ZM20.869 28.631H9.56633C9.47358 28.6308 9.38186 28.6116 9.29686 28.5745C9.21186 28.5373 9.13539 28.4832 9.07219 28.4153C9.00899 28.3474 8.96041 28.2673 8.92945 28.1798C8.8985 28.0924 8.88583 27.9995 8.89224 27.907L9.10408 24.9501C9.1644 24.1459 9.52577 23.394 10.1161 22.8445C10.7063 22.295 11.4821 21.9883 12.2886 21.9856H18.1467C18.9532 21.9882 19.729 22.2949 20.3192 22.8444C20.9094 23.3939 21.2706 24.1459 21.3306 24.9501L21.5425 27.907C21.5551 28.0935 21.4906 28.2788 21.3635 28.416C21.2364 28.5526 21.0556 28.631 20.869 28.631ZM39.7473 0.505882C39.4185 0.196029 38.9758 0 38.4762 0H23.5401C22.5157 0 21.681 0.841029 21.681 1.86544V11.61C21.681 11.7112 21.6873 11.806 21.7062 11.9009C21.7748 12.3385 21.9971 12.7374 22.3331 13.0259C22.6692 13.3145 23.0971 13.4739 23.5401 13.4754H23.6539C24.1724 13.4754 24.5898 13.8928 24.5898 14.405V16.6625C24.5898 17.3201 25.3865 17.6616 25.8671 17.1937L29.3071 13.7537C29.4842 13.5766 29.7182 13.4754 29.9648 13.4754H38.4762C39.507 13.4754 40.3417 12.6407 40.3417 11.61V1.86544C40.3417 1.32794 40.114 0.847353 39.7473 0.505882ZM26.2276 8.04985C26.046 8.04986 25.8662 8.01399 25.6986 7.94432C25.5309 7.87464 25.3786 7.77254 25.2506 7.64386C25.1225 7.51518 25.0211 7.36246 24.9522 7.19448C24.8832 7.0265 24.8482 6.84656 24.849 6.665C24.849 5.89985 25.4624 5.28647 26.2276 5.28647C26.9927 5.28647 27.6124 5.89985 27.6124 6.665C27.6124 7.43015 26.9927 8.04985 26.2276 8.04985ZM31.0082 8.04985C30.8266 8.04986 30.6468 8.01399 30.4792 7.94432C30.3115 7.87464 30.1592 7.77254 30.0311 7.64386C29.9031 7.51518 29.8016 7.36246 29.7327 7.19448C29.6638 7.0265 29.6288 6.84656 29.6296 6.665C29.6296 5.89985 30.243 5.28647 31.0082 5.28647C31.7733 5.28647 32.393 5.89985 32.393 6.665C32.393 7.43015 31.7733 8.04985 31.0082 8.04985ZM35.7887 8.04985C35.6072 8.04986 35.4274 8.01399 35.2597 7.94432C35.0921 7.87464 34.9398 7.77254 34.8117 7.64386C34.6836 7.51518 34.5822 7.36246 34.5133 7.19448C34.4444 7.0265 34.4094 6.84656 34.4102 6.665C34.4102 5.89985 35.0236 5.28647 35.7887 5.28647C36.5539 5.28647 37.1736 5.89985 37.1736 6.665C37.1736 7.43015 36.5539 8.04985 35.7887 8.04985Z" fill="white"/>
</svg>
