<svg width="36" height="34" viewBox="0 0 36 34" fill="none" xmlns="http://www.w3.org/2000/svg">
<path d="M9.74802 10.6913L18.0002 14.1297L26.2525 10.6913L18.0002 7.25293L9.74802 10.6913ZM1.44024 6.49134C1.44024 6.87798 1.76263 7.19134 2.16024 7.19134C2.55786 7.19134 2.88024 6.87791 2.88024 6.49134V3.18268H3.79705V2.29134H6.48024C6.87786 2.29134 7.20024 1.97798 7.20024 1.59134C7.20024 1.2047 6.87786 0.891338 6.48024 0.891338H3.79705V0H0.523438V3.18268H1.44024V6.49134ZM28.8002 2.29134H32.3379V3.05197H33.1202V6.49134C33.1202 6.87798 33.4426 7.19134 33.8402 7.19134C34.2379 7.19134 34.5602 6.87791 34.5602 6.49134V3.05204H35.3426V0.130703H32.3378V0.891406H28.8002C28.4026 0.891406 28.0802 1.20477 28.0802 1.59141C28.0802 1.97805 28.4026 2.29134 28.8002 2.29134ZM2.16024 8.59134C1.76263 8.59134 1.44024 8.9047 1.44024 9.29134V12.7913C1.44024 13.178 1.76263 13.4913 2.16024 13.4913C2.55786 13.4913 2.88024 13.1779 2.88024 12.7913V9.29134C2.88024 8.90477 2.55786 8.59134 2.16024 8.59134ZM33.8402 8.59134C33.4426 8.59134 33.1202 8.9047 33.1202 9.29134V12.7913C33.1202 13.178 33.4426 13.4913 33.8402 13.4913C34.2379 13.4913 34.5602 13.1779 34.5602 12.7913V9.29134C34.5602 8.90477 34.2379 8.59134 33.8402 8.59134ZM34.5602 19.7914C34.5602 19.4048 34.2379 19.0914 33.8402 19.0914C33.4426 19.0914 33.1202 19.4048 33.1202 19.7914V30.8467H32.2515V31.6914H3.55616L3.55651 31.0334H2.88024V19.7914C2.88024 19.4048 2.55793 19.0914 2.16024 19.0914C1.76255 19.0914 1.44024 19.4048 1.44024 19.7914V31.0334H0.763625V33.7494H3.55503L3.55538 33.0914H32.2515V33.936H35.4291V30.8467H34.5602V19.7914ZM22.3202 2.29134H25.9202C26.3179 2.29134 26.6402 1.97798 26.6402 1.59134C26.6402 1.2047 26.3179 0.891338 25.9202 0.891338H22.3202C21.9226 0.891338 21.6002 1.2047 21.6002 1.59134C21.6002 1.97798 21.9226 2.29134 22.3202 2.29134ZM15.8402 2.29134H19.4402C19.8379 2.29134 20.1602 1.97798 20.1602 1.59134C20.1602 1.2047 19.8379 0.891338 19.4402 0.891338H15.8402C15.4426 0.891338 15.1202 1.2047 15.1202 1.59134C15.1202 1.97798 15.4426 2.29134 15.8402 2.29134ZM9.36024 2.29134H12.9602C13.3579 2.29134 13.6802 1.97798 13.6802 1.59134C13.6802 1.2047 13.3579 0.891338 12.9602 0.891338H9.36024C8.96263 0.891338 8.64024 1.2047 8.64024 1.59134C8.64024 1.97798 8.96263 2.29134 9.36024 2.29134Z" fill="#FF8D1E"/>
<path d="M35.28 16.2914H27.36V11.7529L18.72 15.3529V16.2913H17.28V15.3529L8.64 11.7529V16.2914H0.72C0.322383 16.2914 0 16.6047 0 16.9914C0 17.378 0.322312 17.6914 0.72 17.6914H8.64V22.8298L17.28 26.4298V17.6914H18.72V26.4298L27.36 22.8298V17.6914H35.28C35.6776 17.6914 36 17.378 36 16.9914C36 16.6048 35.6776 16.2914 35.28 16.2914Z" fill="#FF8D1E"/>
</svg>
