<svg width="39" height="40" viewBox="0 0 39 40" fill="none" xmlns="http://www.w3.org/2000/svg">
<path fill-rule="evenodd" clip-rule="evenodd" d="M12.5515 39.4672C12.4103 39.4672 12.2692 39.3979 12.175 39.3054L3.11737 30.4039C2.99973 30.3114 2.90563 30.1727 2.90563 30.0108C2.90563 29.8952 2.92915 29.8027 2.97621 29.7334V29.7102C2.99973 29.664 3.02326 29.6409 3.07031 29.5946C3.18794 29.479 3.3291 29.4328 3.47026 29.4328L15.8922 28.9704C16.0804 28.9704 16.2451 29.0397 16.3392 29.1785C16.4569 29.3172 16.5039 29.479 16.4569 29.6409L15.8922 31.9067C16.9744 32.2073 18.1508 32.3691 19.2095 32.3691C26.6438 32.3691 32.7136 26.4271 32.7136 19.1209C32.7136 11.8379 26.6438 5.94205 19.2095 5.94205C12.6456 5.94205 6.92865 10.7743 5.96406 17.1788C5.94054 17.225 5.94054 17.2712 5.91701 17.3175C5.82291 17.5256 5.63469 17.6412 5.42296 17.6412H5.32885C5.30532 17.6412 5.25827 17.6181 5.23474 17.6181L0.458877 16.3233C0.388298 16.3233 0.317718 16.3002 0.270665 16.2539C0.0589274 16.1383 -0.0351784 15.884 0.0118745 15.6528C0.0354009 15.6297 0.0354009 15.6066 0.0354009 15.5834C1.77636 6.54319 9.8224 0 19.2095 0C29.9375 0 38.6658 8.57782 38.6658 19.1209C38.6658 24.2537 36.6425 29.0629 32.9724 32.6928C29.3023 36.2997 24.4088 38.3112 19.2095 38.3112C17.3273 38.3112 15.5629 38.08 13.9866 37.6407L13.022 39.1898C12.9514 39.3285 12.7867 39.4441 12.622 39.4441C12.5985 39.4672 12.575 39.4672 12.5515 39.4672Z" fill="#FF8D1E"/>
<path fill-rule="evenodd" clip-rule="evenodd" d="M21.091 29.0641H17.4914C17.1856 29.0641 16.9503 28.8097 16.9503 28.5092V27.3994C16.3386 27.2606 15.727 26.9832 15.1388 26.6595L14.3389 27.4456C14.1272 27.6537 13.7978 27.6537 13.5861 27.4456L10.9981 24.9717C10.8805 24.8792 10.8335 24.7405 10.8335 24.6017C10.8335 24.4399 10.8805 24.3012 10.9746 24.2087L11.7745 23.4226C11.4687 22.8677 11.2334 22.2897 11.0452 21.6654H9.96298C9.65714 21.6654 9.42188 21.4342 9.42188 21.1336V17.573C9.42188 17.2724 9.65714 17.0412 9.96298 17.0412H11.0452C11.2569 16.3476 11.4922 15.7465 11.7745 15.2147L10.9981 14.4979C10.8805 14.4055 10.8335 14.2667 10.8335 14.128C10.8335 13.9662 10.8805 13.8274 10.9746 13.735L13.5625 11.1917C13.7743 10.9836 14.1272 10.9836 14.3389 11.1917L15.1388 11.9547C15.6329 11.6772 16.2445 11.446 16.9268 11.2379V10.1744C16.9268 9.87379 17.1856 9.64258 17.4914 9.64258H21.091C21.3968 9.64258 21.6321 9.87379 21.6321 10.1744V11.2379C22.3379 11.446 22.9261 11.6772 23.4436 11.9547L24.22 11.1686C24.3376 11.0761 24.4788 11.0067 24.62 11.0298C24.7611 11.0298 24.9023 11.0761 25.0199 11.1917L27.5137 13.735C27.6313 13.8274 27.6784 13.9662 27.6784 14.128C27.6784 14.2667 27.6078 14.4055 27.5137 14.4979L26.7373 15.2147C27.0902 15.839 27.349 16.4401 27.4902 17.0412H28.6195C28.9253 17.0412 29.1841 17.2724 29.1841 17.573V21.1105C29.1841 21.4111 28.9253 21.6654 28.6195 21.6654H27.4902C27.3255 22.3128 27.0197 22.8908 26.7373 23.4226L27.5372 24.2087C27.749 24.4168 27.749 24.7636 27.5372 24.9717L25.0199 27.4456C24.8082 27.6537 24.4553 27.6537 24.2435 27.4456L23.4436 26.6595C22.879 26.9832 22.2438 27.2606 21.6556 27.3994V28.5092C21.6556 28.8097 21.3968 29.0641 21.091 29.0641ZM19.303 24.9717C16.1269 24.9717 13.5625 22.4515 13.5625 19.3533C13.5625 17.8273 14.1507 16.3939 15.2329 15.3072C16.2916 14.2436 17.7502 13.6425 19.303 13.6425C22.4555 13.6425 25.0199 16.2089 25.0199 19.3533C25.0199 20.8331 24.4082 22.2434 23.326 23.307C22.2438 24.3705 20.8087 24.9717 19.303 24.9717ZM19.303 14.7292C16.6915 14.7292 14.6683 16.7638 14.6683 19.3533C14.6683 21.8504 16.7386 23.885 19.303 23.885C21.7968 23.885 23.9142 21.8041 23.9142 19.3533C23.9142 16.7869 21.8438 14.7292 19.303 14.7292Z" fill="#FF8D1E"/>
</svg>
