<svg width="39" height="37" viewBox="0 0 39 37" fill="none" xmlns="http://www.w3.org/2000/svg">
<path fill-rule="evenodd" clip-rule="evenodd" d="M1.68328 19.5111L0.518863 19.864C0.504324 19.8682 0.491289 19.8764 0.481288 19.8878C0.411269 19.9653 0.346671 20.0475 0.287951 20.1339C-0.299273 21.0036 0.0749915 21.8884 0.840152 22.662C1.06825 22.8927 1.34149 23.1234 1.66207 23.352C1.67598 23.3622 1.69285 23.3677 1.71012 23.3674H12.1306C12.1542 23.3674 12.1746 23.3586 12.1908 23.3414C12.1987 23.3332 12.2047 23.3235 12.2086 23.3129C12.2124 23.3022 12.2139 23.2909 12.2131 23.2796C12.0417 20.4792 14.2632 18.1106 17.0722 18.1106C19.8812 18.1106 22.1027 20.4792 21.9313 23.2796C21.9304 23.2909 21.9319 23.3022 21.9358 23.3129C21.9396 23.3235 21.9457 23.3332 21.9536 23.3414C21.9612 23.3497 21.9705 23.3564 21.9809 23.3609C21.9913 23.3653 22.0025 23.3676 22.0138 23.3674H30.7998C30.8154 23.3676 30.8307 23.3634 30.8439 23.3552C30.8571 23.3469 30.8676 23.3351 30.8743 23.321C32.2627 20.4784 32.4444 17.1516 31.3574 14.159C31.3516 14.1424 31.3405 14.1281 31.3258 14.1183C31.3111 14.1085 31.2937 14.1037 31.2761 14.1046C29.039 14.2011 24.4327 14.6134 20.2115 15.1036C16.5891 15.5242 13.2762 15.9981 12.0479 16.3703L8.20558 17.5346L8.20241 17.5357C8.18617 17.5413 8.1697 17.5463 8.15304 17.5505L1.74286 19.493C1.72455 19.4995 1.70596 19.5052 1.68715 19.51L1.68328 19.5111ZM7.43857 16.4245C7.4367 16.4403 7.43023 16.4552 7.41994 16.4673C7.40966 16.4794 7.39603 16.4883 7.38075 16.4927L2.24727 18.0483C2.22122 18.0562 2.19535 18.0516 2.17362 18.0352C2.15188 18.0189 2.14026 17.9954 2.14053 17.9682C2.14933 17.1713 2.21031 16.3769 2.32005 15.5984C2.32203 15.583 2.3284 15.5685 2.3384 15.5566C2.3484 15.5447 2.36161 15.5359 2.37646 15.5313L4.84829 14.7282L4.84785 14.7268C4.94702 14.6946 5.03643 14.6378 5.10773 14.5617C5.17904 14.4856 5.22992 14.3928 5.25564 14.2917C5.43721 13.5848 5.66846 12.8917 5.94767 12.2174C6.22276 11.5535 6.54395 10.9097 6.9089 10.2907C6.96859 10.1993 7.00312 10.0938 7.00901 9.98487C7.01489 9.87589 6.99193 9.7673 6.94242 9.67003L5.76322 7.35572C5.756 7.34197 5.75287 7.32644 5.75421 7.31097C5.75555 7.29549 5.76131 7.28073 5.77079 7.26843C6.79969 5.89968 8.03917 4.66002 9.40792 3.63121C9.42022 3.62173 9.43498 3.61597 9.45046 3.61463C9.46593 3.61329 9.48147 3.61642 9.49522 3.62364L11.8096 4.80284L11.8099 4.80231C11.9028 4.84961 12.0061 4.87268 12.1104 4.86939C12.2146 4.8661 12.3162 4.83655 12.406 4.78348C13.0322 4.41272 13.6839 4.08683 14.3562 3.80827C15.0185 3.53408 15.699 3.30614 16.3927 3.12609C16.5021 3.10559 16.6039 3.05599 16.6875 2.98253C16.7711 2.90907 16.8333 2.81445 16.8677 2.70862L17.6708 0.236874C17.6754 0.222033 17.6842 0.208829 17.6961 0.19883C17.708 0.188832 17.7225 0.182458 17.7379 0.180466C19.4445 -0.0601848 21.1765 -0.0601552 22.8831 0.180554C22.8985 0.182515 22.9131 0.188877 22.925 0.19888C22.9369 0.208883 22.9457 0.222104 22.9502 0.236962L23.7532 2.70835L23.7546 2.70791C23.7868 2.80709 23.8436 2.89649 23.9197 2.9678C23.9958 3.0391 24.0887 3.08999 24.1897 3.11571C24.8969 3.29733 25.5904 3.52868 26.265 3.808C26.9287 4.08303 27.5723 4.40419 28.1912 4.76914C28.2825 4.82886 28.388 4.86342 28.497 4.86932C28.606 4.87522 28.7146 4.85226 28.8118 4.80275L31.1258 3.62373C31.1395 3.6165 31.1551 3.61337 31.1706 3.61472C31.186 3.61606 31.2008 3.62181 31.2131 3.6313C32.5895 4.66775 33.8138 5.89208 34.8502 7.26852C34.8597 7.28082 34.8655 7.29558 34.8668 7.31105C34.8681 7.32653 34.865 7.34206 34.8578 7.35581L33.6788 9.66968L33.6794 9.66995C33.6321 9.76286 33.609 9.86621 33.6123 9.97042C33.6156 10.0746 33.6451 10.1763 33.6982 10.2661C34.069 10.8923 34.3948 11.544 34.6733 12.2164C34.9474 12.8788 35.1753 13.5593 35.3553 14.2532C35.3758 14.3625 35.4254 14.4644 35.4989 14.548C35.5723 14.6316 35.667 14.6938 35.7728 14.7282L38.2446 15.5314C38.2754 15.5414 38.2964 15.5664 38.301 15.5985C38.5416 17.3051 38.5416 19.0371 38.301 20.7437C38.299 20.7591 38.2926 20.7737 38.2826 20.7856C38.2726 20.7975 38.2594 20.8062 38.2446 20.8108L35.7728 21.6139L35.7732 21.6153C35.6741 21.6475 35.5847 21.7043 35.5134 21.7804C35.4421 21.8565 35.3912 21.9494 35.3655 22.0504C35.1839 22.7573 34.9526 23.4505 34.6733 24.1248C34.3983 24.7887 34.0771 25.4325 33.7121 26.0515C33.6524 26.1429 33.6178 26.2483 33.612 26.3573C33.6061 26.4663 33.6291 26.5749 33.6786 26.6722L34.8577 28.9865C34.8649 29.0002 34.8681 29.0158 34.8667 29.0312C34.8654 29.0467 34.8596 29.0615 34.8501 29.0738C33.8212 30.4425 32.5818 31.6822 31.2129 32.711C31.2006 32.7205 31.1858 32.7262 31.1704 32.7276C31.1549 32.7289 31.1394 32.7258 31.1256 32.7186L28.8117 31.5396L28.8114 31.5401C28.7185 31.4928 28.6151 31.4697 28.5109 31.473C28.4067 31.4763 28.305 31.5059 28.2153 31.559C27.5891 31.9297 26.9373 32.2555 26.265 32.534C25.6026 32.8082 24.922 33.0361 24.2281 33.2161C24.1187 33.2366 24.0169 33.2862 23.9333 33.3597C23.8497 33.4331 23.7874 33.5277 23.7531 33.6336L22.95 36.1053C22.9453 36.1202 22.9366 36.1334 22.9247 36.1434C22.9128 36.1534 22.8982 36.1597 22.8828 36.1617C21.1762 36.4024 19.4443 36.4024 17.7376 36.1617C17.7222 36.1597 17.7077 36.1534 17.6958 36.1434C17.6839 36.1334 17.6751 36.1202 17.6705 36.1053L16.8673 33.6335L16.8659 33.6339C16.8337 33.5348 16.7769 33.4454 16.7009 33.374C16.6248 33.3027 16.5319 33.2519 16.4308 33.2261C15.7239 33.0446 15.0307 32.8133 14.3564 32.534C13.6926 32.2589 13.0488 31.9377 12.4298 31.5728C12.3385 31.5131 12.233 31.4786 12.1241 31.4727C12.0151 31.4668 11.9065 31.4898 11.8093 31.5393L9.49486 32.7185C9.48112 32.7257 9.46558 32.7288 9.45011 32.7275C9.43463 32.7261 9.41987 32.7204 9.40757 32.7109C8.0389 31.6821 6.79907 30.4424 5.77035 29.0738C5.76087 29.0615 5.75511 29.0467 5.75377 29.0312C5.75243 29.0158 5.75556 29.0002 5.76278 28.9865L6.94181 26.6725L6.94128 26.6723C6.9886 26.5793 7.01168 26.476 7.00839 26.3718C7.0051 26.2676 6.97554 26.1659 6.92245 26.0761C6.65845 25.6295 6.42613 25.1875 6.21158 24.7267C6.20552 24.7142 6.20281 24.7003 6.20372 24.6864C6.20463 24.6725 6.20913 24.659 6.21678 24.6474C6.22411 24.6355 6.23439 24.6257 6.24662 24.619C6.25885 24.6123 6.27261 24.6089 6.28656 24.6091H8.97998C9.01034 24.6091 9.03638 24.6242 9.05152 24.6505C11.3553 28.646 15.6192 31.1618 20.3106 31.1618C27.485 31.1618 33.3012 25.3456 33.3012 18.1712C33.3012 10.9968 27.485 5.18054 20.3106 5.18054C13.7855 5.18036 8.29974 10.0256 7.43857 16.4245ZM17.072 19.3521C19.0752 19.3521 20.6988 20.9757 20.6988 22.979C20.6988 24.9822 19.0752 26.6058 17.072 26.6058C15.0688 26.6058 13.4452 24.9822 13.4452 22.979C13.4452 20.9757 15.0689 19.3521 17.072 19.3521ZM14.8982 14.5549C14.8797 14.5579 14.8608 14.5545 14.8445 14.5452C14.8283 14.536 14.8157 14.5214 14.8088 14.5041C14.8018 14.4868 14.8008 14.4676 14.8061 14.4497C14.8114 14.4318 14.8226 14.4162 14.838 14.4056C16.8914 12.9569 19.0691 11.7823 21.528 11.0444C24.52 10.1465 25.7237 10.1152 28.5416 9.82905C28.5538 9.82763 28.5662 9.82903 28.5778 9.83315C28.5894 9.83726 28.5999 9.84399 28.6085 9.85281C29.4661 10.7098 30.188 11.689 30.7504 12.7752C30.7569 12.7874 30.7602 12.8011 30.76 12.8149C30.7597 12.8288 30.7558 12.8423 30.7488 12.8542C30.7421 12.8664 30.7325 12.8766 30.7207 12.8839C30.7089 12.8912 30.6955 12.8953 30.6817 12.8959C27.0377 13.0955 19.4231 13.856 14.8982 14.5549Z" fill="#FF8D1E"/>
</svg>
