<svg width="42" height="43" viewBox="0 0 42 43" fill="none" xmlns="http://www.w3.org/2000/svg">
<path d="M27.0101 29.1867L21.5979 32.3116V26.0586L27.0101 22.9338V29.1867ZM23.558 13.2431H18.2627L20.9104 16.8062L23.558 13.2431ZM14.8106 29.1867L20.2229 32.3115V26.0585L14.8106 22.9337V29.1867ZM41.6679 42.1172C41.512 42.3348 41.2817 42.4531 41.014 42.4531H0.806678C0.538983 42.4531 0.30867 42.3348 0.15278 42.1172C-0.00311107 41.8995 -0.0410095 41.6434 0.0450999 41.39L1.9053 35.9165C2.1223 35.2781 2.69558 34.8675 3.36985 34.8675H38.4507C39.1249 34.8675 39.6983 35.2782 39.9152 35.9165L41.7754 41.39C41.8618 41.6434 41.8238 41.8995 41.6679 42.1172ZM19.6419 37.5939C19.6419 37.4048 19.4873 37.2501 19.2981 37.2501H8.97925C8.79019 37.2501 8.6355 37.4048 8.6355 37.5939V39.7268C8.6355 39.9158 8.7901 40.0705 8.97925 40.0705H19.2981C19.4873 40.0705 19.6419 39.9158 19.6419 39.7268V37.5939ZM26.9569 38.6603C26.9569 37.7951 26.2556 37.0939 25.3905 37.0939C24.5253 37.0939 23.824 37.7951 23.824 38.6603C23.824 39.5253 24.5253 40.2267 25.3905 40.2267C26.2556 40.2267 26.9569 39.5254 26.9569 38.6603ZM33.1852 38.6603C33.1852 37.7951 32.4839 37.0939 31.6188 37.0939C30.7537 37.0939 30.0524 37.7951 30.0524 38.6603C30.0524 39.5253 30.7537 40.2267 31.6188 40.2267C32.4839 40.2267 33.1852 39.5254 33.1852 38.6603ZM26.3256 21.7481L20.9104 18.6216L15.4951 21.7481L20.9104 24.8746L26.3256 21.7481ZM3.37002 33.4925C3.31072 33.4925 3.25186 33.4942 3.19333 33.4977V2.0625C3.19333 0.928125 4.12146 0 5.25583 0H36.5651C37.6995 0 38.6276 0.928125 38.6276 2.0625V33.4977C38.5691 33.4942 38.5102 33.4925 38.4509 33.4925H35.7058V7.33253H24.6357V11.3525C24.6357 11.6361 24.4037 11.8681 24.1201 11.8681H17.7007C17.4171 11.8681 17.1851 11.6361 17.1851 11.3525V7.33253H6.11512V33.4925H3.37002ZM22.5804 8.14284C22.5804 7.22055 21.8327 6.47281 20.9104 6.47281C19.988 6.47281 19.2404 7.22047 19.2404 8.14284C19.2404 9.06512 19.988 9.81286 20.9104 9.81286C21.8327 9.81286 22.5804 9.06512 22.5804 8.14284ZM6.11512 5.95753H17.1851V4.93316C17.1851 4.64956 17.4171 4.41753 17.7007 4.41753H24.1201C24.4037 4.41753 24.6357 4.64956 24.6357 4.93316V5.95753H35.7056V2.92188H6.11512V5.95753Z" fill="#FF8D1E"/>
</svg>
