<svg width="42" height="42" viewBox="0 0 42 42" fill="none" xmlns="http://www.w3.org/2000/svg">
<path d="M25.5 26.2501L35.2499 23.4661V14.3251L29.3002 16.0937C29.0811 16.1586 28.8537 16.1914 28.6252 16.1911C28.2025 16.1934 27.7874 16.0792 27.4253 15.8612C27.0633 15.6432 26.7682 15.3297 26.5724 14.9551L25.4999 12.8813L24.4244 14.9581C24.2285 15.3325 23.9335 15.6458 23.5716 15.8638C23.2097 16.0817 22.7949 16.196 22.3724 16.1941C22.1438 16.1941 21.9165 16.1611 21.6974 16.0959L15.75 14.3251V18.5027C16.5307 20.0956 16.7089 21.9171 16.2518 23.6312L25.5 26.2501ZM23.25 18.7193C23.2517 17.9062 23.9123 17.2485 24.7254 17.2502C25.0141 17.2508 25.2962 17.3363 25.5367 17.496L27.8429 19.0275C28.5181 19.4739 28.7036 20.3831 28.2573 21.0582C28.1485 21.2228 28.0076 21.3638 27.8429 21.4726L25.5367 23.0034C24.8601 23.4536 23.9467 23.2701 23.4964 22.5936C23.3362 22.3528 23.2504 22.0701 23.25 21.7809V18.7193Z" fill="white"/>
<path d="M26.9901 20.2411L24.7109 18.7463L24.7537 21.7808L26.9901 20.2411Z" fill="white"/>
<path d="M9.00003 27.7501C12.3137 27.7501 15.0001 25.0637 15.0001 21.75C15.0001 18.4363 12.3137 15.75 9.00003 15.75C5.6863 15.75 3 18.4363 3 21.75C3 25.0637 5.6863 27.7501 9.00003 27.7501Z" fill="white"/>
<path d="M25.2968 6.0285L17.7038 8.24246L25.5 10.47L33.3001 8.24246L25.7025 6.0285C25.57 5.99027 25.4293 5.99027 25.2968 6.0285ZM14.2792 11.5688C14.2268 11.7435 14.2445 11.9319 14.3287 12.0937C14.3781 12.1882 14.4463 12.2716 14.5291 12.3388C14.6119 12.406 14.7075 12.4556 14.8102 12.4845L22.1272 14.6595C22.3082 14.7155 22.503 14.7074 22.6787 14.6366C22.8545 14.5659 23.0006 14.4368 23.0924 14.2711L24.4124 11.7211L15.4124 9.14862L14.2792 11.5688ZM41.25 0H9.74997C9.55107 0 9.36031 0.0790145 9.21966 0.219661C9.07901 0.360308 9 0.551066 9 0.74997C9 0.948875 9.07901 1.13963 9.21966 1.28028C9.36031 1.42093 9.55107 1.49994 9.74997 1.49994H41.25C41.4489 1.49994 41.6396 1.42093 41.7803 1.28028C41.9209 1.13963 41.9999 0.948875 41.9999 0.74997C41.9999 0.551066 41.9209 0.360308 41.7803 0.219661C41.6396 0.0790145 41.4489 0 41.25 0Z" fill="white"/>
<path d="M40.4999 27.75V3H10.5V14.4C11.9171 14.6911 13.2196 15.3863 14.25 16.4017V13.866C13.7106 13.6726 13.263 13.2844 12.9953 12.7777C12.8579 12.5131 12.7759 12.2232 12.7545 11.9258C12.7331 11.6284 12.7727 11.3298 12.8708 11.0482C12.8797 11.0242 12.8895 10.9994 12.9 10.9733L14.3205 7.92978L14.328 7.93356C14.3716 7.83677 14.4353 7.75042 14.515 7.68031C14.5947 7.6102 14.6885 7.55795 14.79 7.52707L24.8775 4.58853C25.2838 4.46997 25.7155 4.46997 26.1218 4.58853L36.21 7.53006C36.3116 7.56094 36.4053 7.61319 36.485 7.6833C36.5647 7.75341 36.6285 7.83976 36.6721 7.93655L36.6795 7.93277L38.1 10.9762C38.1105 10.9995 38.1202 11.0242 38.1293 11.0512C38.2274 11.3328 38.267 11.6314 38.2455 11.9288C38.2241 12.2262 38.1422 12.5161 38.0047 12.7807C37.7364 13.2862 37.2889 13.6733 36.75 13.866V23.466C36.7465 23.7895 36.6398 24.1035 36.4454 24.3621C36.251 24.6207 35.979 24.8105 35.6692 24.9037L25.908 27.6914C25.7755 27.7304 25.6381 27.7501 25.5 27.75C25.3597 27.7501 25.2201 27.7304 25.0853 27.6914L15.729 25.0409C15.0986 26.3216 14.1176 27.397 12.9 28.1422C13.6948 28.3953 14.4461 28.7689 15.1275 29.2499H39C39.8284 29.25 40.4999 28.5784 40.4999 27.75Z" fill="white"/>
<path d="M36.675 12.0913C36.7592 11.9295 36.7769 11.7411 36.7245 11.5664L35.5912 9.1499L26.5912 11.7224L27.9104 14.2723C28.0022 14.4385 28.1485 14.568 28.3246 14.6389C28.5007 14.7098 28.6958 14.7178 28.8771 14.6616L36.1934 12.4866C36.2965 12.4572 36.3924 12.4069 36.4752 12.3389C36.5581 12.271 36.626 12.1867 36.675 12.0913ZM11.25 41.9999C12.0784 41.9999 12.75 41.3283 12.75 40.4999V35.9999C12.75 35.8515 12.794 35.7066 12.8764 35.5832C12.9588 35.4599 13.0759 35.3638 13.213 35.307C13.35 35.2503 13.5008 35.2354 13.6462 35.2643C13.7917 35.2933 13.9253 35.3647 14.0302 35.4695L15.4012 36.8405C15.6102 37.0496 15.8583 37.2154 16.1314 37.3285C16.4045 37.4416 16.6972 37.4998 16.9928 37.4998H24.2677C25.2568 37.5223 26.1061 36.8005 26.2432 35.8206C26.3513 34.7907 25.6041 33.8682 24.5742 33.7601C24.508 33.7531 24.4415 33.7497 24.375 33.7498H18.3112C18.1141 33.7498 17.9189 33.711 17.7368 33.6356C17.5547 33.5602 17.3893 33.4496 17.2499 33.3102L15.1664 31.2267C14.5395 30.5998 13.7953 30.1026 12.9762 29.7633C12.1571 29.4241 11.2792 29.2496 10.3926 29.2497H6.75C3.02212 29.2499 0 32.272 0 35.9999V40.4999C0 41.3283 0.671572 41.9999 1.50003 41.9999H3.00006V35.9999C3.00006 35.801 3.07907 35.6102 3.21972 35.4695C3.36036 35.3289 3.55112 35.2499 3.75003 35.2499C3.94893 35.2499 4.13969 35.3289 4.28034 35.4695C4.42098 35.6102 4.5 35.801 4.5 35.9999V41.9999H11.25Z" fill="white"/>
</svg>
