<svg width="45" height="45" viewBox="0 0 45 45" fill="none" xmlns="http://www.w3.org/2000/svg">
<path d="M40.5 9.71851H4.5C2.01825 9.71851 0 11.7368 0 14.2185V37.4685C0 39.9495 2.01825 41.9685 4.5 41.9685H6C6 43.623 7.3455 44.9685 9 44.9685H36C37.6545 44.9685 39 43.623 39 41.9685H40.5C42.9818 41.9685 45 39.9495 45 37.4685V14.2185C45 11.7368 42.9818 9.71851 40.5 9.71851ZM43.5 37.4685C43.5 39.123 42.1545 40.4685 40.5 40.4685H4.5C2.8455 40.4685 1.5 39.123 1.5 37.4685V14.2185C1.5 12.564 2.8455 11.2185 4.5 11.2185H40.5C42.1545 11.2185 43.5 12.564 43.5 14.2185V37.4685Z" fill="white"/>
<path d="M39.75 12.7185H5.25C4.0125 12.7185 3 13.731 3 14.9685V35.2185C3 36.456 4.0125 37.4685 5.25 37.4685H39.75C40.9875 37.4685 42 36.456 42 35.2185V14.9685C42 13.731 40.9875 12.7185 39.75 12.7185ZM14.325 35.9685C14.235 32.391 16.8038 29.307 20.1975 28.6785C13.785 26.0835 15.4912 16.5848 22.5 16.4685C29.5103 16.5863 31.215 26.0835 24.8025 28.6785C28.1962 29.307 30.765 32.391 30.675 35.9685H14.325Z" fill="white"/>
<path d="M24.9316 26.9459C29.1293 24.4987 27.4171 17.9962 22.5016 17.9684C19.8466 17.9684 17.6791 20.1284 17.6791 22.7909C17.5906 26.4457 21.8963 28.8584 24.9316 26.9459ZM21.3916 29.0159V29.6459C21.3968 30.0487 21.7208 30.3959 22.1416 30.3959H22.8616C23.2823 30.3959 23.6063 30.0487 23.6116 29.6459V29.0159C22.8991 29.1472 22.1041 29.1472 21.3916 29.0159ZM36.0016 38.2184C35.0161 38.2372 35.0161 39.6997 36.0016 39.7184C36.9871 39.6989 36.9863 38.2372 36.0016 38.2184ZM33.0016 38.2184C32.0161 38.2372 32.0161 39.6997 33.0016 39.7184C33.9871 39.6989 33.9863 38.2372 33.0016 38.2184ZM30.0016 38.2184C29.0161 38.2372 29.0161 39.6997 30.0016 39.7184C30.9871 39.6989 30.9863 38.2372 30.0016 38.2184ZM27.0016 38.2184C26.0161 38.2372 26.0161 39.6997 27.0016 39.7184C27.9871 39.6989 27.9863 38.2372 27.0016 38.2184ZM39.0016 38.2184C38.0161 38.2372 38.0161 39.6997 39.0016 39.7184C39.9871 39.6989 39.9863 38.2372 39.0016 38.2184ZM17.3221 4.55918C17.9048 5.34818 19.1093 4.46468 18.5311 3.67193C15.0563 -1.22332 7.44608 -1.22332 3.97208 3.67193C3.39833 4.46468 4.59458 5.34893 5.18108 4.55993C8.04983 0.479176 14.4533 0.479176 17.3221 4.55918Z" fill="white"/>
<path d="M14.8895 6.32542C15.47 7.11817 16.6775 6.23992 16.1045 5.44492C13.865 2.18242 8.63897 2.18242 6.39947 5.44492C5.82947 6.24142 7.03247 7.11817 7.61447 6.32542C9.29372 3.87892 13.211 3.87892 14.8895 6.32542Z" fill="white"/>
<path d="M11.2468 5.9685C10.2478 5.8635 7.83203 7.17 8.99903 8.2605C9.07944 8.31739 9.17027 8.35788 9.26634 8.37966C9.3624 8.40144 9.46182 8.40408 9.5589 8.38743C9.65599 8.37079 9.74885 8.33518 9.83217 8.28264C9.91549 8.23011 9.98765 8.16168 10.0445 8.08125C10.3153 7.69725 10.7645 7.4685 11.2468 7.4685C11.729 7.4685 12.1783 7.69725 12.449 8.08125C12.5058 8.16173 12.578 8.23024 12.6613 8.28284C12.7446 8.33545 12.8374 8.37113 12.9345 8.38784C13.0316 8.40456 13.131 8.40198 13.2271 8.38026C13.3232 8.35854 13.4141 8.3181 13.4945 8.26125C14.6623 7.16925 12.2458 5.86425 11.2468 5.96775V5.9685ZM39.8173 4.55925C40.4 5.34825 41.6045 4.46475 41.0263 3.672C37.5515 -1.224 29.9413 -1.224 26.4673 3.672C25.8935 4.46475 27.0898 5.349 27.6763 4.56C30.545 0.47925 36.9485 0.47925 39.8173 4.55925Z" fill="white"/>
<path d="M37.3894 6.32542C37.9699 7.11817 39.1774 6.23992 38.6044 5.44492C36.3649 2.18242 31.1389 2.18242 28.8994 5.44492C28.3294 6.24142 29.5332 7.11817 30.1144 6.32542C31.7937 3.87892 35.7109 3.87892 37.3894 6.32542Z" fill="white"/>
<path d="M33.7468 5.96845C32.7478 5.86345 30.332 7.16995 31.499 8.26045C31.5794 8.31734 31.6703 8.35783 31.7663 8.37961C31.8624 8.40139 31.9618 8.40403 32.0589 8.38738C32.156 8.37074 32.2488 8.33513 32.3322 8.2826C32.4155 8.23006 32.4877 8.16163 32.5445 8.0812C32.8153 7.6972 33.2645 7.46845 33.7468 7.46845C34.229 7.46845 34.6783 7.6972 34.949 8.0812C35.0058 8.16168 35.078 8.23019 35.1613 8.28279C35.2446 8.3354 35.3374 8.37108 35.4345 8.3878C35.5316 8.40451 35.631 8.40193 35.7271 8.38021C35.8232 8.35849 35.9141 8.31805 35.9945 8.2612C37.1623 7.1692 34.7458 5.8642 33.7468 5.9677V5.96845Z" fill="white"/>
</svg>
