<svg width="39" height="41" viewBox="0 0 39 41" fill="none" xmlns="http://www.w3.org/2000/svg">
<path d="M7.3125 8.96875H9.75V11.5312H7.3125V8.96875ZM7.3125 19.2188H9.75V21.7812H7.3125V19.2188Z" fill="white"/>
<path d="M6.09375 16.6562H10.9688C11.0662 16.6562 11.1516 16.6691 11.2369 16.6947C12.065 14.9913 13.2532 13.5099 14.7103 12.3641C14.8809 11.8772 15.3197 11.5312 15.8438 11.5312H15.8803C17.7169 10.3923 19.8057 9.77992 21.9379 9.75519C24.0701 9.73045 26.1712 10.2943 28.0312 11.3903V3.84375C28.0312 1.72969 26.3859 0 24.375 0H3.65625C1.64531 0 0 1.72969 0 3.84375V37.1562C0 39.2703 1.64531 41 3.65625 41H24.375C26.1666 41 27.6656 39.6291 27.9703 37.8225L27.2391 37.0538C26.6175 36.4003 26.1787 35.5931 25.9716 34.7091C23.3355 35.6362 20.4781 35.5956 17.8669 34.5938H15.8438C15.1734 34.5938 14.625 34.0172 14.625 33.3125C14.625 33.1203 14.6616 32.9538 14.7347 32.7872C13.7607 32.0164 12.9021 31.0965 12.1875 30.0581V33.3125C12.1875 34.0172 11.6391 34.5938 10.9688 34.5938H6.09375C5.42344 34.5938 4.875 34.0172 4.875 33.3125V28.1875C4.875 27.4828 5.42344 26.9062 6.09375 26.9062H10.5909C10.3228 26.0734 10.1156 25.215 10.0059 24.3438H6.09375C5.42344 24.3438 4.875 23.7672 4.875 23.0625V17.9375C4.875 17.2328 5.42344 16.6562 6.09375 16.6562ZM15.8438 6.40625H21.9375C22.6078 6.40625 23.1562 6.98281 23.1562 7.6875C23.1562 8.39219 22.6078 8.96875 21.9375 8.96875H15.8438C15.1734 8.96875 14.625 8.39219 14.625 7.6875C14.625 6.98281 15.1734 6.40625 15.8438 6.40625ZM4.875 7.6875C4.875 6.98281 5.42344 6.40625 6.09375 6.40625H10.9688C11.6391 6.40625 12.1875 6.98281 12.1875 7.6875V12.8125C12.1875 13.5172 11.6391 14.0938 10.9688 14.0938H6.09375C5.42344 14.0938 4.875 13.5172 4.875 12.8125V7.6875Z" fill="white"/>
<path d="M7.3125 29.4687H9.75V32.0312H7.3125V29.4687ZM28.9697 15.3109C25.1672 11.3134 18.9759 11.3134 15.1734 15.3109C11.3709 19.3084 11.3709 25.8171 15.1734 29.8146C17.0259 31.7493 19.4634 32.8127 22.0716 32.8127C24.6797 32.8127 27.1294 31.7493 28.9697 29.8146C30.81 27.8799 31.8216 25.3046 31.8216 22.5627C31.8216 19.8209 30.81 17.2584 28.9697 15.3109ZM26.0203 21.2431L22.0838 25.6377C21.8644 25.894 21.5475 26.0349 21.2184 26.0349H21.1941C20.8772 26.0349 20.5725 25.9068 20.3409 25.6634L18.1594 23.3699C18.0465 23.2513 17.957 23.1105 17.896 22.9555C17.8349 22.8005 17.8035 22.6344 17.8035 22.4667C17.8035 22.2989 17.8349 22.1328 17.896 21.9778C17.957 21.8228 18.0465 21.682 18.1594 21.5634C18.3873 21.3238 18.6963 21.1892 19.0186 21.1892C19.1782 21.1892 19.3362 21.2223 19.4836 21.2865C19.631 21.3507 19.765 21.4447 19.8778 21.5634L21.1697 22.9215L24.2409 19.4877C24.3504 19.3655 24.4818 19.2673 24.6275 19.1985C24.7732 19.1298 24.9304 19.092 25.09 19.0872C25.2497 19.0825 25.4086 19.1109 25.5578 19.1708C25.707 19.2307 25.8434 19.321 25.9594 19.4365C26.4591 19.9234 26.4834 20.7306 26.0203 21.2431Z" fill="white"/>
<path d="M30.6874 32.9051C30.5273 32.9053 30.3688 32.8722 30.2209 32.8078C30.0731 32.7434 29.9388 32.6489 29.8257 32.5297L27.2395 29.8109C27.1264 29.6918 27.0366 29.5505 26.9754 29.395C26.9142 29.2395 26.8828 29.0729 26.8828 28.9046C26.8829 28.7363 26.9145 28.5697 26.9758 28.4142C27.0371 28.2588 27.1269 28.1175 27.2402 27.9986C27.3534 27.8796 27.4878 27.7853 27.6357 27.7209C27.7836 27.6566 27.9422 27.6235 28.1022 27.6235C28.2623 27.6236 28.4208 27.6568 28.5687 27.7213C28.7166 27.7857 28.8509 27.8802 28.9641 27.9992L31.549 30.718C31.7194 30.8972 31.8355 31.1255 31.8825 31.374C31.9295 31.6225 31.9053 31.88 31.8131 32.1141C31.7209 32.3482 31.5647 32.5483 31.3644 32.6891C31.164 32.8299 30.9284 32.9051 30.6874 32.9051Z" fill="white"/>
<path d="M37.9213 33.7867L34.1407 29.8122C33.6835 29.3322 33.0636 29.0625 32.4174 29.0625C31.7712 29.0625 31.1513 29.3322 30.6941 29.8122L28.9708 31.6239C28.0202 32.6233 28.0202 34.2479 28.9708 35.2473L32.7501 39.2217C33.0894 39.5788 33.4924 39.8619 33.936 40.0547C34.3796 40.2475 34.8551 40.3463 35.3351 40.3454C35.8153 40.3465 36.291 40.2478 36.7349 40.0549C37.1787 39.8621 37.5819 39.5789 37.9213 39.2217C38.6062 38.5004 38.9909 37.5228 38.9909 36.5036C38.9909 35.4843 38.6062 34.5068 37.9213 33.7854V33.7867Z" fill="white"/>
</svg>
