<svg width="39" height="42" viewBox="0 0 39 42" fill="none" xmlns="http://www.w3.org/2000/svg">
<path fill-rule="evenodd" clip-rule="evenodd" d="M12.2678 31.6322C12.1738 31.4007 12.023 31.1994 11.8305 31.0486L11.8167 31.0385C10.3818 29.8773 9.22121 28.3869 8.42469 26.6823C7.62817 24.9777 7.21698 23.1045 7.22287 21.2074C7.22287 14.2643 12.6143 8.62644 19.2569 8.62644C25.8995 8.62644 31.2909 14.2629 31.2909 21.2074C31.2917 23.1025 30.8827 24.9733 30.0943 26.6797C29.3059 28.3861 28.1586 29.8841 26.7383 31.0615L26.708 31.0845C26.527 31.2272 26.3836 31.4157 26.2914 31.6322H12.2678ZM14.1584 23.3019L16.9084 26.1769C17.0453 26.3193 17.2093 26.4301 17.3898 26.5021C17.5703 26.574 17.7633 26.6055 17.9562 26.5946C18.149 26.5836 18.3376 26.5304 18.5095 26.4384C18.6815 26.3463 18.833 26.2176 18.9544 26.0604L24.4571 18.8715C24.6852 18.5737 24.7908 18.1935 24.7508 17.8143C24.7107 17.4351 24.5281 17.0881 24.2433 16.8497C23.9585 16.6112 23.5947 16.5008 23.2321 16.5427C22.8694 16.5846 22.5375 16.7754 22.3094 17.0732L17.7678 23.0101L16.104 21.2692C15.8429 21.017 15.4985 20.8802 15.143 20.8875C14.7876 20.8948 14.4486 21.0456 14.1971 21.3083C13.9456 21.5711 13.8011 21.9253 13.7939 22.297C13.7867 22.6686 13.9173 23.0287 14.1584 23.3019ZM26.1401 34.5072C26.1332 35.4631 26.1333 36.4766 26.1333 37.3836C26.1318 38.5272 25.6965 39.6234 24.923 40.4319C24.1494 41.2403 23.1007 41.695 22.0069 41.6961H16.5069C15.4127 41.6961 14.3634 41.2418 13.5896 40.4331C12.8158 39.6244 12.3809 38.5275 12.3805 37.3836V34.5072H26.1401ZM17.8819 1.4375C17.8819 1.05625 18.0267 0.690617 18.2846 0.421034C18.5425 0.15145 18.8922 0 19.2569 0C19.6215 0 19.9713 0.15145 20.2291 0.421034C20.487 0.690617 20.6319 1.05625 20.6319 1.4375V4.3125C20.6319 4.69375 20.487 5.05938 20.2291 5.32897C19.9713 5.59855 19.6215 5.75 19.2569 5.75C18.8922 5.75 18.5425 5.59855 18.2846 5.32897C18.0267 5.05938 17.8819 4.69375 17.8819 4.3125V1.4375ZM34.386 23.0057C34.021 23.0057 33.6709 22.8541 33.4128 22.5843C33.1546 22.3144 33.0096 21.9484 33.0096 21.5668C33.0096 21.1852 33.1546 20.8192 33.4128 20.5493C33.6709 20.2795 34.021 20.1279 34.386 20.1279H37.1374C37.5024 20.1279 37.8525 20.2795 38.1106 20.5493C38.3687 20.8192 38.5138 21.1852 38.5138 21.5668C38.5138 21.9484 38.3687 22.3144 38.1106 22.5843C37.8525 22.8541 37.5024 23.0057 37.1374 23.0057H34.386ZM1.37637 23.0057C1.01134 23.0057 0.661251 22.8541 0.403131 22.5843C0.145011 22.3144 0 21.9484 0 21.5668C0 21.1852 0.145011 20.8192 0.403131 20.5493C0.661251 20.2795 1.01134 20.1279 1.37637 20.1279H4.12775C4.49279 20.1279 4.84287 20.2795 5.10099 20.5493C5.35911 20.8192 5.50412 21.1852 5.50412 21.5668C5.50412 21.9484 5.35911 22.3144 5.10099 22.5843C4.84287 22.8541 4.49279 23.0057 4.12775 23.0057H1.37637ZM33.011 5.15487C33.2723 4.90285 33.6168 4.76631 33.9722 4.77386C34.3277 4.78141 34.6666 4.93246 34.9179 5.19537C35.1692 5.45829 35.3134 5.81267 35.3204 6.18429C35.3274 6.5559 35.1965 6.91592 34.9553 7.18894L33.011 9.22013C32.8834 9.35368 32.7319 9.45967 32.5652 9.53202C32.3984 9.60437 32.2197 9.64168 32.0392 9.64181C31.8586 9.64195 31.6798 9.6049 31.513 9.5328C31.3461 9.46069 31.1945 9.35493 31.0667 9.22156C30.939 9.08819 30.8376 8.92982 30.7684 8.75549C30.6992 8.58117 30.6635 8.39429 30.6634 8.20555C30.6633 8.0168 30.6987 7.82988 30.7677 7.65545C30.8366 7.48102 30.9378 7.3225 31.0654 7.18894L33.011 5.15487ZM3.5585 7.18894C3.31724 6.91592 3.1864 6.5559 3.19337 6.18429C3.20034 5.81267 3.34458 5.45829 3.59589 5.19537C3.8472 4.93246 4.18607 4.78141 4.54152 4.77386C4.89698 4.76631 5.24144 4.90285 5.50275 5.15487L7.44975 7.18894C7.58098 7.32164 7.68562 7.48034 7.75757 7.65577C7.82951 7.8312 7.86731 8.01986 7.86876 8.21073C7.87022 8.4016 7.8353 8.59086 7.76605 8.76747C7.69679 8.94408 7.59458 9.1045 7.46539 9.23938C7.3362 9.37425 7.18261 9.48088 7.01358 9.55303C6.84455 9.62518 6.66347 9.66142 6.4809 9.65963C6.29833 9.65784 6.11793 9.61805 5.95023 9.54259C5.78252 9.46713 5.63087 9.35751 5.50412 9.22013L3.5585 7.18894Z" fill="white"/>
</svg>
