<svg width="39" height="37" viewBox="0 0 39 37" fill="none" xmlns="http://www.w3.org/2000/svg">
<path d="M14.9875 20.6387H6.875C6.105 20.6387 5.5 20.0337 5.5 19.2637C5.5 18.5075 6.105 17.8887 6.875 17.8887H13.365C12.98 17.0637 12.6775 16.1975 12.4575 15.29H6.875C6.105 15.29 5.5 14.6712 5.5 13.915C5.5 13.1587 6.105 12.54 6.875 12.54H12.0588C12.045 12.3062 12.045 12.0862 12.045 11.8525C12.045 10.2162 12.32 8.64874 12.815 7.17749H4.95C2.21375 7.17749 0 9.40499 0 12.1275V26.4C0.000300036 27.6209 0.45303 28.7983 1.27074 29.7049C2.08845 30.6115 3.21312 31.1829 4.4275 31.3087V34.21C4.42641 34.4848 4.47972 34.757 4.58437 35.0111C4.68902 35.2651 4.84292 35.496 5.03721 35.6903C5.23151 35.8846 5.46234 36.0385 5.7164 36.1431C5.97047 36.2478 6.24273 36.3011 6.5175 36.3C6.985 36.3 7.43875 36.1487 7.81 35.8462L10.9038 33.4125C12.5984 32.0707 14.6959 31.3392 16.8575 31.3362H26.3725C29.095 31.3362 31.3225 29.1225 31.3225 26.4V25.685C28.4151 26.6699 25.271 26.7124 22.3381 25.8064C19.4051 24.9003 16.8328 23.0919 14.9875 20.6387ZM15.6613 26.0012H6.875C6.105 26.0012 5.5 25.3825 5.5 24.6262C5.5 23.87 6.105 23.2512 6.875 23.2512H15.6613C16.4175 23.2512 17.0363 23.87 17.0363 24.6262C17.0363 25.3825 16.4175 26.0012 15.6613 26.0012Z" fill="white"/>
<path d="M26.6494 0C20.1044 0 14.7969 5.32125 14.7969 11.8525C14.7969 14.996 16.0456 18.0107 18.2684 20.2335C20.4912 22.4563 23.5059 23.705 26.6494 23.705C33.1806 23.705 38.5019 18.3975 38.5019 11.8525C38.5019 5.32125 33.1806 0 26.6494 0ZM26.6356 19.4837C25.8794 19.4837 25.2606 18.865 25.2606 18.1088C25.2606 17.3525 25.8656 16.7338 26.6219 16.7338H26.6356C27.3919 16.7338 28.0106 17.3525 28.0106 18.1088C28.0106 18.865 27.3919 19.4837 26.6356 19.4837ZM28.0244 13.1313V13.97C28.0244 14.7262 27.4056 15.345 26.6494 15.345C25.8931 15.345 25.2744 14.7262 25.2744 13.97V12.0175C25.2744 11.2612 25.8931 10.6425 26.6494 10.6425C27.2956 10.6425 27.8319 10.12 27.8319 9.46C27.8319 8.81375 27.2956 8.29125 26.6494 8.29125C26.0031 8.29125 25.4669 8.81375 25.4669 9.46C25.4669 10.23 24.8481 10.835 24.0919 10.835C23.3356 10.835 22.7169 10.23 22.7169 9.46C22.7169 7.30125 24.4769 5.54125 26.6494 5.54125C28.8081 5.54125 30.5819 7.30125 30.5819 9.46C30.5819 11.1513 29.5094 12.5675 28.0244 13.1313Z" fill="white"/>
</svg>
