<svg width="44" height="39" viewBox="0 0 44 39" fill="none" xmlns="http://www.w3.org/2000/svg">
<path d="M26.4207 33.8822C26.5279 33.9891 26.6731 34.0491 26.8245 34.0491C26.9759 34.0491 27.1211 33.9891 27.2283 33.8822L29.9867 31.1238C25.6865 30.2127 22.4932 26.2679 22.7624 21.643C23.0364 16.9378 26.9112 13.1859 31.6226 13.0545C34.4514 12.9756 37.004 14.1905 38.7323 16.1492C38.7647 15.7092 38.7819 15.2687 38.7819 14.8298V10.0308C38.7819 9.96342 38.7636 9.89734 38.7291 9.83953C38.6946 9.78172 38.645 9.73433 38.5858 9.70239L27.0013 3.46616C26.947 3.43693 26.8863 3.42163 26.8246 3.42163C26.7629 3.42163 26.7022 3.43693 26.6478 3.46616L14.8672 9.80809V14.8298C14.8672 19.5953 16.7784 24.2397 20.1106 27.5719L26.4207 33.8822Z" fill="#FF8D1E"/>
<path d="M10.4383 38.4069C11.8799 38.4069 13.0485 37.2383 13.0485 35.7967C13.0485 34.3551 11.8799 33.1865 10.4383 33.1865C8.99674 33.1865 7.82812 34.3551 7.82812 35.7967C7.82812 37.2383 8.99674 38.4069 10.4383 38.4069Z" fill="#FF8D1E"/>
<path d="M7.82893 5.22036C9.27049 5.22036 10.4391 4.05174 10.4391 2.61018C10.4391 1.16862 9.27049 0 7.82893 0C6.38737 0 5.21875 1.16862 5.21875 2.61018C5.21875 4.05174 6.38737 5.22036 7.82893 5.22036Z" fill="#FF8D1E"/>
<path d="M31.8784 14.5425C27.6635 14.5425 24.2344 17.9716 24.2344 22.1865C24.2344 26.4014 27.6635 29.8306 31.8784 29.8306C36.0933 29.8306 39.5225 26.4014 39.5225 22.1865C39.5225 17.9716 36.0933 14.5425 31.8784 14.5425ZM36.1665 22.7458C35.9688 22.7458 35.7791 22.6672 35.6392 22.5274C35.4993 22.3875 35.4208 22.1978 35.4208 22.0001C35.4208 20.275 33.6086 18.6441 31.6919 18.6441C31.28 18.6441 30.9462 18.3102 30.9462 17.8983C30.9462 17.4864 31.28 17.1526 31.6919 17.1526C32.9607 17.1526 34.2626 17.663 35.2637 18.5528C36.3114 19.4841 36.9123 20.7405 36.9123 22C36.9123 22.0979 36.893 22.1949 36.8556 22.2854C36.8181 22.3759 36.7632 22.4581 36.6939 22.5274C36.6247 22.5966 36.5424 22.6516 36.452 22.689C36.3615 22.7265 36.2645 22.7458 36.1665 22.7458Z" fill="#FF8D1E"/>
<path d="M2.61018 22.7458C4.05174 22.7458 5.22036 21.5771 5.22036 20.1356C5.22036 18.694 4.05174 17.5254 2.61018 17.5254C1.16862 17.5254 0 18.694 0 20.1356C0 21.5771 1.16862 22.7458 2.61018 22.7458Z" fill="#FF8D1E"/>
<path d="M8.57422 11.5595V6.64282C8.33222 6.68751 8.08317 6.712 7.82845 6.712C7.57373 6.712 7.32469 6.68751 7.08269 6.64282V12.3052C7.08269 12.503 7.16126 12.6927 7.30112 12.8326C7.44098 12.9724 7.63066 13.051 7.82845 13.051H13.3727V11.5595H8.57422ZM10.4385 26.1018C10.2408 26.1018 10.0511 26.1804 9.91121 26.3203C9.77135 26.4601 9.69278 26.6498 9.69278 26.8476V31.7642C9.93478 31.7196 10.1838 31.6951 10.4385 31.6951C10.6933 31.6951 10.9423 31.7196 11.1843 31.7642V27.5934H18.0947C17.6838 27.1156 17.2968 26.6178 16.935 26.1018H10.4385ZM6.64062 20.8815H14.3355C14.1761 20.39 14.0361 19.8924 13.9157 19.3899H6.64062C6.68531 19.6319 6.7098 19.881 6.7098 20.1357C6.7098 20.3905 6.68523 20.6395 6.64062 20.8815ZM37.5827 29.3175L42.7248 34.4597C42.794 34.529 42.8762 34.584 42.9667 34.6215C43.0572 34.659 43.1542 34.6782 43.2521 34.6781C43.3501 34.6782 43.4471 34.659 43.5376 34.6215C43.6281 34.584 43.7103 34.529 43.7795 34.4597C43.8487 34.3904 43.9036 34.3082 43.9411 34.2177C43.9786 34.1273 43.9979 34.0303 43.9979 33.9324C43.9979 33.8344 43.9786 33.7375 43.9411 33.647C43.9036 33.5565 43.8487 33.4743 43.7795 33.405L38.6677 28.2933C38.3343 28.6635 37.9715 29.006 37.5827 29.3175Z" fill="#FF8D1E"/>
</svg>
