<svg width="40" height="40" viewBox="0 0 40 40" fill="none" xmlns="http://www.w3.org/2000/svg">
<path d="M20 16.5625C20.6472 16.5625 21.1719 16.0378 21.1719 15.3906V12.8927L22.2125 12.199C22.373 12.092 22.5047 11.947 22.5957 11.7769C22.6867 11.6068 22.7344 11.4168 22.7344 11.2239V9.53125H17.2656V11.2239C17.2656 11.6157 17.4615 11.9816 17.7875 12.199L18.8281 12.8927V15.3906C18.8281 16.0378 19.3528 16.5625 20 16.5625ZM15.3125 7.1875H24.6875C25.7662 7.1875 26.6406 6.31305 26.6406 5.23438V3.67188C26.6406 2.5932 25.7662 1.71875 24.6875 1.71875H15.3125C14.2338 1.71875 13.3594 2.5932 13.3594 3.67188V5.23438C13.3594 6.31305 14.2338 7.1875 15.3125 7.1875ZM3.125 38.8281C3.125 39.4753 3.64969 40 4.29688 40H35.7031C36.3503 40 36.875 39.4753 36.875 38.8281V36.875H3.125V38.8281ZM8.59375 5.625H11.0156V3.28125H8.59375V2.73438C8.59375 1.22422 7.36953 0 5.85938 0C4.34922 0 3.125 1.22422 3.125 2.73438V22.0312H8.59375V5.625ZM31.4062 22.0312H36.875V2.73438C36.875 1.22422 35.6508 0 34.1406 0C32.6305 0 31.4062 1.22422 31.4062 2.73438V3.28125H28.9844V5.625H31.4062V22.0312ZM28.2031 20.0781C28.2031 19.4309 27.6784 18.9062 27.0312 18.9062H12.9688C12.3216 18.9062 11.7969 19.4309 11.7969 20.0781V22.0312H28.2031V20.0781ZM37.2656 24.375H2.73438C1.22422 24.375 0 25.5992 0 27.1094V31.7969C0 33.307 1.22422 34.5312 2.73438 34.5312H37.2656C38.7758 34.5312 40 33.307 40 31.7969V27.1094C40 25.5992 38.7758 24.375 37.2656 24.375ZM5.85938 30.625C5.21219 30.625 4.6875 30.1003 4.6875 29.4531C4.6875 28.8059 5.21219 28.2812 5.85938 28.2812C6.50656 28.2812 7.03125 28.8059 7.03125 29.4531C7.03125 30.1003 6.50656 30.625 5.85938 30.625ZM10.5469 30.625C9.89969 30.625 9.375 30.1003 9.375 29.4531C9.375 28.8059 9.89969 28.2812 10.5469 28.2812C11.1941 28.2812 11.7188 28.8059 11.7188 29.4531C11.7188 30.1003 11.1941 30.625 10.5469 30.625ZM15.2344 30.625C14.5872 30.625 14.0625 30.1003 14.0625 29.4531C14.0625 28.8059 14.5872 28.2812 15.2344 28.2812C15.8816 28.2812 16.4062 28.8059 16.4062 29.4531C16.4062 30.1003 15.8816 30.625 15.2344 30.625ZM34.1406 30.2344H27.8906C27.2434 30.2344 26.7188 29.7097 26.7188 29.0625C26.7188 28.4153 27.2434 27.8906 27.8906 27.8906H34.1406C34.7878 27.8906 35.3125 28.4153 35.3125 29.0625C35.3125 29.7097 34.7878 30.2344 34.1406 30.2344Z" fill="#FF8D1E"/>
</svg>
