<svg width="43" height="41" viewBox="0 0 43 41" fill="none" xmlns="http://www.w3.org/2000/svg">
<path d="M41.5333 4.58972C42.0667 4.25639 42.4667 3.65639 42.6 2.98972C42.7333 2.32306 42.6 1.65639 42.2667 1.12306C41.5333 -0.0102783 39.9333 -0.343612 38.8 0.389722L19.0667 13.2564H14.7333C14.4 13.2564 14.0667 13.5231 14.0667 13.9231V19.9231H6.73333C4.73333 19.9231 3.13333 21.5231 3.13333 23.5231V25.7897C3.13333 27.7897 4.73333 29.3897 6.73333 29.3897H6.8V30.8564H4.66667C2.06667 30.8564 0 32.9231 0 35.5231V35.9231C0 38.5231 2.06667 40.5897 4.66667 40.5897H25.4C27.9333 40.5897 30.0667 38.5231 30.0667 35.9231V35.5231C30.0667 32.9231 28 30.8564 25.4 30.8564H23.4667V29.3897H26.2667C26.4667 29.3897 26.6 29.3231 26.7333 29.1897C26.8667 29.0564 26.9333 28.8564 26.9333 28.6564L25.4 15.3897C25.4 15.2564 25.3333 15.1897 25.3333 15.0564L39.4667 5.92306V17.4564C38.5333 17.7231 37.8667 18.5897 37.8667 19.5897C37.8667 20.1231 38.0667 20.5897 38.3333 20.9897C33.3333 22.2564 32.0667 21.5231 31.7333 20.9231C31.6 20.6564 31.2667 20.4564 31 20.5897C30.6667 20.6564 30.4667 20.9231 30.4667 21.2564C30.4667 24.1231 32.8 26.3897 35.6 26.3897C38.2667 26.3897 40.4 24.3897 40.7333 21.7897C41.6667 21.5231 42.3333 20.6564 42.3333 19.6564C42.3333 18.6564 41.6667 17.7897 40.7333 17.5231V5.05639L41.5333 4.58972ZM4.86667 37.7231C3.66667 37.7231 2.73333 36.7897 2.73333 35.5897C2.73333 34.3897 3.66667 33.4564 4.86667 33.4564C6.06667 33.4564 7 34.3897 7 35.5897C7 36.7231 6.06667 37.7231 4.86667 37.7231ZM11.6667 37.8564C10.4667 37.8564 9.53333 36.9231 9.53333 35.7231C9.53333 34.5231 10.4667 33.5897 11.6667 33.5897C12.8667 33.5897 13.8 34.5231 13.8 35.7231C13.8 36.8564 12.8 37.8564 11.6667 37.8564ZM18.4 37.9231C17.2 37.9231 16.2667 36.9897 16.2667 35.7897C16.2667 34.5897 17.2 33.6564 18.4 33.6564C19.6 33.6564 20.5333 34.5897 20.5333 35.7897C20.5333 36.9897 19.6 37.9231 18.4 37.9231ZM22.1333 30.8564H8.13333V29.3897H22.2V30.8564H22.1333ZM16.3333 24.6564C16.3333 24.3231 16.6 23.9897 17 23.9897H19.4667C19.8 23.9897 20.1333 24.3231 20.1333 24.6564C20.1333 24.9897 19.8 25.3231 19.4667 25.3231H17C16.6 25.3231 16.3333 24.9897 16.3333 24.6564ZM25.2 33.5897C26.4 33.5897 27.3333 34.5231 27.3333 35.7231C27.3333 36.9231 26.4 37.8564 25.2 37.8564C24 37.8564 23.0667 36.9231 23.0667 35.7231C23.0667 34.5231 24 33.5897 25.2 33.5897ZM23.7333 22.5231C23.6 22.6564 23.4 22.7231 23.2 22.7231H17C16.6 22.7231 16.3333 22.4564 16.3333 22.0564V16.1897C16.3333 15.8564 16.6 15.5231 17 15.5231H22.5333C22.8667 15.5231 23.1333 15.7897 23.2 16.1231L23.8667 21.9897C23.9333 22.1897 23.8667 22.3231 23.7333 22.5231Z" fill="white"/>
</svg>
