<svg width="36" height="36" viewBox="0 0 36 36" fill="none" xmlns="http://www.w3.org/2000/svg">
<path d="M32.6047 25.8724C32.4359 25.7036 32.2109 25.6474 32.0422 25.6474C31.8734 25.6474 31.5922 25.7036 31.4797 25.8724L31.0859 26.2661L31.3109 28.4599L32.6047 27.1099C32.9422 26.7724 32.9422 26.2099 32.6047 25.8724ZM30.6359 32.8474L29.3422 21.9911V21.9349L28.9484 18.3349L28.4422 14.9036C28.3859 14.3974 27.8234 14.2286 27.4297 14.5661L21.3547 20.1349C21.1297 20.3599 21.0734 20.6411 21.2422 20.9224C23.6047 24.5786 26.8672 30.5974 28.8922 35.4911C28.9484 35.5474 28.9484 35.6036 29.0047 35.6599C29.1734 35.8286 29.4547 35.8849 29.6797 35.6599C30.4109 34.9286 30.7484 33.9161 30.6359 32.8474ZM15.0547 33.2411L13.5359 28.0099C13.4234 27.6724 13.0297 27.5036 12.6922 27.6161C12.1297 27.8974 11.4547 28.1224 10.7797 28.2349C10.3859 28.2911 10.1609 28.7974 10.3859 29.1349L13.6484 34.0286C13.8734 34.3661 14.3234 34.3661 14.5484 34.1411L14.8297 33.8599C15.0547 33.6349 15.1109 33.4099 15.0547 33.2411ZM10.6672 24.8036C10.6109 24.7474 10.4984 24.6911 10.3859 24.6911C10.2734 24.6911 10.1609 24.7474 10.1047 24.8036L6.72965 28.2349C6.5609 28.4036 6.5609 28.6286 6.72965 28.7411C6.84215 28.9099 7.1234 28.9099 7.2359 28.7411L10.6672 25.3099C10.8359 25.1974 10.8359 24.9161 10.6672 24.8036ZM7.51715 22.1036L2.6234 20.9224C2.3984 20.8661 2.22965 20.9224 2.0609 21.0911L1.7234 21.4286C1.44215 21.7099 1.4984 22.1599 1.77965 22.3286L6.27965 25.3661C6.6734 25.5911 7.1234 25.4224 7.2359 24.9724C7.3484 24.2974 7.62965 23.5661 7.9109 22.9474C8.07965 22.6099 7.9109 22.2161 7.51715 22.1036ZM20.6234 7.64737L17.3609 7.14112L13.7609 6.74737L2.90465 5.45362C1.89215 5.34112 0.879652 5.67862 0.148402 6.40987C-0.0765979 6.63487 -0.0203479 6.91612 0.148402 7.08487C0.204652 7.14112 0.204652 7.14112 0.317152 7.19737C4.8734 9.05362 10.7234 12.3161 14.5484 14.7911C14.7734 14.9599 15.1109 14.9036 15.2797 14.6786L20.9609 8.65987C21.2984 8.32237 21.0734 7.75987 20.6234 7.64737ZM9.87965 3.42862C9.54215 3.09112 8.97965 3.09112 8.64215 3.42862L7.29215 4.72237L9.42965 4.94737L9.8234 4.55362C9.99215 4.38487 10.0484 4.15987 10.0484 3.99112C10.1047 3.82237 10.0484 3.59737 9.87965 3.42862ZM17.4172 4.55362C17.0797 4.21612 16.5172 4.21612 16.1797 4.55362L15.0547 5.62237L17.1922 5.84737L17.3609 5.67862C17.7547 5.39737 17.7547 4.89112 17.4172 4.55362ZM35.5297 0.447368C34.2922 -0.790132 30.2422 0.728618 28.2172 2.69737L9.7109 22.3286C9.31715 22.7224 8.8109 23.6786 8.5859 24.6911L9.31715 23.9599C9.9359 23.3411 10.9484 23.3411 11.5672 23.9599C12.1859 24.5786 12.1859 25.5911 11.5672 26.2099L10.6672 26.9974C11.7359 26.7724 12.8047 26.2099 13.2547 25.8161L33.2234 7.59112C34.7422 6.12862 35.9797 3.54112 35.9797 1.79737C35.9797 1.17862 35.8109 0.728618 35.5297 0.447368ZM32.9422 5.28487C32.8859 5.28487 32.8859 5.28487 32.9422 5.28487C32.6047 5.28487 32.3234 5.05987 32.2672 4.77862C32.2109 4.55362 32.0422 3.87862 31.1984 3.82237H31.0297C30.6922 3.82237 30.4109 3.54112 30.4672 3.20362C30.5234 2.86612 30.7484 2.58487 31.0859 2.58487H31.2547C32.4359 2.64112 33.2797 3.42862 33.4484 4.60987C33.5047 4.94737 33.2234 5.22862 32.9422 5.28487ZM31.5359 18.3349C31.3672 18.1661 31.1422 18.1099 30.9734 18.1099C30.8047 18.1099 30.5234 18.2224 30.4109 18.3349L30.2422 18.5036L30.4672 20.6411L31.5359 19.5161C31.8172 19.2349 31.8172 18.6724 31.5359 18.3349Z" fill="white"/>
</svg>
