<svg width="47" height="45" viewBox="0 0 47 45" fill="none" xmlns="http://www.w3.org/2000/svg">
<path d="M40.35 31.86C40.53 31.545 40.8975 31.3875 41.2425 31.5L43.005 32.0775C43.099 32.1079 43.1982 32.1194 43.2967 32.1113C43.3952 32.1032 43.4911 32.0758 43.579 32.0304C43.6668 31.9851 43.7448 31.9229 43.8085 31.8473C43.8722 31.7717 43.9203 31.6843 43.95 31.59L45.45 27H37.56C35.655 33.09 29.97 37.5 23.25 37.5C16.53 37.5 10.845 33.09 8.94 27H1.05L2.55 31.59C2.6775 31.9875 3.0975 32.205 3.495 32.0775L5.2575 31.5C5.6025 31.3875 5.97 31.545 6.15 31.86C6.94298 33.3173 7.9211 34.666 9.06 35.8725C9.18205 35.9992 9.25569 36.1648 9.26803 36.3402C9.28037 36.5157 9.23062 36.69 9.1275 36.8325L8.04 38.3325C7.9813 38.4121 7.93898 38.5025 7.91548 38.5985C7.89199 38.6946 7.8878 38.7943 7.90315 38.892C7.9185 38.9896 7.95308 39.0833 8.0049 39.1675C8.05671 39.2517 8.12473 39.3248 8.205 39.3825L11.8425 42.0225C12.18 42.27 12.6525 42.195 12.8925 41.8575L13.98 40.3575C14.1975 40.065 14.5875 39.975 14.9175 40.125C16.395 40.83 17.9775 41.355 19.6275 41.6625C19.9875 41.73 20.25 42.0375 20.25 42.3975V44.25C20.25 44.6625 20.5875 45 21 45H25.5C25.9125 45 26.25 44.6625 26.25 44.25V42.3975C26.25 42.0375 26.5125 41.73 26.8725 41.6625C28.5225 41.355 30.105 40.83 31.5825 40.125C31.9125 39.975 32.3025 40.065 32.52 40.3575L33.6075 41.8575C33.8475 42.195 34.32 42.27 34.6575 42.0225L38.295 39.3825C38.6325 39.135 38.7075 38.67 38.46 38.3325L37.3725 36.8325C37.2694 36.69 37.2196 36.5157 37.232 36.3402C37.2443 36.1648 37.3179 35.9992 37.44 35.8725C38.5725 34.6725 39.555 33.3225 40.35 31.86ZM0 24H46.5V25.5H0V24ZM1.5 11.25H7.5V22.5H1.5V11.25ZM19.5 8.25H27V22.5H19.5V8.25ZM39 12H45V22.5H39V12ZM28.5 8.25V22.5H37.5V0H28.5V8.25ZM33.75 3H35.25V4.5H33.75V3ZM33.75 6.75H35.25V8.25H33.75V6.75ZM33.75 10.5H35.25V12H33.75V10.5ZM30.75 3H32.25V4.5H30.75V3ZM30.75 6.75H32.25V8.25H30.75V6.75ZM30.75 10.5H32.25V12H30.75V10.5ZM9 22.5H18V4.5L13.5 0.75L9 4.5V22.5ZM11.25 6H15.75V7.5H11.25V6ZM11.25 9.75H15.75V11.25H11.25V9.75Z" fill="white"/>
</svg>
