<svg width="45" height="45" viewBox="0 0 45 45" fill="none" xmlns="http://www.w3.org/2000/svg">
<path d="M24.8017 7.015V0H19.7704V7.01117L22.2812 6.09883L24.8017 7.015ZM36.3112 21.7292V12.7267L22.2812 7.62833L8.26083 12.7267V21.7245L22.2812 14.1162L36.3112 21.7292ZM30.4769 14.1747C30.509 14.0859 30.5583 14.0043 30.622 13.9347C30.6858 13.865 30.7626 13.8086 30.8482 13.7687C30.9338 13.7288 31.0264 13.7062 31.1207 13.7022C31.215 13.6982 31.3092 13.7129 31.3979 13.7454L33.3663 14.4612C33.5406 14.5299 33.6812 14.664 33.7581 14.8348C33.8351 15.0057 33.8422 15.1998 33.7781 15.3758C33.714 15.5519 33.5837 15.696 33.415 15.7773C33.2462 15.8587 33.0523 15.871 32.8747 15.8115L30.9062 15.0937C30.7278 15.0283 30.5826 14.8949 30.5021 14.7227C30.4217 14.5505 30.4126 14.3535 30.4769 14.1747ZM26.6992 12.6337C26.7313 12.5449 26.7806 12.4633 26.8443 12.3936C26.908 12.3239 26.9848 12.2674 27.0704 12.2275C27.1559 12.1875 27.2485 12.1648 27.3428 12.1607C27.4372 12.1565 27.5314 12.1711 27.6201 12.2034L29.5876 12.9193C29.6763 12.9516 29.7578 13.001 29.8274 13.0648C29.897 13.1286 29.9534 13.2054 29.9933 13.291C30.0332 13.3766 30.0559 13.4691 30.06 13.5635C30.0642 13.6578 30.0497 13.752 30.0174 13.8407C29.9851 13.9295 29.9357 14.011 29.8719 14.0806C29.8081 14.1502 29.7313 14.2066 29.6457 14.2465C29.5601 14.2864 29.4675 14.3091 29.3732 14.3132C29.2789 14.3173 29.1847 14.3028 29.096 14.2705L27.1285 13.5547C26.9495 13.4894 26.8037 13.3558 26.7232 13.1831C26.6427 13.0104 26.634 12.8128 26.6992 12.6337ZM13.5873 15.0937L11.6198 15.8096C11.5305 15.8448 11.4351 15.8618 11.3391 15.8595C11.2432 15.8572 11.1487 15.8357 11.0611 15.7963C10.9736 15.7569 10.8949 15.7004 10.8296 15.63C10.7643 15.5597 10.7137 15.477 10.6809 15.3868C10.648 15.2966 10.6336 15.2008 10.6384 15.1049C10.6432 15.0091 10.6672 14.9152 10.7089 14.8287C10.7505 14.7423 10.8091 14.665 10.8811 14.6016C10.9532 14.5382 11.0372 14.4898 11.1282 14.4593L13.0966 13.7435C13.2738 13.6858 13.4666 13.6992 13.6341 13.7809C13.8017 13.8626 13.9309 14.0062 13.9946 14.1814C14.0583 14.3566 14.0514 14.5497 13.9754 14.7199C13.8994 14.8902 13.7602 15.0242 13.5873 15.0937ZM17.366 13.5527L15.3975 14.2686C15.3188 14.2969 15.2359 14.3115 15.1522 14.3117C14.9832 14.3118 14.8195 14.2522 14.69 14.1435C14.5605 14.0349 14.4735 13.884 14.4442 13.7175C14.4149 13.5511 14.4453 13.3796 14.5299 13.2332C14.6145 13.0869 14.748 12.975 14.9069 12.9174L16.8743 12.2015C17.0535 12.1363 17.2513 12.145 17.4241 12.2256C17.5969 12.3062 17.7306 12.4521 17.7958 12.6313C17.861 12.8105 17.8523 13.0082 17.7717 13.181C17.6911 13.3539 17.5451 13.4876 17.366 13.5527ZM14.8542 44.5625H29.7083C26.8908 44.5625 24.449 40.94 22.2812 40.94C20.1135 40.94 17.6717 44.5625 14.8542 44.5625ZM0 44.5625H14.8542C12.0367 44.5625 9.59483 40.94 7.42708 40.94C5.25933 40.94 2.8175 44.5625 0 44.5625ZM37.1354 40.94C34.9677 40.94 32.5258 44.5625 29.7083 44.5625H44.5625C41.745 44.5625 39.3032 40.94 37.1354 40.94Z" fill="white"/>
<path d="M7.42667 39.5025C8.91208 39.5025 10.2327 40.4752 11.5082 41.4192C12.6477 42.2597 13.8255 43.1279 14.8537 43.1279C15.882 43.1279 17.0579 42.2597 18.1993 41.4192C19.1786 40.5786 20.3246 39.9545 21.5621 39.5878V21.9459C21.5621 21.7552 21.6378 21.5724 21.7726 21.4376C21.9074 21.3028 22.0902 21.2271 22.2808 21.2271C22.4715 21.2271 22.6543 21.3028 22.7891 21.4376C22.9239 21.5724 22.9996 21.7552 22.9996 21.9459V39.5849C24.237 39.9516 25.383 40.5757 26.3624 41.4163C27.5018 42.2568 28.6796 43.125 29.7079 43.125C30.7362 43.125 31.9121 42.2568 33.0535 41.4163C34.329 40.4752 35.6496 39.4997 37.135 39.4997C37.28 39.5019 37.4247 39.5135 37.5682 39.5342L43.2587 27.1304L22.9996 16.1479V19.0517C22.9996 19.2423 22.9239 19.4251 22.7891 19.5599C22.6543 19.6947 22.4715 19.7704 22.2808 19.7704C22.0902 19.7704 21.9074 19.6947 21.7726 19.5599C21.6378 19.4251 21.5621 19.2423 21.5621 19.0517V16.1479L1.3125 27.1304L7.18133 39.5217C7.26279 39.516 7.34329 39.5025 7.42667 39.5025Z" fill="white"/>
</svg>
