<svg width="44" height="57" viewBox="0 0 44 57" fill="none" xmlns="http://www.w3.org/2000/svg">
<path d="M21.5128 21.0013C22.4374 21.0017 23.3281 21.35 24.0076 21.9771C24.5462 20.8992 25.1675 19.2343 25.1675 17.2709C25.1675 12.8308 23.4432 3.93769 22.9149 1.31819C22.5093 -0.574103 19.7303 -0.375832 19.6192 1.57136C19.5333 6.10381 18.6033 16.8479 19.3796 21.6839C20.0023 21.24 20.748 21.0013 21.5128 21.0013ZM17.8147 24.6999C17.8147 24.4255 17.847 24.1587 17.9038 23.9017C16.7013 23.9747 14.9511 24.2698 13.2526 25.2495C9.40403 27.4712 2.56724 33.4096 0.563219 35.1766C-0.882156 36.4638 0.713698 38.7914 2.42968 37.9046C7.26439 35.2587 15.9592 31.2558 19.9673 28.0557C19.3255 27.7603 18.7817 27.2873 18.4001 26.6926C18.0185 26.0979 17.8158 25.4065 17.8147 24.6999ZM42.4901 34.6238C37.7826 31.7595 29.9725 26.2351 25.194 24.3609C25.3703 26.1085 24.2291 27.7315 22.6262 28.2262C23.2907 29.2318 24.4209 30.5983 26.1182 31.5787C29.9661 33.7997 38.5279 36.7525 41.0608 37.6043C42.8853 38.2127 44.1234 35.6765 42.4894 34.6238H42.4901Z" fill="white"/>
<path d="M23.9206 24.6993C23.8225 27.8806 19.2047 27.88 19.1072 24.6993C19.2054 21.5179 23.8231 21.5185 23.9206 24.6993ZM18.276 51.0066C18.3006 51.0144 25.5307 50.984 25.242 51.0325L23.8134 31.5057C22.8437 30.662 22.0064 29.6773 21.3295 28.5846C20.8897 28.9799 20.2174 29.5327 19.2945 30.1766L17.7684 51.0325C17.9357 51.0163 18.1049 51.0066 18.276 51.0066ZM27.9635 56.1733H15.0469C15.0469 55.3169 15.3871 54.4955 15.9927 53.8899C16.5983 53.2844 17.4196 52.9441 18.276 52.9441H24.7344C25.5908 52.9441 26.4122 53.2844 27.0177 53.8899C27.6233 54.4955 27.9635 55.3169 27.9635 56.1733Z" fill="white"/>
<path d="M27.9609 56.8192H15.0443C14.873 56.8192 14.7087 56.7511 14.5876 56.63C14.4665 56.5089 14.3984 56.3446 14.3984 56.1733C14.3984 54.0363 16.1364 52.2983 18.2734 52.2983H24.7318C26.8688 52.2983 28.6068 54.0363 28.6068 56.1733C28.6068 56.3446 28.5387 56.5089 28.4176 56.63C28.2965 56.7511 28.1322 56.8192 27.9609 56.8192ZM15.7715 55.5275H27.2331C27.0893 54.9732 26.7656 54.4823 26.3129 54.1316C25.8601 53.781 25.3038 53.5905 24.7311 53.59H18.2728C17.7002 53.5907 17.144 53.7813 16.6913 54.1319C16.2385 54.4825 15.9155 54.9733 15.7715 55.5275Z" fill="white"/>
</svg>
