<svg width="42" height="41" viewBox="0 0 42 41" fill="none" xmlns="http://www.w3.org/2000/svg">
<path d="M28.482 17.296V13.16C28.4821 12.9459 28.4286 12.7352 28.3263 12.5471C28.2241 12.3591 28.0764 12.1996 27.8966 12.0833C27.6881 11.9514 27.4469 11.8803 27.2002 11.8782C27.0156 11.8791 26.8334 11.92 26.6661 11.9978L23.6752 13.3565L24.5511 0.401637C24.5576 0.292818 24.6055 0.190616 24.6849 0.11595C24.7644 0.0412846 24.8693 -0.000195699 24.9784 6.94209e-07H30.8235C30.9325 -0.000195699 31.0374 0.0412846 31.1169 0.11595C31.1963 0.190616 31.2442 0.292818 31.2507 0.401637L32.2676 15.5442L28.482 17.296ZM18.6077 15.6852L17.5865 0.401637C17.58 0.292818 17.5321 0.190616 17.4527 0.11595C17.3733 0.0412846 17.2683 -0.000195699 17.1593 6.94209e-07H11.3142C11.2052 -0.000195699 11.1002 0.0412846 11.0208 0.11595C10.9413 0.190616 10.8935 0.292818 10.8869 0.401637L10.0324 13.4762L13.301 11.9807C13.4683 11.9029 13.6505 11.8621 13.8351 11.8611C14.0818 11.8633 14.323 11.9343 14.5315 12.0662C14.7113 12.1825 14.859 12.342 14.9612 12.5301C15.0635 12.7181 15.117 12.9288 15.1169 13.1429V17.2746L18.6077 15.6852ZM20.9748 24.1195C20.9503 24.0933 20.9204 24.0725 20.8873 24.0585C20.8542 24.0445 20.8185 24.0377 20.7825 24.0384H16.5782C16.5416 24.0378 16.5052 24.0446 16.4712 24.0583C16.4373 24.0721 16.4064 24.0925 16.3805 24.1184C16.3546 24.1443 16.3342 24.1752 16.3204 24.2091C16.3067 24.2431 16.2999 24.2795 16.3005 24.3161V28.5162C16.3005 28.5898 16.3297 28.6605 16.3818 28.7126C16.4339 28.7646 16.5045 28.7939 16.5782 28.7939H20.7825C20.8188 28.7938 20.8546 28.7862 20.8877 28.7714C20.9208 28.7567 20.9505 28.7353 20.9748 28.7085C21.0007 28.6836 21.0212 28.6537 21.0351 28.6207C21.0491 28.5876 21.0562 28.5521 21.056 28.5162V24.3289C21.0586 24.2902 21.0527 24.2514 21.0387 24.2152C21.0247 24.179 21.0029 24.1464 20.9748 24.1195ZM28.764 32.0198C28.7222 31.9962 28.6753 31.983 28.6273 31.9814H24.4229C24.3493 31.9814 24.2786 32.0106 24.2265 32.0627C24.1744 32.1148 24.1452 32.1854 24.1452 32.2591V36.4549C24.1466 36.5101 24.1644 36.5637 24.1965 36.6087C24.2214 36.6462 24.255 36.677 24.2944 36.6986C24.3339 36.7202 24.378 36.7319 24.4229 36.7326H28.6273C28.7002 36.7315 28.7697 36.7018 28.8209 36.6498C28.8721 36.5978 28.9007 36.5278 28.9007 36.4549V32.2463C28.8982 32.2002 28.8844 32.1555 28.8606 32.116C28.8367 32.0765 28.8036 32.0435 28.764 32.0198ZM4.54618 40.9498H12.5405V28.1316H4.54618V40.9498ZM20.9663 32.0455C20.942 32.0218 20.9132 32.0032 20.8817 31.9907C20.8501 31.9783 20.8165 31.9722 20.7825 31.9728H16.5782C16.5045 31.9728 16.4339 32.0021 16.3818 32.0542C16.3297 32.1062 16.3005 32.1769 16.3005 32.2505V36.4464C16.3006 36.483 16.3078 36.5193 16.3218 36.5532C16.3424 36.6041 16.3779 36.6477 16.4236 36.6782C16.4694 36.7087 16.5232 36.7247 16.5782 36.7241H20.7825C20.8555 36.723 20.925 36.6932 20.9762 36.6412C21.0273 36.5893 21.056 36.5193 21.056 36.4464V32.2463C21.0558 32.2084 21.0477 32.171 21.0322 32.1364C21.0168 32.1019 20.9943 32.0709 20.9663 32.0455ZM28.8195 24.1195C28.795 24.0933 28.7652 24.0725 28.732 24.0585C28.6989 24.0445 28.6632 24.0377 28.6273 24.0384H24.4229C24.3863 24.0378 24.3499 24.0446 24.3159 24.0583C24.282 24.0721 24.2511 24.0925 24.2252 24.1184C24.1993 24.1443 24.1789 24.1752 24.1651 24.2091C24.1514 24.2431 24.1446 24.2795 24.1452 24.3161V28.5162C24.1452 28.5898 24.1744 28.6605 24.2265 28.7126C24.2786 28.7646 24.3493 28.7939 24.4229 28.7939H28.6273C28.6635 28.7938 28.6993 28.7862 28.7324 28.7714C28.7655 28.7567 28.7952 28.7353 28.8195 28.7085C28.8454 28.6836 28.8659 28.6537 28.8799 28.6207C28.8938 28.5876 28.9009 28.5521 28.9007 28.5162V24.3289C28.9034 24.2902 28.8974 24.2514 28.8834 24.2152C28.8694 24.179 28.8476 24.1464 28.8195 24.1195ZM36.472 24.0384H32.2676C32.231 24.0378 32.1946 24.0446 32.1607 24.0583C32.1267 24.0721 32.0959 24.0925 32.07 24.1184C32.0441 24.1443 32.0236 24.1752 32.0099 24.2091C31.9961 24.2431 31.9893 24.2795 31.9899 24.3161V28.5162C31.9899 28.5898 32.0192 28.6605 32.0713 28.7126C32.1233 28.7646 32.194 28.7939 32.2676 28.7939H36.472C36.5439 28.7897 36.6117 28.759 36.6622 28.7077C36.7127 28.6564 36.7424 28.5881 36.7455 28.5162V24.3289C36.7455 24.2714 36.7259 24.2156 36.6899 24.1708C36.6671 24.1327 36.6353 24.1007 36.5973 24.0776C36.5594 24.0546 36.5163 24.0411 36.472 24.0384ZM36.472 31.9728H32.2676C32.194 31.9728 32.1233 32.0021 32.0713 32.0542C32.0192 32.1062 31.9899 32.1769 31.9899 32.2505V36.4464C31.9899 36.52 32.0192 36.5907 32.0713 36.6427C32.1233 36.6948 32.194 36.7241 32.2676 36.7241H36.472C36.5083 36.7241 36.5442 36.7169 36.5776 36.7029C36.6111 36.6889 36.6414 36.6683 36.6669 36.6425C36.6923 36.6166 36.7124 36.586 36.7259 36.5523C36.7394 36.5186 36.746 36.4826 36.7455 36.4464V32.2463C36.7441 32.177 36.7184 32.1105 36.6728 32.0583C36.6467 32.0314 36.6155 32.01 36.581 31.9953C36.5465 31.9807 36.5095 31.973 36.472 31.9728ZM41.0182 13.1728V40.5183C41.0182 40.6316 40.9732 40.7403 40.893 40.8204C40.8129 40.9005 40.7042 40.9455 40.5909 40.9455H13.395V27.7001C13.395 27.5868 13.35 27.4781 13.2699 27.398C13.1897 27.3178 13.081 27.2728 12.9677 27.2728H4.11891C4.00559 27.2728 3.89691 27.3178 3.81678 27.398C3.73665 27.4781 3.69164 27.5868 3.69164 27.7001V40.9455H0.427274C0.313954 40.9455 0.205276 40.9005 0.125147 40.8204C0.0450175 40.7403 1.30862e-06 40.6316 1.30862e-06 40.5183V19.2914C-0.000200914 19.2096 0.0230381 19.1296 0.0669623 19.0607C0.110887 18.9917 0.173653 18.9369 0.247819 18.9025L13.6343 12.7925C13.7018 12.7595 13.7769 12.7448 13.8519 12.7501C13.927 12.7553 13.9993 12.7803 14.0615 12.8225C14.1211 12.8607 14.1703 12.9131 14.2046 12.975C14.2389 13.0369 14.2573 13.1063 14.2581 13.1771V18.6248L27.0207 12.7925C27.0883 12.7595 27.1634 12.7448 27.2384 12.7501C27.3134 12.7553 27.3857 12.7803 27.448 12.8225C27.5076 12.8607 27.5567 12.9131 27.591 12.975C27.6253 13.0369 27.6437 13.1063 27.6445 13.1771V18.6248L40.4115 12.7925C40.479 12.7595 40.5541 12.7448 40.6291 12.7501C40.7041 12.7553 40.7764 12.7803 40.8387 12.8225C40.8928 12.8609 40.9372 12.9114 40.9683 12.97C40.9995 13.0286 41.0165 13.0937 41.0182 13.16V13.1728ZM21.9105 32.2463C21.9105 31.9471 21.7917 31.6602 21.5802 31.4487C21.3686 31.2371 21.0817 31.1183 20.7825 31.1183H16.5782C16.2786 31.1183 15.9913 31.237 15.7791 31.4484C15.5668 31.6598 15.447 31.9467 15.4459 32.2463V36.4464C15.447 36.7459 15.5668 37.0328 15.7791 37.2442C15.9913 37.4557 16.2786 37.5744 16.5782 37.5744H20.7825C21.0821 37.5732 21.369 37.4534 21.5804 37.2412C21.7918 37.029 21.9105 36.7416 21.9105 36.4421V32.2463ZM21.9105 24.3118C21.9105 24.0127 21.7917 23.7257 21.5802 23.5142C21.3686 23.3027 21.0817 23.1838 20.7825 23.1838H16.5782C16.4284 23.1838 16.2801 23.2135 16.1419 23.2712C16.0037 23.3289 15.8783 23.4135 15.773 23.52C15.6677 23.6265 15.5845 23.7528 15.5284 23.8917C15.4723 24.0305 15.4442 24.1791 15.4459 24.3289V28.5162C15.447 28.8157 15.5668 29.1026 15.7791 29.3141C15.9913 29.5255 16.2786 29.6442 16.5782 29.6442H20.7825C21.0817 29.6442 21.3686 29.5253 21.5802 29.3138C21.7917 29.1023 21.9105 28.8153 21.9105 28.5162V24.3118ZM29.7553 32.2463C29.7553 31.9471 29.6364 31.6602 29.4249 31.4487C29.2133 31.2371 28.9264 31.1183 28.6273 31.1183H24.4229C24.1234 31.1183 23.836 31.237 23.6238 31.4484C23.4116 31.6598 23.2918 31.9467 23.2906 32.2463V36.4464C23.2918 36.7459 23.4116 37.0328 23.6238 37.2442C23.836 37.4557 24.1234 37.5744 24.4229 37.5744H28.6273C28.9268 37.5732 29.2137 37.4534 29.4251 37.2412C29.6366 37.029 29.7553 36.7416 29.7553 36.4421V32.2463ZM29.7553 24.3118C29.7553 24.0127 29.6364 23.7257 29.4249 23.5142C29.2133 23.3027 28.9264 23.1838 28.6273 23.1838H24.4229C24.2731 23.1838 24.1248 23.2135 23.9866 23.2712C23.8484 23.3289 23.723 23.4135 23.6177 23.52C23.5124 23.6265 23.4293 23.7528 23.3731 23.8917C23.317 24.0305 23.2889 24.1791 23.2906 24.3289V28.5162C23.2918 28.8157 23.4116 29.1026 23.6238 29.3141C23.836 29.5255 24.1234 29.6442 24.4229 29.6442H28.6273C28.9264 29.6442 29.2133 29.5253 29.4249 29.3138C29.6364 29.1023 29.7553 28.8153 29.7553 28.5162V24.3118ZM37.6 32.2463C37.6 31.9471 37.4812 31.6602 37.2696 31.4487C37.0581 31.2371 36.7712 31.1183 36.472 31.1183H32.2676C31.9681 31.1183 31.6807 31.237 31.4685 31.4484C31.2563 31.6598 31.1365 31.9467 31.1354 32.2463V36.4464C31.1365 36.7459 31.2563 37.0328 31.4685 37.2442C31.6807 37.4557 31.9681 37.5744 32.2676 37.5744H36.472C36.7708 37.5732 37.0571 37.454 37.2684 37.2427C37.4797 37.0314 37.5989 36.7452 37.6 36.4464V32.2463ZM37.6 24.3289C37.6 24.0297 37.4812 23.7428 37.2696 23.5313C37.0581 23.3198 36.7712 23.2009 36.472 23.2009H32.2676C31.9681 23.2009 31.6807 23.3196 31.4685 23.531C31.2563 23.7425 31.1365 24.0294 31.1354 24.3289V28.5162C31.1365 28.8157 31.2563 29.1026 31.4685 29.3141C31.6807 29.5255 31.9681 29.6442 32.2676 29.6442H36.472C36.7712 29.6442 37.0581 29.5253 37.2696 29.3138C37.4812 29.1023 37.6 28.8153 37.6 28.5162V24.3289Z" fill="white"/>
</svg>
