<svg width="30" height="29" viewBox="0 0 30 29" fill="none" xmlns="http://www.w3.org/2000/svg">
<path d="M4.3793 18.5825C4.29651 18.7421 4.26779 18.9228 4.2972 19.0991C4.32662 19.2754 4.41268 19.4383 4.54319 19.5646L4.75811 19.7724C5.37909 19.061 6.10284 18.2891 6.98057 17.4408C7.04256 17.3808 7.10643 17.3519 7.16866 17.2966L5.78602 15.9597C4.98217 17.3652 4.51342 18.3254 4.3793 18.5825ZM11.9523 22.2468C11.0725 23.0974 10.2759 23.7983 9.54428 24.399L9.83538 24.6804C9.96696 24.8077 10.137 24.8913 10.3209 24.9192C10.5048 24.947 10.6932 24.9176 10.8587 24.8353C11.314 24.6085 12.0299 24.2828 13.5497 23.4646L12.1018 22.065C12.0446 22.1254 12.0145 22.1869 11.9523 22.2468ZM11.4838 17.8949C10.8486 17.2809 9.06247 17.8313 8.2234 18.6422C5.41635 21.3557 4.14862 23.2794 3.57938 24.4154C3.49977 24.5742 3.4733 24.753 3.50365 24.9269C3.53399 25.1009 3.61965 25.2614 3.74872 25.3862C3.87798 25.5111 4.04429 25.594 4.22454 25.6234C4.4048 25.6527 4.59002 25.627 4.75448 25.5499C5.90321 25.0107 7.86909 23.791 10.7095 21.0454C11.6321 20.1532 12.0874 18.4785 11.4845 17.8955L11.4838 17.8949ZM2.74325 11.3116L0.257408 13.7148C0.120601 13.847 0.0327615 14.0192 0.00751536 14.2046C-0.0177308 14.39 0.0210279 14.5783 0.117779 14.7403C0.312075 15.0691 0.719009 15.2365 1.10626 15.1363C2.44981 14.7881 3.632 14.6409 4.42805 14.8383C5.56055 12.8919 6.77754 11.1002 8.06637 9.47273C7.32088 9.01072 4.85743 9.26804 2.74325 11.3117V11.3116ZM14.8765 28.9087C15.0416 28.9893 15.2287 29.0175 15.4112 28.9892C15.5938 28.9608 15.7624 28.8775 15.893 28.751L18.3791 26.348C20.3038 24.487 20.6425 22.086 20.2058 21.3247C18.3281 22.6927 16.4258 23.8478 14.6511 24.8149C14.7735 25.4833 14.6921 26.1318 14.4025 28.0258C14.3752 28.2025 14.4063 28.383 14.4915 28.5416C14.5766 28.7001 14.7114 28.8286 14.8765 28.9087ZM17.4491 8.52259C16.4213 9.51646 16.4213 11.1332 17.4491 12.127C18.4773 13.1208 20.15 13.1208 21.1781 12.127C22.2062 11.1331 22.2062 9.5164 21.1781 8.52259C20.1499 7.52877 18.4773 7.52871 17.4492 8.52259H17.4491ZM29.9481 0.828753C29.9166 0.408592 29.5705 0.0765085 29.1372 0.0450729C26.9786 -0.112048 24.8285 0.144647 22.721 0.767694C22.8796 2.16728 23.6285 3.68202 24.907 4.91792C26.2009 6.16843 27.8104 6.89219 29.2842 7.02756C29.8518 5.10467 30.1209 3.04527 29.9481 0.828753Z" fill="#FF8D1E"/>
<path d="M23.6678 6.11961C22.2053 4.7058 21.3122 3.01015 21.0256 1.35913C15.7478 3.45155 10.6955 8.0208 6.70312 14.4398L8.68658 16.3572C10.0419 15.8253 11.687 15.6848 12.7305 16.6933C13.7753 17.7035 13.6273 19.2932 13.0772 20.6015L15.126 22.5819C20.2351 19.6054 26.1832 14.916 28.7126 8.67682C26.963 8.42131 25.1542 7.55647 23.6678 6.11961ZM22.4245 13.3287C20.7114 14.9848 17.9234 14.9848 16.21 13.3287C14.4966 11.6724 14.4966 8.97707 16.21 7.32101C17.9234 5.66495 20.7114 5.66495 22.4245 7.32101C24.138 8.9773 24.138 11.6724 22.4245 13.3287Z" fill="#FF8D1E"/>
</svg>
