<svg width="29" height="29" viewBox="0 0 29 29" fill="none" xmlns="http://www.w3.org/2000/svg">
<path d="M9.08792 19.347C8.24258 19.9886 7.55894 20.8086 7.08887 21.7449C6.61881 22.6813 6.37467 23.7092 6.375 24.7507V26.8132H2.125C0.949167 26.8132 0 25.892 0 24.7507V23.3757C0 20.7151 2.21708 18.5632 4.95833 18.5632H6.375C7.38083 18.5632 8.30875 18.852 9.08792 19.347Z" fill="#FF8D1E"/>
<path d="M22.6641 18.5632C24.4245 18.5632 25.8516 17.1781 25.8516 15.4695C25.8516 13.7609 24.4245 12.3757 22.6641 12.3757C20.9037 12.3757 19.4766 13.7609 19.4766 15.4695C19.4766 17.1781 20.9037 18.5632 22.6641 18.5632Z" fill="#FF8D1E"/>
<path d="M5.66406 18.5632C7.42447 18.5632 8.85156 17.1781 8.85156 15.4695C8.85156 13.7609 7.42447 12.3757 5.66406 12.3757C3.90365 12.3757 2.47656 13.7609 2.47656 15.4695C2.47656 17.1781 3.90365 18.5632 5.66406 18.5632Z" fill="#FF8D1E"/>
<path d="M28.3301 23.3757V24.7507C28.3301 25.892 27.3809 26.8132 26.2051 26.8132H21.9551V24.7507C21.9551 22.5576 20.8926 20.6051 19.2422 19.347C20.0214 18.852 20.9493 18.5632 21.9551 18.5632H23.3718C26.113 18.5632 28.3301 20.7151 28.3301 23.3757Z" fill="#FF8D1E"/>
<path d="M14.1693 19.2507C16.3209 19.2507 18.0651 17.5578 18.0651 15.4695C18.0651 13.3812 16.3209 11.6882 14.1693 11.6882C12.0177 11.6882 10.2734 13.3812 10.2734 15.4695C10.2734 17.5578 12.0177 19.2507 14.1693 19.2507Z" fill="#FF8D1E"/>
<path d="M14.8745 19.2508H13.4578C10.3333 19.2508 7.79114 21.7183 7.79114 24.7508V26.8133C7.79114 27.9505 8.74456 28.8758 9.91614 28.8758H18.4161C19.5877 28.8758 20.5411 27.9505 20.5411 26.8133V24.7508C20.5411 21.7183 17.9989 19.2508 14.8745 19.2508ZM24.437 9.40859L22.7278 9.99846C22.6156 10.0372 22.4955 10.0488 22.3777 10.0322C22.2599 10.0157 22.1481 9.97161 22.0518 9.9037C21.9555 9.8358 21.8778 9.74614 21.8252 9.6425C21.7727 9.53887 21.747 9.42436 21.7503 9.3089L21.7998 7.5489L20.6934 6.15328C20.6209 6.06169 20.5725 5.95436 20.5523 5.84055C20.5321 5.72673 20.5408 5.60986 20.5775 5.50001C20.6143 5.39017 20.678 5.29066 20.7632 5.21007C20.8485 5.12948 20.9526 5.07024 21.0667 5.03746L22.8071 4.53971L23.8328 3.08703C23.9 2.99174 23.9902 2.9138 24.0955 2.85994C24.2008 2.80609 24.318 2.77794 24.437 2.77794C24.556 2.77794 24.6732 2.80609 24.7785 2.85994C24.8837 2.9138 24.9739 2.99174 25.0412 3.08703L26.0668 4.53971L27.8072 5.03746C28.3009 5.1784 28.4943 5.75728 28.1805 6.15328L27.0741 7.5489L27.1237 9.3089C27.1268 9.42431 27.101 9.53872 27.0484 9.64227C26.9958 9.74582 26.9181 9.8354 26.8218 9.90328C26.7256 9.97115 26.6138 10.0153 26.4961 10.0319C26.3784 10.0485 26.2583 10.037 26.1462 9.99846L24.437 9.40859ZM3.89531 9.40859L2.1861 9.99846C2.07397 10.0372 1.95382 10.0488 1.83603 10.0322C1.71825 10.0157 1.60639 9.97161 1.51012 9.9037C1.41386 9.8358 1.33609 9.74614 1.28355 9.6425C1.23102 9.53887 1.20529 9.42436 1.2086 9.3089L1.25818 7.5489L0.151765 6.15328C0.0792719 6.06169 0.0308356 5.95436 0.0106384 5.84055C-0.00955883 5.72673 -0.000909901 5.60986 0.0358383 5.50001C0.0725865 5.39017 0.136329 5.29066 0.221563 5.21007C0.306797 5.12948 0.410959 5.07024 0.525056 5.03746L2.26543 4.53971L3.2911 3.08703C3.35836 2.99174 3.44853 2.9138 3.55381 2.85994C3.65909 2.80609 3.7763 2.77794 3.89531 2.77794C4.01431 2.77794 4.13153 2.80609 4.2368 2.85994C4.34208 2.9138 4.43225 2.99174 4.49951 3.08703L5.52518 4.53971L7.26556 5.03746C7.75927 5.1784 7.95264 5.75728 7.63885 6.15328L6.53243 7.5489L6.58202 9.3089C6.58516 9.42431 6.55932 9.53872 6.50673 9.64227C6.45414 9.74582 6.37639 9.8354 6.28017 9.90328C6.18395 9.97115 6.07217 10.0153 5.95446 10.0319C5.83674 10.0485 5.71664 10.037 5.60452 9.99846L3.89531 9.40859ZM14.1661 7.86171L12.1396 8.5609C12.0067 8.60674 11.8642 8.62046 11.7246 8.60088C11.585 8.58129 11.4524 8.52899 11.3383 8.44849C11.2242 8.368 11.132 8.26174 11.0697 8.13889C11.0074 8.01605 10.9769 7.88033 10.9808 7.74346L11.0396 5.6569L9.72772 4.00209C9.6418 3.89351 9.58439 3.76626 9.56046 3.63133C9.53654 3.4964 9.54681 3.35784 9.59039 3.22762C9.63397 3.09741 9.70955 2.97944 9.81061 2.88392C9.91167 2.78839 10.0352 2.71818 10.1704 2.67934L12.2338 2.08878L13.45 0.366589C13.5298 0.253578 13.6367 0.161134 13.7615 0.0972585C13.8864 0.0333827 14.0254 0 14.1665 0C14.3076 0 14.4466 0.0333827 14.5715 0.0972585C14.6963 0.161134 14.8032 0.253578 14.883 0.366589L16.0992 2.08878L18.1626 2.67934C18.2978 2.71818 18.4213 2.78839 18.5224 2.88392C18.6234 2.97944 18.699 3.09741 18.7426 3.22762C18.7862 3.35784 18.7965 3.4964 18.7725 3.63133C18.7486 3.76626 18.6912 3.89351 18.6053 4.00209L17.2934 5.6569L17.3522 7.74346C17.3561 7.88033 17.3256 8.01605 17.2633 8.13889C17.201 8.26174 17.1088 8.368 16.9947 8.44849C16.8806 8.52899 16.748 8.58129 16.6084 8.60088C16.4687 8.62046 16.3263 8.60674 16.1934 8.5609L14.1661 7.86171Z" fill="#FF8D1E"/>
</svg>
