<svg width="42" height="39" viewBox="0 0 42 39" fill="none" xmlns="http://www.w3.org/2000/svg">
<path d="M28.7002 16.2818C24.3607 12.0367 17.326 12.0367 12.9865 16.2818C8.64707 20.5269 8.64707 27.4087 12.9865 31.6538C17.326 35.899 24.3607 35.899 28.7002 31.6538C33.0307 27.4087 33.0307 20.5269 28.7002 16.2818ZM15.9603 35.2046C14.2353 34.4839 12.699 33.3941 11.4771 32.0318L8.66503 36.7954L11.5221 36.356C11.7646 36.312 12.0162 36.3911 12.1779 36.5933L13.9209 38.6851L15.9603 35.2046ZM30.2096 32.0318C28.9787 33.3941 27.4514 34.4839 25.7174 35.2046L27.7658 38.6763L29.5088 36.5845C29.6705 36.3911 29.9221 36.3033 30.1646 36.3472L33.0217 36.7867L30.2096 32.0318ZM25.2682 19.6392C22.8244 17.2486 18.8623 17.2486 16.4185 19.6392C13.9748 22.0298 13.9748 25.9058 16.4185 28.2964C18.8623 30.687 22.8244 30.687 25.2682 28.2964C27.7119 25.9058 27.7119 22.0298 25.2682 19.6392ZM20.8389 16.5015C25.0525 16.5015 28.4756 19.8413 28.4756 23.9722C28.4756 28.0943 25.0615 31.4429 20.8389 31.4429C16.6252 31.4429 13.2021 28.1031 13.2021 23.9722C13.2111 19.8413 16.6252 16.5015 20.8389 16.5015ZM17.281 24.4644C17.0924 24.1392 17.2002 23.7349 17.5326 23.5503C17.865 23.3658 18.2783 23.4712 18.467 23.7964L19.5631 25.6509L23.3185 21.9771C23.5881 21.7134 24.0283 21.7134 24.2889 21.9771C24.5584 22.2408 24.5584 22.6626 24.2889 22.9263L19.9045 27.2154C19.59 27.523 19.051 27.4615 18.8264 27.0747L17.281 24.4644ZM36.6963 6.71927L38.0529 9.47025L41.1435 9.88333C41.6736 9.95364 41.8623 10.5865 41.4939 10.938L39.2389 13.0474L39.7959 16.0533C39.8857 16.563 39.3377 16.9409 38.8795 16.7036L36.1303 15.2622L33.381 16.7036C32.9318 16.9409 32.3478 16.5718 32.4736 16.0181L33.0217 13.0474L30.7666 10.938C30.3893 10.5865 30.5959 9.95364 31.126 9.88333L34.2076 9.47025L35.5643 6.71927C35.7889 6.25345 36.4627 6.26224 36.6963 6.71927ZM6.11347 6.71927L7.47011 9.47025L10.5607 9.88333C11.0818 9.95364 11.2795 10.5865 10.9111 10.938L8.65605 13.0474L9.21308 16.0533C9.30292 16.563 8.75488 16.9409 8.30566 16.7036L5.55644 15.2622L2.80722 16.7036C2.358 16.9409 1.783 16.5718 1.8998 16.0181L2.44785 13.0474L0.192768 10.938C-0.184576 10.5865 0.0220648 9.95364 0.552143 9.88333L3.63378 9.47025L4.99042 6.71927C5.21503 6.25345 5.88886 6.26224 6.11347 6.71927ZM21.4049 0.3472L22.7615 3.09818L25.8521 3.51126C26.3732 3.58157 26.5709 4.21439 26.2025 4.56595L23.9475 6.67532L24.5045 9.68118C24.5943 10.191 24.0463 10.5689 23.5881 10.3316L20.8389 8.88138L18.0896 10.3228C17.6404 10.5601 17.0654 10.191 17.1822 9.63724L17.7303 6.66654L15.4752 4.55716C15.0978 4.2056 15.3045 3.57279 15.8346 3.50247L18.9162 3.08939L20.2728 0.33841C20.5064 -0.118621 21.1803 -0.109831 21.4049 0.3472Z" fill="#FF8D1E"/>
</svg>
