<svg width="28" height="30" viewBox="0 0 28 30" fill="none" xmlns="http://www.w3.org/2000/svg">
<path d="M26.9471 9.63102C26.858 9.663 24.7572 10.4312 25.2801 11.8539C25.2861 11.8685 25.292 11.8859 25.295 11.9004C25.3336 12.0808 25.5059 12.9974 25.1553 13.5065C24.9473 13.8033 24.8582 14.0739 24.8849 14.3329C24.9859 15.3687 24.8433 15.9623 24.4422 16.2037C23.8003 16.582 22.8881 15.5869 22.2343 14.682C22.1986 14.6355 22.1778 14.5802 22.1689 14.522C22.0442 13.6724 21.7856 12.8024 21.6162 12.6627C21.3785 12.5056 20.2493 12.5405 20.1721 12.526C19.3906 12.363 19.1825 12.6482 19.346 13.2534C19.6462 13.7626 20.2612 14.9061 20.0532 15.4763C19.8452 16.0408 18.6775 16.55 18.0563 16.7856C17.8988 17.0766 17.5215 17.7632 17.3194 18.0251C15.9555 19.7854 13.1296 21.4642 12.0539 24.2167C11.7716 24.9383 11.9677 26.6957 11.5071 27.5307C11.2932 27.9119 10.479 28.4239 10.1314 28.6335C9.93821 28.9302 9.29046 29.8235 8.48221 29.8235C8.46441 29.8235 8.44655 29.8235 8.42875 29.8206C7.91168 29.7944 7.48085 29.4219 7.151 28.712C7.14504 28.7003 7.1421 28.6887 7.13614 28.6771C6.51804 26.9022 6.25657 26.1283 5.95347 25.0401C5.39485 23.0383 5.29676 22.8841 4.93125 22.2644C4.48256 21.4992 3.87041 20.4575 4.17351 19.1511C4.17351 16.8293 4.20917 16.7013 4.13784 16.4598C4.03976 16.5238 3.8466 16.6867 3.52865 17.1174C3.41871 17.2629 3.21665 17.3094 3.0532 17.2221L0.833506 16.0612C0.658205 15.971 0.586881 15.7615 0.673058 15.584C0.791952 15.3367 0.898876 15.037 0.910784 14.9236C0.83946 14.8305 0.500703 14.5803 0.182754 14.3998C-0.0430634 14.266 -0.0638715 13.9517 0.144146 13.7976L1.37433 12.8723C1.45756 12.8083 1.56448 12.785 1.66852 12.8025L2.44406 12.9392C2.2806 12.3718 2.01618 11.6153 1.70713 11.304C0.785998 10.3671 1.06528 9.08109 2.65803 9.1829C3.49599 9.23531 4.17056 8.94436 4.4677 8.63298C4.7619 8.32165 4.49741 8.32165 4.68161 8.0685L6.4318 5.64774L5.48686 4.50425C5.43342 4.44015 5.40404 4.36005 5.40362 4.27731V2.24648C5.13325 1.94099 4.56566 1.20192 4.85986 0.596762C5.08862 0.122502 5.72157 -0.0666371 6.79432 0.0206297C6.85373 0.0264598 6.9102 0.0438886 6.96072 0.0759232L9.43593 1.59763C10.0213 1.30085 11.0643 0.884767 11.5636 1.37069C11.9439 1.74602 11.8429 2.39776 11.2396 3.47724L11.4774 4.72549C11.489 4.78331 11.4859 4.84305 11.4683 4.8994C11.4507 4.95576 11.4191 5.00697 11.3763 5.04847L10.6008 5.80785L12.4104 7.1492C12.556 7.25395 12.6006 7.44892 12.5174 7.60603L11.9855 8.61856L13.6763 9.80856L15.6909 9.84931C15.7493 9.84967 15.8066 9.86469 15.8573 9.89295L17.3669 10.6698L18.08 10.536V9.50307C18.08 9.31687 18.2227 9.15971 18.4128 9.14228L19.7322 9.01132C19.9105 8.99677 20.0799 9.10736 20.1274 9.27901L20.3533 10.0879L21.7914 9.9831V8.988C21.7914 8.87741 21.842 8.7756 21.9281 8.70576L23.5981 7.37025C23.6746 7.31111 23.7714 7.28299 23.8685 7.2917C24.3083 7.33533 26.5191 7.59431 27.0985 8.52828C27.3186 8.88324 27.3067 9.50006 26.9471 9.63102Z" fill="#FF8D1E"/>
</svg>
