<svg width="36" height="39" viewBox="0 0 36 39" fill="none" xmlns="http://www.w3.org/2000/svg">
<path fill-rule="evenodd" clip-rule="evenodd" d="M7.31692 20.8421C5.12723 20.8421 3.35215 22.6171 3.35215 24.8068C3.35215 26.9965 5.12723 28.7716 7.31692 28.7716C9.5066 28.7716 11.2817 26.9965 11.2817 24.8068C11.2817 22.6171 9.5066 20.8421 7.31692 20.8421ZM19.6881 7.69994C20.0842 7.30166 20.7282 7.29986 21.1264 7.69596C21.5247 8.09205 21.5265 8.73604 21.1304 9.13432L17.7334 12.5633C17.34 12.9589 16.702 12.9632 16.3032 12.5751L14.6224 10.9369C14.2197 10.5453 14.2108 9.90127 14.6025 9.49861C14.9941 9.09596 15.6381 9.08705 16.0407 9.47869L16.9997 10.4135L19.6881 7.69994ZM25.9757 14.9236C27.4638 14.4085 28.1454 12.3104 27.2445 11.0189C26.8654 10.4756 26.8654 9.78752 27.2444 9.24424C28.1455 7.95283 27.4638 5.85471 25.9758 5.33947C25.3498 5.12275 24.9453 4.56611 24.9326 3.90377C24.9025 2.32939 23.1178 1.0326 21.6111 1.49041C20.9773 1.68307 20.3229 1.47049 19.9233 0.942051C18.9736 -0.313965 16.7675 -0.314043 15.8176 0.941973C15.4181 1.47041 14.7636 1.68314 14.1298 1.49049C12.6232 1.0326 10.8383 2.32932 10.8082 3.90369C10.7956 4.56604 10.3912 5.12275 9.76512 5.33947C8.27707 5.85455 7.59527 7.95275 8.49629 9.24416C8.87535 9.78744 8.87543 10.4756 8.49637 11.0188C7.59528 12.3103 8.27699 14.4085 9.76504 14.9236C10.3911 15.1403 10.7956 15.697 10.8082 16.3593C10.8383 17.9337 12.6231 19.2305 14.1297 18.7726C14.7636 18.5799 15.418 18.7925 15.8176 19.321C16.7674 20.5771 18.9736 20.5771 19.9233 19.321C20.3229 18.7926 20.9773 18.5799 21.6111 18.7726C23.1178 19.2305 24.9026 17.9338 24.9327 16.3594C24.9453 15.697 25.3497 15.1403 25.9757 14.9236ZM17.8704 4.44799C14.7314 4.44799 12.1868 6.99268 12.1868 10.1316C12.1868 13.2705 14.7314 15.8152 17.8704 15.8152C21.0093 15.8152 23.5539 13.2705 23.5539 10.1316C23.5539 6.9926 21.0093 4.44799 17.8704 4.44799ZM10.0007 38.0021C10.3057 33.9352 13.7289 30.702 17.8704 30.702C22.012 30.702 25.435 33.9352 25.7402 38.0021C25.7462 38.0778 25.7365 38.1538 25.7116 38.2255C25.6867 38.2971 25.6472 38.3629 25.5956 38.4185C25.544 38.4741 25.4814 38.5184 25.4118 38.5486C25.3422 38.5788 25.2671 38.5942 25.1912 38.5938H10.5497C10.4738 38.5942 10.3987 38.5788 10.3291 38.5486C10.2595 38.5184 10.1969 38.4741 10.1453 38.4185C10.0937 38.3629 10.0542 38.2971 10.0293 38.2255C10.0044 38.1538 9.99466 38.0778 10.0007 38.0021ZM17.8704 21.7596C15.5147 21.7596 13.605 23.6692 13.605 26.0249C13.605 28.3806 15.5147 30.2902 17.8704 30.2902C20.226 30.2902 22.1357 28.3806 22.1357 26.0249C22.1357 23.6692 20.2261 21.7596 17.8704 21.7596ZM23.3013 31.2517C25.0037 32.5146 26.2599 34.3552 26.7663 36.4903H35.2288C35.2993 36.4906 35.3691 36.4763 35.4338 36.4482C35.4985 36.4201 35.5567 36.379 35.6047 36.3273C35.6526 36.2756 35.6894 36.2145 35.7125 36.1479C35.7356 36.0812 35.7447 36.0106 35.7391 35.9403C35.4555 32.1599 32.2736 29.1545 28.4238 29.1545C26.4358 29.1545 24.626 29.956 23.3013 31.2517ZM0.00160366 35.9403C-0.00398702 36.0106 0.00507655 36.0813 0.028221 36.1479C0.0513655 36.2145 0.0880868 36.2756 0.136061 36.3273C0.184036 36.379 0.242219 36.4202 0.306929 36.4482C0.371639 36.4763 0.441467 36.4906 0.511994 36.4903H8.97457C9.4809 34.3553 10.7371 32.5146 12.4395 31.2517C11.1148 29.956 9.30496 29.1545 7.31699 29.1545C3.46715 29.1545 0.285197 32.1599 0.00160366 35.9403ZM28.4238 20.8421C26.2341 20.8421 24.459 22.6171 24.459 24.8068C24.459 26.9965 26.2341 28.7716 28.4238 28.7716C30.6135 28.7716 32.3886 26.9965 32.3886 24.8068C32.3886 22.6171 30.6135 20.8421 28.4238 20.8421Z" fill="white"/>
</svg>
