<svg width="35" height="32" viewBox="0 0 35 32" fill="none" xmlns="http://www.w3.org/2000/svg">
<path d="M31.7854 21.4779C31.5969 21.4755 31.4099 21.511 31.2353 21.5821C31.0608 21.6533 30.9023 21.7587 30.7692 21.8921C30.636 22.0256 30.531 22.1843 30.4603 22.3591C30.3896 22.5338 30.3546 22.7209 30.3574 22.9094V26.4881C30.3574 27.7411 29.2864 28.6371 28.2137 28.6371H24.6437C24.455 28.6345 24.2678 28.6698 24.0931 28.7409C23.9183 28.8119 23.7596 28.9173 23.6263 29.0507C23.493 29.1842 23.3878 29.3431 23.3169 29.5179C23.2461 29.6927 23.2111 29.88 23.2139 30.0686C23.2139 30.9629 23.7494 31.5001 24.6437 31.5001H28.2137C28.8714 31.5006 29.5228 31.3712 30.1304 31.1193C30.738 30.8675 31.2899 30.4981 31.7544 30.0324C32.2189 29.5668 32.5869 29.014 32.8373 28.4058C33.0877 27.7975 33.2155 27.1459 33.2134 26.4881V22.9094C33.2134 22.1919 32.4994 21.4779 31.7854 21.4779ZM24.6437 2.86313H28.2137C29.4649 2.86313 30.3574 3.93763 30.3574 5.01213V8.59088C30.3574 9.30838 30.8929 10.0224 31.7854 10.0224C32.6779 10.0224 33.2152 9.48688 33.2152 8.59088V5.01213C33.2152 2.32763 31.0714 0.000133545 28.2137 0.000133545H24.6437C24.455 -0.00246214 24.2678 0.0328049 24.0931 0.103848C23.9183 0.17489 23.7596 0.280265 23.6263 0.413736C23.493 0.547207 23.3878 0.706063 23.3169 0.880903C23.2461 1.05574 23.2111 1.24301 23.2139 1.43163C23.2139 2.32763 23.9297 2.86313 24.6437 2.86313ZM10.3567 28.6371H6.78666C5.53541 28.6371 4.64291 27.5626 4.64291 26.4881V22.9094C4.64291 22.1919 4.10741 21.4779 3.21491 21.4779C2.32241 21.4779 1.78516 22.1936 1.78516 22.9094V26.4881C1.78516 29.1744 3.92891 31.5001 6.78666 31.5001H10.3567C10.5453 31.5027 10.7325 31.4675 10.9073 31.3964C11.082 31.3254 11.2407 31.22 11.374 31.0865C11.5074 30.9531 11.6125 30.7942 11.6834 30.6194C11.7542 30.4445 11.7892 30.2573 11.7864 30.0686C11.7892 29.88 11.7542 29.6927 11.6834 29.5179C11.6125 29.3431 11.5074 29.1842 11.374 29.0507C11.2407 28.9173 11.082 28.8119 10.9073 28.7409C10.7325 28.6698 10.5453 28.6345 10.3567 28.6371ZM3.21491 10.0224C3.40338 10.0247 3.59042 9.9893 3.76497 9.91815C3.93952 9.84701 4.09804 9.74159 4.23116 9.60815C4.36428 9.4747 4.4693 9.31593 4.54002 9.1412C4.61074 8.96648 4.64573 8.77936 4.64291 8.59088V5.01213C4.64291 3.75913 5.71391 2.86313 6.78666 2.86313H10.3567C10.5453 2.86573 10.7325 2.83046 10.9073 2.75942C11.082 2.68838 11.2407 2.583 11.374 2.44953C11.5074 2.31606 11.6125 2.1572 11.6834 1.98236C11.7542 1.80752 11.7892 1.62025 11.7864 1.43163C11.7892 1.24301 11.7542 1.05574 11.6834 0.880903C11.6125 0.706063 11.5074 0.547207 11.374 0.413736C11.2407 0.280265 11.082 0.17489 10.9073 0.103848C10.7325 0.0328049 10.5453 -0.00246214 10.3567 0.000133545H6.78666C4.10741 0.000133545 1.78516 2.32763 1.78516 5.01213V8.59088C1.78516 9.30838 2.50091 10.0224 3.21491 10.0224Z" fill="white"/>
<path d="M24.6437 26.4882C25.5906 26.4836 26.4973 26.1048 27.166 25.4344C27.8348 24.764 28.2114 23.8564 28.2137 22.9095V19.6895H6.78841V22.9095C6.79071 23.8564 7.16729 24.764 7.83605 25.4344C8.50481 26.1048 9.41149 26.4836 10.3584 26.4882H24.6437ZM33.5722 14.3187H28.2154V8.59096C28.2131 7.64373 27.8363 6.73586 27.1671 6.06541C26.498 5.39497 25.5909 5.01636 24.6437 5.01221H10.3567C9.40974 5.01682 8.50306 5.39563 7.8343 6.06603C7.16554 6.73642 6.78896 7.64403 6.78666 8.59096V14.6775H1.42816C1.23968 14.6751 1.05264 14.7105 0.878093 14.7817C0.703545 14.8528 0.545027 14.9582 0.411906 15.0917C0.278785 15.2251 0.173762 15.3839 0.103041 15.5586C0.0323202 15.7334 -0.00266311 15.9205 0.000157999 16.109C0.000157999 17.0032 0.535658 17.5405 1.42816 17.5405H33.5722C33.7606 17.5428 33.9477 17.5074 34.1222 17.4362C34.2968 17.3651 34.4553 17.2597 34.5884 17.1262C34.7215 16.9928 34.8266 16.834 34.8973 16.6593C34.968 16.4846 35.003 16.2974 35.0002 16.109C35.0002 15.213 34.2862 14.3187 33.5722 14.3187Z" fill="white"/>
</svg>
