<svg width="32" height="36" viewBox="0 0 32 36" fill="none" xmlns="http://www.w3.org/2000/svg">
<path fill-rule="evenodd" clip-rule="evenodd" d="M3.02896 15.9093C3.35024 15.4796 2.45331 13.8542 2.00998 13.2307C1.80839 12.9465 1.30678 12.6909 1.38317 12.2679C1.7462 10.254 3.4786 11.7875 4.40151 11.2132C5.54726 10.4999 5.64255 9.03236 6.3111 8.04819C6.60247 7.61917 7.5175 7.0155 7.65451 6.52451C7.81279 5.95684 6.78358 5.4405 6.60955 4.94645C6.2544 3.9337 6.59302 2.65604 6.45285 2.21491C6.27409 1.64919 5.60554 1.46013 5.66302 0.782055C5.75751 -0.327013 7.83168 -0.0586567 8.46638 0.383271C9.04044 0.78298 10.0539 1.60793 10.6547 1.85007C11.4217 2.15971 12.2588 0.882755 12.947 1.3791C14.2125 2.29177 12.3423 3.23059 12.4108 4.11434C12.436 4.44185 12.9195 5.18167 12.7958 5.4565C12.5785 5.94204 11.884 6.04519 11.7029 6.5779C11.4343 7.37223 13.5581 8.05912 13.9243 8.47655C14.3834 9.00132 13.4431 9.69262 13.3447 10.2126C13.3329 10.2776 14.2085 10.6981 14.2849 10.7577C14.7291 11.1049 15.1464 11.7265 15.6756 11.9416C16.4174 12.2428 17.1985 11.9228 17.9561 12.0251C19.0475 12.1723 20.3468 13.6249 21.4807 12.8753C22.1391 12.4402 21.1918 11.0735 21.8202 10.8563C23.3116 10.3406 23.0139 11.9459 23.5415 12.233C23.5998 12.2648 25.8078 11.9953 26.0315 11.9195C26.259 11.8421 26.085 11.2881 26.2331 11.0658C26.6229 10.4778 27.3631 9.53372 28.0009 9.18441C28.923 8.68005 31.5807 9.47506 31.7382 10.6849C31.7863 11.0494 31.1421 11.1094 30.9019 11.2487C30.2704 11.6152 29.3325 12.4921 29.064 13.1671C28.9388 13.4829 29.3113 13.9232 29.3664 14.2464C29.4199 14.5678 29.1057 15.2152 28.9593 15.5043C28.7057 16.0028 27.7946 15.547 27.5844 16.3249C27.3678 17.1227 28.5616 17.8894 27.986 18.6478C27.7679 18.9346 27.1142 17.7351 27.0252 17.5079C26.9898 17.417 27.0016 17.4401 26.9756 17.3724C26.9638 17.3413 26.952 17.3105 26.9394 17.2799C26.9284 17.2526 26.9134 17.2127 26.8937 17.1908C26.6543 16.9268 25.5936 17.5759 25.3779 16.9971C24.9975 15.9764 25.3598 15.6573 25.722 14.7878C25.7913 14.6209 25.3653 14.7255 25.1857 14.7033C24.8322 14.6595 24.4723 14.6607 24.1313 14.5499C23.3864 14.3076 23.0651 12.9563 22.343 13.7938C21.4697 14.8067 23.6384 17.4587 22.9612 18.5654C22.4863 19.3427 21.4295 19.2587 20.8232 19.835C20.5003 20.1412 20.7255 20.5518 20.4114 20.8907C20.1082 21.2175 19.6766 21.3681 19.3688 21.6975C18.1206 23.033 16.978 24.4555 15.7141 25.761C14.9889 26.5101 13.851 26.4622 13.2399 27.4116C13.0029 27.78 13.6431 29.0063 13.6132 29.5695C13.5825 30.1578 13.162 30.7559 13.088 31.363C13.0415 31.7448 13.3384 32.3712 13.1887 32.699C12.8769 33.3806 11.8028 33.867 11.2744 34.3651C10.8342 34.7799 10.5476 35.7417 9.76093 35.6084C8.3175 35.3636 8.48366 32.8997 8.0482 31.8586C7.82062 31.3156 7.33083 30.8902 7.06625 30.3479C6.6599 29.5128 6.74417 28.5493 6.38902 27.7066C5.95828 26.6853 5.26296 25.8587 5.03459 24.7539C4.66371 22.9545 5.21178 21.5568 4.9527 19.907C4.94088 19.831 4.79914 19.3331 4.67944 19.3181C4.25105 19.2646 3.73448 20.0661 3.36911 20.2298C2.80136 20.484 1.52331 19.6063 1.11698 19.3087C0.396436 18.7806 0.370457 18.597 0.89492 17.8744C1.05005 17.6611 0.108231 17.0273 0.00191998 16.9101C-0.00988535 16.897 0.036576 16.8019 0.0373614 16.8013C0.198785 16.4729 1.05082 16.0264 1.38708 15.8352C1.7942 15.6037 2.54152 16.0502 3.02896 15.9093Z" fill="white"/>
</svg>
