<svg width="52" height="52" viewBox="0 0 52 52" fill="none" xmlns="http://www.w3.org/2000/svg">
<path d="M27.8785 24.9366C27.4277 24.9366 26.9769 24.7705 26.621 24.4146C26.2901 24.0797 26.1045 23.6279 26.1045 23.1571C26.1045 22.6863 26.2901 22.2344 26.621 21.8996L36.1116 12.409C36.7997 11.7209 37.9385 11.7209 38.6266 12.409C39.3147 13.0971 39.3147 14.2359 38.6266 14.924L29.136 24.4146C28.7801 24.7705 28.3293 24.9366 27.8785 24.9366Z" fill="#FF8D1E"/>
<path d="M50.8692 7.82987C50.7336 7.50731 50.5061 7.2318 50.215 7.03771C49.9238 6.84362 49.582 6.73954 49.2321 6.73846H44.297V1.80335C44.297 1.09156 43.8699 0.427219 43.2056 0.166228C42.8798 0.0316151 42.5216 -0.00416827 42.1757 0.0633358C41.8297 0.13084 41.5113 0.298647 41.26 0.545852L36.23 5.57586C35.8962 5.90926 35.7084 6.36157 35.708 6.83336V13.5479C35.708 14.5207 36.5147 15.3274 37.4875 15.3274H44.2021C44.6766 15.3274 45.1274 15.1376 45.4596 14.8054L50.4896 9.77544C50.9879 9.27719 51.1539 8.49421 50.8692 7.82987ZM27.8783 27.3093C27.3321 27.3128 26.7906 27.2077 26.2852 27.0003C25.7799 26.7929 25.3208 26.4871 24.9346 26.1009C24.5483 25.7146 24.2426 25.2555 24.0352 24.7502C23.8277 24.2449 23.7227 23.7034 23.7262 23.1572C23.7262 22.6352 23.8211 22.1369 24.0109 21.6624C22.4687 22.2556 21.3535 23.7741 21.3535 25.5298C21.3535 27.8075 23.2279 29.6819 25.5056 29.6819C27.2614 29.6819 28.7562 28.5668 29.3731 27.0246C28.8985 27.2144 28.4003 27.3093 27.8783 27.3093Z" fill="#FF8D1E"/>
<path d="M33.027 23.8689C33.1456 24.3909 33.2168 24.9604 33.2168 25.5298C33.2168 29.7768 29.7527 33.2409 25.5057 33.2409C21.2587 33.2409 17.7946 29.7768 17.7946 25.5298C17.7946 21.2828 21.2587 17.8187 25.5057 17.8187C26.0751 17.8187 26.6208 17.8899 27.1666 18.0085L31.7695 13.4056C29.8951 12.4328 27.7834 11.8871 25.5294 11.8871C18.0081 11.8871 11.8867 18.0085 11.8867 25.5298C11.8867 33.0511 18.0081 39.1725 25.5294 39.1725C33.0507 39.1725 39.1721 33.0511 39.1721 25.5298C39.1721 23.2758 38.6264 21.1641 37.6537 19.2897L33.0507 23.8927L33.027 23.8689Z" fill="#FF8D1E"/>
<path d="M47.1445 16.4899C46.3615 17.2729 45.2938 17.6999 44.2024 17.6999H40.8095C42.0196 20.0489 42.7076 22.7062 42.7076 25.5297C42.7076 35.0202 34.9965 42.7313 25.5059 42.7313C16.0154 42.7313 8.30426 35.0202 8.30426 25.5297C8.30426 16.0391 16.0154 8.32799 25.5059 8.32799C28.3294 8.32799 30.9868 9.01605 33.3357 10.2261V6.83322C33.3357 5.7418 33.7865 4.67411 34.5457 3.89114L36.1117 2.32519C32.8137 0.8067 29.2073 0 25.5059 0C11.4362 0.0237265 0 11.4599 0 25.5297C0 39.5995 11.4362 51.0356 25.5059 51.0356C39.5757 51.0356 51.0119 39.5995 51.0119 25.5297C51.0119 21.8283 50.2052 18.2219 48.6867 14.9239L47.1207 16.4899H47.1445Z" fill="#FF8D1E"/>
</svg>
