<svg width="43" height="50" viewBox="0 0 43 50" fill="none" xmlns="http://www.w3.org/2000/svg">
<path d="M42.5276 42.4835L35.9827 31.235C37.1152 30.8895 38.3217 30.5844 38.823 29.7188C39.6585 28.2765 38.1713 25.9106 38.5618 24.3647C38.9641 22.7736 41.3387 21.3969 41.3387 19.7796C41.3387 18.204 38.8837 16.3632 38.4812 14.7815C38.088 13.2359 39.5706 10.8673 38.7325 9.42682C37.8943 7.98616 35.1026 8.10453 33.9534 6.9987C32.771 5.86072 32.7746 3.07642 31.3484 2.3138C29.9164 1.54835 27.5891 3.09534 25.9991 2.72889C24.4273 2.36664 23.023 0 21.3811 0C19.715 0 17.0648 2.68457 16.6492 2.78119C15.0601 3.15061 12.7298 1.60739 11.2992 2.37609C9.8744 3.14128 9.88318 5.92585 8.7029 7.06572C7.5556 8.17358 4.76374 8.06035 3.92815 9.50262C3.0927 10.9446 4.57984 13.31 4.18947 14.8568C3.79803 16.4074 1.34073 17.9786 1.34073 19.7719C1.34073 21.3893 3.72128 22.7617 4.12597 24.352C4.5193 25.8976 3.03663 28.2659 3.87478 29.7069C4.33108 30.4913 5.36637 30.8133 6.40032 31.1229C6.52098 31.1589 6.7492 31.2939 6.59462 31.5192L0.19396 42.5659C-0.258964 43.3475 0.108834 44.0174 1.01103 44.0554L5.42718 44.2395C6.32938 44.2775 7.46115 44.9331 7.94272 45.697L10.2992 49.4363C10.7808 50.2001 11.5449 50.1858 11.9977 49.4044C11.9977 49.4044 18.5912 38.021 18.5939 38.0178C18.7261 37.8632 18.8591 37.895 18.9227 37.949C19.6442 38.5633 20.6499 39.176 21.4892 39.176C22.3124 39.176 23.0746 38.5992 23.8286 37.9559C23.8899 37.9036 24.0392 37.7965 24.1484 38.0189C24.1502 38.0224 30.7363 49.3434 30.7363 49.3434C31.1903 50.1239 31.9546 50.1371 32.4347 49.3724L34.7845 45.6286C35.2648 44.8642 36.3953 44.206 37.2975 44.1667L41.7133 43.9743C42.615 43.9347 42.9816 43.2638 42.5276 42.4835ZM28.6794 32.2439C23.7967 35.0846 17.9358 34.7802 13.4593 31.9565C6.89986 27.755 4.74158 19.0635 8.6848 12.2576C12.673 5.3732 21.44 2.94401 28.3865 6.72725C28.4229 6.74711 28.459 6.76765 28.4952 6.78791C28.5467 6.81643 28.5981 6.84534 28.6493 6.87453C30.7923 8.11007 32.6506 9.90325 33.9813 12.1904C38.0481 19.181 35.6699 28.1771 28.6794 32.2439Z" fill="#FF8D1E"/>
<path d="M27.5628 8.93189C27.5425 8.92013 27.522 8.90919 27.5017 8.89757C23.7911 6.74996 19.0616 6.59295 15.0978 8.89905C9.21574 12.3211 7.2142 19.8904 10.6363 25.7724C11.6805 27.5673 13.1114 29.0001 14.7623 30.0284C14.9031 30.118 15.0456 30.2048 15.1898 30.2888C21.0782 33.7002 28.6435 31.685 32.0548 25.7968C35.4659 19.9084 33.4512 12.3433 27.5628 8.93189ZM29.0359 18.558L26.9741 20.5677C26.3355 21.19 25.9364 22.4185 26.0873 23.2975L26.574 26.1352C26.7248 27.0141 26.2024 27.3937 25.413 26.9787L22.8645 25.6389C22.0752 25.2239 20.7835 25.2239 19.9942 25.6389L17.4458 26.9787C16.6564 27.3937 16.1339 27.0141 16.2847 26.1352L16.7714 23.2975C16.9222 22.4185 16.5231 21.19 15.8845 20.5677L13.8228 18.558C13.1841 17.9356 13.3838 17.3214 14.2663 17.193L17.1154 16.779C17.9979 16.6508 19.0429 15.8915 19.4376 15.0919L20.7118 12.5101C21.1065 11.7105 21.7524 11.7105 22.1469 12.5101L23.4212 15.0919C23.8159 15.8915 24.8608 16.6508 25.7434 16.779L28.5926 17.193C29.4749 17.3214 29.6745 17.9356 29.0359 18.558Z" fill="#FF8D1E"/>
</svg>
