<svg width="52" height="43" viewBox="0 0 52 43" fill="none" xmlns="http://www.w3.org/2000/svg">
<path d="M38.6276 29.1885C38.2259 26.4589 36.8591 23.9637 34.7752 22.1556C32.6912 20.3475 30.0282 19.3462 27.2693 19.3334H24.6979C21.9389 19.3462 19.2759 20.3475 17.192 22.1556C15.1081 23.9637 13.7413 26.4589 13.3396 29.1885L12.1071 37.8064C12.0677 38.0849 12.0937 38.3689 12.1831 38.6356C12.2724 38.9024 12.4226 39.1447 12.6218 39.3434C13.1052 39.8267 16.0704 42.2917 25.986 42.2917C35.9016 42.2917 38.8596 39.8364 39.3502 39.3434C39.5494 39.1447 39.6996 38.9024 39.7889 38.6356C39.8783 38.3689 39.9043 38.0849 39.8649 37.8064L38.6276 29.1885ZM15.2512 20.6625C12.9155 22.8157 11.3959 25.7099 10.9495 28.855L10.0553 35.0417C2.87784 34.9934 0.702838 32.3834 0.340338 31.8517C0.200215 31.6586 0.10022 31.4393 0.0462603 31.2069C-0.00769962 30.9744 -0.0145306 30.7335 0.026171 30.4984L0.557838 27.5017C0.834842 25.9356 1.48541 24.4594 2.45437 23.1982C3.42334 21.937 4.68213 20.9281 6.12402 20.2569C7.56591 19.5858 9.14837 19.2722 10.7372 19.3428C12.3261 19.4134 13.8745 19.8661 15.2512 20.6625ZM51.9362 30.4984C51.9769 30.7335 51.97 30.9744 51.9161 31.2069C51.8621 31.4393 51.7621 31.6586 51.622 31.8517C51.2595 32.3834 49.0845 34.9934 41.907 35.0417L41.0128 28.855C40.5665 25.7099 39.0468 22.8157 36.7112 20.6625C38.0878 19.8661 39.6362 19.4134 41.2251 19.3428C42.814 19.2722 44.3964 19.5858 45.8383 20.2569C47.2802 20.9281 48.539 21.937 49.508 23.1982C50.4769 24.4594 51.1275 25.9356 51.4045 27.5017L51.9362 30.4984ZM15.662 15.3459C15.0537 16.2086 14.2461 16.9118 13.3079 17.3956C12.3696 17.8795 11.3285 18.1297 10.2728 18.125C9.21979 18.125 8.18182 17.8748 7.24446 17.395C6.3071 16.9151 5.49718 16.2194 4.88146 15.3651C4.26573 14.5108 3.86182 13.5225 3.70301 12.4815C3.5442 11.4405 3.63504 10.3766 3.96805 9.37761C4.30105 8.37861 4.86668 7.47303 5.61833 6.73552C6.36997 5.998 7.28612 5.44966 8.29127 5.13567C9.29641 4.82169 10.3618 4.75105 11.3996 4.92959C12.4374 5.10812 13.4179 5.53072 14.2603 6.16254C14.018 7.11012 13.8962 8.08448 13.8978 9.06254C13.8997 11.279 14.5099 13.4524 15.662 15.3459ZM48.3353 11.4792C48.336 12.3521 48.1645 13.2166 47.8308 14.0232C47.497 14.8298 47.0075 15.5627 46.3902 16.1799C45.773 16.7972 45.0401 17.2867 44.2335 17.6205C43.4269 17.9542 42.5624 18.1257 41.6895 18.125C40.6339 18.1297 39.5927 17.8795 38.6545 17.3956C37.7162 16.9118 36.9087 16.2086 36.3003 15.3459C37.4524 13.4524 38.0627 11.279 38.0645 9.06254C38.0661 8.08448 37.9443 7.11012 37.702 6.16254C38.6894 5.42202 39.8634 4.97107 41.0927 4.86023C42.3219 4.74939 43.5577 4.98304 44.6616 5.535C45.7655 6.08695 46.6939 6.93541 47.3428 7.98529C47.9917 9.03517 48.3353 10.245 48.3353 11.4792Z" fill="#FF8D1E"/>
<path d="M25.9814 18.125C30.9865 18.125 35.0439 14.0676 35.0439 9.0625C35.0439 4.05742 30.9865 0 25.9814 0C20.9764 0 16.9189 4.05742 16.9189 9.0625C16.9189 14.0676 20.9764 18.125 25.9814 18.125Z" fill="#FF8D1E"/>
</svg>
