<svg width="59" height="59" viewBox="0 0 59 59" fill="none" xmlns="http://www.w3.org/2000/svg">
<path d="M16.9922 19.5801C18.9338 19.5801 20.5078 18.0061 20.5078 16.0645C20.5078 14.1228 18.9338 12.5488 16.9922 12.5488C15.0506 12.5488 13.4766 14.1228 13.4766 16.0645C13.4766 18.0061 15.0506 19.5801 16.9922 19.5801Z" fill="#FF8D1E"/>
<path d="M18.75 31.2988V28.716C19.8117 28.5695 20.8324 28.2906 21.7957 27.8992L23.0871 30.1363C23.4129 30.7 24.0035 31.0152 24.6105 31.0152C24.9094 31.0152 25.2117 30.9391 25.4883 30.7785C26.3285 30.2934 26.6168 29.2188 26.1316 28.3773L24.8379 26.1367C25.6687 25.4887 26.4164 24.7398 27.0656 23.909L29.3063 25.2027C29.5828 25.3633 29.8852 25.4395 30.184 25.4395C30.791 25.4395 31.3816 25.1242 31.7074 24.5605C32.1926 23.7191 31.9043 22.6445 31.0641 22.1594L28.827 20.8668C29.2195 19.9047 29.4973 18.884 29.6437 17.8223H32.2266C33.1969 17.8223 33.9844 17.0348 33.9844 16.0645C33.9844 15.093 33.1969 14.3066 32.2266 14.3066H29.6437C29.4973 13.2438 29.2195 12.223 28.827 11.2609L31.0641 9.96953C31.9043 9.4832 32.1926 8.40859 31.7074 7.56719C31.2223 6.72695 30.1465 6.43867 29.3063 6.92383L27.0656 8.21875C26.417 7.38785 25.6688 6.63969 24.8379 5.99102L26.1316 3.75039C26.6168 2.90898 26.3285 1.83438 25.4883 1.34922C24.648 0.862891 23.5723 1.15117 23.0871 1.99141L21.7957 4.22852C20.8324 3.83711 19.8117 3.55937 18.75 3.41172V0.830078C18.75 -0.141406 17.9625 -0.927734 16.9922 -0.927734C16.0219 -0.927734 15.2344 -0.141406 15.2344 0.830078V3.41172C14.1727 3.55937 13.152 3.83711 12.1887 4.22852L10.8973 1.99141C10.4121 1.15117 9.33633 0.862891 8.49609 1.34922C7.65586 1.83438 7.36758 2.90898 7.85273 3.75039L9.14648 5.99102C8.31559 6.63969 7.56742 7.38785 6.91875 8.21875L4.67812 6.92383C3.83789 6.43867 2.76211 6.72695 2.27695 7.56719C1.7918 8.40859 2.08008 9.4832 2.92031 9.96953L5.15742 11.2609C4.76484 12.223 4.48711 13.2438 4.34063 14.3066H1.75781C0.7875 14.3066 0 15.093 0 16.0645C0 17.0348 0.7875 17.8223 1.75781 17.8223H4.34063C4.48711 18.884 4.76484 19.9047 5.15742 20.8668L2.92031 22.1594C2.08008 22.6445 1.7918 23.7191 2.27695 24.5605C2.60273 25.1242 3.19336 25.4395 3.80039 25.4395C4.09922 25.4395 4.40156 25.3633 4.67812 25.2027L6.91875 23.909C7.56797 24.7398 8.31563 25.4887 9.14648 26.1367L7.85273 28.3773C7.36758 29.2188 7.65586 30.2934 8.49609 30.7785C8.77266 30.9391 9.075 31.0152 9.37383 31.0152C9.98086 31.0152 10.5715 30.7 10.8973 30.1363L12.1887 27.8992C13.152 28.2906 14.1727 28.5695 15.2344 28.716V31.2988C15.2344 32.2691 16.0219 33.0566 16.9922 33.0566C17.9625 33.0566 18.75 32.2691 18.75 31.2988ZM9.96094 16.0645C9.96094 12.1879 13.1156 9.0332 16.9922 9.0332C20.8688 9.0332 24.0234 12.1879 24.0234 16.0645C24.0234 19.941 20.8688 23.0957 16.9922 23.0957C13.1156 23.0957 9.96094 19.941 9.96094 16.0645ZM57.1875 19.4629H55.7215C55.4971 18.361 55.0618 17.3128 54.4395 16.3762L55.4789 15.3379C56.1656 14.6512 56.1656 13.5379 55.4789 12.8512C54.7922 12.1645 53.6789 12.1645 52.9934 12.8512L51.9539 13.8906C51.0316 13.2789 49.9875 12.8359 48.8672 12.6086V11.1426C48.8672 10.1723 48.0797 9.38477 47.1094 9.38477C46.1391 9.38477 45.3516 10.1723 45.3516 11.1426V12.6086C44.2496 12.8329 43.2015 13.2683 42.2648 13.8906L41.2254 12.8512C40.5398 12.1645 39.4266 12.1645 38.7398 12.8512C38.0531 13.5379 38.0531 14.6512 38.7398 15.3379L39.7793 16.3762C39.1676 17.2984 38.7246 18.3426 38.4973 19.4629H37.0312C36.0609 19.4629 35.2734 20.2504 35.2734 21.2207C35.2734 22.191 36.0609 22.9785 37.0312 22.9785H38.4973C38.7216 24.0805 39.157 25.1286 39.7793 26.0652L38.7398 27.1035C38.0531 27.7902 38.0531 28.9035 38.7398 29.5902C39.0832 29.9336 39.5332 30.1047 39.9832 30.1047C40.4332 30.1047 40.8832 29.9336 41.2254 29.5902L42.2648 28.5508C43.1871 29.1625 44.2312 29.6055 45.3516 29.8328V31.2988C45.3516 32.2691 46.1391 33.0566 47.1094 33.0566C48.0797 33.0566 48.8672 32.2691 48.8672 31.2988V29.8328C49.9691 29.6085 51.0173 29.1731 51.9539 28.5508L52.9934 29.5902C53.3355 29.9336 53.7855 30.1047 54.2355 30.1047C54.6855 30.1047 55.1355 29.9336 55.4789 29.5902C56.1656 28.9035 56.1656 27.7902 55.4789 27.1035L54.4395 26.0652C55.0512 25.143 55.4941 24.0988 55.7215 22.9785H57.1875C58.1578 22.9785 58.9453 22.191 58.9453 21.2207C58.9453 20.2504 58.1578 19.4629 57.1875 19.4629ZM47.1094 22.9785C46.1391 22.9785 45.3516 22.191 45.3516 21.2207C45.3516 20.2504 46.1391 19.4629 47.1094 19.4629C48.0797 19.4629 48.8672 20.2504 48.8672 21.2207C48.8672 22.191 48.0797 22.9785 47.1094 22.9785ZM36.5965 45.1914C35.2113 46.6832 33.3645 47.7391 31.2844 48.1328V51.5207C31.2844 52.491 30.498 53.2785 29.5266 53.2785C29.509 53.2785 29.4902 53.2785 29.4727 53.2773C28.527 53.2492 27.7688 52.4734 27.7688 51.5207V48.1516C25.6453 47.7754 23.7586 46.709 22.3488 45.1914C19.3934 47.3535 17.577 50.8328 17.577 54.5793V57.3145C17.577 58.2848 18.3645 59.0723 19.3348 59.0723H39.6105C40.5809 59.0723 41.3684 58.2848 41.3684 57.3145V54.5793C41.3684 50.8328 39.552 47.3535 36.5965 45.1914ZM23.257 38.5693C23.257 41.9972 26.0447 44.7859 29.4727 44.7859C32.9006 44.7859 35.6884 41.9972 35.6884 38.5693C35.6884 35.1422 32.9006 32.3535 29.4727 32.3535C26.0447 32.3535 23.257 35.1422 23.257 38.5693Z" fill="#FF8D1E"/>
</svg>
