<svg width="44" height="50" viewBox="0 0 44 50" fill="none" xmlns="http://www.w3.org/2000/svg">
<path d="M0 23.517V24.9829C9.09936e-05 25.3015 0.103936 25.6115 0.295833 25.8659C0.48773 26.1203 0.757243 26.3053 1.06362 26.3929C1.49018 26.5146 11.6409 29.3804 21.9877 29.3804C32.3345 29.3804 42.4852 26.5146 42.9118 26.3929C43.2181 26.3053 43.4876 26.1203 43.6795 25.8659C43.8714 25.6115 43.9753 25.3015 43.9754 24.9829V23.517C43.9754 22.7068 43.3197 22.0512 42.5095 22.0512H1.46585C0.655624 22.0512 0 22.7068 0 23.517ZM39.5778 35.2438C40.3881 35.2438 41.0437 34.5882 41.0437 33.7779V29.8922C38.9621 30.3835 35.8291 31.0408 32.1776 31.5493C31.8086 36.8737 27.4043 41.1072 21.9877 41.1072C16.5711 41.1072 12.1668 36.8737 11.7978 31.5493C8.14551 31.0407 5.0129 30.3831 2.93169 29.892V33.7779C2.93169 34.5882 3.58732 35.2438 4.39754 35.2438H6.47611C6.81677 36.442 7.29923 37.5972 7.91908 38.6965L6.44034 40.1753C5.86778 40.7479 5.86778 41.6755 6.44034 42.2481L10.5859 46.3937C11.1585 46.9663 12.0862 46.9663 12.6588 46.3937L14.1375 44.915C15.2369 45.5348 16.3921 46.0172 17.5902 46.3579V48.5342C17.5902 49.3445 18.2459 50.0001 19.0561 50.0001H24.9195C25.7297 50.0001 26.3853 49.3445 26.3853 48.5342V46.3579C27.5835 46.0173 28.7387 45.5348 29.8381 44.915L31.3168 46.3937C31.8894 46.9663 32.8171 46.9663 33.3896 46.3937L37.5352 42.2481C38.1078 41.6755 38.1078 40.7479 37.5352 40.1753L36.0565 38.6965C36.6763 37.5972 37.1587 36.442 37.4995 35.2438H39.5778ZM19.6587 16.0575C18.9204 16.3916 18.0507 16.061 17.7204 15.3246L13.1444 5.08069C7.91273 7.83365 4.15557 13.0576 3.2144 19.1195H40.761C39.8198 13.0576 36.0626 7.83355 30.8309 5.08069L26.255 15.3246C25.9245 16.0614 25.0543 16.3913 24.3167 16.0575C23.5795 15.7255 23.2503 14.858 23.5838 14.1193L28.649 2.78899C29.0131 1.98141 28.5941 0.996554 27.7391 0.764852C23.9725 -0.255017 20.0024 -0.25495 16.2358 0.765048C15.3808 0.996749 14.9618 1.9816 15.3259 2.78919L20.3916 14.1193C20.7251 14.858 20.3973 15.7255 19.6587 16.0575Z" fill="#FF8D1E"/>
</svg>
