<svg width="46" height="51" viewBox="0 0 46 51" fill="none" xmlns="http://www.w3.org/2000/svg">
<path fill-rule="evenodd" clip-rule="evenodd" d="M4.30431 22.608C4.76087 21.9973 3.48629 19.6876 2.85629 18.8015C2.56982 18.3977 1.857 18.0345 1.96556 17.4333C2.48144 14.5715 4.94328 16.7507 6.25478 15.9346C7.88295 14.9209 8.01836 12.8355 8.9684 11.4369C9.38246 10.8272 10.6828 9.96939 10.8775 9.27168C11.1024 8.46499 9.63982 7.73124 9.39252 7.02917C8.88783 5.58999 9.36903 3.77437 9.16984 3.1475C8.91581 2.34359 7.96577 2.07492 8.04745 1.11134C8.18173 -0.464702 11.1292 -0.0833542 12.0312 0.544648C12.8469 1.11266 14.2871 2.28496 15.1409 2.62905C16.2308 3.06906 17.4204 1.25444 18.3984 1.95977C20.1967 3.25673 17.539 4.59083 17.6364 5.84669C17.6722 6.3121 18.3592 7.36343 18.1836 7.75397C17.8747 8.44395 16.8877 8.59054 16.6304 9.34755C16.2488 10.4763 19.2668 11.4524 19.7871 12.0456C20.4395 12.7913 19.1034 13.7737 18.9635 14.5126C18.9468 14.6051 20.1911 15.2025 20.2996 15.2873C20.9308 15.7807 21.5239 16.664 22.2758 16.9697C23.33 17.3977 24.44 16.9429 25.5165 17.0883C27.0675 17.2974 28.9139 19.3617 30.5253 18.2965C31.4608 17.6782 30.1146 15.7361 31.0076 15.4274C33.127 14.6946 32.704 16.9758 33.4538 17.3837C33.5366 17.4289 36.6743 17.046 36.9921 16.9382C37.3155 16.8282 37.0682 16.041 37.2786 15.7251C37.8325 14.8895 38.8843 13.5479 39.7908 13.0515C41.1012 12.3348 44.8779 13.4646 45.1017 15.1838C45.1699 15.7017 44.2546 15.7871 43.9133 15.985C43.0158 16.5058 41.6831 17.7519 41.3015 18.7111C41.1235 19.1599 41.6528 19.7856 41.7312 20.2448C41.8073 20.7016 41.3608 21.6216 41.1526 22.0324C40.7923 22.7408 39.4976 22.0931 39.1988 23.1985C38.8911 24.3323 40.5875 25.4218 39.7695 26.4995C39.4596 26.9071 38.5308 25.2025 38.4043 24.8796C38.3539 24.7505 38.3707 24.7833 38.3338 24.687C38.317 24.6429 38.3002 24.5992 38.2823 24.5557C38.2667 24.5168 38.2454 24.4601 38.2174 24.429C37.8772 24.0539 36.3699 24.9763 36.0633 24.1537C35.5228 22.7032 36.0376 22.2499 36.5523 21.0143C36.6508 20.777 36.0454 20.9257 35.7903 20.8941C35.2878 20.8319 34.7764 20.8337 34.2919 20.6761C33.2333 20.3319 32.7767 18.4116 31.7506 19.6018C30.5096 21.0411 33.5914 24.8097 32.629 26.3825C31.9542 27.4871 30.4525 27.3677 29.5909 28.1866C29.1321 28.6218 29.4521 29.2052 29.0056 29.6868C28.5748 30.1511 27.9616 30.3652 27.524 30.8333C25.7504 32.7311 24.1267 34.7526 22.3306 36.6078C21.3 37.6723 19.683 37.6041 18.8147 38.9534C18.4778 39.4768 19.3876 41.2195 19.3451 42.0198C19.3014 42.8558 18.7039 43.7057 18.5987 44.5685C18.5326 45.1111 18.9545 46.0012 18.7419 46.467C18.2987 47.4355 16.7724 48.1269 16.0216 48.8347C15.396 49.424 14.9887 50.7908 13.8708 50.6015C11.8196 50.2536 12.0557 46.7521 11.4369 45.2727C11.1135 44.5012 10.4175 43.8966 10.0415 43.126C9.46407 41.9392 9.58382 40.57 9.07914 39.3726C8.46703 37.9212 7.47894 36.7466 7.15442 35.1765C6.62738 32.6196 7.40622 30.6334 7.03805 28.289C7.02125 28.1809 6.81983 27.4733 6.64973 27.4521C6.04097 27.3761 5.3069 28.515 4.78769 28.7477C3.98087 29.1089 2.16471 27.8616 1.58729 27.4387C0.563357 26.6882 0.526438 26.4274 1.27173 25.4004C1.49217 25.0973 0.153802 24.1967 0.0027284 24.0302C-0.0140476 24.0115 0.0519765 23.8764 0.0530925 23.8755C0.282484 23.4089 1.49327 22.7743 1.97112 22.5026C2.54966 22.1736 3.61164 22.8082 4.30431 22.608Z" fill="#FF8D1E"/>
</svg>
