<svg width="57" height="53" viewBox="0 0 57 53" fill="none" xmlns="http://www.w3.org/2000/svg">
<path d="M38.4375 37.9743V32.7768C37.2939 32.6721 36.21 32.219 35.3322 31.4786C34.4544 30.7383 33.8249 29.7464 33.5287 28.6368L32.8125 29.3493V34.2243C32.814 35.4671 33.3083 36.6585 34.1871 37.5373C35.0658 38.416 36.2573 38.9104 37.5 38.9118C37.7486 38.9118 37.9871 38.8131 38.1629 38.6373C38.3387 38.4614 38.4375 38.223 38.4375 37.9743Z" fill="#FF8D1E"/>
<path d="M20.6348 25.68C20.811 25.5916 21.0105 25.561 21.2051 25.5924C21.3996 25.6239 21.5793 25.7159 21.7186 25.8553L23.437 27.5737V26.7244C23.4357 26.1088 23.5556 25.499 23.7899 24.9298C24.0242 24.3605 24.3684 23.843 24.8027 23.4068C25.6798 22.5258 26.871 22.0293 28.1142 22.0266C29.3574 22.0238 30.5508 22.5151 31.4318 23.3922C32.3128 24.2694 32.8093 25.4605 32.812 26.7038L33.6605 25.8553C33.7996 25.7146 33.9796 25.6215 34.1748 25.5894C34.37 25.5572 34.5704 25.5876 34.7472 25.6763C34.9241 25.7649 35.0684 25.9072 35.1595 26.0829C35.2505 26.2585 35.2837 26.4584 35.2542 26.6541C35.144 27.4329 35.2815 28.2268 35.6472 28.9232C36.013 29.6196 36.5885 30.1834 37.2924 30.5348C37.9962 30.8861 38.7927 31.0072 39.5691 30.8809C40.3456 30.7547 41.0626 30.3875 41.6189 29.8312C42.1751 29.275 42.5423 28.5579 42.6686 27.7814C42.7949 27.005 42.6737 26.2085 42.3224 25.5047C41.9711 24.8009 41.4073 24.2254 40.7109 23.8596C40.0144 23.4938 39.2206 23.3563 38.4417 23.4666C38.2461 23.496 38.0462 23.4629 37.8705 23.3718C37.6949 23.2807 37.5526 23.1364 37.4639 22.9596C37.3753 22.7827 37.3449 22.5823 37.377 22.3871C37.4092 22.1919 37.5023 22.0119 37.643 21.8728L43.6083 15.8981L39.4064 11.6972C39.0186 12.5092 38.4416 13.2164 37.7239 13.7592C37.0062 14.3021 36.1687 14.6648 35.2818 14.817C34.3948 14.9692 33.4844 14.9063 32.6267 14.6338C31.7691 14.3612 30.9894 13.8868 30.3531 13.2505C29.7168 12.6142 29.2424 11.8345 28.9698 10.9769C28.6973 10.1192 28.6344 9.20875 28.7866 8.32181C28.9388 7.43488 29.3015 6.59741 29.8444 5.8797C30.3872 5.16199 31.0944 4.58501 31.9064 4.19719L27.6933 0L21.7186 5.96531C21.5795 6.10601 21.3995 6.19909 21.2043 6.23125C21.0091 6.26341 20.8087 6.23299 20.6318 6.14435C20.455 6.05571 20.3107 5.91339 20.2196 5.73776C20.1285 5.56213 20.0954 5.36219 20.1248 5.16656C20.2067 4.5914 20.1537 4.00509 19.9702 3.45388C19.7867 2.90268 19.4776 2.40165 19.0673 1.99031C18.3526 1.30941 17.4033 0.929598 16.4161 0.929598C15.4289 0.929598 14.4796 1.30941 13.7648 1.99031C13.2106 2.54711 12.8452 3.26392 12.7202 4.03956C12.5953 4.81521 12.7171 5.6105 13.0685 6.31318C13.4199 7.01586 13.9831 7.59043 14.6786 7.95578C15.3742 8.32113 16.1669 8.45881 16.9448 8.34938C17.1405 8.3199 17.3404 8.35307 17.516 8.44414C17.6917 8.5352 17.834 8.6795 17.9226 8.85636C18.0113 9.03323 18.0417 9.2336 18.0095 9.42881C17.9774 9.62401 17.8843 9.80404 17.7436 9.94313L11.7773 15.9056L17.7445 21.8803C17.8853 22.0194 17.9785 22.1996 18.0107 22.3949C18.0428 22.5902 18.0123 22.7907 17.9235 22.9676C17.8348 23.1446 17.6923 23.2889 17.5165 23.3798C17.3406 23.4708 17.1406 23.5038 16.9448 23.4741C16.166 23.3638 15.3721 23.5013 14.6757 23.8671C13.9793 24.2329 13.4155 24.8084 13.0642 25.5122C12.7128 26.216 12.5917 27.0125 12.718 27.7889C12.8442 28.5654 13.2115 29.2825 13.7677 29.8387C14.3239 30.395 15.041 30.7622 15.8175 30.8884C16.5939 31.0147 17.3904 30.8936 18.0942 30.5423C18.798 30.1909 19.3736 29.6271 19.7393 28.9307C20.1051 28.2343 20.2426 27.4404 20.1323 26.6616C20.1016 26.4658 20.1337 26.2654 20.224 26.0891C20.3143 25.9127 20.4581 25.7695 20.6348 25.68Z" fill="#FF8D1E"/>
<path d="M31.2338 50.2847L32.1713 48.4097C32.6249 47.4981 32.861 46.4937 32.861 45.4754C32.861 44.4571 32.6249 43.4527 32.1713 42.541L31.8281 41.8529C31.2438 40.6804 30.939 39.3885 30.9375 38.0785V26.7244C30.9375 25.9785 30.6412 25.2631 30.1137 24.7357C29.5863 24.2082 28.8709 23.9119 28.125 23.9119C27.3791 23.9119 26.6637 24.2082 26.1363 24.7357C25.6088 25.2631 25.3125 25.9785 25.3125 26.7244V39.8494C25.3125 40.0981 25.2137 40.3365 25.0379 40.5123C24.8621 40.6882 24.6236 40.7869 24.375 40.7869C24.1264 40.7869 23.8879 40.6882 23.7121 40.5123C23.5363 40.3365 23.4375 40.0981 23.4375 39.8494V30.2251L21.8494 28.6379C21.5298 29.8332 20.8242 30.8895 19.8425 31.6426C18.8607 32.3957 17.6576 32.8033 16.4203 32.8022C16.3209 32.8022 16.2244 32.7929 16.1259 32.7882L13.8328 39.3882C13.6435 39.7933 13.5523 40.2373 13.5667 40.6843C13.581 41.1312 13.7004 41.5685 13.9153 41.9607C13.9322 41.991 13.9473 42.0223 13.9603 42.0544L17.25 49.8394C17.6183 50.5269 17.8115 51.2945 17.8125 52.0744V52.9744H30.9375V51.5419C30.9379 51.1056 31.0393 50.6753 31.2338 50.2847ZM55.3125 17.3494H49.6875C49.4389 17.3494 49.2004 17.2507 49.0246 17.0748C48.8488 16.899 48.75 16.6606 48.75 16.4119C48.75 16.1633 48.8488 15.9248 49.0246 15.749C49.2004 15.5732 49.4389 15.4744 49.6875 15.4744H55.3125C55.5611 15.4744 55.7996 15.5732 55.9754 15.749C56.1512 15.9248 56.25 16.1633 56.25 16.4119C56.25 16.6606 56.1512 16.899 55.9754 17.0748C55.7996 17.2507 55.5611 17.3494 55.3125 17.3494ZM48.6741 6.56818C48.4677 6.56817 48.2671 6.50007 48.1034 6.37444C47.9397 6.24881 47.822 6.07266 47.7685 5.87333C47.7151 5.67399 47.729 5.4626 47.808 5.27194C47.8869 5.08128 48.0266 4.922 48.2053 4.81881L53.0803 2.00631C53.2955 1.88395 53.5504 1.85168 53.7893 1.91654C54.0282 1.98141 54.2318 2.13814 54.3556 2.35253C54.4794 2.56693 54.5133 2.82158 54.45 3.06092C54.3868 3.30026 54.2314 3.50485 54.0178 3.63006L49.1428 6.44256C49.0004 6.52518 48.8387 6.56853 48.6741 6.56818ZM53.5444 30.9432C53.3798 30.9435 53.218 30.9002 53.0756 30.8176L48.2006 28.0051C48.0931 27.9439 47.9988 27.8622 47.9231 27.7645C47.8473 27.6668 47.7916 27.555 47.7592 27.4357C47.7268 27.3164 47.7184 27.1918 47.7343 27.0692C47.7502 26.9466 47.7903 26.8284 47.8521 26.7213C47.9139 26.6142 47.9963 26.5205 48.0945 26.4453C48.1927 26.3702 48.3048 26.3153 48.4244 26.2837C48.5439 26.2521 48.6685 26.2445 48.791 26.2612C48.9135 26.278 49.0315 26.3188 49.1381 26.3813L54.0131 29.1938C54.1918 29.297 54.3315 29.4563 54.4105 29.6469C54.4894 29.8376 54.5033 30.049 54.4499 30.2483C54.3965 30.4477 54.2788 30.6238 54.1151 30.7494C53.9513 30.8751 53.7507 30.9432 53.5444 30.9432ZM6.5625 17.3494H0.9375C0.68886 17.3494 0.450403 17.2507 0.274587 17.0748C0.098772 16.899 0 16.6606 0 16.4119C0 16.1633 0.098772 15.9248 0.274587 15.749C0.450403 15.5732 0.68886 15.4744 0.9375 15.4744H6.5625C6.81114 15.4744 7.0496 15.5732 7.22541 15.749C7.40123 15.9248 7.5 16.1633 7.5 16.4119C7.5 16.6606 7.40123 16.899 7.22541 17.0748C7.0496 17.2507 6.81114 17.3494 6.5625 17.3494ZM7.57594 6.56818C7.41132 6.56853 7.24957 6.52518 7.10719 6.44256L2.23219 3.63006C2.01862 3.50485 1.86324 3.30026 1.79996 3.06092C1.73669 2.82158 1.77065 2.56693 1.89443 2.35253C2.01821 2.13814 2.22177 1.98141 2.46069 1.91654C2.6996 1.85168 2.95448 1.88395 3.16969 2.00631L8.04469 4.81881C8.2234 4.922 8.36307 5.08128 8.44204 5.27194C8.52101 5.4626 8.53486 5.67399 8.48145 5.87333C8.42804 6.07266 8.31035 6.24881 8.14663 6.37444C7.9829 6.50007 7.78231 6.56817 7.57594 6.56818ZM2.70563 30.9432C2.49926 30.9432 2.29866 30.8751 2.13494 30.7494C1.97122 30.6238 1.85352 30.4477 1.80011 30.2483C1.7467 30.049 1.76055 29.8376 1.83952 29.6469C1.91849 29.4563 2.05816 29.297 2.23688 29.1938L7.11188 26.3813C7.21854 26.3188 7.33651 26.278 7.45901 26.2612C7.58151 26.2445 7.70611 26.2521 7.82564 26.2837C7.94517 26.3153 8.05727 26.3702 8.15548 26.4453C8.25369 26.5205 8.33608 26.6142 8.3979 26.7213C8.45972 26.8284 8.49975 26.9466 8.51569 27.0692C8.53163 27.1918 8.52315 27.3164 8.49076 27.4357C8.45837 27.555 8.40269 27.6668 8.32694 27.7645C8.25119 27.8622 8.15686 27.9439 8.04938 28.0051L3.17438 30.8176C3.032 30.9002 2.87024 30.9435 2.70563 30.9432Z" fill="#FF8D1E"/>
</svg>
