<svg width="50" height="50" viewBox="0 0 50 50" fill="none" xmlns="http://www.w3.org/2000/svg">
<path d="M15.6255 10.9375V10.1562C15.6255 9.94905 15.7078 9.75034 15.8543 9.60382C16.0009 9.45731 16.1996 9.375 16.4068 9.375H19.5318C19.739 9.375 19.9377 9.45731 20.0842 9.60382C20.2307 9.75034 20.313 9.94905 20.313 10.1562V10.9375H29.688V10.1562C29.688 9.94905 29.7703 9.75034 29.9168 9.60382C30.0634 9.45731 30.2621 9.375 30.4693 9.375H33.5943C33.8015 9.375 34.0002 9.45731 34.1467 9.60382C34.2932 9.75034 34.3755 9.94905 34.3755 10.1562V10.9375C35.2043 10.9375 35.9992 10.6083 36.5852 10.0222C37.1713 9.43616 37.5005 8.6413 37.5005 7.8125V6.25C37.5005 5.6284 37.2536 5.03226 36.8141 4.59272C36.3745 4.15318 35.7784 3.90625 35.1568 3.90625H29.688V2.34375C29.688 1.72215 29.4411 1.12601 29.0016 0.686468C28.562 0.24693 27.9659 0 27.3443 0L22.6568 0C22.0352 0 21.439 0.24693 20.9995 0.686468C20.56 1.12601 20.313 1.72215 20.313 2.34375V3.90625H14.8443C14.2227 3.90625 13.6265 4.15318 13.187 4.59272C12.7475 5.03226 12.5005 5.6284 12.5005 6.25V7.8125C12.5005 8.6413 12.8298 9.43616 13.4158 10.0222C14.0019 10.6083 14.7967 10.9375 15.6255 10.9375ZM21.8755 2.34375C21.8755 2.13655 21.9578 1.93784 22.1043 1.79132C22.2509 1.64481 22.4496 1.5625 22.6568 1.5625H27.3443C27.5515 1.5625 27.7502 1.64481 27.8967 1.79132C28.0432 1.93784 28.1255 2.13655 28.1255 2.34375V3.90625H21.8755V2.34375ZM31.2505 10.9375H32.813V12.5H31.2505V10.9375ZM17.188 10.9375H18.7505V12.5H17.188V10.9375ZM18.1255 37.5297C17.7927 37.1333 17.3161 36.8852 16.8005 36.8399C16.2848 36.7946 15.7723 36.9559 15.3755 37.2883L11.1833 40.8039C10.7863 41.1362 10.5375 41.6125 10.4915 42.1281C10.4455 42.6438 10.6061 43.1566 10.938 43.5539C11.2709 43.9503 11.7474 44.1984 12.2631 44.2437C12.7787 44.289 13.2912 44.1277 13.688 43.7953L17.8794 40.2797C18.2766 39.9475 18.5255 39.4713 18.5717 38.9556C18.6178 38.44 18.4574 37.9271 18.1255 37.5297ZM27.5458 43.8984C27.213 43.502 26.7364 43.2539 26.2208 43.2086C25.7052 43.1634 25.1926 43.3247 24.7958 43.657L21.8013 46.1719C21.4046 46.5047 21.1564 46.9815 21.1111 47.4973C21.0659 48.0131 21.2273 48.5258 21.5599 48.9227C21.8927 49.3193 22.3695 49.5676 22.8853 49.6128C23.4011 49.6581 23.9138 49.4967 24.3107 49.1641L27.3044 46.6531C27.5014 46.4883 27.6639 46.2862 27.7827 46.0584C27.9015 45.8307 27.9741 45.5817 27.9966 45.3259C28.019 45.07 27.9907 44.8122 27.9134 44.5673C27.836 44.3223 27.7111 44.095 27.5458 43.8984ZM14.9654 35.5898C15.362 35.257 15.6103 34.7803 15.6555 34.2644C15.7008 33.7486 15.5394 33.2359 15.2068 32.8391C14.8738 32.4425 14.397 32.1944 13.8812 32.1493C13.3654 32.1042 12.8527 32.2657 12.456 32.5984L8.86224 35.6109C8.4657 35.9439 8.2176 36.4207 8.17247 36.9365C8.12735 37.4523 8.28891 37.965 8.62162 38.3617C8.95445 38.7581 9.43103 39.0062 9.94666 39.0515C10.4623 39.0968 10.9748 38.9355 11.3716 38.6031L14.9654 35.5898ZM22.2357 41.2156C21.9027 40.8191 21.4259 40.571 20.9101 40.5259C20.3943 40.4807 19.8817 40.6423 19.4849 40.975L16.4904 43.4852C16.1075 43.822 15.8717 44.2953 15.8331 44.8038C15.7946 45.3123 15.9565 45.8157 16.2841 46.2064C16.6118 46.5972 17.0793 46.8442 17.5868 46.8949C18.0942 46.9455 18.6013 46.7956 18.9997 46.4773L21.9943 43.9672C22.3912 43.6343 22.6396 43.1574 22.6848 42.6414C22.7301 42.1254 22.5685 41.6125 22.2357 41.2156ZM28.3091 47.8469L26.0037 49.7789C26.3495 49.9623 26.7427 50.0367 27.1316 49.9925C27.5205 49.9482 27.8869 49.7874 28.1827 49.5311C28.4785 49.2747 28.6899 48.9349 28.789 48.5562C28.8881 48.1775 28.8703 47.7778 28.738 47.4094C28.6081 47.5674 28.4645 47.7138 28.3091 47.8469Z" fill="#FF8D1E"/>
<path d="M3.00435 16.0884L0.0138609 33.0137C-0.0612118 33.4386 0.222372 33.8439 0.647263 33.919L2.95527 34.3268C3.38016 34.4019 3.78546 34.1183 3.86053 33.6934L6.85102 16.7681C6.92609 16.3432 6.64251 15.9379 6.21761 15.8628L3.90961 15.455C3.48472 15.3799 3.07942 15.6635 3.00435 16.0884Z" fill="#FF8D1E"/>
<path d="M40.9375 35.3313L33.2172 30.2211C31.6614 30.5479 30.0456 30.4368 28.5492 29.9C26.6593 29.2287 25.087 27.878 24.1383 26.111L21.6328 26.6204L20.6531 28.1047C20.0805 28.9676 19.189 29.5682 18.1742 29.7747C17.1594 29.9812 16.1041 29.7768 15.2398 29.2063C14.5494 28.7482 14.0688 28.0349 13.9036 27.2229C13.7384 26.4109 13.902 25.5665 14.3586 24.875L17.1211 20.7032C17.5421 20.065 18.1418 19.565 18.8453 19.2657L23.0031 17.493C21.8085 16.9897 20.4977 16.8275 19.2164 17.0243L10.3961 18.3727L8.21484 17.9883L5.46875 33.5422L6.11406 33.6555C6.3816 34.25 6.70548 34.8174 7.08125 35.35C7.28244 34.9949 7.5442 34.6776 7.85469 34.4125L11.4484 31.3985C12.0398 30.8984 12.7802 30.6084 13.5539 30.5737C14.3276 30.539 15.091 30.7617 15.7248 31.2068C16.3586 31.652 16.827 32.2946 17.0569 33.0341C17.2867 33.7737 17.2651 34.5686 16.9953 35.2946C17.8992 35.3871 18.7314 35.8285 19.315 36.525C19.8986 37.2215 20.1875 38.1181 20.1203 39.0243C20.5989 38.9352 21.0909 38.9475 21.5644 39.0602C22.038 39.173 22.4827 39.3837 22.8698 39.6789C23.2569 39.9741 23.5779 40.3471 23.812 40.774C24.0461 41.2008 24.1881 41.672 24.2289 42.1571C24.7907 41.8092 25.4396 41.6279 26.1004 41.6341C26.7611 41.6403 27.4065 41.8337 27.9617 42.192C28.5169 42.5503 28.959 43.0587 29.2369 43.6582C29.5147 44.2577 29.6168 44.9238 29.5312 45.579L30.1453 45.9844C30.5772 46.2651 31.1025 46.3637 31.6069 46.2589C32.1112 46.1541 32.5537 45.8543 32.838 45.4248C33.1224 44.9953 33.2256 44.4709 33.1251 43.9657C33.0246 43.4605 32.7286 43.0154 32.3016 42.7274L27.4148 39.493C27.3234 39.4393 27.2438 39.3676 27.1809 39.2822C27.118 39.1968 27.0732 39.0994 27.0492 38.9961C27.0252 38.8928 27.0225 38.7857 27.0412 38.6813C27.0599 38.5769 27.0997 38.4774 27.1581 38.3889C27.2165 38.3004 27.2923 38.2246 27.381 38.1664C27.4696 38.1081 27.5691 38.0685 27.6736 38.05C27.778 38.0314 27.8851 38.0343 27.9884 38.0585C28.0916 38.0827 28.1889 38.1277 28.2742 38.1907L34.4633 42.2868C34.6771 42.431 34.9173 42.5314 35.1702 42.5823C35.423 42.6331 35.6834 42.6334 35.9364 42.5831C36.1893 42.5328 36.4298 42.4329 36.6439 42.2892C36.858 42.1454 37.0416 41.9607 37.1839 41.7457C37.3263 41.5306 37.4247 41.2895 37.4734 41.0363C37.5221 40.783 37.5201 40.5226 37.4676 40.2701C37.4152 40.0176 37.3132 39.778 37.1676 39.5651C37.0221 39.3522 36.8358 39.1703 36.6195 39.0297L30.4297 34.9329C30.3391 34.8787 30.2605 34.8068 30.1985 34.7214C30.1365 34.6361 30.0924 34.5391 30.069 34.4362C30.0455 34.3334 30.0431 34.2268 30.0619 34.123C30.0807 34.0192 30.1203 33.9203 30.1784 33.8322C30.2365 33.7442 30.3118 33.6688 30.3998 33.6106C30.4878 33.5524 30.5867 33.5127 30.6905 33.4938C30.7943 33.4748 30.9008 33.4771 31.0037 33.5005C31.1066 33.5239 31.2036 33.5678 31.2891 33.6297L38.7805 38.5891C39.2125 38.875 39.7404 38.9777 40.2481 38.8744C40.7557 38.7711 41.2016 38.4703 41.4875 38.0383C41.7734 37.6063 41.876 37.0784 41.7728 36.5707C41.6695 36.0631 41.3687 35.6172 40.9367 35.3313H40.9375Z" fill="#FF8D1E"/>
<path d="M46.1017 15.4371L43.7937 15.8449C43.3689 15.92 43.0853 16.3253 43.1603 16.7502L46.1508 33.6755C46.2259 34.1004 46.6312 34.384 47.0561 34.3089L49.3641 33.9011C49.789 33.826 50.0726 33.4207 49.9975 32.9959L47.007 16.0705C46.9319 15.6456 46.5266 15.362 46.1017 15.4371Z" fill="#FF8D1E"/>
<path d="M39.6031 18.3687L30.7813 17.0203C29.488 16.8228 28.1652 16.99 26.9617 17.5031L19.4586 20.7031C19.0372 20.8827 18.6774 21.1813 18.4234 21.5625L15.6641 25.7336C15.5508 25.9047 15.4723 26.0965 15.4331 26.2979C15.394 26.4994 15.3949 26.7066 15.4358 26.9077C15.4767 27.1088 15.5568 27.2999 15.6716 27.47C15.7864 27.6401 15.9335 27.786 16.1047 27.8992C16.623 28.2422 17.2563 28.3652 17.8654 28.2413C18.4744 28.1173 19.0093 27.7565 19.3523 27.2383L20.6898 25.218L24.4211 24.4586C24.5916 24.4218 24.7695 24.444 24.9257 24.5217C25.0818 24.5993 25.2069 24.7278 25.2805 24.8859C25.6352 25.7069 26.1559 26.4455 26.8099 27.0555C27.4638 27.6655 28.2369 28.1336 29.0805 28.4305C30.5045 28.9409 32.0553 28.9784 33.5023 28.5375C34.1306 28.3453 34.7287 28.0654 35.2789 27.7063V27.7016L35.9375 27.2789C36.0235 27.223 36.1197 27.1846 36.2206 27.1658C36.3215 27.1471 36.4251 27.1484 36.5254 27.1697C36.6258 27.191 36.721 27.2318 36.8056 27.2899C36.8901 27.348 36.9624 27.4222 37.0184 27.5082C37.0743 27.5942 37.1127 27.6904 37.1314 27.7913C37.1502 27.8922 37.1489 27.9958 37.1276 28.0961C37.1063 28.1965 37.0654 28.2917 37.0073 28.3763C36.9493 28.4608 36.8751 28.5332 36.7891 28.5891L36.1336 29.0148C35.8013 29.2305 35.4547 29.4232 35.0961 29.5914L41.8 34.0289C42.2838 34.3537 42.678 34.7951 42.9461 35.3125C43.3094 34.7918 43.6232 34.2384 43.8836 33.6594L44.5312 33.5422L41.7852 17.9844L39.6031 18.3687ZM20.2797 15.3773C21.4378 15.376 22.5842 15.6099 23.6492 16.0648L25 16.6406L26.3508 16.0648C27.4158 15.6099 28.5622 15.376 29.7203 15.3773C30.155 15.3777 30.589 15.4106 31.0187 15.4758L37.5 16.4664V11.2969C36.6432 12.071 35.5297 12.4997 34.375 12.5V13.2812C34.375 13.4885 34.2927 13.6872 34.1462 13.8337C33.9997 13.9802 33.801 14.0625 33.5938 14.0625H30.4688C30.2615 14.0625 30.0628 13.9802 29.9163 13.8337C29.7698 13.6872 29.6875 13.4885 29.6875 13.2812V12.5H20.3125V13.2812C20.3125 13.4885 20.2302 13.6872 20.0837 13.8337C19.9372 13.9802 19.7385 14.0625 19.5312 14.0625H16.4062C16.199 14.0625 16.0003 13.9802 15.8538 13.8337C15.7073 13.6872 15.625 13.4885 15.625 13.2812V12.5C14.4703 12.4997 13.3568 12.071 12.5 11.2969V16.4664L18.9844 15.4766C19.413 15.4109 19.846 15.3777 20.2797 15.3773Z" fill="#FF8D1E"/>
</svg>
