<svg width="48" height="48" viewBox="0 0 48 48" fill="none" xmlns="http://www.w3.org/2000/svg">
<path d="M33.5295 47.5H36.3235V44.706H33.53L33.5295 47.5ZM16.765 47.5H19.559V44.706H16.7645L16.765 47.5ZM22.353 47.5H25.147V44.706H22.353V47.5ZM44.706 0V2.794H47.5V0H44.706ZM44.706 8.3825H47.5V5.588H44.706V8.3825ZM11.1765 47.5H13.9705V44.706H11.1765V47.5ZM0 41.912H2.794V39.1175H0V41.912ZM0 47.5H2.794V44.706H0V47.5ZM0 36.3235H2.794V33.53H0V36.3235ZM5.588 47.5H8.3825V44.706H5.588V47.5ZM27.941 47.5H30.7355V44.706H27.941V47.5ZM44.706 30.735H47.5V27.941H44.706V30.735ZM44.706 25.147H47.5V22.353H44.706V25.147ZM44.706 19.559H47.5V16.7645H44.706V19.559ZM44.706 36.3235H47.5V33.53H44.706V36.3235ZM33.5295 2.794H36.3235V0H33.53L33.5295 2.794ZM44.706 13.9705H47.5V11.1765H44.706V13.9705ZM39.1175 47.5H41.912V44.706H39.1175V47.5ZM39.1175 2.794H41.912V0H39.1175V2.794ZM44.706 41.912H47.5V39.1175H44.706V41.912ZM44.706 47.5H47.5V44.706H44.706V47.5ZM30.735 3.096V27.639C30.735 28.4601 30.4088 29.2476 29.8282 29.8282C29.2476 30.4088 28.4601 30.735 27.639 30.735H3.096C2.27489 30.735 1.48741 30.4088 0.906797 29.8282C0.326185 29.2476 0 28.4601 0 27.639V3.096C0 2.27489 0.326185 1.48741 0.906797 0.906797C1.48741 0.326185 2.27489 0 3.096 0H27.639C28.4601 0 29.2476 0.326185 29.8282 0.906797C30.4088 1.48741 30.735 2.27489 30.735 3.096Z" fill="#FF8D1E"/>
</svg>
