<svg width="47" height="29" viewBox="0 0 47 29" fill="none" xmlns="http://www.w3.org/2000/svg">
<path d="M21.0485 23.3651L19.2532 25.8693V25.8701L19.045 26.1616C18.7799 26.5327 18.4071 26.7648 17.9348 26.7182C17.6941 26.6945 17.4424 26.5951 17.2446 26.4584C17.0469 26.3216 16.8673 26.1235 16.7632 25.9093C16.5696 25.5107 16.6475 25.1062 16.8834 24.7497V24.7465L19.6379 20.9039L19.6393 20.9026C19.9041 20.5407 20.2736 20.3148 20.7394 20.3605C20.98 20.3841 21.2308 20.4833 21.4286 20.62C21.6264 20.7568 21.8063 20.9553 21.9101 21.1697C22.1137 21.5895 22.0171 22.0137 21.7519 22.3837L21.0485 23.3651ZM18.7714 19.9245C19.0361 19.5545 19.1326 19.1304 18.9293 18.7107C18.8255 18.4965 18.6457 18.2976 18.4479 18.1612C18.25 18.0247 17.9991 17.9256 17.7584 17.902C17.2863 17.8557 16.9134 18.0878 16.6479 18.4584L15.9375 19.45H15.8389V19.5859L13.9372 22.2398L13.3629 23.0417C13.0969 23.4132 13.0057 23.8301 13.2044 24.251C13.4112 24.6889 13.8907 25.0202 14.3805 25.063C14.851 25.1041 15.2198 24.8794 15.4858 24.5084L15.8709 23.9713L18.5801 20.1917L18.7714 19.9245ZM11.8302 2.2495L8.09891 0.13488C7.94342 0.0466452 7.76699 0.00016096 7.58739 0.000103459C7.49531 0.000103459 7.40461 0.0121108 7.3157 0.0354019C7.04897 0.105171 6.82453 0.271728 6.68637 0.506398L0.137705 11.6385C-0.14685 12.1223 0.0241152 12.7455 0.51676 13.0247L4.24803 15.1394C4.36567 15.2059 4.49558 15.249 4.63026 15.266C4.76493 15.2831 4.90172 15.2738 5.03272 15.2387C5.29808 15.1686 5.52294 15.0016 5.66058 14.7678L12.2092 3.63578C12.4942 3.15122 12.3237 2.5292 11.8302 2.2495ZM14.8649 18.8374V18.7562C15.1006 18.3996 15.1777 17.9953 14.9838 17.597C14.8797 17.3832 14.6998 17.1847 14.502 17.0484C14.3042 16.912 14.0531 16.8131 13.8127 16.7896C13.3408 16.7434 12.9679 16.9752 12.7025 17.3456L10.7649 20.0496C10.4999 20.4196 10.4031 20.8436 10.6067 21.2635C10.7109 21.4781 10.8901 21.6754 11.088 21.8126C11.285 21.9493 11.5371 22.0484 11.7768 22.072C12.2421 22.1179 12.6115 21.8932 12.8764 21.5318L12.8778 21.5304L14.7897 18.8629L14.8649 18.8374ZM46.0428 11.6385L39.4941 0.506398C39.3562 0.271935 39.1313 0.105482 38.865 0.0354019C38.7763 0.0120051 38.6849 0.000103678 38.5931 0C38.4127 0 38.2378 0.0462709 38.0816 0.134777L34.3498 2.24939C34.2323 2.31597 34.1294 2.40469 34.0469 2.51044C33.9645 2.6162 33.9042 2.73691 33.8695 2.86562C33.8339 2.99422 33.8245 3.12846 33.842 3.26061C33.8594 3.39276 33.9033 3.52023 33.9711 3.63568L40.5193 14.7677C40.6572 15.0022 40.8818 15.1688 41.1479 15.2387C41.2787 15.2736 41.4154 15.2828 41.5499 15.2658C41.6844 15.2487 41.8142 15.2058 41.9317 15.1394L45.6634 13.0252C46.1568 12.7459 46.3274 12.1225 46.0428 11.6385ZM22.0695 24.1706L22.0228 24.193L20.3406 26.5422L20.3348 26.5925C20.2707 27.1443 20.6609 27.6478 21.1531 27.8718C21.76 28.148 22.3295 27.9768 22.7148 27.4391L23.6866 26.0831C24.072 25.5453 24.0426 24.9632 23.5732 24.4961C23.1908 24.1159 22.5798 23.9253 22.0695 24.1706ZM33.0937 4.96109C31.5195 5.39699 29.905 5.58291 28.2711 5.53332C27.0122 5.49513 25.7855 5.31729 24.5573 5.05187C23.6499 4.85592 22.6814 4.71286 21.7697 4.96295C21.0725 5.15415 20.4772 5.55092 19.9235 5.99676C19.5624 6.28754 19.2172 6.60036 18.8788 6.91598C18.451 7.31503 18.031 7.72268 17.6105 8.12908C17.2835 8.4455 16.9557 8.76109 16.6271 9.07584L16.5699 9.13049L16.3581 13.4977C16.3485 13.6958 16.3615 14.0378 16.5555 14.1579C16.7224 14.2612 16.9972 14.2371 17.1817 14.2038C17.533 14.1403 17.8889 13.9904 18.2017 13.8246C18.8883 13.4607 19.4573 12.1804 19.7805 11.5024C19.9352 11.1781 20.0898 10.8523 20.2608 10.5358C20.3268 10.4141 20.4316 10.317 20.5592 10.2593C20.7128 10.1895 20.866 10.1189 21.0188 10.0474C21.7874 9.68958 22.5961 9.31092 23.4438 9.18028C24.2506 9.05596 24.9895 9.17914 25.6992 9.58234L35.8328 15.3401L38.5689 13.9689L33.2451 4.91927L33.0937 4.96109ZM35.4902 16.5995L25.0571 10.6717C24.827 10.541 24.5821 10.4527 24.3184 10.4153C23.8878 10.3543 23.4549 10.4375 23.0457 10.5681C22.543 10.7286 22.0463 10.9618 21.5691 11.1843C21.4993 11.2167 21.4297 11.2492 21.3599 11.2814L21.2959 11.3109L21.2645 11.3731C21.1543 11.5928 21.0467 11.8138 20.9417 12.036C20.4609 13.0442 19.8443 14.3853 18.8111 14.9327C17.9691 15.3789 16.7624 15.773 15.873 15.2237C15.6522 15.0874 15.4703 14.8973 15.34 14.6759C15.1196 14.3019 15.0571 13.8643 15.0778 13.4381L15.3012 8.82264C15.3086 8.66274 15.3778 8.51163 15.4948 8.40009C15.902 8.01304 16.3064 7.6232 16.71 7.23264C16.8781 7.06991 17.0468 6.90781 17.2151 6.74518L17.445 6.52293L12.9236 4.9378L7.49362 14.1703L10.6425 18.0315L11.6533 16.6216C12.2667 15.7659 13.2122 15.3519 14.2636 15.5896C14.4283 15.6267 14.5894 15.6793 14.7442 15.7456C14.9184 15.8201 15.0844 15.9117 15.2399 16.0189C15.5827 16.2554 15.873 16.5683 16.075 16.929L16.1793 17.1154L16.3616 17.0006C17.2417 16.4469 18.353 16.5568 19.186 17.1321C19.7881 17.548 20.2256 18.1963 20.3103 18.9215L20.3317 19.1048L20.5195 19.0975C21.1048 19.0745 21.6894 19.2616 22.1664 19.5912C23.1617 20.279 23.6011 21.4864 23.0886 22.614L22.9914 22.8277L23.222 22.8872C23.7033 23.0115 24.1376 23.2658 24.4865 23.6132C25.2916 24.4147 25.4663 25.5106 24.9229 26.5043L24.8304 26.6735L27.2364 28.0484C27.635 28.2761 28.0725 28.3345 28.4817 28.0994C28.6902 27.9797 28.8765 27.7868 28.9981 27.5817C29.1197 27.3766 29.1988 27.1226 29.2024 26.8854C29.2092 26.4203 28.9428 26.0753 28.5447 25.847L28.4973 25.8199H28.4961L25.7334 24.2416C25.4276 24.067 25.3254 23.6808 25.503 23.3811C25.5453 23.3097 25.6015 23.2472 25.6684 23.1971C25.7353 23.1471 25.8116 23.1104 25.8929 23.0893C25.9742 23.0682 26.059 23.063 26.1423 23.074C26.2257 23.085 26.306 23.112 26.3788 23.1535L29.184 24.7565C29.188 24.759 29.1921 24.7613 29.1964 24.7635L30.069 25.262C30.4678 25.4898 30.9056 25.5481 31.315 25.3129C31.5232 25.1933 31.7102 25.0001 31.8314 24.795C31.9528 24.5894 32.0318 24.3363 32.0351 24.0989C32.0417 23.6426 31.785 23.3021 31.3993 23.0739L31.3977 23.0724L27.9318 21.0914C27.6264 20.917 27.5237 20.5297 27.7013 20.2305C27.8794 19.9306 28.2717 19.8299 28.5771 20.0044L32.069 21.999H32.0698L33.1258 22.6036C33.5245 22.8318 33.9579 22.8847 34.3673 22.6549C34.7943 22.4152 35.0887 21.9175 35.0906 21.4348C35.0924 20.9709 34.8325 20.6297 34.433 20.4012L33.5408 19.8908L30.1308 17.9421C29.8253 17.7674 29.7208 17.3816 29.8989 17.0815C30.0769 16.7816 30.4704 16.6792 30.7762 16.8539L34.1862 18.8031C34.585 19.031 35.0222 19.0886 35.4311 18.8526C35.6399 18.7322 35.8243 18.54 35.9467 18.3349C36.0689 18.13 36.1482 17.8742 36.1515 17.6371C36.1579 17.1713 35.8899 16.8266 35.4902 16.5995Z" fill="#FF8D1E"/>
</svg>
