<svg width="56" height="50" viewBox="0 0 56 50" fill="none" xmlns="http://www.w3.org/2000/svg">
<path d="M51.0781 19.6875C50.8738 19.6875 50.6793 19.7236 50.4817 19.7478L44.663 8.32891C45.5157 7.44352 46.0469 6.24542 46.0469 4.92188C46.0469 2.20784 43.839 0 41.125 0C38.9889 0 37.1849 1.37572 36.5053 3.28125H19.4947C18.8151 1.37572 17.0111 0 14.875 0C12.161 0 9.95312 2.20784 9.95312 4.92188C9.95312 6.24542 10.4842 7.44352 11.337 8.32891L5.5183 19.7478C5.32066 19.7236 5.12619 19.6875 4.92188 19.6875C2.20784 19.6875 0 21.8953 0 24.6094C0 27.3234 2.20784 29.5312 4.92188 29.5312C5.12619 29.5312 5.32066 29.4952 5.5183 29.471L11.337 40.8898C10.4842 41.7752 9.95312 42.9733 9.95312 44.2969C9.95312 47.0109 12.161 49.2188 14.875 49.2188C17.0111 49.2188 18.8151 47.843 19.4947 45.9375H36.5053C37.1849 47.843 38.9889 49.2188 41.125 49.2188C43.839 49.2188 46.0469 47.0109 46.0469 44.2969C46.0469 42.9733 45.5157 41.7752 44.663 40.8898L50.4817 29.471C50.6793 29.4952 50.8738 29.5312 51.0781 29.5312C53.7922 29.5312 56 27.3234 56 24.6094C56 21.8953 53.7922 19.6875 51.0781 19.6875ZM41.125 9.84375C41.3293 9.84375 41.5238 9.80766 41.7214 9.78348L47.5385 21.1992L39.4437 18.4498C39.455 18.3146 39.4844 18.1849 39.4844 18.0469C39.4844 16.5657 38.813 15.2513 37.7746 14.3483L41.0899 9.84014C41.1019 9.84014 41.113 9.84375 41.125 9.84375ZM46.0847 24.1678L28.8177 28.4566C28.8159 28.4538 28.8147 28.4502 28.8127 28.4475L33.1045 22.7233C33.5682 22.8686 34.0516 22.9689 34.5625 22.9689C35.952 22.9689 37.2029 22.385 38.0987 21.456L46.0847 24.1678ZM36.5053 6.5625C36.7928 7.36816 37.2798 8.06991 37.9129 8.6205L34.5976 13.1286C34.5856 13.1286 34.5745 13.125 34.5626 13.125C33.4589 13.125 32.4499 13.5031 31.6282 14.119L20.2935 6.5625H36.5053ZM29.8057 16.8475C29.7081 17.2336 29.6406 17.6309 29.6406 18.0469C29.6406 19.0544 29.9471 19.9905 30.4686 20.7714L26.1767 26.4955C25.7131 26.3503 25.2296 26.25 24.7188 26.25C24.6881 26.25 24.6601 26.2584 24.6296 26.259L18.1975 9.10853L29.8057 16.8475ZM14.2787 9.78359C14.4762 9.80766 14.6707 9.84375 14.875 9.84375C14.9056 9.84375 14.9336 9.83533 14.9641 9.83478L21.5621 27.4274C21.303 27.6454 21.0671 27.8895 20.8581 28.1559L9.83456 24.5187C9.8105 23.2318 9.29261 22.067 8.45994 21.2025L14.2787 9.78359ZM16.3329 39.6205C15.8693 39.4753 15.3859 39.375 14.875 39.375C14.6707 39.375 14.4762 39.4111 14.2786 39.4353L8.45983 28.0164C8.57697 27.8947 8.67814 27.7586 8.78248 27.6255L19.8061 31.2627C19.8243 32.235 20.1193 33.1396 20.6247 33.8964L16.3329 39.6205ZM19.4947 42.6562C19.3581 42.2731 19.1913 41.9053 18.9689 41.5723L23.2608 35.8482C23.7244 35.9935 24.2079 36.0938 24.7188 36.0938C25.6697 36.0938 26.5502 35.8106 27.3036 35.3417L36.4463 42.6562H19.4947ZM41.7215 39.4352C41.5238 39.4111 41.3293 39.375 41.125 39.375C40.1741 39.375 39.2935 39.6582 38.5401 40.1271L29.3501 32.7747C29.4752 32.4142 29.555 32.0363 29.593 31.6433L46.9793 27.3246C47.1443 27.5728 47.3342 27.8025 47.5403 28.0163L41.7215 39.4352Z" fill="#FF8D1E"/>
</svg>
