<svg width="25" height="31" viewBox="0 0 25 31" fill="none" xmlns="http://www.w3.org/2000/svg">
<path d="M12.375 1.87485L13.113 0.151347C12.8798 0.0514879 12.6287 0 12.375 0C12.1213 0 11.8702 0.0514879 11.637 0.151347L12.375 1.87485ZM12.375 28.8748L11.445 30.5023C12.021 30.8323 12.729 30.8323 13.305 30.5023L12.375 28.8748ZM11.637 0.151347L2.046 4.26135L3.522 7.70835L13.113 3.59835L11.637 0.151347ZM2.06646e-07 7.36485V17.6548H3.75V7.36485H2.06646e-07ZM5.4795 27.0943L11.445 30.5038L13.305 27.2488L7.3395 23.8393L5.4795 27.0943ZM13.305 30.5038L19.2705 27.0958L17.4105 23.8408L11.445 27.2488L13.305 30.5038ZM24.75 17.6533V7.36485H21V17.6548L24.75 17.6533ZM22.704 4.26285L13.113 0.152847L11.637 3.59985L21.2265 7.70985L22.704 4.26285ZM24.75 7.36485C24.75 6.01485 23.946 4.79535 22.704 4.26285L21.2265 7.70985C21.1591 7.6808 21.1018 7.63263 21.0615 7.57131C21.0213 7.50999 20.9999 7.4382 21 7.36485H24.75ZM19.2705 27.0958C20.9351 26.1446 22.3187 24.7703 23.281 23.112C24.2433 21.4538 24.7501 19.5706 24.75 17.6533H21C21 18.9093 20.668 20.143 20.0376 21.2294C19.4073 22.3157 18.501 23.2176 17.4105 23.8408L19.2705 27.0958ZM2.06646e-07 17.6518C-6.1421e-05 19.5691 0.506733 21.4523 1.46902 23.1105C2.4313 24.7688 3.81487 26.1431 5.4795 27.0943L7.3395 23.8393C6.24883 23.216 5.34236 22.3153 4.71198 21.2287C4.0816 20.1421 3.74973 18.9081 3.75 17.6518H2.06646e-07ZM2.046 4.26135C1.43859 4.52155 0.920937 4.95434 0.55723 5.50603C0.193522 6.05773 -0.000230979 6.70405 2.06646e-07 7.36485H3.75C3.75 7.51485 3.66 7.64835 3.522 7.70835L2.046 4.26135Z" fill="#FF931E"/>
<path d="M16.875 12.3748L10.875 18.3748L7.87503 15.3748" stroke="#FF931E" stroke-width="2.5" stroke-linecap="round" stroke-linejoin="round"/>
</svg>
