<svg width="30" height="30" viewBox="0 0 30 30" fill="none" xmlns="http://www.w3.org/2000/svg">
<path d="M7.12869 11.6287H11.6287V7.12869L6.37869 1.87869C8.05813 1.0766 9.94494 0.814896 11.7793 1.12962C13.6136 1.44434 15.3053 2.32001 16.6213 3.63605C17.9374 4.95208 18.813 6.64374 19.1278 8.47809C19.4425 10.3124 19.1808 12.1992 18.3787 13.8787L27.3787 22.8787C27.9754 23.4754 28.3107 24.2848 28.3107 25.1287C28.3107 25.9726 27.9754 26.7819 27.3787 27.3787C26.7819 27.9754 25.9726 28.3107 25.1287 28.3107C24.2848 28.3107 23.4754 27.9754 22.8787 27.3787L13.8787 18.3787C12.1992 19.1808 10.3124 19.4425 8.47809 19.1278C6.64374 18.813 4.95208 17.9374 3.63605 16.6213C2.32001 15.3053 1.44434 13.6136 1.12962 11.7793C0.814896 9.94494 1.0766 8.05813 1.87869 6.37869L7.12869 11.6287Z" stroke="#FF931E" stroke-width="2" stroke-linecap="round" stroke-linejoin="round"/>
</svg>
