<svg width="34" height="34" viewBox="0 0 34 34" fill="none" xmlns="http://www.w3.org/2000/svg">
<path fill-rule="evenodd" clip-rule="evenodd" d="M27.6562 6.66804e-06C28.5337 6.66804e-06 29.247 0.713257 29.247 1.59076V4.50001H32.1562C32.4709 4.49994 32.7785 4.5932 33.0402 4.76799C33.3018 4.94278 33.5058 5.19124 33.6262 5.48196C33.7466 5.77267 33.7781 6.09257 33.7167 6.40119C33.6553 6.70981 33.5037 6.99328 33.2812 7.21576L29.9962 10.5008C29.5166 10.9793 28.867 11.2487 28.1895 11.25H24.882L16.9395 19.1925C16.6196 19.4906 16.1965 19.6529 15.7593 19.6452C15.3221 19.6374 14.905 19.4603 14.5958 19.1512C14.2866 18.842 14.1095 18.4249 14.1018 17.9877C14.0941 17.5505 14.2564 17.1274 14.5545 16.8075L22.497 8.86501V5.55751C22.497 4.88026 22.767 4.23001 23.2462 3.74851L26.5312 0.463507C26.6784 0.315099 26.8537 0.197485 27.0469 0.117522C27.24 0.0375581 27.4472 -0.0031547 27.6562 -0.00224333M3.37196 18C3.37172 16.1652 3.77948 14.3533 4.56572 12.6955C5.35195 11.0377 6.49699 9.57551 7.91792 8.41473C9.33885 7.25394 11.0001 6.42366 12.7815 5.98397C14.5628 5.54429 16.4196 5.50621 18.2175 5.87251C18.6538 5.95576 19.1053 5.86362 19.4742 5.61607C19.843 5.36852 20.0993 4.98553 20.1876 4.55018C20.2759 4.11484 20.1889 3.66225 19.9456 3.29061C19.7023 2.91897 19.3223 2.65825 18.888 2.56501C15.5707 1.89058 12.1244 2.30286 9.05989 3.74075C5.99534 5.17865 3.47561 7.56563 1.87412 10.5479C0.272626 13.5303 -0.325394 16.9492 0.168687 20.2981C0.662767 23.6469 2.22265 26.7475 4.61717 29.1403C7.01168 31.533 10.1134 33.0906 13.4626 33.5823C16.8118 34.0739 20.2303 33.4734 23.2115 31.8697C26.1926 30.266 28.5778 27.7445 30.0134 24.6789C31.4491 21.6133 31.8588 18.1668 31.182 14.85C31.0927 14.4114 30.833 14.0262 30.4597 13.7791C30.0865 13.5321 29.6304 13.4434 29.1918 13.5326C28.7532 13.6218 28.368 13.8816 28.121 14.2549C27.8739 14.6281 27.7852 15.0842 27.8745 15.5228C28.038 16.3223 28.1205 17.148 28.122 18C28.122 21.2821 26.8182 24.4297 24.4974 26.7505C22.1766 29.0712 19.029 30.375 15.747 30.375C12.4649 30.375 9.31728 29.0712 6.99651 26.7505C4.67575 24.4297 3.37196 21.2821 3.37196 18ZM15.441 12.384C15.8879 12.3601 16.3071 12.1597 16.6063 11.8268C16.9054 11.4938 17.0601 11.0557 17.0362 10.6088C17.0123 10.1618 16.8119 9.74263 16.479 9.44346C16.146 9.1443 15.7079 8.98964 15.261 9.01351C13.5328 9.10664 11.8681 9.69607 10.4664 10.7112C9.0647 11.7263 7.9854 13.124 7.35783 14.7369C6.73026 16.3498 6.58103 18.1094 6.92803 19.805C7.27502 21.5005 8.10353 23.06 9.31427 24.2967C10.525 25.5333 12.0666 26.3947 13.7545 26.7775C15.4423 27.1603 17.2046 27.0484 18.8305 26.4551C20.4563 25.8619 21.8766 24.8124 22.9211 23.4325C23.9657 22.0526 24.5902 20.4008 24.72 18.675C24.7531 18.2286 24.6075 17.7874 24.3153 17.4484C24.0231 17.1093 23.6082 16.9002 23.1618 16.8671C22.7155 16.834 22.2742 16.9796 21.9352 17.2718C21.5962 17.564 21.3871 17.9789 21.354 18.4253C21.2719 19.5033 20.8809 20.5349 20.2277 21.3965C19.5745 22.2581 18.6869 22.9132 17.671 23.2833C16.6552 23.6535 15.5542 23.7231 14.4998 23.4837C13.4455 23.2443 12.4825 22.7062 11.726 21.9336C10.9696 21.1611 10.4519 20.187 10.2348 19.1278C10.0177 18.0686 10.1104 16.9693 10.5019 15.9615C10.8934 14.9537 11.567 14.0801 12.4422 13.4452C13.3173 12.8103 14.3569 12.4411 15.4365 12.3818" fill="#FF931E"/>
</svg>
