<svg width="32" height="32" viewBox="0 0 32 32" fill="none" xmlns="http://www.w3.org/2000/svg">
<path d="M16 13.25C16.5177 13.25 16.9375 12.8302 16.9375 12.3125V10.3142L17.77 9.75919C17.8984 9.67358 18.0037 9.55758 18.0766 9.4215C18.1494 9.28543 18.1875 9.13347 18.1875 8.97913V7.625H13.8125V8.97913C13.8125 9.29256 13.9692 9.58531 14.23 9.75919L15.0625 10.3142V12.3125C15.0625 12.8302 15.4823 13.25 16 13.25ZM12.25 5.75H19.75C20.6129 5.75 21.3125 5.05044 21.3125 4.1875V2.9375C21.3125 2.07456 20.6129 1.375 19.75 1.375H12.25C11.3871 1.375 10.6875 2.07456 10.6875 2.9375V4.1875C10.6875 5.05044 11.3871 5.75 12.25 5.75ZM2.5 31.0625C2.5 31.5802 2.91975 32 3.4375 32H28.5625C29.0802 32 29.5 31.5802 29.5 31.0625V29.5H2.5V31.0625ZM6.875 4.5H8.8125V2.625H6.875V2.1875C6.875 0.979375 5.89563 0 4.6875 0C3.47937 0 2.5 0.979375 2.5 2.1875V17.625H6.875V4.5ZM25.125 17.625H29.5V2.1875C29.5 0.979375 28.5206 0 27.3125 0C26.1044 0 25.125 0.979375 25.125 2.1875V2.625H23.1875V4.5H25.125V17.625ZM22.5625 16.0625C22.5625 15.5448 22.1427 15.125 21.625 15.125H10.375C9.85725 15.125 9.4375 15.5448 9.4375 16.0625V17.625H22.5625V16.0625ZM29.8125 19.5H2.1875C0.979375 19.5 0 20.4794 0 21.6875V25.4375C0 26.6456 0.979375 27.625 2.1875 27.625H29.8125C31.0206 27.625 32 26.6456 32 25.4375V21.6875C32 20.4794 31.0206 19.5 29.8125 19.5ZM4.6875 24.5C4.16975 24.5 3.75 24.0802 3.75 23.5625C3.75 23.0448 4.16975 22.625 4.6875 22.625C5.20525 22.625 5.625 23.0448 5.625 23.5625C5.625 24.0802 5.20525 24.5 4.6875 24.5ZM8.4375 24.5C7.91975 24.5 7.5 24.0802 7.5 23.5625C7.5 23.0448 7.91975 22.625 8.4375 22.625C8.95525 22.625 9.375 23.0448 9.375 23.5625C9.375 24.0802 8.95525 24.5 8.4375 24.5ZM12.1875 24.5C11.6698 24.5 11.25 24.0802 11.25 23.5625C11.25 23.0448 11.6698 22.625 12.1875 22.625C12.7052 22.625 13.125 23.0448 13.125 23.5625C13.125 24.0802 12.7052 24.5 12.1875 24.5ZM27.3125 24.1875H22.3125C21.7948 24.1875 21.375 23.7677 21.375 23.25C21.375 22.7323 21.7948 22.3125 22.3125 22.3125H27.3125C27.8302 22.3125 28.25 22.7323 28.25 23.25C28.25 23.7677 27.8302 24.1875 27.3125 24.1875Z" fill="#FF8D1E"/>
</svg>
