<svg width="31" height="32" viewBox="0 0 31 32" fill="none" xmlns="http://www.w3.org/2000/svg">
<path fill-rule="evenodd" clip-rule="evenodd" d="M10.0013 32C9.88878 32 9.7763 31.9438 9.70132 31.8688L2.48398 24.6514C2.39025 24.5765 2.31526 24.464 2.31526 24.3327C2.31526 24.239 2.33401 24.164 2.3715 24.1078V24.089C2.39025 24.0516 2.40899 24.0328 2.44649 23.9953C2.54022 23.9016 2.6527 23.8641 2.76517 23.8641L12.6632 23.4892C12.8132 23.4892 12.9444 23.5454 13.0194 23.6579C13.1132 23.7704 13.1506 23.9016 13.1132 24.0328L12.6632 25.8699C13.5256 26.1136 14.4629 26.2449 15.3065 26.2449C21.2303 26.2449 26.0669 21.4271 26.0669 15.5032C26.0669 9.59813 21.2303 4.81781 15.3065 4.81781C10.0762 4.81781 5.52089 8.73579 4.75229 13.9285C4.73354 13.966 4.73354 14.0035 4.71479 14.041C4.63981 14.2097 4.48984 14.3035 4.32112 14.3035H4.24613C4.22739 14.3035 4.1899 14.2847 4.17115 14.2847L0.365642 13.2349C0.309403 13.2349 0.253164 13.2162 0.215672 13.1787C0.0469545 13.0849 -0.0280309 12.8787 0.00946182 12.6913C0.0282082 12.6725 0.0282082 12.6538 0.0282082 12.635C1.41544 5.30521 7.82668 0 15.3065 0C23.8548 0 30.8097 6.95489 30.8097 15.5032C30.8097 19.6649 29.1975 23.5641 26.2731 26.5073C23.3487 29.4318 19.4494 31.0627 15.3065 31.0627C13.8068 31.0627 12.4008 30.8752 11.1448 30.519L10.3762 31.775C10.3199 31.8875 10.1887 31.9813 10.0575 31.9813C10.0388 32 10.02 32 10.0013 32Z" fill="#FF8D1E"/>
<path fill-rule="evenodd" clip-rule="evenodd" d="M16.8062 23.5641H13.9381C13.6943 23.5641 13.5069 23.3579 13.5069 23.1142V22.2143C13.0195 22.1018 12.5321 21.8769 12.0634 21.6144L11.426 22.2518C11.2573 22.4205 10.9949 22.4205 10.8262 22.2518L8.76406 20.246C8.67033 20.171 8.63284 20.0585 8.63284 19.946C8.63284 19.8148 8.67033 19.7023 8.74531 19.6273L9.38269 18.99C9.13899 18.54 8.95152 18.0714 8.80155 17.5652H7.93922C7.69552 17.5652 7.50806 17.3778 7.50806 17.1341V14.2471C7.50806 14.0034 7.69552 13.816 7.93922 13.816H8.80155C8.97027 13.2536 9.15773 12.7662 9.38269 12.335L8.76406 11.7539C8.67033 11.6789 8.63284 11.5664 8.63284 11.4539C8.63284 11.3227 8.67033 11.2102 8.74531 11.1352L10.8074 9.07314C10.9761 8.90443 11.2573 8.90443 11.426 9.07314L12.0634 9.69177C12.4571 9.46682 12.9445 9.27935 13.4881 9.11064V8.2483C13.4881 8.0046 13.6943 7.81714 13.9381 7.81714H16.8062C17.0499 7.81714 17.2374 8.0046 17.2374 8.2483V9.11064C17.7998 9.27935 18.2685 9.46682 18.6809 9.69177L19.2995 9.0544C19.3932 8.97941 19.5057 8.92317 19.6182 8.94192C19.7307 8.94192 19.8431 8.97941 19.9369 9.07314L21.924 11.1352C22.0177 11.2102 22.0552 11.3227 22.0552 11.4539C22.0552 11.5664 21.999 11.6789 21.924 11.7539L21.3054 12.335C21.5866 12.8412 21.7928 13.3286 21.9052 13.816H22.8051C23.0488 13.816 23.255 14.0034 23.255 14.2471V17.1153C23.255 17.359 23.0488 17.5652 22.8051 17.5652H21.9052C21.774 18.0901 21.5303 18.5588 21.3054 18.99L21.9427 19.6273C22.1115 19.796 22.1115 20.0772 21.9427 20.246L19.9369 22.2518C19.7682 22.4205 19.487 22.4205 19.3182 22.2518L18.6809 21.6144C18.231 21.8769 17.7248 22.1018 17.2562 22.2143V23.1142C17.2562 23.3579 17.0499 23.5641 16.8062 23.5641ZM15.3815 20.246C12.8508 20.246 10.8074 18.2026 10.8074 15.6906C10.8074 14.4533 11.2761 13.2911 12.1384 12.41C12.982 11.5477 14.1443 11.0603 15.3815 11.0603C17.8935 11.0603 19.9369 13.1411 19.9369 15.6906C19.9369 16.8904 19.4495 18.0339 18.5871 18.8962C17.7248 19.7586 16.5813 20.246 15.3815 20.246ZM15.3815 11.9413C13.3007 11.9413 11.6885 13.591 11.6885 15.6906C11.6885 17.7152 13.3382 19.3649 15.3815 19.3649C17.3686 19.3649 19.0558 17.6777 19.0558 15.6906C19.0558 13.6098 17.4061 11.9413 15.3815 11.9413Z" fill="#FF8D1E"/>
</svg>
