<svg width="30" height="23" viewBox="0 0 30 23" fill="none" xmlns="http://www.w3.org/2000/svg">
<path fill-rule="evenodd" clip-rule="evenodd" d="M18.8048 3.00527H11.1774C10.9841 3.00527 10.8259 2.8471 10.8259 2.65378V1.49385C10.8259 0.667838 11.5113 0 12.3374 0H17.6449C18.4885 0 19.1563 0.667838 19.1563 1.49385V2.65378C19.1563 2.8471 18.9982 3.00527 18.8048 3.00527ZM11.5289 2.30228H18.4533V1.49385C18.4533 1.05448 18.1018 0.702988 17.6449 0.702988H12.3374C11.898 0.702988 11.5289 1.05448 11.5289 1.49385V2.30228Z" fill="#FF8D1E"/>
<path fill-rule="evenodd" clip-rule="evenodd" d="M27.2935 18.8049H2.7065C1.21265 18.8049 0 17.5922 0 16.0984V16.0281H30V16.0984C30 17.5922 28.7873 18.8049 27.2935 18.8049ZM24.4288 14.4288H21.406C20.9315 14.4288 20.5624 14.0421 20.5624 13.5676V7.53951C20.5624 7.06499 20.9315 6.69592 21.406 6.69592H24.4288C24.8858 6.69592 25.2724 7.06499 25.2724 7.53951V13.5676C25.2724 14.0421 24.8858 14.4288 24.4288 14.4288ZM21.406 7.39891C21.3357 7.39891 21.2654 7.46921 21.2654 7.53951V13.5676C21.2654 13.6555 21.3357 13.7258 21.406 13.7258H24.4288C24.4991 13.7258 24.5694 13.6555 24.5694 13.5676V7.53951C24.5694 7.46921 24.4991 7.39891 24.4288 7.39891H21.406ZM8.57645 14.4288H5.57118C5.09666 14.4288 4.71002 14.0421 4.71002 13.5676V11.0544C4.71002 10.8787 4.78032 10.7029 4.88576 10.5624C4.78032 10.4218 4.71002 10.246 4.71002 10.0527V7.53951C4.71002 7.06499 5.09666 6.69592 5.57118 6.69592H8.57645C9.05097 6.69592 9.43761 7.06499 9.43761 7.53951V10.0527C9.43761 10.246 9.38489 10.4218 9.27944 10.5624C9.38489 10.7029 9.43761 10.8787 9.43761 11.0544V13.5676C9.43761 14.0421 9.05097 14.4288 8.57645 14.4288ZM5.57118 10.9138C5.4833 10.9138 5.41301 10.9841 5.41301 11.0544V13.5676C5.41301 13.6555 5.4833 13.7258 5.57118 13.7258H8.57645C8.66432 13.7258 8.73462 13.6555 8.73462 13.5676V11.0544C8.73462 10.9841 8.66432 10.9138 8.57645 10.9138H5.57118ZM18.4007 14.4288H15.3779C14.9209 14.4288 14.5343 14.0421 14.5343 13.5676V7.53951C14.5343 7.06499 14.9209 6.69592 15.3779 6.69592H18.4007C18.8752 6.69592 19.2443 7.06499 19.2443 7.53951V13.5676C19.2443 14.0421 18.8752 14.4288 18.4007 14.4288ZM15.3779 7.39891C15.3076 7.39891 15.2373 7.46921 15.2373 7.53951V13.5676C15.2373 13.6555 15.3076 13.7258 15.3779 13.7258H18.4007C18.471 13.7258 18.5413 13.6555 18.5413 13.5676V7.53951C18.5413 7.46921 18.471 7.39891 18.4007 7.39891H15.3779ZM11.9859 10.0878C11.283 10.0878 10.703 9.50787 10.703 8.80488C10.703 8.08432 11.283 7.52193 11.9859 7.52193C12.6889 7.52193 13.2689 8.08432 13.2689 8.80488C13.2689 9.50787 12.6889 10.0878 11.9859 10.0878ZM11.9859 8.22492C11.6696 8.22492 11.406 8.48854 11.406 8.80488C11.406 9.12123 11.6696 9.38485 11.9859 9.38485C12.3023 9.38485 12.5659 9.12123 12.5659 8.80488C12.5659 8.48854 12.3023 8.22492 11.9859 8.22492ZM11.9859 13.6028C11.283 13.6028 10.703 13.0228 10.703 12.3198C10.703 11.5993 11.283 11.0369 11.9859 11.0369C12.6889 11.0369 13.2689 11.5993 13.2689 12.3198C13.2689 13.0228 12.6889 13.6028 11.9859 13.6028ZM11.9859 11.7399C11.6696 11.7399 11.406 12.0035 11.406 12.3198C11.406 12.6362 11.6696 12.8998 11.9859 12.8998C12.3023 12.8998 12.5659 12.6362 12.5659 12.3198C12.5659 12.0035 12.3023 11.7399 11.9859 11.7399ZM0 15.3251V5.78204H30V15.3251H0ZM0 5.07905V5.00875C0 3.5149 1.21265 2.30225 2.7065 2.30225H27.2935C28.7873 2.30225 30 3.5149 30 5.00875V5.07905H0ZM8.26011 22.1616H4.56942C4.3761 22.1616 4.21793 22.0035 4.21793 21.8102V19.5079H8.6116V21.8102C8.6116 22.0035 8.45343 22.1616 8.26011 22.1616ZM25.4306 22.1616H21.7399C21.5466 22.1616 21.3884 22.0035 21.3884 21.8102V19.5079H25.7821V21.8102C25.7821 22.0035 25.6239 22.1616 25.4306 22.1616Z" fill="#FF8D1E"/>
<path fill-rule="evenodd" clip-rule="evenodd" d="M8.7347 10.0527V7.53952C8.7347 7.46922 8.6644 7.39893 8.57653 7.39893H5.57126C5.48338 7.39893 5.41309 7.46922 5.41309 7.53952V10.0527C5.41309 10.1406 5.48338 10.2109 5.57126 10.2109H8.57653C8.6644 10.2109 8.7347 10.1406 8.7347 10.0527Z" fill="#FF8D1E"/>
</svg>
