<svg width="27" height="32" viewBox="0 0 27 32" fill="none" xmlns="http://www.w3.org/2000/svg">
<path d="M14.4095 15.8969C14.4095 15.5454 14.1234 15.2594 13.7717 15.2594H12.5434C12.1917 15.2594 11.9056 15.5454 11.9056 15.8969C11.9056 16.7546 11.2077 17.4522 10.3497 17.4522H4.62344C5.62331 20.3083 7.21437 22.4416 9.17656 23.6513C13.6496 26.2765 19.2541 24.4149 21.6916 17.4522H15.9654C15.1075 17.4522 14.4095 16.7546 14.4095 15.8969ZM18.1315 24.1602C15.0626 26.2524 11.4301 26.3488 8.18281 24.1701C8.001 26.6275 6.99275 28.9277 5.23812 30.6956C4.75912 31.1782 5.10594 31.9999 5.78587 31.9999H20.5286C21.2078 31.9999 21.5562 31.1786 21.0777 30.6968C19.3012 28.9076 18.3091 26.5915 18.1315 24.1602ZM21.1377 8.50737H20.4173V9.52763H21.1377C21.4191 9.52763 21.6479 9.29875 21.6479 9.0175C21.6479 8.73619 21.4191 8.50737 21.1377 8.50737ZM21.8079 6.04381H4.50725C3.052 6.04381 1.86813 7.22731 1.86813 8.68206V13.8399C1.86813 15.2946 3.05206 16.4781 4.50725 16.4781H10.3497C10.6703 16.4781 10.9311 16.2174 10.9311 15.897C10.9311 15.0083 11.6543 14.2853 12.5434 14.2853H13.7717C14.6608 14.2853 15.3841 15.0083 15.3841 15.897C15.3841 16.2174 15.6449 16.4781 15.9654 16.4781H21.8079C23.2632 16.4781 24.4471 15.2946 24.4471 13.8399V8.68206C24.447 7.22737 23.2631 6.04381 21.8079 6.04381ZM3.67456 12.6556C3.67455 12.7191 3.66205 12.7819 3.63777 12.8405C3.61349 12.8991 3.57791 12.9523 3.53305 12.9971C3.48819 13.042 3.43494 13.0776 3.37634 13.1018C3.31774 13.1261 3.25493 13.1386 3.1915 13.1386C3.12807 13.1386 3.06526 13.1261 3.00665 13.1018C2.94804 13.0776 2.89479 13.042 2.84993 12.9972C2.80507 12.9523 2.76949 12.8991 2.74521 12.8405C2.72093 12.7819 2.70844 12.7191 2.70844 12.6556V11.8948C2.70844 11.6281 2.92469 11.4119 3.1915 11.4119C3.45831 11.4119 3.67456 11.6281 3.67456 11.8948V12.6556ZM4.79412 7.81869C3.96781 7.81869 3.67463 8.42156 3.67463 8.93775V10.3503C3.67462 10.4137 3.66212 10.4765 3.63783 10.5351C3.61355 10.5937 3.57797 10.647 3.53311 10.6918C3.48826 10.7367 3.43501 10.7722 3.3764 10.7965C3.3178 10.8208 3.25499 10.8333 3.19156 10.8333C3.12813 10.8333 3.06532 10.8208 3.00671 10.7965C2.9481 10.7723 2.89485 10.7367 2.84999 10.6918C2.80514 10.647 2.76955 10.5938 2.74527 10.5352C2.721 10.4766 2.7085 10.4137 2.7085 10.3503V8.93775C2.7085 7.72969 3.58563 6.85288 4.79419 6.85288C4.85807 6.85215 4.92145 6.86411 4.98068 6.88806C5.0399 6.912 5.09379 6.94746 5.13921 6.99238C5.18464 7.0373 5.2207 7.09078 5.24531 7.14973C5.26992 7.20868 5.28259 7.27193 5.28259 7.33581C5.28258 7.3997 5.2699 7.46294 5.24529 7.52189C5.22067 7.58084 5.1846 7.63432 5.13917 7.67923C5.09374 7.72414 5.03985 7.75959 4.98062 7.78353C4.92139 7.80747 4.858 7.81942 4.79412 7.81869ZM18.8784 8.23281L17.447 11.694C17.2977 12.0551 16.7345 12.0703 16.5789 11.694L15.1475 8.23281C15.0537 8.00606 15.1616 7.74625 15.3884 7.65256C15.6152 7.55888 15.8752 7.66663 15.9689 7.89337L17.0129 10.4179L18.0569 7.89337C18.102 7.78447 18.1885 7.69792 18.2973 7.65276C18.4062 7.6076 18.5285 7.60753 18.6374 7.65256C18.6914 7.67482 18.7404 7.70749 18.7817 7.7487C18.823 7.78992 18.8558 7.83887 18.8782 7.89276C18.9005 7.94664 18.9121 8.00441 18.9121 8.06276C18.9121 8.12111 18.9007 8.1789 18.8784 8.23281ZM22.3374 11.9283C22.239 11.9932 22.1189 12.0165 22.0034 11.9929C21.888 11.9693 21.7866 11.9009 21.7216 11.8026L20.8051 10.4161H20.4172V11.5576C20.4172 11.803 20.2183 12.0019 19.9728 12.0019C19.7274 12.0019 19.5284 11.803 19.5284 11.5576V8.06306C19.5284 7.94522 19.5752 7.83221 19.6586 7.7489C19.7419 7.66559 19.855 7.6188 19.9728 7.61881H21.1376C22.5996 7.61881 23.0815 9.59694 21.7702 10.2644L22.4631 11.3127C22.4953 11.3614 22.5176 11.4159 22.5287 11.4732C22.5398 11.5305 22.5395 11.5894 22.5278 11.6466C22.5161 11.7037 22.4933 11.758 22.4606 11.8064C22.4279 11.8547 22.3861 11.8961 22.3374 11.9283ZM13.1576 0C9.15125 0 6.16194 1.79306 4.658 5.06969H21.6571C20.1532 1.79306 17.1639 0 13.1576 0ZM0 9.69337V12.8285C0 13.0837 0.208812 13.2926 0.464062 13.2926H1.18287V9.22931H0.464125C0.208875 9.22931 0 9.43819 0 9.69337ZM25.851 9.22931H25.1322V13.2926H25.851C26.1063 13.2926 26.3151 13.0837 26.3151 12.8285V9.69337C26.3151 9.43819 26.1063 9.22931 25.851 9.22931Z" fill="#FF8D1E"/>
</svg>
