<svg width="32" height="21" viewBox="0 0 32 21" fill="none" xmlns="http://www.w3.org/2000/svg">
<path d="M3.61293 0L0 4.8171V12.0857L3.61293 10.3226V0ZM27.6558 7.09681L4.12903 0V10.1935L13.7074 11.2981L22.9161 9.42456C22.9321 9.42099 22.9481 9.42564 22.9646 9.42564C22.9812 9.42564 22.9976 9.42045 23.0147 9.42359L27.8457 10.318L27.6558 7.09681ZM8.77417 3.13963L13.4193 4.42994V4.99921L8.77417 3.82035V3.13963ZM13.4194 7.26866L8.77422 6.47281V4.35308L13.4194 5.53193V7.26866ZM12.5806 11.4622L3.93548 10.559L0.387104 12.1719L6.94606 12.6235L12.5806 11.4622Z" fill="#FF8D1E"/>
<path d="M23.2258 9.98755V20.4831L30.0986 19.6557H30.4516V19.6134L32 19.4271V11.6123L27.8767 10.8485L23.2258 9.98755ZM24.2581 12.5146V12.4516L27.1826 12.8521L27.3549 12.8753V19.5143L24.2581 19.8922V12.5146ZM31.4839 19.0105L30.4516 19.1365V13.2991L31.4839 13.4405V19.0105ZM29.9355 19.1994L27.871 19.4513V12.946L29.9355 13.2289V19.1994ZM5.67749 13.458V18.3953L10.8387 19.0276V14.7954L13.4194 14.4944V19.344L22.7097 20.4826V9.99273L15.3595 11.4885L5.67749 13.458Z" fill="#FF8D1E"/>
</svg>
