<svg width="30" height="32" viewBox="0 0 30 32" fill="none" xmlns="http://www.w3.org/2000/svg">
<path fill-rule="evenodd" clip-rule="evenodd" d="M1.68394 13.7727L8.69444 11.6294L3.22056 7.28013L0 8.26475L1.68394 13.7727ZM1.68394 13.7727H29.8192V29.8953C29.8192 31.0529 28.8721 32 27.7144 32H3.78875C2.63113 32 1.68394 31.0528 1.68394 29.8953V13.7727ZM19.0342 22.8863L15.7516 20.9911L12.469 19.0959V26.6768L15.7516 24.7816L19.0342 22.8863ZM11.166 10.8737L5.69212 6.52444L10.9094 4.92938C12.734 6.37913 14.5588 7.82881 16.3833 9.27862L11.166 10.8737ZM18.8549 8.523L24.0722 6.92794L23.9142 6.80244L18.5984 2.57862L13.3811 4.17375L18.8549 8.523ZM26.5438 6.17225L21.0699 1.823L27.0327 0L28.7167 5.50794L26.5438 6.17225Z" fill="#FF8D1E"/>
</svg>
