<svg width="20" height="20" viewBox="0 0 20 20" fill="none" xmlns="http://www.w3.org/2000/svg">
<path d="M7.5 5C7.5 6.37979 8.62021 7.5 10 7.5C11.3798 7.5 12.5 6.37979 12.5 5C12.5 3.62021 11.3798 2.5 10 2.5C8.62021 2.5 7.5 3.62021 7.5 5V5" stroke="#FF931E" stroke-width="1.66667"/>
<path d="M2.5 15C2.5 16.3798 3.62021 17.5 5 17.5C6.37979 17.5 7.5 16.3798 7.5 15C7.5 13.6202 6.37979 12.5 5 12.5C3.62021 12.5 2.5 13.6202 2.5 15H2.5" stroke="#FF931E" stroke-width="1.66667"/>
<path d="M12.5 15C12.5 16.3798 13.6202 17.5 15 17.5C16.3798 17.5 17.5 16.3798 17.5 15C17.5 13.6202 16.3798 12.5 15 12.5C13.6202 12.5 12.5 13.6202 12.5 15V15" stroke="#FF931E" stroke-width="1.66667"/>
<path d="M10 7.5L5 12.5" stroke="#FF931E" stroke-width="1.66667"/>
<path d="M10 7.5L15 12.5" stroke="#FF931E" stroke-width="1.66667"/>
</svg>
